<svg xmlns="http://www.w3.org/2000/svg" width="137.643" height="39.544" viewBox="0 0 137.643 39.544">
  <g id="Grupo_1177793" data-name="Grupo 1177793" transform="translate(-941.396 -4658.771)">
    <path id="Trazado_1039130" data-name="Trazado 1039130" d="M7.04-11.2a2.806,2.806,0,0,0-1.028-.211q-1.336,0-1.336,1.45V-9H6.732v2.048H4.676V0H1.907V-6.952H.4V-9H1.907v-1.116a3.24,3.24,0,0,1,1-2.479,3.821,3.821,0,0,1,2.725-.94,4.785,4.785,0,0,1,1.406.176Zm3.509-1.564v3.885H8.439v-3.885Zm5.275,0v3.885H13.715v-3.885ZM23.947,2.865H21.679a11.026,11.026,0,0,1-2.839-7.69A11.731,11.731,0,0,1,21.679-12.6h2.25a12.632,12.632,0,0,0-2.663,7.778A12.216,12.216,0,0,0,23.947,2.865ZM33.959-9,30.989-4.641,33.942,0h-3.2l-1.3-2.426q-.158-.29-.378-.817h-.035a5.707,5.707,0,0,1-.36.791L27.359,0h-3.19l3.041-4.482L24.353-9H27.57l1.283,2.522a5.532,5.532,0,0,1,.36.844h.035a5.946,5.946,0,0,1,.378-.861L30.936-9ZM36.448,2.865H34.2a12.144,12.144,0,0,0,2.689-7.69A12.6,12.6,0,0,0,34.2-12.6h2.268a11.731,11.731,0,0,1,2.848,7.778A11.047,11.047,0,0,1,36.448,2.865ZM56.307-6.152H47.746v-1.8h8.561Zm0,3.814H47.746V-4.122h8.561Z" transform="translate(941 4684.095)" fill="#212429"/>
    <path id="Trazado_1039131" data-name="Trazado 1039131" d="M7.04-11.2a2.806,2.806,0,0,0-1.028-.211q-1.336,0-1.336,1.45V-9H6.732v2.048H4.676V0H1.907V-6.952H.4V-9H1.907v-1.116a3.24,3.24,0,0,1,1-2.479,3.821,3.821,0,0,1,2.725-.94,4.785,4.785,0,0,1,1.406.176Zm3.509-1.564v3.885H8.439v-3.885ZM18.672,2.865H16.4a11.026,11.026,0,0,1-2.839-7.69A11.731,11.731,0,0,1,16.4-12.6h2.25a12.632,12.632,0,0,0-2.663,7.778A12.216,12.216,0,0,0,18.672,2.865ZM28.684-9,25.713-4.641,28.667,0h-3.2l-1.3-2.426q-.158-.29-.378-.817h-.035a5.707,5.707,0,0,1-.36.791L22.084,0h-3.19l3.041-4.482L19.078-9h3.217l1.283,2.522a5.532,5.532,0,0,1,.36.844h.035a5.946,5.946,0,0,1,.378-.861L25.661-9ZM31.173,2.865h-2.25a12.144,12.144,0,0,0,2.689-7.69A12.6,12.6,0,0,0,28.923-12.6h2.268a11.731,11.731,0,0,1,2.848,7.778A11.047,11.047,0,0,1,31.173,2.865Z" transform="translate(1045 4684.095)" fill="#212429"/>
    <path id="Trazado_1039132" data-name="Trazado 1039132" d="M9.176-2.971q-.062.272-.119.659t-.105.8Q8.9-1.09,8.873-.69T8.842,0H6.029q0-.123.013-.33t.035-.426q.022-.22.044-.426t.031-.33H6.117a6.665,6.665,0,0,1-.567.7,3.671,3.671,0,0,1-.633.545,2.885,2.885,0,0,1-.734.356,2.825,2.825,0,0,1-.87.127A2.839,2.839,0,0,1,2.149-.009a2.372,2.372,0,0,1-.875-.664A2.985,2.985,0,0,1,.725-1.753,5.248,5.248,0,0,1,.536-3.226,6.584,6.584,0,0,1,.932-5.5,5.72,5.72,0,0,1,2.079-7.409,5.553,5.553,0,0,1,3.911-8.728,5.878,5.878,0,0,1,6.372-9.22q.352,0,.716.035t.593.079l.905-4.219h2.769ZM7.286-7.163a3.089,3.089,0,0,0-.444-.079,4.336,4.336,0,0,0-.47-.026,2.609,2.609,0,0,0-1.063.2,2.684,2.684,0,0,0-.8.532,3.144,3.144,0,0,0-.567.747,4.8,4.8,0,0,0-.365.844,5.075,5.075,0,0,0-.193.826,5.023,5.023,0,0,0-.057.7,2.442,2.442,0,0,0,.07.6,1.519,1.519,0,0,0,.207.479.961.961,0,0,0,.352.316,1.063,1.063,0,0,0,.505.114,1.41,1.41,0,0,0,.866-.286,2.793,2.793,0,0,0,.677-.747,5,5,0,0,0,.5-1.037,10.531,10.531,0,0,0,.334-1.156Z" transform="translate(1012.063 4672.095)" fill="#212429"/>
    <path id="Trazado_1039133" data-name="Trazado 1039133" d="M9.176-2.971q-.062.272-.119.659t-.105.8Q8.9-1.09,8.873-.69T8.842,0H6.029q0-.123.013-.33t.035-.426q.022-.22.044-.426t.031-.33H6.117a6.665,6.665,0,0,1-.567.7,3.671,3.671,0,0,1-.633.545,2.885,2.885,0,0,1-.734.356,2.825,2.825,0,0,1-.87.127A2.839,2.839,0,0,1,2.149-.009a2.372,2.372,0,0,1-.875-.664A2.985,2.985,0,0,1,.725-1.753,5.248,5.248,0,0,1,.536-3.226,6.584,6.584,0,0,1,.932-5.5,5.72,5.72,0,0,1,2.079-7.409,5.553,5.553,0,0,1,3.911-8.728,5.878,5.878,0,0,1,6.372-9.22q.352,0,.716.035t.593.079l.905-4.219h2.769ZM7.286-7.163a3.089,3.089,0,0,0-.444-.079,4.336,4.336,0,0,0-.47-.026,2.609,2.609,0,0,0-1.063.2,2.684,2.684,0,0,0-.8.532,3.144,3.144,0,0,0-.567.747,4.8,4.8,0,0,0-.365.844,5.075,5.075,0,0,0-.193.826,5.023,5.023,0,0,0-.057.7,2.442,2.442,0,0,0,.07.6,1.519,1.519,0,0,0,.207.479.961.961,0,0,0,.352.316,1.063,1.063,0,0,0,.505.114,1.41,1.41,0,0,0,.866-.286,2.793,2.793,0,0,0,.677-.747,5,5,0,0,0,.5-1.037,10.531,10.531,0,0,0,.334-1.156ZM17.527-4.518l2,4.518H16.446l-.809-2.355q-.07-.2-.132-.435t-.114-.453h-.044q-.132.22-.264.448a3.233,3.233,0,0,1-.272.4L13.027,0H9.758l4.008-4.553L11.841-9h3.094l.738,2.373a3.671,3.671,0,0,1,.149.5q.062.268.088.444h.035q.105-.193.281-.453t.316-.453L18.3-9h3.155Z" transform="translate(1007.063 4698.095)" fill="#212429"/>
    <path id="Trazado_1038783" data-name="Trazado 1038783" d="M2526.533,1495h36.338" transform="translate(-1526.533 3185.095)" fill="none" stroke="#212429" stroke-width="1"/>
  </g>
</svg>
