<svg xmlns="http://www.w3.org/2000/svg" width="139.168" height="39.544" viewBox="0 0 139.168 39.544">
  <g id="Grupo_1177799" data-name="Grupo 1177799" transform="translate(-942 -1179.676)">
    <path id="Trazado_1039168" data-name="Trazado 1039168" d="M3.946,0H1.169V-13.324H3.946ZM14.978,0H12.21V-5q0-2.092-1.494-2.092a1.483,1.483,0,0,0-1.187.554,2.109,2.109,0,0,0-.466,1.406V0H6.286V-9H9.063v1.424H9.1A3.183,3.183,0,0,1,11.99-9.22q2.988,0,2.988,3.709ZM22.5,2.865H20.236A11.026,11.026,0,0,1,17.4-4.825,11.731,11.731,0,0,1,20.236-12.6h2.25a12.632,12.632,0,0,0-2.663,7.778A12.216,12.216,0,0,0,22.5,2.865ZM32.516-9,29.545-4.641,32.5,0H29.3L28-2.426q-.158-.29-.378-.817h-.035a5.707,5.707,0,0,1-.36.791L25.916,0h-3.19l3.041-4.482L22.91-9h3.217L27.41-6.478a5.532,5.532,0,0,1,.36.844h.035a5.946,5.946,0,0,1,.378-.861L29.493-9ZM35.005,2.865h-2.25a12.144,12.144,0,0,0,2.689-7.69A12.6,12.6,0,0,0,32.755-12.6h2.268A11.731,11.731,0,0,1,37.87-4.825,11.047,11.047,0,0,1,35.005,2.865ZM54.863-6.152H46.3v-1.8h8.561Zm0,3.814H46.3V-4.122h8.561ZM69.219-12.885V0H66.451V-9.756a3.315,3.315,0,0,1-.541.382,5.581,5.581,0,0,1-.664.325,5.926,5.926,0,0,1-.729.246,5.328,5.328,0,0,1-.747.145V-11a11.549,11.549,0,0,0,2.039-.809,11.6,11.6,0,0,0,1.731-1.081Zm11.234.281L74.31,2.092H71.832l6.117-14.7ZM90.106-9,87.135-4.641,90.088,0h-3.2l-1.3-2.426q-.158-.29-.378-.817h-.035a5.707,5.707,0,0,1-.36.791L83.505,0h-3.19l3.041-4.482L80.5-9h3.217L85-6.478a5.532,5.532,0,0,1,.36.844h.035a5.946,5.946,0,0,1,.378-.861L87.082-9Z" transform="translate(991.062 1204)" fill="#212429"/>
    <path id="Trazado_1039169" data-name="Trazado 1039169" d="M9.176-2.971q-.062.272-.119.659t-.105.8Q8.9-1.09,8.873-.69T8.842,0H6.029q0-.123.013-.33t.035-.426q.022-.22.044-.426t.031-.33H6.117a6.665,6.665,0,0,1-.567.7,3.671,3.671,0,0,1-.633.545,2.885,2.885,0,0,1-.734.356,2.825,2.825,0,0,1-.87.127A2.839,2.839,0,0,1,2.149-.009a2.372,2.372,0,0,1-.875-.664A2.985,2.985,0,0,1,.725-1.753,5.248,5.248,0,0,1,.536-3.226,6.584,6.584,0,0,1,.932-5.5,5.72,5.72,0,0,1,2.079-7.409,5.553,5.553,0,0,1,3.911-8.728,5.878,5.878,0,0,1,6.372-9.22q.352,0,.716.035t.593.079l.905-4.219h2.769ZM7.286-7.163a3.089,3.089,0,0,0-.444-.079,4.336,4.336,0,0,0-.47-.026,2.609,2.609,0,0,0-1.063.2,2.684,2.684,0,0,0-.8.532,3.144,3.144,0,0,0-.567.747,4.8,4.8,0,0,0-.365.844,5.075,5.075,0,0,0-.193.826,5.023,5.023,0,0,0-.057.7,2.442,2.442,0,0,0,.07.6,1.519,1.519,0,0,0,.207.479.961.961,0,0,0,.352.316,1.063,1.063,0,0,0,.505.114,1.41,1.41,0,0,0,.866-.286,2.793,2.793,0,0,0,.677-.747,5,5,0,0,0,.5-1.037,10.531,10.531,0,0,0,.334-1.156Z" transform="translate(954.062 1193)" fill="#212429"/>
    <path id="Trazado_1039170" data-name="Trazado 1039170" d="M9.176-2.971q-.062.272-.119.659t-.105.8Q8.9-1.09,8.873-.69T8.842,0H6.029q0-.123.013-.33t.035-.426q.022-.22.044-.426t.031-.33H6.117a6.665,6.665,0,0,1-.567.7,3.671,3.671,0,0,1-.633.545,2.885,2.885,0,0,1-.734.356,2.825,2.825,0,0,1-.87.127A2.839,2.839,0,0,1,2.149-.009a2.372,2.372,0,0,1-.875-.664A2.985,2.985,0,0,1,.725-1.753,5.248,5.248,0,0,1,.536-3.226,6.584,6.584,0,0,1,.932-5.5,5.72,5.72,0,0,1,2.079-7.409,5.553,5.553,0,0,1,3.911-8.728,5.878,5.878,0,0,1,6.372-9.22q.352,0,.716.035t.593.079l.905-4.219h2.769ZM7.286-7.163a3.089,3.089,0,0,0-.444-.079,4.336,4.336,0,0,0-.47-.026,2.609,2.609,0,0,0-1.063.2,2.684,2.684,0,0,0-.8.532,3.144,3.144,0,0,0-.567.747,4.8,4.8,0,0,0-.365.844,5.075,5.075,0,0,0-.193.826,5.023,5.023,0,0,0-.057.7,2.442,2.442,0,0,0,.07.6,1.519,1.519,0,0,0,.207.479.961.961,0,0,0,.352.316,1.063,1.063,0,0,0,.505.114,1.41,1.41,0,0,0,.866-.286,2.793,2.793,0,0,0,.677-.747,5,5,0,0,0,.5-1.037,10.531,10.531,0,0,0,.334-1.156ZM17.527-4.518l2,4.518H16.446l-.809-2.355q-.07-.2-.132-.435t-.114-.453h-.044q-.132.22-.264.448a3.233,3.233,0,0,1-.272.4L13.027,0H9.758l4.008-4.553L11.841-9h3.094l.738,2.373a3.671,3.671,0,0,1,.149.5q.062.268.088.444h.035q.105-.193.281-.453t.316-.453L18.3-9h3.155Z" transform="translate(949.062 1219)" fill="#212429"/>
    <path id="Trazado_1038783" data-name="Trazado 1038783" d="M2526.533,1495h36.338" transform="translate(-1584.533 -294)" fill="none" stroke="#212429" stroke-width="1"/>
  </g>
</svg>
