<svg xmlns="http://www.w3.org/2000/svg" xmlns:xlink="http://www.w3.org/1999/xlink" width="128" height="128" viewBox="0 0 128 128">
  <defs>
    <filter id="Trazado_982547" x="0" y="0" width="128" height="128" filterUnits="userSpaceOnUse">
      <feOffset dy="3" input="SourceAlpha"/>
      <feGaussianBlur stdDeviation="3" result="blur"/>
      <feFlood flood-opacity="0.161"/>
      <feComposite operator="in" in2="blur"/>
      <feComposite in="SourceGraphic"/>
    </filter>
  </defs>
  <g id="Grupo_1177698" data-name="Grupo 1177698" transform="translate(-316.5 -2994.34)">
    <g id="Grupo_1176328" data-name="Grupo 1176328" transform="translate(127.467 1008.34)">
      <g id="Grupo_1172970" data-name="Grupo 1172970" transform="translate(198.033 1992)">
        <g id="Grupo_1171971" data-name="Grupo 1171971" transform="translate(0)">
          <g id="Grupo_1167337" data-name="Grupo 1167337">
            <g id="Grupo_1166720" data-name="Grupo 1166720">
              <g id="Grupo_1164305" data-name="Grupo 1164305">
                <g id="Grupo_1163948" data-name="Grupo 1163948">
                  <g id="Grupo_1158168" data-name="Grupo 1158168">
                    <g id="Grupo_1152576" data-name="Grupo 1152576">
                      <g id="Grupo_1148633" data-name="Grupo 1148633">
                        <g id="Grupo_1148525" data-name="Grupo 1148525">
                          <g transform="matrix(1, 0, 0, 1, -9, -6)" filter="url(#Trazado_982547)">
                            <g id="Trazado_982547-2" data-name="Trazado 982547" transform="translate(9 6)" fill="#f2f7e5">
                              <path d="M 54.99999618530273 108.5 C 47.77687454223633 108.5 40.77062606811523 107.0856704711914 34.17584228515625 104.2963180541992 C 27.80527305603027 101.6017990112305 22.0836124420166 97.74404144287109 17.16978073120117 92.83020782470703 C 12.25594997406006 87.9163818359375 8.398196220397949 82.19471740722656 5.703672885894775 75.82415008544922 C 2.914319276809692 69.22937774658203 1.499996185302734 62.22311782836914 1.499996185302734 54.99999618530273 C 1.499996185302734 47.77688980102539 2.914319276809692 40.77062606811523 5.703672885894775 34.17584228515625 C 8.398196220397949 27.80528831481934 12.25594997406006 22.08362770080566 17.16978073120117 17.16979598999023 C 22.0836124420166 12.25594997406006 27.80527305603027 8.398196220397949 34.17584228515625 5.703672885894775 C 40.77062606811523 2.914319276809692 47.77688980102539 1.499996185302734 54.99999618530273 1.499996185302734 C 62.22311782836914 1.499996185302734 69.22937774658203 2.914319276809692 75.82415008544922 5.703672885894775 C 82.19471740722656 8.398196220397949 87.9163818359375 12.25594997406006 92.83020782470703 17.16979598999023 C 97.74404144287109 22.08362770080566 101.6017990112305 27.80528831481934 104.2963180541992 34.17584228515625 C 107.0856704711914 40.77062606811523 108.5 47.77688980102539 108.5 54.99999618530273 C 108.5 62.22311782836914 107.0856704711914 69.22937774658203 104.2963180541992 75.82415008544922 C 101.6017990112305 82.19471740722656 97.74404144287109 87.9163818359375 92.83020782470703 92.83020782470703 C 87.9163818359375 97.74404144287109 82.19471740722656 101.6017990112305 75.82415008544922 104.2963180541992 C 69.22937774658203 107.0856704711914 62.22311782836914 108.5 54.99999618530273 108.5 Z" stroke="none"/>
                              <path d="M 54.99999618530273 2.999992370605469 C 47.97871398925781 2.999992370605469 41.16905975341797 4.374443054199219 34.76016235351562 7.085182189941406 C 28.56839752197266 9.704078674316406 23.00699615478516 13.45389556884766 18.23044586181641 18.23044586181641 C 13.45388031005859 23.00701141357422 9.704078674316406 28.56841278076172 7.085182189941406 34.76017761230469 C 4.374443054199219 41.16905975341797 2.999992370605469 47.97872924804688 2.999992370605469 54.99999618530273 C 2.999992370605469 62.02127838134766 4.374443054199219 68.8309326171875 7.085182189941406 75.23983001708984 C 9.704078674316406 81.43159484863281 13.45388031005859 86.99299621582031 18.23044586181641 91.76954650878906 C 23.00699615478516 96.54611206054688 28.56839752197266 100.2959136962891 34.76016235351562 102.9148101806641 C 41.16905975341797 105.6255493164062 47.97871398925781 107 54.99999618530273 107 C 62.02127838134766 107 68.8309326171875 105.6255493164062 75.23983001708984 102.9148101806641 C 81.43159484863281 100.2959136962891 86.99299621582031 96.54611206054688 91.76954650878906 91.76954650878906 C 96.54611206054688 86.99299621582031 100.2959136962891 81.43159484863281 102.9148101806641 75.23983001708984 C 105.6255493164062 68.8309326171875 107 62.02127838134766 107 54.99999618530273 C 107 47.97872924804688 105.6255493164062 41.16905975341797 102.9148101806641 34.76017761230469 C 100.2959136962891 28.56841278076172 96.54611206054688 23.00701141357422 91.76954650878906 18.23044586181641 C 86.99299621582031 13.45389556884766 81.43159484863281 9.704078674316406 75.23983001708984 7.085182189941406 C 68.8309326171875 4.374443054199219 62.02127838134766 2.999992370605469 54.99999618530273 2.999992370605469 M 54.99999618530273 -7.62939453125e-06 C 85.37566375732422 -7.62939453125e-06 110 24.62434387207031 110 54.99999618530273 C 110 85.37566375732422 85.37566375732422 110 54.99999618530273 110 C 24.62432861328125 110 -7.62939453125e-06 85.37566375732422 -7.62939453125e-06 54.99999618530273 C -7.62939453125e-06 24.62434387207031 24.62432861328125 -7.62939453125e-06 54.99999618530273 -7.62939453125e-06 Z" stroke="none" fill="#86b60c"/>
                            </g>
                          </g>
                        </g>
                      </g>
                    </g>
                  </g>
                </g>
              </g>
            </g>
          </g>
        </g>
      </g>
    </g>
    <g id="mathematics_6032181" transform="translate(338.398 3019.466)">
      <g id="color" transform="translate(10.115 3.223)">
        <g id="Grupo_1176823" data-name="Grupo 1176823">
          <path id="Trazado_1035329" data-name="Trazado 1035329" d="M54.689,21.35H38.444A9.443,9.443,0,0,1,29,11.906V3H48.573A12.233,12.233,0,0,1,60.806,15.233,6.117,6.117,0,0,1,54.689,21.35Z" transform="translate(-4.533 -3)" fill="#93999a"/>
          <path id="Trazado_1035330" data-name="Trazado 1035330" d="M55.3,11.563c-9.121,0-16.515-3.56-16.515-7.951A3.944,3.944,0,0,1,38.85,3H29v8.906a9.444,9.444,0,0,0,9.443,9.444H54.689a6.117,6.117,0,0,0,6.117-6.117,12.166,12.166,0,0,0-.689-4.016A33.218,33.218,0,0,1,55.3,11.563Z" transform="translate(-4.533 -3)" fill="#656b76"/>
          <path id="Trazado_1035331" data-name="Trazado 1035331" d="M28.141,57.748l5.878-8.4L35.243,67.7H64.6V43.233h7.34V40.786A9.787,9.787,0,0,0,62.155,31H38.088a8.563,8.563,0,0,0-7.659,4.734L23.01,50.573l-4.893-11.01L12,42.01l5.089,14.249a6.276,6.276,0,0,0,11.053,1.489Z" transform="translate(-8.329 3.253)" fill="#48cae4"/>
          <path id="Trazado_1035332" data-name="Trazado 1035332" d="M67.049,42.01V40.786a2.447,2.447,0,0,0-4.893,0v7.34h-3.67A18.336,18.336,0,0,1,40.2,31H38.088a8.563,8.563,0,0,0-7.659,4.734L23.01,50.573l-4.893-11.01L12,42.01l5.089,14.249a6.276,6.276,0,0,0,11.053,1.489l5.878-8.4L35.243,67.7H64.6V43.233h2.57A6.1,6.1,0,0,1,67.049,42.01Z" transform="translate(-8.329 3.253)" fill="#00b4d8"/>
          <g id="Grupo_1176822" data-name="Grupo 1176822" transform="translate(39.147 51.379)">
            <path id="Trazado_1035333" data-name="Trazado 1035333" d="M41,45H58.126V64.573H41Z" transform="translate(-41 -45)" fill="#ff7373"/>
            <g id="Grupo_1176821" data-name="Grupo 1176821">
              <path id="Trazado_1035334" data-name="Trazado 1035334" d="M43.447,59.68V45H41V64.573H58.126V62.126H45.893A2.446,2.446,0,0,1,43.447,59.68Z" transform="translate(-41 -45)" fill="#ef5350"/>
              <path id="Trazado_1035335" data-name="Trazado 1035335" d="M42,48H57.9v9.786H42Z" transform="translate(-40.777 -44.33)" fill="#ef5350"/>
            </g>
          </g>
          <path id="Trazado_1035336" data-name="Trazado 1035336" d="M43.786,38.34l-8.563,6.117L34,31h9.786Z" transform="translate(-3.416 3.253)" fill="#00b4d8"/>
          <path id="Trazado_1035337" data-name="Trazado 1035337" d="M42,38.34l8.563,4.893L51.786,31H42Z" transform="translate(-1.63 3.253)" fill="#00b4d8"/>
          <path id="Trazado_1035338" data-name="Trazado 1035338" d="M43.935,38.34l-7.621,1.693a2.446,2.446,0,0,1-2.958-2.691L34.148,31h9.786Z" transform="translate(-3.565 3.253)" fill="#ade8f4"/>
          <path id="Trazado_1035339" data-name="Trazado 1035339" d="M42,38.34l7.621,1.693a2.446,2.446,0,0,0,2.958-2.691L51.786,31H42Z" transform="translate(-1.63 3.253)" fill="#ade8f4"/>
          <path id="Trazado_1035340" data-name="Trazado 1035340" d="M57.233,39V51.233H45v7.34H57.233a7.339,7.339,0,0,0,7.34-7.34V39Z" transform="translate(-0.96 5.039)" fill="#48cae4"/>
          <path id="Trazado_1035341" data-name="Trazado 1035341" d="M59.68,40.223V39H57.233V51.233H45v7.34H57.233a7.339,7.339,0,0,0,7.34-7.34V46.216A6.117,6.117,0,0,1,59.68,40.223Z" transform="translate(-0.96 5.039)" fill="#00b4d8"/>
          <path id="Trazado_1035342" data-name="Trazado 1035342" d="M44.01,38.34,33,40.786,34.223,31H44.01Z" transform="translate(-3.64 3.253)" fill="#ade8f4"/>
          <path id="Trazado_1035343" data-name="Trazado 1035343" d="M42,38.34l11.01,2.447L51.786,31H42Z" transform="translate(-1.63 3.253)" fill="#ade8f4"/>
          <path id="Trazado_1035344" data-name="Trazado 1035344" d="M49.233,36.233,43.117,39.9,37,36.233V24H49.233Z" transform="translate(-2.746 1.689)" fill="#f9dbaf"/>
          <path id="Trazado_1035345" data-name="Trazado 1035345" d="M42.177,33.671A11.045,11.045,0,0,0,49.233,29.7V24H37V36.233l6.117,3.67,6.117-3.67h-.006A10.966,10.966,0,0,1,42.177,33.671Z" transform="translate(-2.746 1.689)" fill="#edb88e"/>
          <path id="Trazado_1035346" data-name="Trazado 1035346" d="M12.319,34.687l3.653-.352-.339-3.523a2.538,2.538,0,0,1,1.782-2.728,2.447,2.447,0,0,1,3.075,2.129l.7,7.306a4.893,4.893,0,0,1-4.4,5.34l-2.436.235a4.893,4.893,0,0,1-5.34-4.4,3.669,3.669,0,0,1,3.3-4Z" transform="translate(-8.999 2.582)" fill="#f9dbaf"/>
          <path id="Trazado_1035347" data-name="Trazado 1035347" d="M18.785,37.771l-.47-4.871a2.446,2.446,0,0,1,2.176-2.666l0-.023a2.448,2.448,0,0,0-3.075-2.129,2.538,2.538,0,0,0-1.782,2.728l.339,3.523-3.653.352a3.672,3.672,0,0,0-3.3,4.005,4.893,4.893,0,0,0,5.34,4.4l2.436-.235a4.872,4.872,0,0,0,4-2.924,2.437,2.437,0,0,1-2-2.163Z" transform="translate(-8.999 2.582)" fill="#edb88e"/>
          <path id="Trazado_1035348" data-name="Trazado 1035348" d="M46.34,56.34H41.447A2.446,2.446,0,0,1,39,53.893V51.447A2.446,2.446,0,0,1,41.447,49H46.34Z" transform="translate(-2.3 7.272)" fill="#f9dbaf"/>
          <path id="Trazado_1035349" data-name="Trazado 1035349" d="M46.34,52.67v3.67H41.447A2.454,2.454,0,0,1,39,53.893V51.447A2.454,2.454,0,0,1,41.447,49a3.665,3.665,0,0,0,3.67,3.67Z" transform="translate(-2.3 7.272)" fill="#edb88e"/>
          <path id="Trazado_1035350" data-name="Trazado 1035350" d="M44.01,34.689A11.009,11.009,0,0,1,33,23.68V16.34a7.338,7.338,0,0,1,2.936-5.872L37.893,9A18.35,18.35,0,0,0,48.9,12.67h6.117V23.68A11.009,11.009,0,0,1,44.01,34.689Z" transform="translate(-3.64 -1.66)" fill="#ffedca"/>
          <path id="Trazado_1035351" data-name="Trazado 1035351" d="M53.447,21.117H51V15h2.447a2.446,2.446,0,0,1,2.447,2.447V18.67A2.446,2.446,0,0,1,53.447,21.117Z" transform="translate(0.38 -0.32)" fill="#f9dbaf"/>
          <path id="Trazado_1035352" data-name="Trazado 1035352" d="M33.893,21.117H31.447A2.446,2.446,0,0,1,29,18.67V17.447A2.446,2.446,0,0,1,31.447,15h2.447Z" transform="translate(-4.533 -0.32)" fill="#f9dbaf"/>
          <path id="Trazado_1035353" data-name="Trazado 1035353" d="M52.223,16.223V15H51v6.117h2.447a2.437,2.437,0,0,0,2.125-1.256A3.656,3.656,0,0,1,52.223,16.223Z" transform="translate(0.38 -0.32)" fill="#edb88e"/>
          <path id="Trazado_1035354" data-name="Trazado 1035354" d="M32.611,16.223V15h1.223v6.117H31.388a2.437,2.437,0,0,1-2.125-1.256A3.656,3.656,0,0,0,32.611,16.223Z" transform="translate(-4.474 -0.32)" fill="#edb88e"/>
          <path id="Trazado_1035355" data-name="Trazado 1035355" d="M48.9,12.67A18.35,18.35,0,0,1,37.893,9l-1.957,1.468A7.338,7.338,0,0,0,33,16.34v7.34a11,11,0,0,0,20.4,5.728,11,11,0,0,1-16.73-9.4V13.587l1.223-.917A18.35,18.35,0,0,0,48.9,16.34h6.117V12.67Z" transform="translate(-3.64 -1.66)" fill="#f9dbaf"/>
        </g>
      </g>
      <g id="Outline_copy" transform="translate(4 2)">
        <g id="Grupo_1176824" data-name="Grupo 1176824">
          <path id="Trazado_1035356" data-name="Trazado 1035356" d="M35.242,49.065a1.215,1.215,0,0,0-1.331.477l-5.878,8.4a5.085,5.085,0,0,1-5.737,1.9,5.026,5.026,0,0,1-3.16-3.094l-4.375-12.25,2.323-.2a6.037,6.037,0,0,0,2.037-.569l3.666,8.243a1.223,1.223,0,0,0,1.09.727H23.9A1.226,1.226,0,0,0,25,52.013l3.584-7.169a1.224,1.224,0,0,0-2.188-1.095L23.968,48.6l-2.836-6.377a6.085,6.085,0,0,0,1.511-4.562L22,30.351a3.672,3.672,0,0,0-4.576-3.236,3.774,3.774,0,0,0-2.724,4l.2,2.307-2.438.214a4.9,4.9,0,0,0-4.448,5.3,6.114,6.114,0,0,0,4.02,5.206L16.83,57.563a7.457,7.457,0,0,0,4.69,4.592,7.537,7.537,0,0,0,8.515-2.815l3.886-5.551.993,14.884a1.224,1.224,0,0,0,1.22,1.143l.082,0a1.224,1.224,0,0,0,1.139-1.3l-1.223-18.35a1.219,1.219,0,0,0-.891-1.1ZM10.456,38.729a2.446,2.446,0,0,1,2.224-2.651l3.656-.321a1.224,1.224,0,0,0,1.112-1.325l-.308-3.526a1.327,1.327,0,0,1,.889-1.42,1.245,1.245,0,0,1,1.026.183,1.228,1.228,0,0,1,.511.892l.64,7.312a3.677,3.677,0,0,1-3.336,3.977l-2.437.213a3.671,3.671,0,0,1-3.978-3.335Z" transform="translate(-3.107 3.583)" fill="#0b0a0a"/>
          <circle id="Elipse_12281" data-name="Elipse 12281" cx="1.5" cy="1.5" r="1.5" transform="translate(45.602 46.534)" fill="#0b0a0a"/>
          <path id="Trazado_1035357" data-name="Trazado 1035357" d="M59.313,36.253H53.2V35.006a12.21,12.21,0,0,0,4.893-9.763h1.223a3.674,3.674,0,0,0,3.67-3.67V20.35a3.651,3.651,0,0,0-.617-2.031,7.117,7.117,0,0,0,.617-2.863A13.472,13.472,0,0,0,49.527,2H34.847a1.223,1.223,0,1,0,0,2.447h14.68a11.022,11.022,0,0,1,11.01,11.01,4.628,4.628,0,0,1-.22,1.38,3.635,3.635,0,0,0-1-.157H58.09V14.233a1.223,1.223,0,1,0-2.447,0v11.01a9.786,9.786,0,0,1-19.573,0V17.9a6.145,6.145,0,0,1,2.448-4.893l1.242-.932a19.7,19.7,0,0,0,10.99,3.379h1.223a1.223,1.223,0,0,0,0-2.447H50.75A17.233,17.233,0,0,1,40.474,9.584a1.218,1.218,0,0,0-1.468,0L37.05,11.052a8.594,8.594,0,0,0-3.326,5.627H32.59a8.1,8.1,0,0,1-1.413-4.551V3.223a1.223,1.223,0,0,0-2.447,0v8.906a10.548,10.548,0,0,0,1.44,5.326,3.651,3.651,0,0,0-1.44,2.894v1.223a3.674,3.674,0,0,0,3.67,3.67h1.223a12.212,12.212,0,0,0,4.893,9.763v1.247H35.251A9.719,9.719,0,0,0,26.5,41.663l-1.639,3.278a1.223,1.223,0,1,0,2.188,1.094l1.639-3.281a7.267,7.267,0,0,1,5.992-4.016l-1.046,8.372a1.223,1.223,0,0,0,1.479,1.346l10.746-2.388L56.6,48.456a1.223,1.223,0,0,0,1.479-1.346L57.029,38.7h2.284a8.574,8.574,0,0,1,8.563,8.563V59.5a6.123,6.123,0,0,1-6.117,6.117H50.75V60.719H61.76A1.222,1.222,0,0,0,62.983,59.5V47.262a1.223,1.223,0,0,0-2.447,0v6.117h-15.9A1.222,1.222,0,0,0,43.41,54.6v3.9a3.665,3.665,0,0,0-2.447,3.445v2.447a3.665,3.665,0,0,0,2.447,3.445v6.342a1.223,1.223,0,0,0,2.447,0V68.058h14.68v6.117a1.223,1.223,0,0,0,2.447,0V67.961a8.57,8.57,0,0,0,7.34-8.465V47.262a11.022,11.022,0,0,0-11.01-11.01Zm0-17.126a1.224,1.224,0,0,1,1.223,1.223v1.223A1.224,1.224,0,0,1,59.313,22.8H58.09v-3.67ZM32.4,22.8a1.225,1.225,0,0,1-1.223-1.223V20.35A1.225,1.225,0,0,1,32.4,19.126h1.223V22.8Zm13.456,14.68a12.147,12.147,0,0,0,4.893-1.029v4.006l-4.893,2.936-4.893-2.936V36.447A12.147,12.147,0,0,0,45.857,37.476ZM37.15,38.7h1.366v2.447a1.223,1.223,0,0,0,.593,1.048L42.6,44.286l-6.321,1.4Zm18.287,6.992-6.321-1.4L52.6,42.2a1.226,1.226,0,0,0,.593-1.05V38.7h1.366Zm5.1,10.134v2.447H45.857V55.825ZM43.41,61.942a1.224,1.224,0,0,1,1.223-1.223H48.3v4.893h-3.67a1.224,1.224,0,0,1-1.223-1.223Z" transform="translate(0.629 -2)" fill="#0b0a0a"/>
          <circle id="Elipse_12282" data-name="Elipse 12282" cx="1.5" cy="1.5" r="1.5" transform="translate(50.602 17.534)" fill="#0b0a0a"/>
          <circle id="Elipse_12283" data-name="Elipse 12283" cx="1.5" cy="1.5" r="1.5" transform="translate(39.602 17.534)" fill="#0b0a0a"/>
          <path id="Trazado_1035358" data-name="Trazado 1035358" d="M42.894,26.562a7.831,7.831,0,0,0,4.349-1.321,1.223,1.223,0,1,0-1.358-2.036,5.381,5.381,0,0,1-5.983,0,1.223,1.223,0,0,0-1.358,2.036A7.837,7.837,0,0,0,42.894,26.562Z" transform="translate(3.592 2.689)" fill="#0b0a0a"/>
          <path id="Trazado_1035361" data-name="Trazado 1035361" d="M49.47,9.787l.614-.154a1.223,1.223,0,1,0-.595-2.373l-.613.154A8.783,8.783,0,0,1,41.9,6.205a1.223,1.223,0,0,0-1.358,2.036,11.222,11.222,0,0,0,6.218,1.879,11.173,11.173,0,0,0,2.707-.333Z" transform="translate(4.039 -1.107)" fill="#0b0a0a"/>
          <path id="Trazado_1035362" data-name="Trazado 1035362" d="M9.831,26.62l3.391-10.173h13.8a1.223,1.223,0,0,0,0-2.447H12.34a1.222,1.222,0,0,0-1.161.837L8.3,23.474,7.24,21.885A1.223,1.223,0,0,0,5.2,23.243l2.447,3.67a1.225,1.225,0,0,0,2.18-.294Z" transform="translate(-3.777 0.68)" fill="#0b0a0a"/>
          <path id="Trazado_1035363" data-name="Trazado 1035363" d="M20.981,18.358a1.222,1.222,0,0,0-1.73,0L17.67,19.94l-1.582-1.582a1.223,1.223,0,1,0-1.73,1.73L15.94,21.67l-1.582,1.582a1.223,1.223,0,1,0,1.73,1.73L17.67,23.4l1.582,1.582a1.223,1.223,0,0,0,1.73-1.73L19.4,21.67l1.582-1.582A1.222,1.222,0,0,0,20.981,18.358Z" transform="translate(-1.767 1.573)" fill="#0b0a0a"/>
          <path id="Trazado_1035364" data-name="Trazado 1035364" d="M10.117,16.34a1.223,1.223,0,0,0-1.223-1.223H7.883l1.939-2.263a1.216,1.216,0,0,0,.295-.8,3.058,3.058,0,1,0-6.117,0,1.223,1.223,0,0,0,2.447,0,.611.611,0,0,1,1.123-.335L4.295,15.545a1.223,1.223,0,0,0,.928,2.018h3.67A1.223,1.223,0,0,0,10.117,16.34Z" transform="translate(-4 -0.437)" fill="#0b0a0a"/>
        </g>
      </g>
    </g>
  </g>
</svg>
