<svg xmlns="http://www.w3.org/2000/svg" xmlns:xlink="http://www.w3.org/1999/xlink" width="93.934" height="93.934" viewBox="0 0 93.934 93.934">
  <defs>
    <filter id="Trazado_982547" x="0" y="0" width="93.934" height="93.934" filterUnits="userSpaceOnUse">
      <feOffset dy="3" input="SourceAlpha"/>
      <feGaussianBlur stdDeviation="3" result="blur"/>
      <feFlood flood-opacity="0.161"/>
      <feComposite operator="in" in2="blur"/>
      <feComposite in="SourceGraphic"/>
    </filter>
  </defs>
  <g id="Grupo_1177689" data-name="Grupo 1177689" transform="translate(-189.033 -1780)">
    <g id="Grupo_1176309" data-name="Grupo 1176309" transform="translate(0 -206)">
      <g id="Grupo_1172970" data-name="Grupo 1172970" transform="translate(-1 -9042)">
        <g id="Grupo_1171971" data-name="Grupo 1171971" transform="translate(199.033 11034)">
          <g id="Grupo_1167337" data-name="Grupo 1167337" transform="translate(0)">
            <g id="Grupo_1166720" data-name="Grupo 1166720">
              <g id="Grupo_1164305" data-name="Grupo 1164305">
                <g id="Grupo_1163948" data-name="Grupo 1163948">
                  <g id="Grupo_1158168" data-name="Grupo 1158168">
                    <g id="Grupo_1152576" data-name="Grupo 1152576">
                      <g id="Grupo_1148633" data-name="Grupo 1148633">
                        <g id="Grupo_1148525" data-name="Grupo 1148525">
                          <g transform="matrix(1, 0, 0, 1, -9, -6)" filter="url(#Trazado_982547)">
                            <g id="Trazado_982547-2" data-name="Trazado 982547" transform="translate(9 6)" fill="#e9f9fd">
                              <path d="M 37.966796875 74.43359375 C 33.04315185546875 74.43359375 28.26757431030273 73.46962738037109 23.77274131774902 71.56847381591797 C 19.43047523498535 69.73184967041016 15.53040790557861 67.10224914550781 12.18087482452393 63.75271987915039 C 8.831341743469238 60.4031867980957 6.201741218566895 56.50312042236328 4.365118980407715 52.16086196899414 C 2.463963508605957 47.66601943969727 1.499996900558472 42.89044189453125 1.499996900558472 37.966796875 C 1.499996900558472 33.04315185546875 2.463963508605957 28.26757431030273 4.365118980407715 23.77274131774902 C 6.201741218566895 19.43047523498535 8.831341743469238 15.53040790557861 12.18087482452393 12.18087482452393 C 15.53040790557861 8.831341743469238 19.43047523498535 6.201741218566895 23.77274131774902 4.365118980407715 C 28.26757431030273 2.463963508605957 33.04315185546875 1.499996900558472 37.966796875 1.499996900558472 C 42.89044189453125 1.499996900558472 47.66601943969727 2.463963508605957 52.16086196899414 4.365118980407715 C 56.50312042236328 6.201741218566895 60.4031867980957 8.831341743469238 63.75271987915039 12.18087482452393 C 67.10224914550781 15.53040790557861 69.73184967041016 19.43047523498535 71.56847381591797 23.77274131774902 C 73.46962738037109 28.26757431030273 74.43359375 33.04315185546875 74.43359375 37.966796875 C 74.43359375 42.89044189453125 73.46962738037109 47.66601943969727 71.56847381591797 52.16086196899414 C 69.73184967041016 56.50313186645508 67.10224914550781 60.4031867980957 63.75271987915039 63.75271987915039 C 60.4031867980957 67.10224914550781 56.50313186645508 69.73184967041016 52.16086196899414 71.56847381591797 C 47.66601943969727 73.46962738037109 42.89044189453125 74.43359375 37.966796875 74.43359375 Z" stroke="none"/>
                              <path d="M 37.966796875 3 C 33.2449836730957 3 28.66600799560547 3.924095153808594 24.35705947875977 5.746635437011719 C 20.19359588623047 7.507637023925781 16.45379638671875 10.02928161621094 13.24153518676758 13.24153518676758 C 10.02927398681641 16.45379638671875 7.507621765136719 20.19359588623047 5.746635437011719 24.35705947875977 C 3.924095153808594 28.66600799560547 3 33.2449836730957 3 37.966796875 C 3 42.6886100769043 3.924095153808594 47.26758575439453 5.746635437011719 51.57653427124023 C 7.507621765136719 55.73999786376953 10.02927398681641 59.47979736328125 13.24153518676758 62.69205856323242 C 16.45379638671875 65.90431976318359 20.19359588623047 68.42597198486328 24.35705947875977 70.18695831298828 C 28.66600799560547 72.00949859619141 33.2449836730957 72.93359375 37.966796875 72.93359375 C 42.6886100769043 72.93359375 47.26758575439453 72.00949859619141 51.57653427124023 70.18695831298828 C 55.73999786376953 68.42597198486328 59.47979736328125 65.90431976318359 62.69205856323242 62.69205856323242 C 65.90431976318359 59.47979736328125 68.42597198486328 55.73999786376953 70.18695831298828 51.57653427124023 C 72.00949859619141 47.26758575439453 72.93359375 42.6886100769043 72.93359375 37.966796875 C 72.93359375 33.2449836730957 72.00949859619141 28.66600799560547 70.18695831298828 24.35705947875977 C 68.42597198486328 20.19359588623047 65.90431976318359 16.45379638671875 62.69205856323242 13.24153518676758 C 59.47979736328125 10.02928161621094 55.73999786376953 7.507637023925781 51.57653427124023 5.746635437011719 C 47.26758575439453 3.924095153808594 42.6886100769043 3 37.966796875 3 M 37.966796875 0 C 58.93528366088867 0 75.93359375 16.99832153320312 75.93359375 37.966796875 C 75.93359375 58.93528366088867 58.93528366088867 75.93359375 37.966796875 75.93359375 C 16.99831008911133 75.93359375 0 58.93528366088867 0 37.966796875 C 0 16.99832153320312 16.99831008911133 0 37.966796875 0 Z" stroke="none" fill="#1d7083"/>
                            </g>
                          </g>
                        </g>
                      </g>
                    </g>
                  </g>
                </g>
              </g>
            </g>
          </g>
        </g>
      </g>
    </g>
    <g id="Page-1" transform="translate(214.092 1802.059)">
      <g id="_002---Algebra-Test" data-name="002---Algebra-Test" transform="translate(0 0)">
        <g id="colour" transform="translate(0.73 0.73)">
          <path id="Shape" d="M27.75,8.033v5.112H22.638a2.191,2.191,0,0,0-2.191,2.191V40.164a2.191,2.191,0,0,0,2.191,2.191H1.461A1.461,1.461,0,0,1,0,40.894V1.461A1.461,1.461,0,0,1,1.461,0H19.717l.066.066-.066.066V6.572a1.461,1.461,0,0,0,1.461,1.461h6.441l.066-.066Z" fill="#f4f4f4"/>
          <path id="Shape-2" data-name="Shape" d="M24,.131V6.572a1.461,1.461,0,0,0,1.461,1.461h2.191a1.461,1.461,0,0,1-1.461-1.461V.131l.066-.066L26.191,0H24l.066.066Z" transform="translate(-6.474 0)" fill="#ced7db"/>
          <path id="Shape-3" data-name="Shape" d="M37.125,10.91l-.066.066H35v5.112h2.191V10.976Z" transform="translate(-9.441 -2.943)" fill="#ced7db"/>
          <path id="Shape-4" data-name="Shape" d="M29.382,18H27.191A2.191,2.191,0,0,0,25,20.191V45.019a2.191,2.191,0,0,0,2.191,2.191h2.191a2.191,2.191,0,0,1-2.191-2.191V20.191A2.191,2.191,0,0,1,29.382,18Z" transform="translate(-6.744 -4.855)" fill="#ced7db"/>
          <path id="Shape-5" data-name="Shape" d="M34.967,7.991l-.066.066H28.461A1.461,1.461,0,0,1,27,6.6V.156L27.066.09Z" transform="translate(-7.283 -0.024)" fill="#f4f4f4"/>
          <rect id="Rectangle-path" width="22" height="29" rx="3" transform="translate(20.177 13.177)" fill="#a6c100"/>
          <path id="Shape-6" data-name="Shape" d="M54.191,18H52a2.191,2.191,0,0,1,2.191,2.191V45.019A2.191,2.191,0,0,1,52,47.21h2.191a2.191,2.191,0,0,0,2.191-2.191V20.191A2.191,2.191,0,0,0,54.191,18Z" transform="translate(-14.027 -4.855)" fill="#92aa00"/>
          <path id="Shape-7" data-name="Shape" d="M45.954,22,40.112,32.224H35L40.842,22Z" transform="translate(-9.441 -5.934)" fill="#f4f4f4"/>
          <path id="Shape-8" data-name="Shape" d="M40.033,22,34.191,32.224H32.73a.73.73,0,0,1-.73-.73V22.73a.73.73,0,0,1,.73-.73Z" transform="translate(-8.632 -5.934)" fill="#2fbcd5"/>
          <path id="Shape-9" data-name="Shape" d="M50.763,22.73v8.763a.73.73,0,0,1-.73.73H42L47.842,22h2.191A.73.73,0,0,1,50.763,22.73Z" transform="translate(-11.329 -5.934)" fill="#2fbcd5"/>
          <g id="Grupo_1176828" data-name="Grupo 1176828" transform="translate(24.098 29.941)">
            <rect id="Rectangle-path-2" data-name="Rectangle-path" width="3" height="3" rx="1" transform="translate(0.079 0.237)" fill="#248800"/>
            <rect id="Rectangle-path-3" data-name="Rectangle-path" width="3" height="3" rx="1" transform="translate(6.079 0.237)" fill="#248800"/>
            <rect id="Rectangle-path-4" data-name="Rectangle-path" width="3" height="3" rx="1" transform="translate(12.079 0.237)" fill="#248800"/>
            <rect id="Rectangle-path-5" data-name="Rectangle-path" width="3" height="3" rx="1" transform="translate(0.079 6.237)" fill="#248800"/>
            <rect id="Rectangle-path-6" data-name="Rectangle-path" width="3" height="3" rx="1" transform="translate(6.079 6.237)" fill="#248800"/>
            <rect id="Rectangle-path-7" data-name="Rectangle-path" width="3" height="3" rx="1" transform="translate(12.079 6.237)" fill="#248800"/>
          </g>
        </g>
        <g id="outline">
          <path id="Shape-10" data-name="Shape" d="M40.894,13.145H29.21V8.763A.73.73,0,0,0,29,8.245L20.966.212A.73.73,0,0,0,20.447,0H2.191A2.191,2.191,0,0,0,0,2.191V41.625a2.191,2.191,0,0,0,2.191,2.191h38.7a2.921,2.921,0,0,0,2.921-2.921V16.066A2.921,2.921,0,0,0,40.894,13.145ZM21.177,2.49,26.72,8.033H21.908a.73.73,0,0,1-.73-.73ZM1.461,41.625V2.191a.73.73,0,0,1,.73-.73H19.717V7.3a2.191,2.191,0,0,0,2.191,2.191H27.75v3.651H23.368a2.921,2.921,0,0,0-2.921,2.921V40.894a2.855,2.855,0,0,0,.409,1.461H2.191A.73.73,0,0,1,1.461,41.625Zm40.894-.73a1.461,1.461,0,0,1-1.461,1.461H23.368a1.461,1.461,0,0,1-1.461-1.461V16.066a1.461,1.461,0,0,1,1.461-1.461H40.894a1.461,1.461,0,0,1,1.461,1.461Z" transform="translate(0 0)"/>
          <path id="Shape-11" data-name="Shape" d="M48.066,22H33.461A1.461,1.461,0,0,0,32,23.461v8.763a1.461,1.461,0,0,0,1.461,1.461H48.066a1.461,1.461,0,0,0,1.461-1.461V23.461A1.461,1.461,0,0,0,48.066,22Zm-3.447,1.461-5.01,8.763H36.177l5.01-8.763Zm-11.158,0h6.047L34.5,32.224H33.461Zm7.828,8.763,5.01-8.763h1.767v8.763Z" transform="translate(-8.632 -5.934)"/>
          <path id="Shape-12" data-name="Shape" d="M35.921,41H34.461A1.461,1.461,0,0,0,33,42.461v1.461a1.461,1.461,0,0,0,1.461,1.461h1.461a1.461,1.461,0,0,0,1.461-1.461V42.461A1.461,1.461,0,0,0,35.921,41Zm-1.461,2.921V42.461h1.461v1.461Z" transform="translate(-8.902 -11.059)"/>
          <path id="Shape-13" data-name="Shape" d="M43.921,41H42.461A1.461,1.461,0,0,0,41,42.461v1.461a1.461,1.461,0,0,0,1.461,1.461h1.461a1.461,1.461,0,0,0,1.461-1.461V42.461A1.461,1.461,0,0,0,43.921,41Zm-1.461,2.921V42.461h1.461v1.461Z" transform="translate(-11.059 -11.059)"/>
          <path id="Shape-14" data-name="Shape" d="M51.921,41H50.461A1.461,1.461,0,0,0,49,42.461v1.461a1.461,1.461,0,0,0,1.461,1.461h1.461a1.461,1.461,0,0,0,1.461-1.461V42.461A1.461,1.461,0,0,0,51.921,41Zm-1.461,2.921V42.461h1.461v1.461Z" transform="translate(-13.217 -11.059)"/>
          <path id="Shape-15" data-name="Shape" d="M35.921,49H34.461A1.461,1.461,0,0,0,33,50.461v1.461a1.461,1.461,0,0,0,1.461,1.461h1.461a1.461,1.461,0,0,0,1.461-1.461V50.461A1.461,1.461,0,0,0,35.921,49Zm-1.461,2.921V50.461h1.461v1.461Z" transform="translate(-8.902 -13.217)"/>
          <path id="Shape-16" data-name="Shape" d="M43.921,49H42.461A1.461,1.461,0,0,0,41,50.461v1.461a1.461,1.461,0,0,0,1.461,1.461h1.461a1.461,1.461,0,0,0,1.461-1.461V50.461A1.461,1.461,0,0,0,43.921,49Zm-1.461,2.921V50.461h1.461v1.461Z" transform="translate(-11.059 -13.217)"/>
          <path id="Shape-17" data-name="Shape" d="M51.921,49H50.461A1.461,1.461,0,0,0,49,50.461v1.461a1.461,1.461,0,0,0,1.461,1.461h1.461a1.461,1.461,0,0,0,1.461-1.461V50.461A1.461,1.461,0,0,0,51.921,49Zm-1.461,2.921V50.461h1.461v1.461Z" transform="translate(-13.217 -13.217)"/>
          <path id="Shape-18" data-name="Shape" d="M9.168,19.21a.73.73,0,0,0-1.037,0l-.942.949-.942-.949A.733.733,0,0,0,5.21,20.247l.949.942-.949.942a.733.733,0,1,0,1.037,1.037l.942-.949.942.949a.733.733,0,1,0,1.037-1.037l-.949-.942.949-.942a.73.73,0,0,0,0-1.037Z" transform="translate(-1.347 -5.124)"/>
          <path id="Shape-19" data-name="Shape" d="M16.651,23H13.73a.73.73,0,1,0,0,1.461h2.921a.73.73,0,1,0,0-1.461Z" transform="translate(-3.507 -6.204)"/>
          <path id="Shape-20" data-name="Shape" d="M16.651,19H13.73a.73.73,0,1,0,0,1.461h2.921a.73.73,0,1,0,0-1.461Z" transform="translate(-3.507 -5.125)"/>
          <path id="Shape-21" data-name="Shape" d="M22.263,16a2.191,2.191,0,0,0-1.9,1.1.73.73,0,0,0,1.263.73.73.73,0,1,1,.635,1.1.73.73,0,0,0-.73.73v.73a.73.73,0,1,0,1.461,0v-.124A2.191,2.191,0,0,0,22.263,16Z" transform="translate(-5.468 -4.316)"/>
          <circle id="Oval" cx="1" cy="1" r="1" transform="translate(15.908 17.908)"/>
          <path id="Shape-22" data-name="Shape" d="M8.131,32.211l-.942.949-.942-.949A.733.733,0,1,0,5.21,33.248l.949.942-.949.942a.733.733,0,1,0,1.037,1.037l2.921-2.921a.733.733,0,1,0-1.037-1.037Z" transform="translate(-1.347 -8.631)"/>
          <path id="Shape-23" data-name="Shape" d="M16.651,36H13.73a.73.73,0,1,0,0,1.461h2.921a.73.73,0,1,0,0-1.461Z" transform="translate(-3.507 -9.711)"/>
          <path id="Shape-24" data-name="Shape" d="M16.651,32H13.73a.73.73,0,1,0,0,1.461h2.921a.73.73,0,1,0,0-1.461Z" transform="translate(-3.507 -8.632)"/>
          <path id="Shape-25" data-name="Shape" d="M22.263,29a2.191,2.191,0,0,0-1.9,1.1.73.73,0,0,0,1.263.73.73.73,0,1,1,.635,1.1.73.73,0,0,0-.73.73v.73a.73.73,0,1,0,1.461,0v-.124A2.191,2.191,0,0,0,22.263,29Z" transform="translate(-5.468 -7.823)"/>
          <ellipse id="Oval-2" data-name="Oval" cx="1" cy="0.5" rx="1" ry="0.5" transform="translate(15.908 27.908)"/>
          <path id="Shape-26" data-name="Shape" d="M8.651,47.921H7.49l1.68-1.672A.735.735,0,0,0,8.651,45H5.73a.73.73,0,1,0,0,1.461H6.891l-1.68,1.672a.735.735,0,0,0,.518,1.249H8.651a.73.73,0,1,0,0-1.461Z" transform="translate(-1.349 -12.138)"/>
          <path id="Shape-27" data-name="Shape" d="M16.651,49H13.73a.73.73,0,1,0,0,1.461h2.921a.73.73,0,1,0,0-1.461Z" transform="translate(-3.507 -13.217)"/>
          <path id="Shape-28" data-name="Shape" d="M16.651,45H13.73a.73.73,0,1,0,0,1.461h2.921a.73.73,0,1,0,0-1.461Z" transform="translate(-3.507 -12.138)"/>
          <path id="Shape-29" data-name="Shape" d="M22.263,42a2.191,2.191,0,0,0-1.9,1.1.73.73,0,0,0,1.263.73.73.73,0,1,1,.635,1.1.73.73,0,0,0-.73.73v.73a.73.73,0,1,0,1.461,0v-.124A2.191,2.191,0,0,0,22.263,42Z" transform="translate(-5.468 -11.329)"/>
          <circle id="Oval-3" data-name="Oval" cx="1" cy="1" r="1" transform="translate(15.908 36.907)"/>
        </g>
      </g>
    </g>
  </g>
</svg>
