<svg xmlns="http://www.w3.org/2000/svg" width="386.73" height="160.22" viewBox="0 0 386.73 160.22">
  <g id="Grupo_1177797" data-name="Grupo 1177797" transform="translate(-389.851 -5449.927)">
    <path id="Trazado_1039148" data-name="Trazado 1039148" d="M-18.713,0h-2.769V-5.115q0-1.978-1.441-1.978a1.476,1.476,0,0,0-1.2.554,2.136,2.136,0,0,0-.457,1.406V0h-2.777V-13.324h2.777v5.66h.035A3.156,3.156,0,0,1-21.772-9.22q3.059,0,3.059,3.691Zm4.678-12.762v3.885h-2.109v-3.885ZM-5.912,2.865H-8.18a11.026,11.026,0,0,1-2.839-7.69A11.731,11.731,0,0,1-8.18-12.6h2.25A12.632,12.632,0,0,0-8.593-4.825,12.216,12.216,0,0,0-5.912,2.865ZM4.1-9,1.129-4.641,4.083,0H.883l-1.3-2.426q-.158-.29-.378-.817H-.831a5.707,5.707,0,0,1-.36.791L-2.5,0h-3.19L-2.65-4.482-5.506-9H-2.29l1.283,2.522a5.532,5.532,0,0,1,.36.844h.035A5.946,5.946,0,0,1-.233-6.5L1.077-9ZM6.589,2.865H4.339a12.144,12.144,0,0,0,2.689-7.69A12.6,12.6,0,0,0,4.339-12.6H6.607A11.731,11.731,0,0,1,9.454-4.825,11.047,11.047,0,0,1,6.589,2.865ZM26.447-6.152H17.887v-1.8h8.561Zm0,3.814H17.887V-4.122h8.561Z" transform="translate(488 5480.386)" fill="#212429"/>
    <path id="Trazado_1039149" data-name="Trazado 1039149" d="M6.029,2.865H1.907V-12.6H6.029v1.767H4.192V1.1H6.029Zm7.112,0H10.874a11.026,11.026,0,0,1-2.839-7.69A11.731,11.731,0,0,1,10.874-12.6h2.25a12.632,12.632,0,0,0-2.663,7.778A12.216,12.216,0,0,0,13.141,2.865ZM23.154-9,20.183-4.641,23.136,0h-3.2l-1.3-2.426q-.158-.29-.378-.817h-.035a5.707,5.707,0,0,1-.36.791L16.553,0h-3.19L16.4-4.482,13.548-9h3.217l1.283,2.522a5.532,5.532,0,0,1,.36.844h.035a5.946,5.946,0,0,1,.378-.861L20.131-9Zm3.851,6.7h5.344V0H23.964V-.949a4.418,4.418,0,0,1,.325-1.736,5.76,5.76,0,0,1,.817-1.38,7.09,7.09,0,0,1,1.077-1.081q.584-.47,1.112-.848.554-.4.971-.756a5.534,5.534,0,0,0,.7-.716,2.723,2.723,0,0,0,.426-.721,2.143,2.143,0,0,0,.141-.778,1.563,1.563,0,0,0-.457-1.222,2.032,2.032,0,0,0-1.4-.413,4.694,4.694,0,0,0-3.111,1.292v-2.443a6.679,6.679,0,0,1,3.709-1.063,5.478,5.478,0,0,1,1.718.25,3.635,3.635,0,0,1,1.288.716,3.055,3.055,0,0,1,.8,1.129,3.811,3.811,0,0,1,.277,1.481A4.176,4.176,0,0,1,32.1-7.69a4.753,4.753,0,0,1-.712,1.23,6.458,6.458,0,0,1-1.024,1.015q-.58.461-1.2.892-.422.3-.813.593a7.707,7.707,0,0,0-.69.58,3.149,3.149,0,0,0-.475.558A.963.963,0,0,0,27.005-2.3Zm22.2-1.96H45.826V-.879H44.051V-4.263h-3.4V-6.047h3.4v-3.4h1.775v3.4H49.21Zm14.356-8.622V0H60.8V-9.756a3.315,3.315,0,0,1-.541.382,5.58,5.58,0,0,1-.664.325,5.925,5.925,0,0,1-.729.246,5.328,5.328,0,0,1-.747.145V-11a11.549,11.549,0,0,0,2.039-.809,11.6,11.6,0,0,0,1.731-1.081Zm5.451,15.75h-2.25a12.144,12.144,0,0,0,2.689-7.69A12.6,12.6,0,0,0,66.767-12.6h2.268a11.731,11.731,0,0,1,2.848,7.778A11.047,11.047,0,0,1,69.017,2.865Zm10.733,0H77.483a11.026,11.026,0,0,1-2.839-7.69A11.731,11.731,0,0,1,77.483-12.6h2.25A12.632,12.632,0,0,0,77.07-4.825,12.216,12.216,0,0,0,79.751,2.865ZM80.93-.413V-2.83a4.878,4.878,0,0,0,2.953.923,2.659,2.659,0,0,0,1.657-.457,1.517,1.517,0,0,0,.593-1.274,1.449,1.449,0,0,0-.734-1.3A3.8,3.8,0,0,0,83.382-5.4H82.213V-7.523h1.081q2.461,0,2.461-1.635,0-1.538-1.89-1.538a4.308,4.308,0,0,0-2.461.817v-2.268a6.8,6.8,0,0,1,3.094-.668,4.669,4.669,0,0,1,3.01.87,2.769,2.769,0,0,1,1.077,2.259,2.937,2.937,0,0,1-2.5,3.094v.044a3.405,3.405,0,0,1,2.109.971A2.738,2.738,0,0,1,88.963-3.6,3.382,3.382,0,0,1,87.671-.809,5.586,5.586,0,0,1,84.1.22,6.9,6.9,0,0,1,80.93-.413ZM100.118-9,97.148-4.641,100.1,0H96.9L95.6-2.426q-.158-.29-.378-.817h-.035a5.707,5.707,0,0,1-.36.791L93.518,0h-3.19l3.041-4.482L90.512-9h3.217l1.283,2.522a5.532,5.532,0,0,1,.36.844h.035a5.946,5.946,0,0,1,.378-.861L97.095-9Zm11.113,5.168h-4.808V-5.774h4.808ZM121.184-2.3h5.344V0h-8.385V-.949a4.418,4.418,0,0,1,.325-1.736,5.76,5.76,0,0,1,.817-1.38,7.09,7.09,0,0,1,1.077-1.081q.584-.47,1.112-.848.554-.4.971-.756a5.534,5.534,0,0,0,.7-.716,2.723,2.723,0,0,0,.426-.721,2.143,2.143,0,0,0,.141-.778,1.563,1.563,0,0,0-.457-1.222,2.032,2.032,0,0,0-1.4-.413,4.694,4.694,0,0,0-3.111,1.292v-2.443a6.679,6.679,0,0,1,3.709-1.063,5.478,5.478,0,0,1,1.718.25,3.635,3.635,0,0,1,1.288.716,3.055,3.055,0,0,1,.8,1.129,3.811,3.811,0,0,1,.277,1.481,4.176,4.176,0,0,1-.268,1.547,4.753,4.753,0,0,1-.712,1.23,6.458,6.458,0,0,1-1.024,1.015q-.58.461-1.2.892-.422.3-.813.593a7.707,7.707,0,0,0-.69.58,3.149,3.149,0,0,0-.475.558A.963.963,0,0,0,121.184-2.3Zm8.993,5.168h-2.25a12.144,12.144,0,0,0,2.689-7.69,12.6,12.6,0,0,0-2.689-7.778h2.268a11.731,11.731,0,0,1,2.848,7.778A11.047,11.047,0,0,1,130.177,2.865Zm8.993,0h-4.14V1.1h1.854V-10.837h-1.854V-12.6h4.14Z" transform="translate(567.66 5480.386)" fill="#212429"/>
    <g id="Grupo_1177705" data-name="Grupo 1177705" transform="translate(-497.339 3636.927)">
      <text id="d" transform="translate(1032.063 1832)" fill="#212429" font-size="18" font-family="SegoeUI-BoldItalic, Segoe UI" font-weight="700" font-style="italic" letter-spacing="0em"><tspan x="0" y="0">d</tspan></text>
      <text id="dx" transform="translate(1027.063 1858)" fill="#212429" font-size="18" font-family="SegoeUI-BoldItalic, Segoe UI" font-weight="700" font-style="italic" letter-spacing="0em"><tspan x="0" y="0">dx</tspan></text>
      <path id="Trazado_1038784" data-name="Trazado 1038784" d="M2526.533,1495h36.338" transform="translate(-1506.533 345)" fill="none" stroke="#212429" stroke-width="1"/>
    </g>
    <path id="Trazado_1039144" data-name="Trazado 1039144" d="M-33.983-6.152h-8.561v-1.8h8.561Zm0,3.814h-8.561V-4.122h8.561Zm13.539,5.2h-2.268a11.026,11.026,0,0,1-2.839-7.69A11.731,11.731,0,0,1-22.712-12.6h2.25a12.632,12.632,0,0,0-2.663,7.778A12.216,12.216,0,0,0-20.444,2.865ZM-10.432-9-13.4-4.641-10.449,0h-3.2l-1.3-2.426q-.158-.29-.378-.817h-.035a5.707,5.707,0,0,1-.36.791L-17.032,0h-3.19l3.041-4.482L-20.038-9h3.217l1.283,2.522a5.532,5.532,0,0,1,.36.844h.035a5.946,5.946,0,0,1,.378-.861l1.31-2.5ZM-6.58-2.3h5.344V0H-9.621V-.949A4.418,4.418,0,0,1-9.3-2.685a5.76,5.76,0,0,1,.817-1.38A7.09,7.09,0,0,1-7.4-5.146q.584-.47,1.112-.848.554-.4.971-.756a5.534,5.534,0,0,0,.7-.716,2.723,2.723,0,0,0,.426-.721,2.143,2.143,0,0,0,.141-.778,1.563,1.563,0,0,0-.457-1.222A2.032,2.032,0,0,0-5.9-10.6,4.694,4.694,0,0,0-9.015-9.308v-2.443a6.679,6.679,0,0,1,3.709-1.063,5.478,5.478,0,0,1,1.718.25,3.635,3.635,0,0,1,1.288.716,3.055,3.055,0,0,1,.8,1.129,3.811,3.811,0,0,1,.277,1.481A4.176,4.176,0,0,1-1.487-7.69,4.753,4.753,0,0,1-2.2-6.46,6.458,6.458,0,0,1-3.223-5.445q-.58.461-1.2.892-.422.3-.813.593a7.707,7.707,0,0,0-.69.58,3.149,3.149,0,0,0-.475.558A.963.963,0,0,0-6.58-2.3Zm22.2-1.96H12.241V-.879H10.465V-4.263h-3.4V-6.047h3.4v-3.4h1.775v3.4h3.384ZM29.98-12.885V0H27.212V-9.756a3.315,3.315,0,0,1-.541.382,5.58,5.58,0,0,1-.664.325,5.925,5.925,0,0,1-.729.246,5.328,5.328,0,0,1-.747.145V-11A11.549,11.549,0,0,0,26.57-11.8,11.6,11.6,0,0,0,28.3-12.885Zm5.451,15.75h-2.25a12.144,12.144,0,0,0,2.689-7.69A12.6,12.6,0,0,0,33.182-12.6h2.268A11.731,11.731,0,0,1,38.3-4.825,11.047,11.047,0,0,1,35.432,2.865Z" transform="translate(436 5536.386)" fill="#212429"/>
    <path id="Trazado_1039145" data-name="Trazado 1039145" d="M6.5,2.865H4.228a11.026,11.026,0,0,1-2.839-7.69A11.731,11.731,0,0,1,4.228-12.6h2.25A12.632,12.632,0,0,0,3.814-4.825,12.216,12.216,0,0,0,6.5,2.865ZM7.675-.413V-2.83a4.878,4.878,0,0,0,2.953.923,2.659,2.659,0,0,0,1.657-.457,1.517,1.517,0,0,0,.593-1.274,1.449,1.449,0,0,0-.734-1.3A3.8,3.8,0,0,0,10.127-5.4H8.958V-7.523h1.081q2.461,0,2.461-1.635,0-1.538-1.89-1.538a4.308,4.308,0,0,0-2.461.817v-2.268a6.8,6.8,0,0,1,3.094-.668,4.669,4.669,0,0,1,3.01.87A2.769,2.769,0,0,1,15.33-9.686a2.937,2.937,0,0,1-2.5,3.094v.044a3.405,3.405,0,0,1,2.109.971A2.738,2.738,0,0,1,15.708-3.6,3.382,3.382,0,0,1,14.416-.809,5.586,5.586,0,0,1,10.848.22,6.9,6.9,0,0,1,7.675-.413ZM26.863-9,23.892-4.641,26.845,0h-3.2l-1.3-2.426q-.158-.29-.378-.817h-.035a5.707,5.707,0,0,1-.36.791L20.262,0h-3.19l3.041-4.482L17.257-9h3.217l1.283,2.522a5.532,5.532,0,0,1,.36.844h.035A5.946,5.946,0,0,1,22.53-6.5L23.84-9ZM37.976-3.832H33.168V-5.774h4.808ZM47.929-2.3h5.344V0H44.888V-.949a4.418,4.418,0,0,1,.325-1.736,5.76,5.76,0,0,1,.817-1.38,7.09,7.09,0,0,1,1.077-1.081q.584-.47,1.112-.848.554-.4.971-.756a5.534,5.534,0,0,0,.7-.716,2.723,2.723,0,0,0,.426-.721,2.143,2.143,0,0,0,.141-.778A1.563,1.563,0,0,0,50-10.187a2.032,2.032,0,0,0-1.4-.413,4.694,4.694,0,0,0-3.111,1.292v-2.443A6.679,6.679,0,0,1,49.2-12.814a5.478,5.478,0,0,1,1.718.25,3.635,3.635,0,0,1,1.288.716,3.055,3.055,0,0,1,.8,1.129,3.811,3.811,0,0,1,.277,1.481,4.176,4.176,0,0,1-.268,1.547,4.753,4.753,0,0,1-.712,1.23,6.458,6.458,0,0,1-1.024,1.015q-.58.461-1.2.892-.422.3-.813.593a7.707,7.707,0,0,0-.69.58,3.149,3.149,0,0,0-.475.558A.963.963,0,0,0,47.929-2.3Zm8.993,5.168h-2.25a12.144,12.144,0,0,0,2.689-7.69A12.6,12.6,0,0,0,54.672-12.6h2.268a11.731,11.731,0,0,1,2.848,7.778A11.047,11.047,0,0,1,56.922,2.865ZM76.78-4.263H73.4V-.879H71.621V-4.263h-3.4V-6.047h3.4v-3.4H73.4v3.4H76.78ZM90.319,2.865H88.051a11.026,11.026,0,0,1-2.839-7.69A11.731,11.731,0,0,1,88.051-12.6H90.3a12.632,12.632,0,0,0-2.663,7.778A12.216,12.216,0,0,0,90.319,2.865ZM91.5-.413V-2.83a4.878,4.878,0,0,0,2.953.923,2.659,2.659,0,0,0,1.657-.457A1.517,1.517,0,0,0,96.7-3.639a1.449,1.449,0,0,0-.734-1.3A3.8,3.8,0,0,0,93.95-5.4H92.781V-7.523h1.081q2.461,0,2.461-1.635,0-1.538-1.89-1.538a4.308,4.308,0,0,0-2.461.817v-2.268a6.8,6.8,0,0,1,3.094-.668,4.669,4.669,0,0,1,3.01.87,2.769,2.769,0,0,1,1.077,2.259,2.937,2.937,0,0,1-2.5,3.094v.044a3.405,3.405,0,0,1,2.109.971A2.738,2.738,0,0,1,99.531-3.6,3.382,3.382,0,0,1,98.239-.809,5.586,5.586,0,0,1,94.671.22,6.9,6.9,0,0,1,91.5-.413ZM110.686-9l-2.971,4.359L110.669,0h-3.2l-1.3-2.426q-.158-.29-.378-.817h-.035a5.707,5.707,0,0,1-.36.791L104.086,0H100.9l3.041-4.482L101.08-9H104.3l1.283,2.522a5.532,5.532,0,0,1,.36.844h.035a5.946,5.946,0,0,1,.378-.861l1.31-2.5ZM121.8-3.832h-4.808V-5.774H121.8ZM131.752-2.3H137.1V0h-8.385V-.949a4.418,4.418,0,0,1,.325-1.736,5.759,5.759,0,0,1,.817-1.38,7.09,7.09,0,0,1,1.077-1.081q.584-.47,1.112-.848.554-.4.971-.756a5.536,5.536,0,0,0,.7-.716,2.724,2.724,0,0,0,.426-.721,2.144,2.144,0,0,0,.141-.778,1.563,1.563,0,0,0-.457-1.222,2.032,2.032,0,0,0-1.4-.413,4.694,4.694,0,0,0-3.111,1.292v-2.443a6.679,6.679,0,0,1,3.709-1.063,5.478,5.478,0,0,1,1.718.25,3.635,3.635,0,0,1,1.288.716,3.055,3.055,0,0,1,.8,1.129,3.811,3.811,0,0,1,.277,1.481,4.176,4.176,0,0,1-.268,1.547,4.754,4.754,0,0,1-.712,1.23,6.458,6.458,0,0,1-1.024,1.015q-.58.461-1.2.892-.422.3-.813.593a7.707,7.707,0,0,0-.69.58,3.148,3.148,0,0,0-.475.558A.963.963,0,0,0,131.752-2.3Zm8.993,5.168H138.5a12.144,12.144,0,0,0,2.689-7.69A12.6,12.6,0,0,0,138.5-12.6h2.268a11.731,11.731,0,0,1,2.848,7.778A11.047,11.047,0,0,1,140.745,2.865Z" transform="translate(526.66 5536.386)" fill="#212429"/>
    <path id="Trazado_1039146" data-name="Trazado 1039146" d="M6.5,2.865H4.228a11.026,11.026,0,0,1-2.839-7.69A11.731,11.731,0,0,1,4.228-12.6h2.25A12.632,12.632,0,0,0,3.814-4.825,12.216,12.216,0,0,0,6.5,2.865ZM16.508-9,13.537-4.641,16.49,0h-3.2l-1.3-2.426q-.158-.29-.378-.817h-.035a5.707,5.707,0,0,1-.36.791L9.907,0H6.717L9.758-4.482,6.9-9h3.217L11.4-6.478a5.532,5.532,0,0,1,.36.844H11.8a5.946,5.946,0,0,1,.378-.861L13.484-9Zm2.28,1.657H21.9V-6H17.014v-.554a2.577,2.577,0,0,1,.19-1.013,3.36,3.36,0,0,1,.477-.8A4.136,4.136,0,0,1,18.309-9q.341-.274.649-.495.323-.231.566-.441a3.228,3.228,0,0,0,.41-.418,1.588,1.588,0,0,0,.249-.42,1.25,1.25,0,0,0,.082-.454A.912.912,0,0,0,20-11.942a1.185,1.185,0,0,0-.815-.241,2.738,2.738,0,0,0-1.815.754v-1.425a3.9,3.9,0,0,1,2.163-.62,3.2,3.2,0,0,1,1,.146,2.12,2.12,0,0,1,.751.418,1.782,1.782,0,0,1,.469.659,2.223,2.223,0,0,1,.161.864,2.436,2.436,0,0,1-.156.9,2.773,2.773,0,0,1-.415.718,3.767,3.767,0,0,1-.6.592q-.338.269-.7.52-.246.174-.474.346a4.5,4.5,0,0,0-.4.338,1.837,1.837,0,0,0-.277.326A.562.562,0,0,0,18.788-7.343Zm19.461,3.08H34.865V-.879H33.09V-4.263h-3.4V-6.047h3.4v-3.4h1.775v3.4h3.384ZM52.6-12.885V0H49.836V-9.756a3.315,3.315,0,0,1-.541.382,5.58,5.58,0,0,1-.664.325A5.925,5.925,0,0,1,47.9-8.8a5.328,5.328,0,0,1-.747.145V-11a11.549,11.549,0,0,0,2.039-.809,11.6,11.6,0,0,0,1.731-1.081Zm5.451,15.75h-2.25A12.144,12.144,0,0,0,58.5-4.825,12.6,12.6,0,0,0,55.806-12.6h2.268a11.731,11.731,0,0,1,2.848,7.778A11.047,11.047,0,0,1,58.056,2.865Z" transform="translate(715.66 5536.386)" fill="#212429"/>
    <g id="Grupo_1177705-2" data-name="Grupo 1177705" transform="translate(-538.339 3692.927)">
      <text id="d-2" data-name="d" transform="translate(1032.063 1832)" fill="#212429" font-size="18" font-family="SegoeUI-BoldItalic, Segoe UI" font-weight="700" font-style="italic" letter-spacing="0em"><tspan x="0" y="0">d</tspan></text>
      <text id="dx-2" data-name="dx" transform="translate(1027.063 1858)" fill="#212429" font-size="18" font-family="SegoeUI-BoldItalic, Segoe UI" font-weight="700" font-style="italic" letter-spacing="0em"><tspan x="0" y="0">dx</tspan></text>
      <path id="Trazado_1038784-2" data-name="Trazado 1038784" d="M2526.533,1495h36.338" transform="translate(-1506.533 345)" fill="none" stroke="#212429" stroke-width="1"/>
    </g>
    <g id="Grupo_1177734" data-name="Grupo 1177734" transform="translate(-345.679 3692.927)">
      <text id="d-3" data-name="d" transform="translate(1032.063 1832)" fill="#212429" font-size="18" font-family="SegoeUI-BoldItalic, Segoe UI" font-weight="700" font-style="italic" letter-spacing="0em"><tspan x="0" y="0">d</tspan></text>
      <text id="dx-3" data-name="dx" transform="translate(1027.063 1858)" fill="#212429" font-size="18" font-family="SegoeUI-BoldItalic, Segoe UI" font-weight="700" font-style="italic" letter-spacing="0em"><tspan x="0" y="0">dx</tspan></text>
      <path id="Trazado_1038784-3" data-name="Trazado 1038784" d="M2526.533,1495h36.338" transform="translate(-1506.533 345)" fill="none" stroke="#212429" stroke-width="1"/>
    </g>
    <path id="Trazado_1039143" data-name="Trazado 1039143" d="M-185.588-6.152h-8.561v-1.8h8.561Zm0,3.814h-8.561V-4.122h8.561Zm13.539,5.2h-2.268a11.026,11.026,0,0,1-2.839-7.69,11.731,11.731,0,0,1,2.839-7.778h2.25a12.632,12.632,0,0,0-2.663,7.778A12.216,12.216,0,0,0-172.05,2.865ZM-162.037-9l-2.971,4.359L-162.055,0h-3.2l-1.3-2.426q-.158-.29-.378-.817h-.035a5.707,5.707,0,0,1-.36.791L-168.638,0h-3.19l3.041-4.482L-171.643-9h3.217l1.283,2.522a5.532,5.532,0,0,1,.36.844h.035a5.946,5.946,0,0,1,.378-.861l1.31-2.5Zm2.28,1.657h3.117V-6h-4.891v-.554a2.577,2.577,0,0,1,.19-1.013,3.36,3.36,0,0,1,.477-.8A4.136,4.136,0,0,1-160.236-9q.341-.274.649-.495.323-.231.566-.441a3.228,3.228,0,0,0,.41-.418,1.588,1.588,0,0,0,.249-.42,1.25,1.25,0,0,0,.082-.454.912.912,0,0,0-.267-.713,1.185,1.185,0,0,0-.815-.241,2.738,2.738,0,0,0-1.815.754v-1.425a3.9,3.9,0,0,1,2.163-.62,3.2,3.2,0,0,1,1,.146,2.12,2.12,0,0,1,.751.418,1.782,1.782,0,0,1,.469.659,2.223,2.223,0,0,1,.161.864,2.436,2.436,0,0,1-.156.9,2.773,2.773,0,0,1-.415.718,3.767,3.767,0,0,1-.6.592q-.338.269-.7.52-.246.174-.474.346a4.5,4.5,0,0,0-.4.338,1.837,1.837,0,0,0-.277.326A.562.562,0,0,0-159.757-7.343Zm19.461,3.08h-3.384V-.879h-1.775V-4.263h-3.4V-6.047h3.4v-3.4h1.775v3.4h3.384Zm14.356-8.622V0h-2.769V-9.756a3.315,3.315,0,0,1-.541.382,5.58,5.58,0,0,1-.664.325,5.925,5.925,0,0,1-.729.246,5.328,5.328,0,0,1-.747.145V-11a11.549,11.549,0,0,0,2.039-.809,11.6,11.6,0,0,0,1.731-1.081Zm5.451,15.75h-2.25a12.144,12.144,0,0,0,2.689-7.69,12.6,12.6,0,0,0-2.689-7.778h2.268a11.731,11.731,0,0,1,2.848,7.778A11.047,11.047,0,0,1-120.489,2.865Zm10.733,0h-2.268a11.026,11.026,0,0,1-2.839-7.69,11.731,11.731,0,0,1,2.839-7.778h2.25a12.632,12.632,0,0,0-2.663,7.778A12.216,12.216,0,0,0-109.755,2.865Zm1.18-3.278V-2.83a4.878,4.878,0,0,0,2.953.923,2.659,2.659,0,0,0,1.657-.457,1.517,1.517,0,0,0,.593-1.274,1.449,1.449,0,0,0-.734-1.3,3.8,3.8,0,0,0-2.017-.457h-1.169V-7.523h1.081q2.461,0,2.461-1.635,0-1.538-1.89-1.538a4.308,4.308,0,0,0-2.461.817v-2.268a6.8,6.8,0,0,1,3.094-.668,4.669,4.669,0,0,1,3.01.87,2.769,2.769,0,0,1,1.077,2.259,2.937,2.937,0,0,1-2.5,3.094v.044a3.405,3.405,0,0,1,2.109.971,2.738,2.738,0,0,1,.773,1.973,3.382,3.382,0,0,1-1.292,2.795A5.586,5.586,0,0,1-105.4.22,6.9,6.9,0,0,1-108.576-.413Zm11.735,3.278h-2.25A12.144,12.144,0,0,0-96.4-4.825,12.6,12.6,0,0,0-99.091-12.6h2.268a11.731,11.731,0,0,1,2.848,7.778A11.047,11.047,0,0,1-96.841,2.865Zm19.858-7.128h-3.384V-.879h-1.775V-4.263h-3.4V-6.047h3.4v-3.4h1.775v3.4h3.384Zm13.539,7.128h-2.268a11.026,11.026,0,0,1-2.839-7.69A11.731,11.731,0,0,1-65.711-12.6h2.25a12.632,12.632,0,0,0-2.663,7.778A12.216,12.216,0,0,0-63.444,2.865Zm1.18-3.278V-2.83a4.878,4.878,0,0,0,2.953.923,2.659,2.659,0,0,0,1.657-.457,1.517,1.517,0,0,0,.593-1.274,1.449,1.449,0,0,0-.734-1.3A3.8,3.8,0,0,0-59.812-5.4h-1.169V-7.523H-59.9q2.461,0,2.461-1.635,0-1.538-1.89-1.538a4.308,4.308,0,0,0-2.461.817v-2.268a6.8,6.8,0,0,1,3.094-.668,4.669,4.669,0,0,1,3.01.87,2.769,2.769,0,0,1,1.077,2.259,2.937,2.937,0,0,1-2.5,3.094v.044A3.405,3.405,0,0,1-55-5.577,2.738,2.738,0,0,1-54.231-3.6,3.382,3.382,0,0,1-55.523-.809,5.586,5.586,0,0,1-59.091.22,6.9,6.9,0,0,1-62.264-.413ZM-43.076-9l-2.971,4.359L-43.094,0h-3.2l-1.3-2.426q-.158-.29-.378-.817h-.035a5.707,5.707,0,0,1-.36.791L-49.677,0h-3.19l3.041-4.482L-52.682-9h3.217l1.283,2.522a5.532,5.532,0,0,1,.36.844h.035a5.946,5.946,0,0,1,.378-.861L-46.1-9Zm11.113,5.168h-4.808V-5.774h4.808ZM-22.01-2.3h5.344V0h-8.385V-.949a4.418,4.418,0,0,1,.325-1.736,5.76,5.76,0,0,1,.817-1.38,7.09,7.09,0,0,1,1.077-1.081q.584-.47,1.112-.848.554-.4.971-.756a5.534,5.534,0,0,0,.7-.716,2.723,2.723,0,0,0,.426-.721,2.143,2.143,0,0,0,.141-.778,1.563,1.563,0,0,0-.457-1.222,2.032,2.032,0,0,0-1.4-.413,4.694,4.694,0,0,0-3.111,1.292v-2.443a6.679,6.679,0,0,1,3.709-1.063,5.478,5.478,0,0,1,1.718.25,3.635,3.635,0,0,1,1.288.716,3.055,3.055,0,0,1,.8,1.129,3.811,3.811,0,0,1,.277,1.481,4.176,4.176,0,0,1-.268,1.547,4.753,4.753,0,0,1-.712,1.23,6.458,6.458,0,0,1-1.024,1.015q-.58.461-1.2.892-.422.3-.813.593a7.707,7.707,0,0,0-.69.58,3.149,3.149,0,0,0-.475.558A.963.963,0,0,0-22.01-2.3Zm8.993,5.168h-2.25a12.144,12.144,0,0,0,2.689-7.69A12.6,12.6,0,0,0-15.267-12.6H-13a11.731,11.731,0,0,1,2.848,7.778A11.047,11.047,0,0,1-13.017,2.865Zm10.733,0H-4.552A11.026,11.026,0,0,1-7.39-4.825,11.731,11.731,0,0,1-4.552-12.6H-2.3A12.632,12.632,0,0,0-4.965-4.825,12.216,12.216,0,0,0-2.284,2.865ZM1.638-2.3H6.982V0H-1.4V-.949a4.418,4.418,0,0,1,.325-1.736,5.76,5.76,0,0,1,.817-1.38A7.09,7.09,0,0,1,.816-5.146q.584-.47,1.112-.848.554-.4.971-.756a5.534,5.534,0,0,0,.7-.716,2.723,2.723,0,0,0,.426-.721,2.143,2.143,0,0,0,.141-.778,1.563,1.563,0,0,0-.457-1.222,2.032,2.032,0,0,0-1.4-.413A4.694,4.694,0,0,0-.8-9.308v-2.443a6.679,6.679,0,0,1,3.709-1.063,5.478,5.478,0,0,1,1.718.25,3.635,3.635,0,0,1,1.288.716,3.055,3.055,0,0,1,.8,1.129A3.811,3.811,0,0,1,7-9.237,4.176,4.176,0,0,1,6.731-7.69a4.753,4.753,0,0,1-.712,1.23A6.458,6.458,0,0,1,5-5.445q-.58.461-1.2.892-.422.3-.813.593a7.707,7.707,0,0,0-.69.58,3.149,3.149,0,0,0-.475.558A.963.963,0,0,0,1.638-2.3ZM18.084-9,15.113-4.641,18.066,0h-3.2l-1.3-2.426q-.158-.29-.378-.817h-.035a5.707,5.707,0,0,1-.36.791L11.483,0H8.293l3.041-4.482L8.477-9h3.217l1.283,2.522a5.532,5.532,0,0,1,.36.844h.035a5.946,5.946,0,0,1,.378-.861L15.06-9ZM20.573,2.865h-2.25a12.144,12.144,0,0,0,2.689-7.69A12.6,12.6,0,0,0,18.323-12.6h2.268a11.731,11.731,0,0,1,2.848,7.778A11.047,11.047,0,0,1,20.573,2.865ZM40.431-6.152H31.871v-1.8h8.561Zm0,3.814H31.871V-4.122h8.561ZM48.5-.413V-2.83a4.878,4.878,0,0,0,2.953.923,2.659,2.659,0,0,0,1.657-.457,1.517,1.517,0,0,0,.593-1.274,1.449,1.449,0,0,0-.734-1.3A3.8,3.8,0,0,0,50.955-5.4H49.786V-7.523h1.081q2.461,0,2.461-1.635,0-1.538-1.89-1.538a4.308,4.308,0,0,0-2.461.817v-2.268a6.8,6.8,0,0,1,3.094-.668,4.669,4.669,0,0,1,3.01.87,2.769,2.769,0,0,1,1.077,2.259,2.937,2.937,0,0,1-2.5,3.094v.044a3.405,3.405,0,0,1,2.109.971A2.738,2.738,0,0,1,56.536-3.6,3.382,3.382,0,0,1,55.244-.809,5.586,5.586,0,0,1,51.676.22,6.9,6.9,0,0,1,48.5-.413ZM67.691-9,64.721-4.641,67.674,0h-3.2l-1.3-2.426q-.158-.29-.378-.817h-.035a5.707,5.707,0,0,1-.36.791L61.091,0H57.9l3.041-4.482L58.085-9H61.3l1.283,2.522a5.532,5.532,0,0,1,.36.844h.035a5.946,5.946,0,0,1,.378-.861L64.668-9Zm2.28,1.657h3.117V-6H68.2v-.554a2.577,2.577,0,0,1,.19-1.013,3.36,3.36,0,0,1,.477-.8A4.136,4.136,0,0,1,69.492-9q.341-.274.649-.495.323-.231.566-.441a3.228,3.228,0,0,0,.41-.418,1.588,1.588,0,0,0,.249-.42,1.25,1.25,0,0,0,.082-.454.912.912,0,0,0-.267-.713,1.185,1.185,0,0,0-.815-.241,2.738,2.738,0,0,0-1.815.754v-1.425a3.9,3.9,0,0,1,2.163-.62,3.2,3.2,0,0,1,1,.146,2.12,2.12,0,0,1,.751.418,1.782,1.782,0,0,1,.469.659,2.223,2.223,0,0,1,.161.864,2.436,2.436,0,0,1-.156.9,2.772,2.772,0,0,1-.415.718,3.767,3.767,0,0,1-.6.592q-.338.269-.7.52-.246.174-.474.346a4.5,4.5,0,0,0-.4.338,1.837,1.837,0,0,0-.277.326A.562.562,0,0,0,69.972-7.343Zm17.391,3.08H83.979V-.879H82.2V-4.263H78.8V-6.047h3.4v-3.4h1.775v3.4h3.384Zm8.072,3.85V-2.83a4.878,4.878,0,0,0,2.953.923,2.659,2.659,0,0,0,1.657-.457,1.517,1.517,0,0,0,.593-1.274,1.449,1.449,0,0,0-.734-1.3A3.8,3.8,0,0,0,97.887-5.4H96.718V-7.523H97.8q2.461,0,2.461-1.635,0-1.538-1.89-1.538a4.308,4.308,0,0,0-2.461.817v-2.268A6.8,6.8,0,0,1,99-12.814a4.669,4.669,0,0,1,3.01.87,2.769,2.769,0,0,1,1.077,2.259,2.937,2.937,0,0,1-2.5,3.094v.044a3.405,3.405,0,0,1,2.109.971,2.738,2.738,0,0,1,.773,1.973,3.382,3.382,0,0,1-1.292,2.795A5.586,5.586,0,0,1,98.607.22,6.9,6.9,0,0,1,95.434-.413Zm24.947-3.85H117V-.879h-1.775V-4.263h-3.4V-6.047h3.4v-3.4H117v3.4h3.384Zm16.8.07a4.62,4.62,0,0,1-.325,1.74,4.248,4.248,0,0,1-.905,1.4,4.189,4.189,0,0,1-1.38.932,4.443,4.443,0,0,1-1.749.338,4.412,4.412,0,0,1-1.9-.4A3.841,3.841,0,0,1,129.5-1.323a5.363,5.363,0,0,1-.888-1.841,9.1,9.1,0,0,1-.308-2.47,10.168,10.168,0,0,1,.4-2.949,6.77,6.77,0,0,1,1.143-2.263,5.132,5.132,0,0,1,1.8-1.455,5.345,5.345,0,0,1,2.373-.514,5.986,5.986,0,0,1,2.268.343v2.32a4.158,4.158,0,0,0-2.092-.545,2.923,2.923,0,0,0-1.274.272,2.817,2.817,0,0,0-.98.773,3.74,3.74,0,0,0-.642,1.208,5.378,5.378,0,0,0-.25,1.578h.053A3.057,3.057,0,0,1,133.744-8.1a3.447,3.447,0,0,1,1.415.281,3.07,3.07,0,0,1,1.081.8,3.649,3.649,0,0,1,.694,1.235A4.927,4.927,0,0,1,137.181-4.192Zm-2.716.176q0-2.03-1.661-2.03a1.63,1.63,0,0,0-.686.141,1.525,1.525,0,0,0-.527.4,1.8,1.8,0,0,0-.338.6,2.366,2.366,0,0,0-.119.769,2.974,2.974,0,0,0,.123.87,2.311,2.311,0,0,0,.347.708,1.719,1.719,0,0,0,.532.479,1.357,1.357,0,0,0,.686.176,1.484,1.484,0,0,0,.681-.154,1.525,1.525,0,0,0,.519-.431,1.979,1.979,0,0,0,.33-.668A3.047,3.047,0,0,0,134.465-4.017ZM147.642-9l-2.971,4.359L147.624,0h-3.2l-1.3-2.426q-.158-.29-.378-.817h-.035a5.707,5.707,0,0,1-.36.791L141.041,0h-3.19l3.041-4.482L138.035-9h3.217l1.283,2.522a5.532,5.532,0,0,1,.36.844h.035a5.946,5.946,0,0,1,.378-.861l1.31-2.5Zm2.28,1.657h3.117V-6h-4.891v-.554a2.577,2.577,0,0,1,.19-1.013,3.36,3.36,0,0,1,.477-.8A4.136,4.136,0,0,1,149.443-9q.341-.274.649-.495.323-.231.566-.441a3.228,3.228,0,0,0,.41-.418,1.588,1.588,0,0,0,.249-.42,1.25,1.25,0,0,0,.082-.454.912.912,0,0,0-.267-.713,1.185,1.185,0,0,0-.815-.241,2.738,2.738,0,0,0-1.815.754v-1.425a3.9,3.9,0,0,1,2.163-.62,3.2,3.2,0,0,1,1,.146,2.12,2.12,0,0,1,.751.418,1.782,1.782,0,0,1,.469.659,2.223,2.223,0,0,1,.161.864,2.436,2.436,0,0,1-.156.9,2.773,2.773,0,0,1-.415.718,3.767,3.767,0,0,1-.6.592q-.338.269-.7.52-.246.174-.474.346a4.5,4.5,0,0,0-.4.338,1.837,1.837,0,0,0-.277.326A.562.562,0,0,0,149.922-7.343Zm14.873,3.511h-4.808V-5.774h4.808ZM179.344-12.6v7.945h1.512v2.074h-1.512V0h-2.531V-2.584H171.32V-4.755q.729-.817,1.512-1.789t1.512-2q.729-1.028,1.358-2.07a20.749,20.749,0,0,0,1.068-1.991Zm-5.537,7.945h3.006v-4.4q-.308.571-.668,1.156t-.756,1.151q-.4.567-.8,1.1T173.807-4.658ZM191.194-9l-2.971,4.359L191.176,0h-3.2l-1.3-2.426q-.158-.29-.378-.817h-.035a5.707,5.707,0,0,1-.36.791L184.593,0H181.4l3.041-4.482L181.587-9H184.8l1.283,2.522a5.532,5.532,0,0,1,.36.844h.035a5.946,5.946,0,0,1,.378-.861L188.17-9Z" transform="translate(584 5577.927)" fill="#212429"/>
    <path id="Trazado_1039147" data-name="Trazado 1039147" d="M-43.609-6.152h-8.561v-1.8h8.561Zm0,3.814h-8.561V-4.122h8.561Zm16.6-4.57a11.18,11.18,0,0,1-.369,3A6.438,6.438,0,0,1-28.457-1.67a4.755,4.755,0,0,1-1.727,1.4A5.291,5.291,0,0,1-32.5.22a6.568,6.568,0,0,1-2.663-.492V-2.558a4.267,4.267,0,0,0,2.391.65,2.752,2.752,0,0,0,2.241-.976A4.352,4.352,0,0,0-29.71-5.7l-.053-.018A2.854,2.854,0,0,1-32.3-4.482a3.487,3.487,0,0,1-1.428-.29,3.431,3.431,0,0,1-1.134-.8A3.675,3.675,0,0,1-35.612-6.8a4.407,4.407,0,0,1-.268-1.564,4.857,4.857,0,0,1,.325-1.811,4.145,4.145,0,0,1,.91-1.406,4.014,4.014,0,0,1,1.4-.91,4.917,4.917,0,0,1,1.811-.321,4.145,4.145,0,0,1,1.846.4,3.878,3.878,0,0,1,1.393,1.156A5.4,5.4,0,0,1-27.315-9.4,9.4,9.4,0,0,1-27.012-6.908Zm-2.8-1.477a3.266,3.266,0,0,0-.123-.91,2.394,2.394,0,0,0-.343-.734,1.669,1.669,0,0,0-.536-.488,1.379,1.379,0,0,0-.694-.18,1.413,1.413,0,0,0-.664.158,1.618,1.618,0,0,0-.523.435,2.061,2.061,0,0,0-.343.664,2.74,2.74,0,0,0-.123.835,2.853,2.853,0,0,0,.123.875,1.867,1.867,0,0,0,.347.646,1.456,1.456,0,0,0,.541.4,1.76,1.76,0,0,0,.7.136,1.51,1.51,0,0,0,.668-.145,1.609,1.609,0,0,0,.514-.391,1.77,1.77,0,0,0,.334-.58A2.138,2.138,0,0,0-29.815-8.385ZM-16.349-9l-2.971,4.359L-16.366,0h-3.2l-1.3-2.426q-.158-.29-.378-.817h-.035a5.707,5.707,0,0,1-.36.791L-22.949,0h-3.19L-23.1-4.482-25.955-9h3.217l1.283,2.522a5.532,5.532,0,0,1,.36.844h.035a5.946,5.946,0,0,1,.378-.861l1.31-2.5ZM-12.5-2.3h5.344V0h-8.385V-.949a4.418,4.418,0,0,1,.325-1.736,5.76,5.76,0,0,1,.817-1.38,7.09,7.09,0,0,1,1.077-1.081q.584-.47,1.112-.848.554-.4.971-.756a5.534,5.534,0,0,0,.7-.716,2.723,2.723,0,0,0,.426-.721,2.143,2.143,0,0,0,.141-.778,1.563,1.563,0,0,0-.457-1.222,2.032,2.032,0,0,0-1.4-.413,4.694,4.694,0,0,0-3.111,1.292v-2.443a6.679,6.679,0,0,1,3.709-1.063,5.478,5.478,0,0,1,1.718.25,3.635,3.635,0,0,1,1.288.716,3.055,3.055,0,0,1,.8,1.129,3.811,3.811,0,0,1,.277,1.481A4.176,4.176,0,0,1-7.4-7.69a4.753,4.753,0,0,1-.712,1.23A6.458,6.458,0,0,1-9.14-5.445q-.58.461-1.2.892-.422.3-.813.593a7.707,7.707,0,0,0-.69.58,3.149,3.149,0,0,0-.475.558A.963.963,0,0,0-12.5-2.3ZM5.12-3.832H.312V-5.774H5.12ZM19.669-12.6v7.945h1.512v2.074H19.669V0H17.138V-2.584H11.645V-4.755q.729-.817,1.512-1.789t1.512-2q.729-1.028,1.358-2.07A20.749,20.749,0,0,0,17.094-12.6ZM14.132-4.658h3.006v-4.4q-.308.571-.668,1.156t-.756,1.151q-.4.567-.8,1.1T14.132-4.658ZM31.519-9,28.548-4.641,31.5,0H28.3L27-2.426q-.158-.29-.378-.817h-.035a5.707,5.707,0,0,1-.36.791L24.918,0h-3.19l3.041-4.482L21.912-9h3.217l1.283,2.522a5.532,5.532,0,0,1,.36.844h.035a5.946,5.946,0,0,1,.378-.861L28.5-9Zm15.7,4.737H43.836V-.879H42.06V-4.263h-3.4V-6.047h3.4v-3.4h1.775v3.4h3.384Z" transform="translate(584 5609.927)" fill="#212429"/>
  </g>
</svg>
