<svg xmlns="http://www.w3.org/2000/svg" width="207" height="256.648" viewBox="0 0 207 256.648">
  <g id="Grupo_1177796" data-name="Grupo 1177796" transform="translate(-934.766 -1818.676)">
    <path id="Trazado_1039137" data-name="Trazado 1039137" d="M-21.166-1.028a5.092,5.092,0,0,1-1.45,3.88,5.877,5.877,0,0,1-4.2,1.375A6.659,6.659,0,0,1-29.7,3.709V1.371a5.521,5.521,0,0,0,2.8.809,3.02,3.02,0,0,0,2.18-.743A2.665,2.665,0,0,0-23.943-.58v-.712h-.035A3.1,3.1,0,0,1-26.782.22,3.372,3.372,0,0,1-29.516-.993a4.919,4.919,0,0,1-1.011-3.252A5.478,5.478,0,0,1-29.4-7.875,3.673,3.673,0,0,1-26.439-9.22a2.733,2.733,0,0,1,2.461,1.266h.035V-9h2.777Zm-2.742-3.3v-.712a2.188,2.188,0,0,0-.505-1.455,1.635,1.635,0,0,0-1.314-.6,1.7,1.7,0,0,0-1.45.721,3.389,3.389,0,0,0-.527,2.03,2.86,2.86,0,0,0,.5,1.78,1.633,1.633,0,0,0,1.371.655,1.7,1.7,0,0,0,1.393-.664A2.721,2.721,0,0,0-23.908-4.324Zm7.543-8.437v3.885h-2.109v-3.885ZM-8.242,2.865H-10.51a11.026,11.026,0,0,1-2.839-7.69A11.731,11.731,0,0,1-10.51-12.6h2.25a12.632,12.632,0,0,0-2.663,7.778A12.216,12.216,0,0,0-8.242,2.865ZM1.77-9-1.2-4.641,1.753,0h-3.2l-1.3-2.426q-.158-.29-.378-.817h-.035a5.707,5.707,0,0,1-.36.791L-4.83,0h-3.19L-4.98-4.482-7.836-9H-4.62l1.283,2.522a5.532,5.532,0,0,1,.36.844h.035A5.946,5.946,0,0,1-2.563-6.5L-1.253-9ZM4.259,2.865H2.009A12.144,12.144,0,0,0,4.7-4.825,12.6,12.6,0,0,0,2.009-12.6H4.277A11.731,11.731,0,0,1,7.124-4.825,11.047,11.047,0,0,1,4.259,2.865ZM24.117-6.152H15.557v-1.8h8.561Zm0,3.814H15.557V-4.122h8.561Z" transform="translate(987 1843.459)" fill="#212429"/>
    <path id="Trazado_1039138" data-name="Trazado 1039138" d="M-92.962-12.6l-4.1,8.121V0h-2.839V-4.43l-4-8.174h3.243l2.03,4.7q.053.132.29,1.028h.035a4.579,4.579,0,0,1,.272-.993l2.065-4.737ZM-87.43-.237v-2.25a5.913,5.913,0,0,0,1.367.615,4.531,4.531,0,0,0,1.288.2,2.762,2.762,0,0,0,1.165-.2.653.653,0,0,0,.426-.615.569.569,0,0,0-.193-.439,1.8,1.8,0,0,0-.5-.308,5.635,5.635,0,0,0-.664-.237q-.36-.105-.694-.237a6.653,6.653,0,0,1-.945-.435,2.731,2.731,0,0,1-.686-.541,2.125,2.125,0,0,1-.422-.712,2.841,2.841,0,0,1-.145-.958,2.466,2.466,0,0,1,.33-1.3,2.692,2.692,0,0,1,.879-.892,4.016,4.016,0,0,1,1.257-.51,6.553,6.553,0,0,1,1.472-.163,8.168,8.168,0,0,1,1.213.092,9.053,9.053,0,0,1,1.213.268v2.145A4.383,4.383,0,0,0-82.2-7.176a4.764,4.764,0,0,0-1.182-.154,2.619,2.619,0,0,0-.514.048,1.693,1.693,0,0,0-.426.141.783.783,0,0,0-.29.237.546.546,0,0,0-.105.33.609.609,0,0,0,.158.422,1.374,1.374,0,0,0,.413.3,4.078,4.078,0,0,0,.567.229q.312.1.62.207a8.056,8.056,0,0,1,1,.422,3.2,3.2,0,0,1,.769.536,2.105,2.105,0,0,1,.492.721,2.562,2.562,0,0,1,.171.984,2.568,2.568,0,0,1-.347,1.367,2.78,2.78,0,0,1-.923.923,4.185,4.185,0,0,1-1.327.519,7.357,7.357,0,0,1-1.56.163A8.042,8.042,0,0,1-87.43-.237Zm9.916-10.187a1.622,1.622,0,0,1-1.151-.417,1.345,1.345,0,0,1-.448-1.024,1.3,1.3,0,0,1,.448-1.02,1.676,1.676,0,0,1,1.151-.4,1.672,1.672,0,0,1,1.156.4,1.3,1.3,0,0,1,.444,1.02,1.34,1.34,0,0,1-.444,1.037A1.65,1.65,0,0,1-77.514-10.424ZM-76.143,0H-78.92V-9h2.777ZM-60.2,0h-2.769V-5.115q0-1.978-1.441-1.978a1.476,1.476,0,0,0-1.2.554,2.136,2.136,0,0,0-.457,1.406V0h-2.777V-13.324h2.777v5.66h.035A3.156,3.156,0,0,1-63.255-9.22q3.059,0,3.059,3.691Zm7.525,2.865h-2.268a11.026,11.026,0,0,1-2.839-7.69A11.731,11.731,0,0,1-54.938-12.6h2.25a12.632,12.632,0,0,0-2.663,7.778A12.216,12.216,0,0,0-52.671,2.865ZM-42.658-9l-2.971,4.359L-42.676,0h-3.2l-1.3-2.426q-.158-.29-.378-.817h-.035a5.707,5.707,0,0,1-.36.791L-49.259,0h-3.19l3.041-4.482L-52.265-9h3.217l1.283,2.522a5.532,5.532,0,0,1,.36.844h.035a5.946,5.946,0,0,1,.378-.861l1.31-2.5Zm2.489,11.865h-2.25a12.144,12.144,0,0,0,2.689-7.69A12.6,12.6,0,0,0-42.419-12.6h2.268A11.731,11.731,0,0,1-37.3-4.825,11.047,11.047,0,0,1-40.169,2.865Zm19.858-9.018h-8.561v-1.8h8.561Zm0,3.814h-8.561V-4.122h8.561ZM-3.406-9-6.377-4.641-3.424,0h-3.2l-1.3-2.426q-.158-.29-.378-.817h-.035a5.707,5.707,0,0,1-.36.791L-10.007,0H-13.2l3.041-4.482L-13.012-9H-9.8l1.283,2.522a5.532,5.532,0,0,1,.36.844h.035A5.946,5.946,0,0,1-7.739-6.5L-6.429-9Zm2.28,1.657H1.991V-6H-2.9v-.554a2.577,2.577,0,0,1,.19-1.013,3.36,3.36,0,0,1,.477-.8A4.136,4.136,0,0,1-1.605-9q.341-.274.649-.495.323-.231.566-.441a3.228,3.228,0,0,0,.41-.418,1.588,1.588,0,0,0,.249-.42,1.25,1.25,0,0,0,.082-.454.912.912,0,0,0-.267-.713,1.185,1.185,0,0,0-.815-.241,2.738,2.738,0,0,0-1.815.754v-1.425a3.9,3.9,0,0,1,2.163-.62,3.2,3.2,0,0,1,1,.146,2.12,2.12,0,0,1,.751.418,1.782,1.782,0,0,1,.469.659A2.223,2.223,0,0,1,2-11.388a2.436,2.436,0,0,1-.156.9,2.773,2.773,0,0,1-.415.718,3.767,3.767,0,0,1-.6.592q-.338.269-.7.52-.246.174-.474.346a4.5,4.5,0,0,0-.4.338,1.837,1.837,0,0,0-.277.326A.562.562,0,0,0-1.126-7.343Zm8.619-6.008L3.91-4.78H2.464l3.568-8.572Zm.478,7.111v-1.41a2.846,2.846,0,0,0,1.723.538,1.551,1.551,0,0,0,.966-.267.885.885,0,0,0,.346-.743.845.845,0,0,0-.428-.759A2.218,2.218,0,0,0,9.4-9.148H8.72v-1.241H9.35q1.435,0,1.435-.954,0-.9-1.1-.9a2.513,2.513,0,0,0-1.435.477v-1.323a3.965,3.965,0,0,1,1.8-.39,2.723,2.723,0,0,1,1.756.508,1.615,1.615,0,0,1,.628,1.318,1.713,1.713,0,0,1-1.461,1.8v.026a1.986,1.986,0,0,1,1.23.566A1.6,1.6,0,0,1,12.657-8.1a1.972,1.972,0,0,1-.754,1.63,3.258,3.258,0,0,1-2.081.6A4.023,4.023,0,0,1,7.971-6.241Zm9.237,4.026L15.916,2.232H13.754l.9-4.447ZM32.514-3.709H26.643q.141,1.96,2.47,1.96a4.822,4.822,0,0,0,2.61-.7v2A6.858,6.858,0,0,1,28.48.22,4.565,4.565,0,0,1,25.1-.989a4.566,4.566,0,0,1-1.2-3.371,4.816,4.816,0,0,1,1.3-3.551,4.334,4.334,0,0,1,3.2-1.31,3.933,3.933,0,0,1,3.045,1.169,4.5,4.5,0,0,1,1.077,3.173ZM29.939-5.414q0-1.934-1.564-1.934a1.494,1.494,0,0,0-1.156.554,2.513,2.513,0,0,0-.593,1.38ZM42.86,0H40.092V-5q0-2.092-1.494-2.092a1.483,1.483,0,0,0-1.187.554,2.109,2.109,0,0,0-.466,1.406V0H34.168V-9h2.777v1.424h.035A3.183,3.183,0,0,1,39.872-9.22q2.988,0,2.988,3.709ZM50.5-.105A4.105,4.105,0,0,1,48.645.22Q45.71.22,45.71-2.83V-6.952H44.251V-9H45.71v-1.942l2.769-.791V-9H50.5v2.048H48.478v3.639q0,1.406,1.116,1.406a1.882,1.882,0,0,0,.905-.255ZM56.285.22a4.838,4.838,0,0,1-3.538-1.261A4.573,4.573,0,0,1,51.46-4.465,4.573,4.573,0,0,1,52.8-7.958,5.048,5.048,0,0,1,56.408-9.22a4.78,4.78,0,0,1,3.516,1.261A4.483,4.483,0,0,1,61.2-4.623a4.759,4.759,0,0,1-1.314,3.542A4.892,4.892,0,0,1,56.285.22Zm.07-7.312a1.852,1.852,0,0,0-1.529.677A2.984,2.984,0,0,0,54.281-4.5q0,2.593,2.092,2.593,2,0,2-2.663Q58.368-7.093,56.355-7.093ZM71.694,0H68.925V-5q0-2.092-1.494-2.092a1.483,1.483,0,0,0-1.187.554,2.109,2.109,0,0,0-.466,1.406V0H63V-9h2.777v1.424h.035A3.183,3.183,0,0,1,68.706-9.22q2.988,0,2.988,3.709Zm9.019-.325A5.492,5.492,0,0,1,78,.22,4.593,4.593,0,0,1,74.64-1.037,4.341,4.341,0,0,1,73.357-4.28,4.782,4.782,0,0,1,74.732-7.9,5.083,5.083,0,0,1,78.41-9.22a4.72,4.72,0,0,1,2.3.422v2.355a3.166,3.166,0,0,0-1.942-.65,2.559,2.559,0,0,0-1.894.7,2.607,2.607,0,0,0-.7,1.929,2.565,2.565,0,0,0,.668,1.876,2.455,2.455,0,0,0,1.837.681,3.666,3.666,0,0,0,2.03-.65ZM90.62-3.709H84.749q.141,1.96,2.47,1.96a4.822,4.822,0,0,0,2.61-.7v2A6.858,6.858,0,0,1,86.586.22,4.565,4.565,0,0,1,83.2-.989,4.566,4.566,0,0,1,82-4.359,4.816,4.816,0,0,1,83.3-7.91a4.334,4.334,0,0,1,3.2-1.31,3.933,3.933,0,0,1,3.045,1.169A4.5,4.5,0,0,1,90.62-4.878ZM88.045-5.414q0-1.934-1.564-1.934a1.494,1.494,0,0,0-1.156.554,2.513,2.513,0,0,0-.593,1.38Zm3.64,5.177v-2.25a5.913,5.913,0,0,0,1.367.615,4.531,4.531,0,0,0,1.288.2,2.762,2.762,0,0,0,1.165-.2.653.653,0,0,0,.426-.615.569.569,0,0,0-.193-.439,1.8,1.8,0,0,0-.5-.308,5.635,5.635,0,0,0-.664-.237q-.36-.105-.694-.237a6.653,6.653,0,0,1-.945-.435,2.731,2.731,0,0,1-.686-.541,2.125,2.125,0,0,1-.422-.712,2.841,2.841,0,0,1-.145-.958,2.466,2.466,0,0,1,.33-1.3,2.692,2.692,0,0,1,.879-.892,4.016,4.016,0,0,1,1.257-.51,6.553,6.553,0,0,1,1.472-.163,8.168,8.168,0,0,1,1.213.092,9.053,9.053,0,0,1,1.213.268v2.145a4.383,4.383,0,0,0-1.129-.461,4.764,4.764,0,0,0-1.182-.154,2.619,2.619,0,0,0-.514.048,1.693,1.693,0,0,0-.426.141.783.783,0,0,0-.29.237.546.546,0,0,0-.105.33.609.609,0,0,0,.158.422,1.374,1.374,0,0,0,.413.3,4.078,4.078,0,0,0,.567.229q.312.1.62.207a8.056,8.056,0,0,1,1,.422,3.2,3.2,0,0,1,.769.536,2.105,2.105,0,0,1,.492.721,2.562,2.562,0,0,1,.171.984,2.568,2.568,0,0,1-.347,1.367,2.78,2.78,0,0,1-.923.923A4.185,4.185,0,0,1,96,.057a7.357,7.357,0,0,1-1.56.163A8.042,8.042,0,0,1,91.686-.237Zm9.749-5.977a1.63,1.63,0,0,1-1.143-.417,1.343,1.343,0,0,1-.457-1.033,1.306,1.306,0,0,1,.47-1.037,1.736,1.736,0,0,1,1.173-.4,1.671,1.671,0,0,1,1.165.409,1.331,1.331,0,0,1,.453,1.033,1.326,1.326,0,0,1-.461,1.046A1.754,1.754,0,0,1,101.434-6.214Zm0,6.434A1.62,1.62,0,0,1,100.292-.2a1.356,1.356,0,0,1-.457-1.037,1.306,1.306,0,0,1,.47-1.037,1.736,1.736,0,0,1,1.173-.4,1.671,1.671,0,0,1,1.165.409,1.331,1.331,0,0,1,.453,1.033,1.339,1.339,0,0,1-.461,1.05A1.742,1.742,0,0,1,101.434.22Z" transform="translate(1038.67 1967.459)" fill="#212429"/>
    <path id="Trazado_1039139" data-name="Trazado 1039139" d="M-41.547-6.152h-8.561v-1.8h8.561Zm0,3.814h-8.561V-4.122h8.561Zm13.539,5.2h-2.268a11.026,11.026,0,0,1-2.839-7.69A11.731,11.731,0,0,1-30.276-12.6h2.25a12.632,12.632,0,0,0-2.663,7.778A12.216,12.216,0,0,0-28.008,2.865ZM-24.087-2.3h5.344V0h-8.385V-.949A4.418,4.418,0,0,1-26.8-2.685a5.76,5.76,0,0,1,.817-1.38,7.09,7.09,0,0,1,1.077-1.081q.584-.47,1.112-.848.554-.4.971-.756a5.534,5.534,0,0,0,.7-.716,2.723,2.723,0,0,0,.426-.721,2.143,2.143,0,0,0,.141-.778,1.563,1.563,0,0,0-.457-1.222,2.032,2.032,0,0,0-1.4-.413,4.694,4.694,0,0,0-3.111,1.292v-2.443a6.679,6.679,0,0,1,3.709-1.063,5.478,5.478,0,0,1,1.718.25,3.635,3.635,0,0,1,1.288.716,3.055,3.055,0,0,1,.8,1.129,3.811,3.811,0,0,1,.277,1.481,4.176,4.176,0,0,1-.268,1.547,4.753,4.753,0,0,1-.712,1.23,6.458,6.458,0,0,1-1.024,1.015q-.58.461-1.2.892-.422.3-.813.593a7.707,7.707,0,0,0-.69.58,3.149,3.149,0,0,0-.475.558A.963.963,0,0,0-24.087-2.3ZM-9.311-12.6l-6.144,14.7h-2.479l6.117-14.7Zm.819,12.19V-2.83a4.878,4.878,0,0,0,2.953.923,2.659,2.659,0,0,0,1.657-.457,1.517,1.517,0,0,0,.593-1.274,1.449,1.449,0,0,0-.734-1.3A3.8,3.8,0,0,0-6.039-5.4H-7.208V-7.523h1.081q2.461,0,2.461-1.635,0-1.538-1.89-1.538a4.308,4.308,0,0,0-2.461.817v-2.268a6.8,6.8,0,0,1,3.094-.668,4.669,4.669,0,0,1,3.01.87A2.769,2.769,0,0,1-.836-9.686a2.937,2.937,0,0,1-2.5,3.094v.044a3.405,3.405,0,0,1,2.109.971A2.738,2.738,0,0,1-.458-3.6,3.382,3.382,0,0,1-1.75-.809,5.586,5.586,0,0,1-5.318.22,6.9,6.9,0,0,1-8.491-.413ZM3.244,2.865H.994a12.144,12.144,0,0,0,2.689-7.69A12.6,12.6,0,0,0,.994-12.6H3.261A11.731,11.731,0,0,1,6.109-4.825,11.047,11.047,0,0,1,3.244,2.865ZM17.343-9,14.373-4.641,17.326,0h-3.2l-1.3-2.426q-.158-.29-.378-.817h-.035a5.707,5.707,0,0,1-.36.791L10.743,0H7.552l3.041-4.482L7.737-9h3.217l1.283,2.522a5.532,5.532,0,0,1,.36.844h.035A5.946,5.946,0,0,1,13.01-6.5L14.32-9Zm3.869,4.671H19.89a6.431,6.431,0,0,1-1.656-4.486,6.843,6.843,0,0,1,1.656-4.537H21.2a7.368,7.368,0,0,0-1.553,4.537A7.126,7.126,0,0,0,21.213-4.329ZM23.5-7.343h3.117V-6H21.727v-.554a2.577,2.577,0,0,1,.19-1.013,3.36,3.36,0,0,1,.477-.8A4.136,4.136,0,0,1,23.021-9q.341-.274.649-.495.323-.231.566-.441a3.228,3.228,0,0,0,.41-.418,1.588,1.588,0,0,0,.249-.42,1.25,1.25,0,0,0,.082-.454.912.912,0,0,0-.267-.713,1.185,1.185,0,0,0-.815-.241,2.738,2.738,0,0,0-1.815.754v-1.425a3.9,3.9,0,0,1,2.163-.62,3.2,3.2,0,0,1,1,.146,2.12,2.12,0,0,1,.751.418,1.782,1.782,0,0,1,.469.659,2.223,2.223,0,0,1,.161.864,2.436,2.436,0,0,1-.156.9,2.773,2.773,0,0,1-.415.718,3.767,3.767,0,0,1-.6.592q-.338.269-.7.52-.246.174-.474.346a4.5,4.5,0,0,0-.4.338,1.837,1.837,0,0,0-.277.326A.562.562,0,0,0,23.5-7.343Zm8.619-6.008L28.536-4.78H27.09l3.568-8.572ZM32.6-6.241v-1.41a2.846,2.846,0,0,0,1.723.538,1.551,1.551,0,0,0,.966-.267.885.885,0,0,0,.346-.743.845.845,0,0,0-.428-.759,2.218,2.218,0,0,0-1.177-.267h-.682v-1.241h.631q1.435,0,1.435-.954,0-.9-1.1-.9a2.513,2.513,0,0,0-1.435.477v-1.323a3.965,3.965,0,0,1,1.8-.39,2.723,2.723,0,0,1,1.756.508,1.615,1.615,0,0,1,.628,1.318,1.713,1.713,0,0,1-1.461,1.8v.026a1.986,1.986,0,0,1,1.23.566A1.6,1.6,0,0,1,37.283-8.1a1.972,1.972,0,0,1-.754,1.63,3.258,3.258,0,0,1-2.081.6A4.023,4.023,0,0,1,32.6-6.241Zm8.978-1.994h-2.8V-9.368h2.8Zm4.974-5.28V-6H44.934v-5.691a1.934,1.934,0,0,1-.315.223,3.255,3.255,0,0,1-.387.19,3.456,3.456,0,0,1-.426.144,3.108,3.108,0,0,1-.436.085v-1.364a6.736,6.736,0,0,0,1.189-.472,6.769,6.769,0,0,0,1.01-.631Zm3.18,9.187H48.416a7.084,7.084,0,0,0,1.569-4.486,7.35,7.35,0,0,0-1.569-4.537h1.323A6.843,6.843,0,0,1,51.4-8.815,6.444,6.444,0,0,1,49.728-4.329ZM-34.65,20.848h-8.561v-1.8h8.561Zm0,3.814h-8.561V22.878h8.561Zm13.539,5.2h-2.268a11.026,11.026,0,0,1-2.839-7.69A11.731,11.731,0,0,1-23.379,14.4h2.25a12.632,12.632,0,0,0-2.663,7.778A12.216,12.216,0,0,0-21.112,29.865ZM-17.19,24.7h5.344V27h-8.385v-.949a4.418,4.418,0,0,1,.325-1.736,5.76,5.76,0,0,1,.817-1.38,7.09,7.09,0,0,1,1.077-1.081q.584-.47,1.112-.848.554-.4.971-.756a5.534,5.534,0,0,0,.7-.716,2.723,2.723,0,0,0,.426-.721,2.143,2.143,0,0,0,.141-.778,1.563,1.563,0,0,0-.457-1.222,2.032,2.032,0,0,0-1.4-.413,4.694,4.694,0,0,0-3.111,1.292V15.249a6.679,6.679,0,0,1,3.709-1.063,5.478,5.478,0,0,1,1.718.25,3.635,3.635,0,0,1,1.288.716,3.055,3.055,0,0,1,.8,1.129,3.811,3.811,0,0,1,.277,1.481A4.176,4.176,0,0,1-12.1,19.31a4.753,4.753,0,0,1-.712,1.23,6.458,6.458,0,0,1-1.024,1.015q-.58.461-1.2.892-.422.3-.813.593a7.707,7.707,0,0,0-.69.58,3.149,3.149,0,0,0-.475.558A.963.963,0,0,0-17.19,24.7ZM-2.414,14.4l-6.144,14.7h-2.479l6.117-14.7Zm.819,12.19V24.17a4.878,4.878,0,0,0,2.953.923,2.659,2.659,0,0,0,1.657-.457,1.517,1.517,0,0,0,.593-1.274,1.449,1.449,0,0,0-.734-1.3A3.8,3.8,0,0,0,.858,21.6H-.311V19.477H.77q2.461,0,2.461-1.635,0-1.538-1.89-1.538a4.308,4.308,0,0,0-2.461.817V14.854a6.8,6.8,0,0,1,3.094-.668,4.669,4.669,0,0,1,3.01.87,2.769,2.769,0,0,1,1.077,2.259,2.937,2.937,0,0,1-2.5,3.094v.044a3.405,3.405,0,0,1,2.109.971A2.738,2.738,0,0,1,6.439,23.4a3.382,3.382,0,0,1-1.292,2.795A5.586,5.586,0,0,1,1.578,27.22,6.9,6.9,0,0,1-1.594,26.587Zm11.735,3.278H7.891a12.144,12.144,0,0,0,2.689-7.69A12.6,12.6,0,0,0,7.891,14.4h2.268a11.731,11.731,0,0,1,2.848,7.778A11.047,11.047,0,0,1,10.141,29.865ZM24.24,18,21.27,22.359,24.223,27h-3.2l-1.3-2.426q-.158-.29-.378-.817H19.31a5.707,5.707,0,0,1-.36.791L17.64,27h-3.19l3.041-4.482L14.634,18h3.217l1.283,2.522a5.532,5.532,0,0,1,.36.844h.035a5.946,5.946,0,0,1,.378-.861l1.31-2.5Zm3.618.765h-2.8V17.632h2.8Zm4.974-5.28V21H31.218V15.309a1.934,1.934,0,0,1-.315.223,3.255,3.255,0,0,1-.387.19,3.456,3.456,0,0,1-.426.144,3.108,3.108,0,0,1-.436.085V14.587a6.848,6.848,0,0,0,2.2-1.1Zm6.553.164L35.8,22.22H34.356l3.568-8.572Zm.478,7.111v-1.41a2.846,2.846,0,0,0,1.723.538,1.551,1.551,0,0,0,.966-.267.885.885,0,0,0,.346-.743.845.845,0,0,0-.428-.759,2.218,2.218,0,0,0-1.177-.267h-.682V16.612h.631q1.435,0,1.435-.954,0-.9-1.1-.9a2.513,2.513,0,0,0-1.435.477V13.915a3.965,3.965,0,0,1,1.8-.39,2.723,2.723,0,0,1,1.756.508,1.615,1.615,0,0,1,.628,1.318,1.713,1.713,0,0,1-1.461,1.8v.026a1.986,1.986,0,0,1,1.23.566,1.6,1.6,0,0,1,.451,1.151,1.972,1.972,0,0,1-.754,1.63,3.258,3.258,0,0,1-2.081.6A4.023,4.023,0,0,1,39.863,20.759Z" transform="translate(1038.67 2045.459)" fill="#212429"/>
    <path id="Trazado_1039140" data-name="Trazado 1039140" d="M-18.713,0h-2.769V-5.115q0-1.978-1.441-1.978a1.476,1.476,0,0,0-1.2.554,2.136,2.136,0,0,0-.457,1.406V0h-2.777V-13.324h2.777v5.66h.035A3.156,3.156,0,0,1-21.772-9.22q3.059,0,3.059,3.691Zm4.678-12.762v3.885h-2.109v-3.885ZM-5.912,2.865H-8.18a11.026,11.026,0,0,1-2.839-7.69A11.731,11.731,0,0,1-8.18-12.6h2.25A12.632,12.632,0,0,0-8.593-4.825,12.216,12.216,0,0,0-5.912,2.865ZM4.1-9,1.129-4.641,4.083,0H.883l-1.3-2.426q-.158-.29-.378-.817H-.831a5.707,5.707,0,0,1-.36.791L-2.5,0h-3.19L-2.65-4.482-5.506-9H-2.29l1.283,2.522a5.532,5.532,0,0,1,.36.844h.035A5.946,5.946,0,0,1-.233-6.5L1.077-9ZM6.589,2.865H4.339a12.144,12.144,0,0,0,2.689-7.69A12.6,12.6,0,0,0,4.339-12.6H6.607A11.731,11.731,0,0,1,9.454-4.825,11.047,11.047,0,0,1,6.589,2.865ZM26.447-6.152H17.887v-1.8h8.561Zm0,3.814H17.887V-4.122h8.561Z" transform="translate(979.67 2007.459)" fill="#212429"/>
    <path id="Trazado_1039141" data-name="Trazado 1039141" d="M-3.478-9-6.448-4.641-3.5,0h-3.2L-8-2.426q-.158-.29-.378-.817h-.035a5.707,5.707,0,0,1-.36.791L-10.078,0h-3.19l3.041-4.482L-13.084-9h3.217l1.283,2.522a5.532,5.532,0,0,1,.36.844h.035A5.946,5.946,0,0,1-7.811-6.5L-6.5-9ZM-1.2-7.343H1.92V-6H-2.971v-.554a2.577,2.577,0,0,1,.19-1.013,3.36,3.36,0,0,1,.477-.8A4.136,4.136,0,0,1-1.677-9q.341-.274.649-.495.323-.231.566-.441a3.228,3.228,0,0,0,.41-.418,1.588,1.588,0,0,0,.249-.42,1.25,1.25,0,0,0,.082-.454.912.912,0,0,0-.267-.713A1.185,1.185,0,0,0-.8-12.183a2.738,2.738,0,0,0-1.815.754v-1.425a3.9,3.9,0,0,1,2.163-.62,3.2,3.2,0,0,1,1,.146,2.12,2.12,0,0,1,.751.418,1.782,1.782,0,0,1,.469.659,2.223,2.223,0,0,1,.161.864,2.436,2.436,0,0,1-.156.9,2.773,2.773,0,0,1-.415.718,3.767,3.767,0,0,1-.6.592q-.338.269-.7.52-.246.174-.474.346a4.5,4.5,0,0,0-.4.338,1.837,1.837,0,0,0-.277.326A.562.562,0,0,0-1.2-7.343Zm8.619-6.008L3.838-4.78H2.392l3.568-8.572ZM7.9-6.241v-1.41a2.846,2.846,0,0,0,1.723.538,1.551,1.551,0,0,0,.966-.267.885.885,0,0,0,.346-.743.845.845,0,0,0-.428-.759A2.218,2.218,0,0,0,9.33-9.148H8.648v-1.241h.631q1.435,0,1.435-.954,0-.9-1.1-.9a2.513,2.513,0,0,0-1.435.477v-1.323a3.965,3.965,0,0,1,1.8-.39,2.723,2.723,0,0,1,1.756.508,1.615,1.615,0,0,1,.628,1.318,1.713,1.713,0,0,1-1.461,1.8v.026a1.986,1.986,0,0,1,1.23.566A1.6,1.6,0,0,1,12.585-8.1a1.972,1.972,0,0,1-.754,1.63,3.258,3.258,0,0,1-2.081.6A4.023,4.023,0,0,1,7.9-6.241Z" transform="translate(1079 2007.459)" fill="#212429"/>
    <path id="Trazado_1039142" data-name="Trazado 1039142" d="M-22.27-6.152H-30.83v-1.8h8.561Zm0,3.814H-30.83V-4.122h8.561ZM-9.162-3.832h-4.808V-5.774h4.808ZM-6.919-.413V-2.83a4.878,4.878,0,0,0,2.953.923,2.659,2.659,0,0,0,1.657-.457,1.517,1.517,0,0,0,.593-1.274,1.449,1.449,0,0,0-.734-1.3A3.8,3.8,0,0,0-4.466-5.4H-5.635V-7.523h1.081q2.461,0,2.461-1.635,0-1.538-1.89-1.538a4.308,4.308,0,0,0-2.461.817v-2.268a6.8,6.8,0,0,1,3.094-.668,4.669,4.669,0,0,1,3.01.87A2.769,2.769,0,0,1,.737-9.686a2.937,2.937,0,0,1-2.5,3.094v.044a3.405,3.405,0,0,1,2.109.971A2.738,2.738,0,0,1,1.115-3.6,3.382,3.382,0,0,1-.177-.809,5.586,5.586,0,0,1-3.746.22,6.9,6.9,0,0,1-6.919-.413ZM12.27-9,9.3-4.641,12.252,0h-3.2l-1.3-2.426q-.158-.29-.378-.817H7.339a5.707,5.707,0,0,1-.36.791L5.669,0H2.479L5.52-4.482,2.663-9H5.88L7.163-6.478a5.532,5.532,0,0,1,.36.844h.035A5.946,5.946,0,0,1,7.937-6.5L9.246-9Zm3.618.765h-2.8V-9.368h2.8ZM17.2-6.241v-1.41a2.846,2.846,0,0,0,1.723.538,1.551,1.551,0,0,0,.966-.267.885.885,0,0,0,.346-.743.845.845,0,0,0-.428-.759,2.218,2.218,0,0,0-1.177-.267h-.682v-1.241h.631q1.435,0,1.435-.954,0-.9-1.1-.9a2.513,2.513,0,0,0-1.435.477v-1.323a3.965,3.965,0,0,1,1.8-.39,2.723,2.723,0,0,1,1.756.508,1.615,1.615,0,0,1,.628,1.318,1.713,1.713,0,0,1-1.461,1.8v.026a1.986,1.986,0,0,1,1.23.566A1.6,1.6,0,0,1,21.882-8.1a1.972,1.972,0,0,1-.754,1.63,3.258,3.258,0,0,1-2.081.6A4.023,4.023,0,0,1,17.2-6.241Zm8.978-1.994h-2.8V-9.368h2.8Zm4.974-5.28V-6H29.533v-5.691a1.934,1.934,0,0,1-.315.223,3.255,3.255,0,0,1-.387.19,3.456,3.456,0,0,1-.426.144,3.108,3.108,0,0,1-.436.085v-1.364a6.736,6.736,0,0,0,1.189-.472,6.769,6.769,0,0,0,1.01-.631ZM-16.5,20.848h-8.561v-1.8H-16.5Zm0,3.814h-8.561V22.878H-16.5ZM-3.4,23.168H-8.2V21.226H-3.4Zm2.243,3.419V24.17a4.878,4.878,0,0,0,2.953.923,2.659,2.659,0,0,0,1.657-.457,1.517,1.517,0,0,0,.593-1.274,1.449,1.449,0,0,0-.734-1.3A3.8,3.8,0,0,0,1.3,21.6H.13V19.477H1.211q2.461,0,2.461-1.635,0-1.538-1.89-1.538a4.308,4.308,0,0,0-2.461.817V14.854a6.8,6.8,0,0,1,3.094-.668,4.669,4.669,0,0,1,3.01.87A2.769,2.769,0,0,1,6.5,17.314,2.937,2.937,0,0,1,4,20.408v.044a3.405,3.405,0,0,1,2.109.971A2.738,2.738,0,0,1,6.88,23.4a3.382,3.382,0,0,1-1.292,2.795A5.586,5.586,0,0,1,2.02,27.22,6.9,6.9,0,0,1-1.153,26.587ZM13.926,15.75l-1.733,2.543L13.916,21H12.05l-.759-1.415q-.092-.169-.22-.477H11.05a3.329,3.329,0,0,1-.21.461L10.076,21H8.215l1.774-2.615L8.323,15.75H10.2l.748,1.471a3.227,3.227,0,0,1,.21.492h.021a3.468,3.468,0,0,1,.22-.5l.764-1.461Zm3.585,3.014h-2.8V17.632h2.8ZM23.1,13.648v4.635h.882v1.21H23.1V21H21.624V19.493h-3.2V18.226q.426-.477.882-1.043t.882-1.166q.426-.6.792-1.207a12.1,12.1,0,0,0,.623-1.161Zm-3.23,4.635h1.753V15.714q-.179.333-.39.674t-.441.672q-.231.331-.467.641T19.87,18.283ZM-18.995,47.848h-8.561v-1.8h8.561Zm0,3.814h-8.561V49.878h8.561Zm13.108-1.494h-4.808V48.226h4.808Zm2.243,3.419V51.17a4.878,4.878,0,0,0,2.953.923,2.659,2.659,0,0,0,1.657-.457,1.517,1.517,0,0,0,.593-1.274,1.449,1.449,0,0,0-.734-1.3A3.8,3.8,0,0,0-1.191,48.6H-2.36V46.477h1.081q2.461,0,2.461-1.635,0-1.538-1.89-1.538a4.308,4.308,0,0,0-2.461.817V41.854a6.8,6.8,0,0,1,3.094-.668,4.669,4.669,0,0,1,3.01.87,2.769,2.769,0,0,1,1.077,2.259,2.937,2.937,0,0,1-2.5,3.094v.044a3.405,3.405,0,0,1,2.109.971A2.738,2.738,0,0,1,4.39,50.4,3.382,3.382,0,0,1,3.1,53.191,5.586,5.586,0,0,1-.471,54.22,6.9,6.9,0,0,1-3.644,53.587ZM13.875,41.4l-6.144,14.7H5.253L11.37,41.4ZM23.527,45l-2.971,4.359L23.509,54h-3.2l-1.3-2.426q-.158-.29-.378-.817H18.6a5.707,5.707,0,0,1-.36.791L16.926,54h-3.19l3.041-4.482L13.921,45h3.217l1.283,2.522a5.532,5.532,0,0,1,.36.844h.035a5.946,5.946,0,0,1,.378-.861L20.5,45Zm4.961-4.352v4.635h.882v1.21h-.882V48H27.012V46.493h-3.2V45.226q.426-.477.882-1.043t.882-1.166q.426-.6.792-1.207a12.1,12.1,0,0,0,.623-1.161Zm-3.23,4.635h1.753V42.714q-.179.333-.39.674t-.441.672q-.231.331-.467.641T25.259,45.283Z" transform="translate(1033 1882.459)" fill="#212429"/>
    <path id="Trazado_1039143" data-name="Trazado 1039143" d="M-.252-9-3.223-4.641-.27,0h-3.2l-1.3-2.426q-.158-.29-.378-.817h-.035a5.707,5.707,0,0,1-.36.791L-6.853,0h-3.19L-7-4.482-9.859-9h3.217l1.283,2.522A5.532,5.532,0,0,1-5-5.634h.035A5.946,5.946,0,0,1-4.585-6.5L-3.276-9Zm3.618.765H.562V-9.368h2.8ZM4.674-6.241v-1.41A2.846,2.846,0,0,0,6.4-7.112a1.551,1.551,0,0,0,.966-.267.885.885,0,0,0,.346-.743.845.845,0,0,0-.428-.759A2.218,2.218,0,0,0,6.1-9.148H5.423v-1.241h.631q1.435,0,1.435-.954,0-.9-1.1-.9a2.513,2.513,0,0,0-1.435.477v-1.323a3.965,3.965,0,0,1,1.8-.39,2.723,2.723,0,0,1,1.756.508A1.615,1.615,0,0,1,9.14-11.65a1.713,1.713,0,0,1-1.461,1.8v.026a1.986,1.986,0,0,1,1.23.566A1.6,1.6,0,0,1,9.36-8.1a1.972,1.972,0,0,1-.754,1.63,3.258,3.258,0,0,1-2.081.6A4.023,4.023,0,0,1,4.674-6.241Z" transform="translate(1077 1843.459)" fill="#212429"/>
    <path id="Trazado_1039144" data-name="Trazado 1039144" d="M9.176-2.971q-.062.272-.119.659t-.105.8Q8.9-1.09,8.873-.69T8.842,0H6.029q0-.123.013-.33t.035-.426q.022-.22.044-.426t.031-.33H6.117a6.665,6.665,0,0,1-.567.7,3.671,3.671,0,0,1-.633.545,2.885,2.885,0,0,1-.734.356,2.825,2.825,0,0,1-.87.127A2.839,2.839,0,0,1,2.149-.009a2.372,2.372,0,0,1-.875-.664A2.985,2.985,0,0,1,.725-1.753,5.248,5.248,0,0,1,.536-3.226,6.584,6.584,0,0,1,.932-5.5,5.72,5.72,0,0,1,2.079-7.409,5.553,5.553,0,0,1,3.911-8.728,5.878,5.878,0,0,1,6.372-9.22q.352,0,.716.035t.593.079l.905-4.219h2.769ZM7.286-7.163a3.089,3.089,0,0,0-.444-.079,4.336,4.336,0,0,0-.47-.026,2.609,2.609,0,0,0-1.063.2,2.684,2.684,0,0,0-.8.532,3.144,3.144,0,0,0-.567.747,4.8,4.8,0,0,0-.365.844,5.075,5.075,0,0,0-.193.826,5.023,5.023,0,0,0-.057.7,2.442,2.442,0,0,0,.07.6,1.519,1.519,0,0,0,.207.479.961.961,0,0,0,.352.316,1.063,1.063,0,0,0,.505.114,1.41,1.41,0,0,0,.866-.286,2.793,2.793,0,0,0,.677-.747,5,5,0,0,0,.5-1.037,10.531,10.531,0,0,0,.334-1.156Z" transform="translate(1032.063 1832)" fill="#212429"/>
    <path id="Trazado_1039145" data-name="Trazado 1039145" d="M9.176-2.971q-.062.272-.119.659t-.105.8Q8.9-1.09,8.873-.69T8.842,0H6.029q0-.123.013-.33t.035-.426q.022-.22.044-.426t.031-.33H6.117a6.665,6.665,0,0,1-.567.7,3.671,3.671,0,0,1-.633.545,2.885,2.885,0,0,1-.734.356,2.825,2.825,0,0,1-.87.127A2.839,2.839,0,0,1,2.149-.009a2.372,2.372,0,0,1-.875-.664A2.985,2.985,0,0,1,.725-1.753,5.248,5.248,0,0,1,.536-3.226,6.584,6.584,0,0,1,.932-5.5,5.72,5.72,0,0,1,2.079-7.409,5.553,5.553,0,0,1,3.911-8.728,5.878,5.878,0,0,1,6.372-9.22q.352,0,.716.035t.593.079l.905-4.219h2.769ZM7.286-7.163a3.089,3.089,0,0,0-.444-.079,4.336,4.336,0,0,0-.47-.026,2.609,2.609,0,0,0-1.063.2,2.684,2.684,0,0,0-.8.532,3.144,3.144,0,0,0-.567.747,4.8,4.8,0,0,0-.365.844,5.075,5.075,0,0,0-.193.826,5.023,5.023,0,0,0-.057.7,2.442,2.442,0,0,0,.07.6,1.519,1.519,0,0,0,.207.479.961.961,0,0,0,.352.316,1.063,1.063,0,0,0,.505.114,1.41,1.41,0,0,0,.866-.286,2.793,2.793,0,0,0,.677-.747,5,5,0,0,0,.5-1.037,10.531,10.531,0,0,0,.334-1.156Zm7.384-1.472L15.839-6h-1.8l-.472-1.374q-.041-.118-.077-.254t-.067-.264H13.4q-.077.128-.154.261a1.886,1.886,0,0,1-.159.236L12.046-6H10.139l2.338-2.656L11.354-11.25h1.8l.431,1.384a2.141,2.141,0,0,1,.087.29q.036.156.051.259h.021q.062-.113.164-.264t.185-.264l1.025-1.4h1.84Z" transform="translate(1027.063 1858)" fill="#212429"/>
    <path id="Trazado_1038784" data-name="Trazado 1038784" d="M2526.533,1495h36.338" transform="translate(-1506.533 345)" fill="none" stroke="#212429" stroke-width="1"/>
    <path id="Trazado_1039146" data-name="Trazado 1039146" d="M9.176-2.971q-.062.272-.119.659t-.105.8Q8.9-1.09,8.873-.69T8.842,0H6.029q0-.123.013-.33t.035-.426q.022-.22.044-.426t.031-.33H6.117a6.665,6.665,0,0,1-.567.7,3.671,3.671,0,0,1-.633.545,2.885,2.885,0,0,1-.734.356,2.825,2.825,0,0,1-.87.127A2.839,2.839,0,0,1,2.149-.009a2.372,2.372,0,0,1-.875-.664A2.985,2.985,0,0,1,.725-1.753,5.248,5.248,0,0,1,.536-3.226,6.584,6.584,0,0,1,.932-5.5,5.72,5.72,0,0,1,2.079-7.409,5.553,5.553,0,0,1,3.911-8.728,5.878,5.878,0,0,1,6.372-9.22q.352,0,.716.035t.593.079l.905-4.219h2.769ZM7.286-7.163a3.089,3.089,0,0,0-.444-.079,4.336,4.336,0,0,0-.47-.026,2.609,2.609,0,0,0-1.063.2,2.684,2.684,0,0,0-.8.532,3.144,3.144,0,0,0-.567.747,4.8,4.8,0,0,0-.365.844,5.075,5.075,0,0,0-.193.826,5.023,5.023,0,0,0-.057.7,2.442,2.442,0,0,0,.07.6,1.519,1.519,0,0,0,.207.479.961.961,0,0,0,.352.316,1.063,1.063,0,0,0,.505.114,1.41,1.41,0,0,0,.866-.286,2.793,2.793,0,0,0,.677-.747,5,5,0,0,0,.5-1.037,10.531,10.531,0,0,0,.334-1.156Z" transform="translate(1032.063 1994.459)" fill="#212429"/>
    <path id="Trazado_1039147" data-name="Trazado 1039147" d="M9.176-2.971q-.062.272-.119.659t-.105.8Q8.9-1.09,8.873-.69T8.842,0H6.029q0-.123.013-.33t.035-.426q.022-.22.044-.426t.031-.33H6.117a6.665,6.665,0,0,1-.567.7,3.671,3.671,0,0,1-.633.545,2.885,2.885,0,0,1-.734.356,2.825,2.825,0,0,1-.87.127A2.839,2.839,0,0,1,2.149-.009a2.372,2.372,0,0,1-.875-.664A2.985,2.985,0,0,1,.725-1.753,5.248,5.248,0,0,1,.536-3.226,6.584,6.584,0,0,1,.932-5.5,5.72,5.72,0,0,1,2.079-7.409,5.553,5.553,0,0,1,3.911-8.728,5.878,5.878,0,0,1,6.372-9.22q.352,0,.716.035t.593.079l.905-4.219h2.769ZM7.286-7.163a3.089,3.089,0,0,0-.444-.079,4.336,4.336,0,0,0-.47-.026,2.609,2.609,0,0,0-1.063.2,2.684,2.684,0,0,0-.8.532,3.144,3.144,0,0,0-.567.747,4.8,4.8,0,0,0-.365.844,5.075,5.075,0,0,0-.193.826,5.023,5.023,0,0,0-.057.7,2.442,2.442,0,0,0,.07.6,1.519,1.519,0,0,0,.207.479.961.961,0,0,0,.352.316,1.063,1.063,0,0,0,.505.114,1.41,1.41,0,0,0,.866-.286,2.793,2.793,0,0,0,.677-.747,5,5,0,0,0,.5-1.037,10.531,10.531,0,0,0,.334-1.156Zm7.384-1.472L15.839-6h-1.8l-.472-1.374q-.041-.118-.077-.254t-.067-.264H13.4q-.077.128-.154.261a1.886,1.886,0,0,1-.159.236L12.046-6H10.139l2.338-2.656L11.354-11.25h1.8l.431,1.384a2.141,2.141,0,0,1,.087.29q.036.156.051.259h.021q.062-.113.164-.264t.185-.264l1.025-1.4h1.84Z" transform="translate(1027.063 2020.459)" fill="#212429"/>
    <path id="Trazado_1038784-2" data-name="Trazado 1038784" d="M2526.533,1495h36.338" transform="translate(-1506.533 507.459)" fill="none" stroke="#212429" stroke-width="1"/>
  </g>
</svg>
