<svg xmlns="http://www.w3.org/2000/svg" width="243.04" height="199.372" viewBox="0 0 243.04 199.372">
  <g id="Grupo_1177795" data-name="Grupo 1177795" transform="translate(-876.092 -3603.768)">
    <path id="Trazado_1039140" data-name="Trazado 1039140" d="M-71.657-6.152h-8.561v-1.8h8.561Zm0,3.814h-8.561V-4.122h8.561Zm8.072,1.925V-2.83a4.878,4.878,0,0,0,2.953.923,2.659,2.659,0,0,0,1.657-.457,1.517,1.517,0,0,0,.593-1.274,1.449,1.449,0,0,0-.734-1.3A3.8,3.8,0,0,0-61.133-5.4H-62.3V-7.523h1.081q2.461,0,2.461-1.635,0-1.538-1.89-1.538a4.308,4.308,0,0,0-2.461.817v-2.268a6.8,6.8,0,0,1,3.094-.668,4.669,4.669,0,0,1,3.01.87A2.769,2.769,0,0,1-55.93-9.686a2.937,2.937,0,0,1-2.5,3.094v.044a3.405,3.405,0,0,1,2.109.971A2.738,2.738,0,0,1-55.552-3.6,3.382,3.382,0,0,1-56.844-.809,5.586,5.586,0,0,1-60.412.22,6.9,6.9,0,0,1-63.585-.413ZM-38.655-2.18-39.93-.914-42.9-3.9-45.889-.914-47.163-2.2l2.988-2.953-2.988-2.988,1.239-1.274L-42.9-6.425l3.006-2.988,1.222,1.327L-41.644-5.15ZM-27.824-2.3h5.344V0h-8.385V-.949a4.418,4.418,0,0,1,.325-1.736,5.76,5.76,0,0,1,.817-1.38,7.09,7.09,0,0,1,1.077-1.081q.584-.47,1.112-.848.554-.4.971-.756a5.534,5.534,0,0,0,.7-.716,2.723,2.723,0,0,0,.426-.721,2.143,2.143,0,0,0,.141-.778,1.563,1.563,0,0,0-.457-1.222,2.032,2.032,0,0,0-1.4-.413,4.694,4.694,0,0,0-3.111,1.292v-2.443a6.679,6.679,0,0,1,3.709-1.063,5.478,5.478,0,0,1,1.718.25,3.635,3.635,0,0,1,1.288.716,3.055,3.055,0,0,1,.8,1.129,3.811,3.811,0,0,1,.277,1.481A4.176,4.176,0,0,1-22.73-7.69a4.753,4.753,0,0,1-.712,1.23,6.458,6.458,0,0,1-1.024,1.015q-.58.461-1.2.892-.422.3-.813.593a7.707,7.707,0,0,0-.69.58,3.149,3.149,0,0,0-.475.558A.963.963,0,0,0-27.824-2.3ZM-11.378-9l-2.971,4.359L-11.4,0h-3.2l-1.3-2.426q-.158-.29-.378-.817h-.035a5.707,5.707,0,0,1-.36.791L-17.978,0h-3.19l3.041-4.482L-20.984-9h3.217l1.283,2.522a5.532,5.532,0,0,1,.36.844h.035a5.946,5.946,0,0,1,.378-.861L-14.4-9ZM-.265-3.832H-5.072V-5.774H-.265ZM7.166-.325V-2.7a5.181,5.181,0,0,0,2.751.791,2.584,2.584,0,0,0,1.718-.523,1.76,1.76,0,0,0,.62-1.419q0-1.872-2.646-1.872a19.59,19.59,0,0,0-2.25.149L7.834-12.6H14.5v2.268H9.952L9.776-7.813q.677-.053,1.169-.053a4.3,4.3,0,0,1,3.041,1.02,3.56,3.56,0,0,1,1.1,2.742,4.048,4.048,0,0,1-1.31,3.116A5.032,5.032,0,0,1,10.224.22,7.6,7.6,0,0,1,7.166-.325ZM31.875-2.18,30.6-.914,27.63-3.9,24.642-.914,23.368-2.2,26.356-5.15,23.368-8.139l1.239-1.274L27.63-6.425l3.006-2.988,1.222,1.327L28.887-5.15ZM46.249-12.885V0H43.481V-9.756a3.315,3.315,0,0,1-.541.382,5.58,5.58,0,0,1-.664.325,5.925,5.925,0,0,1-.729.246,5.328,5.328,0,0,1-.747.145V-11a11.549,11.549,0,0,0,2.039-.809,11.6,11.6,0,0,0,1.731-1.081ZM64.912-4.263H61.528V-.879H59.753V-4.263h-3.4V-6.047h3.4v-3.4h1.775v3.4h3.384ZM77.062.22q-4.5,0-4.5-6.319a8.6,8.6,0,0,1,1.217-5,4.056,4.056,0,0,1,3.529-1.718q4.395,0,4.395,6.425a8.466,8.466,0,0,1-1.2,4.9A3.952,3.952,0,0,1,77.062.22ZM77.185-10.7q-1.8,0-1.8,4.526,0,4.263,1.767,4.263,1.723,0,1.723-4.395T77.185-10.7ZM-22.99,20.848H-31.55v-1.8h8.561Zm0,3.814H-31.55V22.878h8.561Zm16.8-1.854a4.62,4.62,0,0,1-.325,1.74,4.248,4.248,0,0,1-.905,1.4,4.189,4.189,0,0,1-1.38.932,4.443,4.443,0,0,1-1.749.338,4.412,4.412,0,0,1-1.9-.4,3.841,3.841,0,0,1-1.419-1.147,5.363,5.363,0,0,1-.888-1.841,9.1,9.1,0,0,1-.308-2.47,10.168,10.168,0,0,1,.4-2.949,6.77,6.77,0,0,1,1.143-2.263,5.132,5.132,0,0,1,1.8-1.455,5.345,5.345,0,0,1,2.373-.514,5.986,5.986,0,0,1,2.268.343v2.32A4.158,4.158,0,0,0-9.178,16.3a2.923,2.923,0,0,0-1.274.272,2.817,2.817,0,0,0-.98.773,3.74,3.74,0,0,0-.642,1.208,5.378,5.378,0,0,0-.25,1.578h.053A3.057,3.057,0,0,1-9.627,18.9a3.447,3.447,0,0,1,1.415.281,3.07,3.07,0,0,1,1.081.8,3.649,3.649,0,0,1,.694,1.235A4.927,4.927,0,0,1-6.19,22.808Zm-2.716.176q0-2.03-1.661-2.03a1.63,1.63,0,0,0-.686.141,1.525,1.525,0,0,0-.527.4,1.8,1.8,0,0,0-.338.6,2.366,2.366,0,0,0-.119.769,2.974,2.974,0,0,0,.123.87,2.311,2.311,0,0,0,.347.708,1.719,1.719,0,0,0,.532.479,1.357,1.357,0,0,0,.686.176,1.484,1.484,0,0,0,.681-.154,1.525,1.525,0,0,0,.519-.431,1.979,1.979,0,0,0,.33-.668A3.047,3.047,0,0,0-8.906,22.983ZM4.271,18,1.3,22.359,4.253,27h-3.2l-1.3-2.426q-.158-.29-.378-.817H-.66a5.707,5.707,0,0,1-.36.791L-2.33,27H-5.52l3.041-4.482L-5.336,18h3.217l1.283,2.522a5.532,5.532,0,0,1,.36.844H-.44A5.946,5.946,0,0,1-.062,20.5L1.247,18Zm14.049,5.168h-9V21.226h9Zm6.217,3.507V24.3a5.181,5.181,0,0,0,2.751.791,2.584,2.584,0,0,0,1.718-.523,1.76,1.76,0,0,0,.62-1.419q0-1.872-2.646-1.872a19.59,19.59,0,0,0-2.25.149L25.2,14.4h6.671v2.268H27.323l-.176,2.522q.677-.053,1.169-.053a4.3,4.3,0,0,1,3.041,1.02,3.56,3.56,0,0,1,1.1,2.742,4.048,4.048,0,0,1-1.31,3.116A5.032,5.032,0,0,1,27.6,27.22,7.6,7.6,0,0,1,24.537,26.675Z" transform="translate(989 3775.92)" fill="#212429"/>
    <path id="Trazado_1039141" data-name="Trazado 1039141" d="M3.771-2.3H9.114V0H.729V-.949a4.418,4.418,0,0,1,.325-1.736,5.76,5.76,0,0,1,.817-1.38A7.09,7.09,0,0,1,2.949-5.146q.584-.47,1.112-.848.554-.4.971-.756a5.534,5.534,0,0,0,.7-.716,2.723,2.723,0,0,0,.426-.721A2.143,2.143,0,0,0,6.3-8.965a1.563,1.563,0,0,0-.457-1.222,2.032,2.032,0,0,0-1.4-.413A4.694,4.694,0,0,0,1.336-9.308v-2.443a6.679,6.679,0,0,1,3.709-1.063,5.478,5.478,0,0,1,1.718.25,3.635,3.635,0,0,1,1.288.716,3.055,3.055,0,0,1,.8,1.129,3.811,3.811,0,0,1,.277,1.481A4.176,4.176,0,0,1,8.864-7.69a4.753,4.753,0,0,1-.712,1.23A6.458,6.458,0,0,1,7.128-5.445q-.58.461-1.2.892-.422.3-.813.593a7.707,7.707,0,0,0-.69.58,3.149,3.149,0,0,0-.475.558A.963.963,0,0,0,3.771-2.3Z" transform="translate(1110 3685)" fill="#212429"/>
    <path id="Trazado_1039142" data-name="Trazado 1039142" d="M-21.2,0h-2.769V-5.115q0-1.978-1.441-1.978a1.476,1.476,0,0,0-1.2.554,2.136,2.136,0,0,0-.457,1.406V0h-2.777V-13.324h2.777v5.66h.035A3.156,3.156,0,0,1-24.255-9.22q3.059,0,3.059,3.691Zm4.678-12.762v3.885h-2.109v-3.885ZM-8.4,2.865h-2.268A11.026,11.026,0,0,1-13.5-4.825,11.731,11.731,0,0,1-10.664-12.6h2.25a12.632,12.632,0,0,0-2.663,7.778A12.216,12.216,0,0,0-8.4,2.865ZM1.616-9-1.354-4.641,1.6,0H-1.6L-2.9-2.426q-.158-.29-.378-.817h-.035a5.707,5.707,0,0,1-.36.791L-4.984,0h-3.19l3.041-4.482L-7.99-9h3.217L-3.49-6.478a5.532,5.532,0,0,1,.36.844h.035A5.946,5.946,0,0,1-2.717-6.5L-1.407-9ZM4.105,2.865H1.855a12.144,12.144,0,0,0,2.689-7.69A12.6,12.6,0,0,0,1.855-12.6H4.123A11.731,11.731,0,0,1,6.971-4.825,11.047,11.047,0,0,1,4.105,2.865ZM23.963-6.152H15.4v-1.8h8.561Zm0,3.814H15.4V-4.122h8.561Z" transform="translate(907 3634.227)" fill="#212429"/>
    <path id="Trazado_1039143" data-name="Trazado 1039143" d="M6.029,2.865H1.907V-12.6H6.029v1.767H4.192V1.1H6.029ZM7.675-.413V-2.83a4.878,4.878,0,0,0,2.953.923,2.659,2.659,0,0,0,1.657-.457,1.517,1.517,0,0,0,.593-1.274,1.449,1.449,0,0,0-.734-1.3A3.8,3.8,0,0,0,10.127-5.4H8.958V-7.523h1.081q2.461,0,2.461-1.635,0-1.538-1.89-1.538a4.308,4.308,0,0,0-2.461.817v-2.268a6.8,6.8,0,0,1,3.094-.668,4.669,4.669,0,0,1,3.01.87A2.769,2.769,0,0,1,15.33-9.686a2.937,2.937,0,0,1-2.5,3.094v.044a3.405,3.405,0,0,1,2.109.971A2.738,2.738,0,0,1,15.708-3.6,3.382,3.382,0,0,1,14.416-.809,5.586,5.586,0,0,1,10.848.22,6.9,6.9,0,0,1,7.675-.413ZM26.863-9,23.892-4.641,26.845,0h-3.2l-1.3-2.426q-.158-.29-.378-.817h-.035a5.707,5.707,0,0,1-.36.791L20.262,0h-3.19l3.041-4.482L17.257-9h3.217l1.283,2.522a5.532,5.532,0,0,1,.36.844h.035A5.946,5.946,0,0,1,22.53-6.5L23.84-9Zm2.28,1.657H32.26V-6H27.369v-.554a2.577,2.577,0,0,1,.19-1.013,3.36,3.36,0,0,1,.477-.8A4.136,4.136,0,0,1,28.664-9q.341-.274.649-.495.323-.231.566-.441a3.228,3.228,0,0,0,.41-.418,1.588,1.588,0,0,0,.249-.42,1.25,1.25,0,0,0,.082-.454.912.912,0,0,0-.267-.713,1.185,1.185,0,0,0-.815-.241,2.738,2.738,0,0,0-1.815.754v-1.425a3.9,3.9,0,0,1,2.163-.62,3.2,3.2,0,0,1,1,.146,2.12,2.12,0,0,1,.751.418,1.782,1.782,0,0,1,.469.659,2.223,2.223,0,0,1,.161.864,2.436,2.436,0,0,1-.156.9,2.773,2.773,0,0,1-.415.718,3.767,3.767,0,0,1-.6.592q-.338.269-.7.52-.246.174-.474.346a4.5,4.5,0,0,0-.4.338,1.837,1.837,0,0,0-.277.326A.562.562,0,0,0,29.143-7.343ZM44.016-3.832H39.209V-5.774h4.808Zm7.43,3.507V-2.7a5.181,5.181,0,0,0,2.751.791,2.584,2.584,0,0,0,1.718-.523,1.76,1.76,0,0,0,.62-1.419q0-1.872-2.646-1.872a19.59,19.59,0,0,0-2.25.149l.475-7.031h6.671v2.268H54.233l-.176,2.522q.677-.053,1.169-.053a4.3,4.3,0,0,1,3.041,1.02,3.56,3.56,0,0,1,1.1,2.742,4.048,4.048,0,0,1-1.31,3.116A5.032,5.032,0,0,1,54.505.22,7.6,7.6,0,0,1,51.447-.325ZM70.415-9,67.444-4.641,70.4,0H67.2L65.9-2.426q-.158-.29-.378-.817h-.035a5.707,5.707,0,0,1-.36.791L63.815,0h-3.19l3.041-4.482L60.809-9h3.217l1.283,2.522a5.532,5.532,0,0,1,.36.844H65.7a5.946,5.946,0,0,1,.378-.861L67.392-9Zm15.7,4.737H82.732V-.879H80.957V-4.263h-3.4V-6.047h3.4v-3.4h1.775v3.4h3.384ZM96.93-2.3h5.344V0H93.889V-.949a4.418,4.418,0,0,1,.325-1.736,5.76,5.76,0,0,1,.817-1.38,7.09,7.09,0,0,1,1.077-1.081q.584-.47,1.112-.848.554-.4.971-.756a5.534,5.534,0,0,0,.7-.716,2.723,2.723,0,0,0,.426-.721,2.143,2.143,0,0,0,.141-.778A1.563,1.563,0,0,0,99-10.187a2.032,2.032,0,0,0-1.4-.413A4.694,4.694,0,0,0,94.5-9.308v-2.443A6.679,6.679,0,0,1,98.2-12.814a5.478,5.478,0,0,1,1.718.25,3.635,3.635,0,0,1,1.288.716,3.055,3.055,0,0,1,.8,1.129,3.811,3.811,0,0,1,.277,1.481,4.176,4.176,0,0,1-.268,1.547,4.753,4.753,0,0,1-.712,1.23,6.458,6.458,0,0,1-1.024,1.015q-.58.461-1.2.892-.422.3-.813.593a7.707,7.707,0,0,0-.69.58,3.149,3.149,0,0,0-.475.558A.963.963,0,0,0,96.93-2.3Zm11.34,5.168h-4.14V1.1h1.854V-10.837H104.13V-12.6h4.14Z" transform="translate(990.661 3634.227)" fill="#212429"/>
    <g id="Grupo_1177705" data-name="Grupo 1177705" transform="translate(-74.339 1790.768)">
      <text id="d" transform="translate(1032.063 1832)" fill="#212429" font-size="18" font-family="SegoeUI-BoldItalic, Segoe UI" font-weight="700" font-style="italic" letter-spacing="0em"><tspan x="0" y="0">d</tspan></text>
      <text id="dx" transform="translate(1027.063 1858)" fill="#212429" font-size="18" font-family="SegoeUI-BoldItalic, Segoe UI" font-weight="700" font-style="italic" letter-spacing="0em"><tspan x="0" y="0">dx</tspan></text>
      <path id="Trazado_1038784" data-name="Trazado 1038784" d="M2526.533,1495h36.338" transform="translate(-1506.533 345)" fill="none" stroke="#212429" stroke-width="1"/>
    </g>
    <path id="Trazado_1039144" data-name="Trazado 1039144" d="M10.652-6.152H2.092v-1.8h8.561Zm0,3.814H2.092V-4.122h8.561ZM18.724-.413V-2.83a4.878,4.878,0,0,0,2.953.923,2.659,2.659,0,0,0,1.657-.457,1.517,1.517,0,0,0,.593-1.274,1.449,1.449,0,0,0-.734-1.3A3.8,3.8,0,0,0,21.176-5.4H20.008V-7.523h1.081q2.461,0,2.461-1.635,0-1.538-1.89-1.538a4.308,4.308,0,0,0-2.461.817v-2.268a6.8,6.8,0,0,1,3.094-.668,4.669,4.669,0,0,1,3.01.87A2.769,2.769,0,0,1,26.38-9.686a2.937,2.937,0,0,1-2.5,3.094v.044a3.405,3.405,0,0,1,2.109.971A2.738,2.738,0,0,1,26.758-3.6,3.382,3.382,0,0,1,25.466-.809,5.586,5.586,0,0,1,21.9.22,6.9,6.9,0,0,1,18.724-.413Z" transform="translate(878 3738.073)" fill="#212429"/>
    <path id="Trazado_1039145" data-name="Trazado 1039145" d="M9.861-9,6.891-4.641,9.844,0h-3.2l-1.3-2.426q-.158-.29-.378-.817H4.931a5.707,5.707,0,0,1-.36.791L3.261,0H.07L3.111-4.482.255-9H3.472L4.755-6.478a5.532,5.532,0,0,1,.36.844H5.15A5.946,5.946,0,0,1,5.528-6.5L6.838-9Zm2.28,1.657h3.117V-6H10.368v-.554a2.577,2.577,0,0,1,.19-1.013,3.36,3.36,0,0,1,.477-.8A4.136,4.136,0,0,1,11.662-9q.341-.274.649-.495.323-.231.566-.441a3.228,3.228,0,0,0,.41-.418,1.588,1.588,0,0,0,.249-.42,1.25,1.25,0,0,0,.082-.454.912.912,0,0,0-.267-.713,1.185,1.185,0,0,0-.815-.241,2.738,2.738,0,0,0-1.815.754v-1.425a3.9,3.9,0,0,1,2.163-.62,3.2,3.2,0,0,1,1,.146,2.12,2.12,0,0,1,.751.418,1.782,1.782,0,0,1,.469.659,2.223,2.223,0,0,1,.161.864,2.436,2.436,0,0,1-.156.9,2.773,2.773,0,0,1-.415.718,3.767,3.767,0,0,1-.6.592q-.338.269-.7.52-.246.174-.474.346a4.5,4.5,0,0,0-.4.338,1.837,1.837,0,0,0-.277.326A.562.562,0,0,0,12.142-7.343ZM27.015-3.832H22.207V-5.774h4.808Zm7.43,3.507V-2.7a5.181,5.181,0,0,0,2.751.791,2.584,2.584,0,0,0,1.718-.523,1.76,1.76,0,0,0,.62-1.419q0-1.872-2.646-1.872a19.59,19.59,0,0,0-2.25.149l.475-7.031h6.671v2.268H37.231l-.176,2.522q.677-.053,1.169-.053a4.3,4.3,0,0,1,3.041,1.02,3.56,3.56,0,0,1,1.1,2.742,4.048,4.048,0,0,1-1.31,3.116A5.032,5.032,0,0,1,37.5.22,7.6,7.6,0,0,1,34.445-.325Z" transform="translate(961.661 3735.92)" fill="#212429"/>
    <path id="Trazado_1039146" data-name="Trazado 1039146" d="M9.861-9,6.891-4.641,9.844,0h-3.2l-1.3-2.426q-.158-.29-.378-.817H4.931a5.707,5.707,0,0,1-.36.791L3.261,0H.07L3.111-4.482.255-9H3.472L4.755-6.478a5.532,5.532,0,0,1,.36.844H5.15A5.946,5.946,0,0,1,5.528-6.5L6.838-9Zm15.7,4.737H22.178V-.879H20.4V-4.263H17V-6.047h3.4v-3.4h1.775v3.4h3.384ZM37.712.22q-4.5,0-4.5-6.319a8.6,8.6,0,0,1,1.217-5,4.056,4.056,0,0,1,3.529-1.718q4.395,0,4.395,6.425a8.466,8.466,0,0,1-1.2,4.9A3.952,3.952,0,0,1,37.712.22ZM37.835-10.7q-1.8,0-1.8,4.526,0,4.263,1.767,4.263,1.723,0,1.723-4.395T37.835-10.7Z" transform="translate(1060.321 3735.92)" fill="#212429"/>
    <g id="Grupo_1177719" data-name="Grupo 1177719" transform="translate(-103.339 1890.92)">
      <text id="d-2" data-name="d" transform="translate(1032.063 1832)" fill="#212429" font-size="18" font-family="SegoeUI-BoldItalic, Segoe UI" font-weight="700" font-style="italic" letter-spacing="0em"><tspan x="0" y="0">d</tspan></text>
      <text id="dx-2" data-name="dx" transform="translate(1027.063 1858)" fill="#212429" font-size="18" font-family="SegoeUI-BoldItalic, Segoe UI" font-weight="700" font-style="italic" letter-spacing="0em"><tspan x="0" y="0">dx</tspan></text>
      <path id="Trazado_1038784-2" data-name="Trazado 1038784" d="M2526.533,1495h36.338" transform="translate(-1506.533 345)" fill="none" stroke="#212429" stroke-width="1"/>
    </g>
    <g id="Grupo_1177718" data-name="Grupo 1177718" transform="translate(-4.679 1890.92)">
      <text id="d-3" data-name="d" transform="translate(1032.063 1832)" fill="#212429" font-size="18" font-family="SegoeUI-BoldItalic, Segoe UI" font-weight="700" font-style="italic" letter-spacing="0em"><tspan x="0" y="0">d</tspan></text>
      <text id="dx-3" data-name="dx" transform="translate(1027.063 1858)" fill="#212429" font-size="18" font-family="SegoeUI-BoldItalic, Segoe UI" font-weight="700" font-style="italic" letter-spacing="0em"><tspan x="0" y="0">dx</tspan></text>
      <path id="Trazado_1038784-3" data-name="Trazado 1038784" d="M2526.533,1495h36.338" transform="translate(-1506.533 345)" fill="none" stroke="#212429" stroke-width="1"/>
    </g>
    <path id="Trazado_1039147" data-name="Trazado 1039147" d="M10.652-6.152H2.092v-1.8h8.561Zm0,3.814H2.092V-4.122h8.561Z" transform="translate(874 3685.073)" fill="#212429"/>
    <path id="Trazado_1039148" data-name="Trazado 1039148" d="M1.028-.413V-2.83a4.878,4.878,0,0,0,2.953.923,2.659,2.659,0,0,0,1.657-.457,1.517,1.517,0,0,0,.593-1.274,1.449,1.449,0,0,0-.734-1.3A3.8,3.8,0,0,0,3.48-5.4H2.312V-7.523H3.393q2.461,0,2.461-1.635,0-1.538-1.89-1.538A4.308,4.308,0,0,0,1.5-9.879v-2.268A6.8,6.8,0,0,1,4.6-12.814a4.669,4.669,0,0,1,3.01.87A2.769,2.769,0,0,1,8.684-9.686a2.937,2.937,0,0,1-2.5,3.094v.044a3.405,3.405,0,0,1,2.109.971A2.738,2.738,0,0,1,9.062-3.6,3.382,3.382,0,0,1,7.77-.809,5.586,5.586,0,0,1,4.2.22,6.9,6.9,0,0,1,1.028-.413ZM20.217-9,17.246-4.641,20.2,0H17L15.7-2.426q-.158-.29-.378-.817h-.035a5.707,5.707,0,0,1-.36.791L13.616,0h-3.19l3.041-4.482L10.61-9h3.217L15.11-6.478a5.532,5.532,0,0,1,.36.844h.035a5.946,5.946,0,0,1,.378-.861L17.193-9ZM22.5-7.343h3.117V-6H20.723v-.554a2.577,2.577,0,0,1,.19-1.013,3.36,3.36,0,0,1,.477-.8A4.136,4.136,0,0,1,22.018-9q.341-.274.649-.495.323-.231.566-.441a3.228,3.228,0,0,0,.41-.418,1.588,1.588,0,0,0,.249-.42,1.25,1.25,0,0,0,.082-.454.912.912,0,0,0-.267-.713,1.185,1.185,0,0,0-.815-.241,2.738,2.738,0,0,0-1.815.754v-1.425a3.9,3.9,0,0,1,2.163-.62,3.2,3.2,0,0,1,1,.146,2.12,2.12,0,0,1,.751.418,1.782,1.782,0,0,1,.469.659,2.223,2.223,0,0,1,.161.864,2.436,2.436,0,0,1-.156.9,2.773,2.773,0,0,1-.415.718,3.767,3.767,0,0,1-.6.592q-.338.269-.7.52-.246.174-.474.346a4.5,4.5,0,0,0-.4.338,1.837,1.837,0,0,0-.277.326A.562.562,0,0,0,22.5-7.343ZM37.37-3.832H32.562V-5.774H37.37Z" transform="translate(941.661 3685.073)" fill="#212429"/>
    <path id="Trazado_1039149" data-name="Trazado 1039149" d="M1.248-.325V-2.7A5.181,5.181,0,0,0,4-1.907,2.584,2.584,0,0,0,5.717-2.43a1.76,1.76,0,0,0,.62-1.419q0-1.872-2.646-1.872a19.59,19.59,0,0,0-2.25.149L1.916-12.6H8.587v2.268H4.034L3.858-7.813q.677-.053,1.169-.053a4.3,4.3,0,0,1,3.041,1.02A3.56,3.56,0,0,1,9.167-4.1,4.048,4.048,0,0,1,7.857-.989,5.032,5.032,0,0,1,4.307.22,7.6,7.6,0,0,1,1.248-.325ZM20.217-9,17.246-4.641,20.2,0H17L15.7-2.426q-.158-.29-.378-.817h-.035a5.707,5.707,0,0,1-.36.791L13.616,0h-3.19l3.041-4.482L10.61-9h3.217L15.11-6.478a5.532,5.532,0,0,1,.36.844h.035a5.946,5.946,0,0,1,.378-.861L17.193-9Zm15.7,4.737H32.534V-.879H30.758V-4.263h-3.4V-6.047h3.4v-3.4h1.775v3.4h3.384Z" transform="translate(1028.661 3685.073)" fill="#212429"/>
    <g id="Grupo_1177714" data-name="Grupo 1177714" transform="translate(-123.339 1840.073)">
      <text id="d-4" data-name="d" transform="translate(1032.063 1832)" fill="#212429" font-size="18" font-family="SegoeUI-BoldItalic, Segoe UI" font-weight="700" font-style="italic" letter-spacing="0em"><tspan x="0" y="0">d</tspan></text>
      <text id="dx-4" data-name="dx" transform="translate(1027.063 1858)" fill="#212429" font-size="18" font-family="SegoeUI-BoldItalic, Segoe UI" font-weight="700" font-style="italic" letter-spacing="0em"><tspan x="0" y="0">dx</tspan></text>
      <path id="Trazado_1038784-4" data-name="Trazado 1038784" d="M2526.533,1495h36.338" transform="translate(-1506.533 345)" fill="none" stroke="#212429" stroke-width="1"/>
    </g>
    <g id="Grupo_1177715" data-name="Grupo 1177715" transform="translate(-33.679 1840.073)">
      <text id="d-5" data-name="d" transform="translate(1032.063 1832)" fill="#212429" font-size="18" font-family="SegoeUI-BoldItalic, Segoe UI" font-weight="700" font-style="italic" letter-spacing="0em"><tspan x="0" y="0">d</tspan></text>
      <text id="dx-5" data-name="dx" transform="translate(1027.063 1858)" fill="#212429" font-size="18" font-family="SegoeUI-BoldItalic, Segoe UI" font-weight="700" font-style="italic" letter-spacing="0em"><tspan x="0" y="0">dx</tspan></text>
      <path id="Trazado_1038784-5" data-name="Trazado 1038784" d="M2526.533,1495h36.338" transform="translate(-1506.533 345)" fill="none" stroke="#212429" stroke-width="1"/>
    </g>
    <g id="Grupo_1177716" data-name="Grupo 1177716" transform="translate(48.321 1840.073)">
      <text id="d-6" data-name="d" transform="translate(1032.063 1832)" fill="#212429" font-size="18" font-family="SegoeUI-BoldItalic, Segoe UI" font-weight="700" font-style="italic" letter-spacing="0em"><tspan x="0" y="0">d</tspan></text>
      <text id="dx-6" data-name="dx" transform="translate(1027.063 1858)" fill="#212429" font-size="18" font-family="SegoeUI-BoldItalic, Segoe UI" font-weight="700" font-style="italic" letter-spacing="0em"><tspan x="0" y="0">dx</tspan></text>
      <path id="Trazado_1038784-6" data-name="Trazado 1038784" d="M2526.533,1495h36.338" transform="translate(-1506.533 345)" fill="none" stroke="#212429" stroke-width="1"/>
    </g>
  </g>
</svg>
