<svg xmlns="http://www.w3.org/2000/svg" xmlns:xlink="http://www.w3.org/1999/xlink" width="1329" height="480" viewBox="0 0 1329 480">
  <defs>
    <clipPath id="clip-path">
      <rect id="Rect치ngulo_415826" data-name="Rect치ngulo 415826" width="1329" height="480" transform="translate(135 2174)" fill="#f9cb47"/>
    </clipPath>
  </defs>
  <g id="Grupo_1098710" data-name="Grupo 1098710" transform="translate(-135 -2174)" clip-path="url(#clip-path)">
    <rect id="Rect치ngulo_415742" data-name="Rect치ngulo 415742" width="1329" height="480" transform="translate(135 2174)" fill="#f9cb47"/>
    <g id="Grupo_1176494" data-name="Grupo 1176494" transform="translate(552 2129.125)" opacity="0.43">
      <path id="Trazado_1034601" data-name="Trazado 1034601" d="M93.249,78.137C59.687,85.586,27.631,74.706-.24,56.711V-.37h153.5C158.532,35.954,128.736,70.27,93.249,78.137Z" transform="translate(-419.769 -0.709)" fill="#ffab24"/>
      <g id="Grupo_1176494-2" data-name="Grupo 1176494">
        <path id="Trazado_1034618" data-name="Trazado 1034618" d="M41.028,27.461c-18.5,4.6-38.166,19.418-39.086,40.091C1.355,80.86,11.483,89.229,22.363,94.67c1.758.837,3.515,1.674,5.357,2.427a6.245,6.245,0,0,0,2.344,1.674c20.506,9.541,45.447,14.145,64.781-.5,17.995-13.726,20.589-37.831,5.942-55.156-14.061-16.656-39.5-20.757-59.843-15.651Z" transform="translate(-157.531 193.511)" fill="#ffab24"/>
        <path id="Trazado_1034910" data-name="Trazado 1034910" d="M41.028,27.461c-18.5,4.6-38.166,19.418-39.086,40.091C1.355,80.86,11.483,89.229,22.363,94.67c1.758.837,3.515,1.674,5.357,2.427a6.245,6.245,0,0,0,2.344,1.674c20.506,9.541,45.447,14.145,64.781-.5,17.995-13.726,20.589-37.831,5.942-55.156-14.061-16.656-39.5-20.757-59.843-15.651Z" transform="translate(578.434 -40.53)" fill="#ffab24"/>
        <path id="Trazado_1034619" data-name="Trazado 1034619" d="M82.638,50.861c-18.5,4.6-38.166,19.418-39.086,40.091-.586,13.308,9.541,21.677,20.422,27.118,1.758.837,3.515,1.674,5.357,2.427a6.245,6.245,0,0,0,2.343,1.674c20.506,9.541,45.447,14.145,64.781-.5,17.995-13.726,20.589-37.831,5.942-55.156-14.061-16.656-39.5-20.757-59.843-15.651Z" transform="translate(729.655 380.864)" fill="#ffab24"/>
        <path id="Trazado_1034620" data-name="Trazado 1034620" d="M19.864,14.638c-7.784,1.925-15.986,8.2-16.4,16.823-.251,5.608,4.017,9.123,8.621,11.383l2.26,1a3.01,3.01,0,0,0,1,.67c8.621,4.017,19.083,5.942,27.2-.251a15.78,15.78,0,0,0,2.511-23.184c-5.942-7.031-16.572-8.7-25.109-6.528Z" transform="translate(-82.584 30.294)" fill="#ffab24"/>
        <path id="Trazado_1034911" data-name="Trazado 1034911" d="M19.864,14.638c-7.784,1.925-15.986,8.2-16.4,16.823-.251,5.608,4.017,9.123,8.621,11.383l2.26,1a3.01,3.01,0,0,0,1,.67c8.621,4.017,19.083,5.942,27.2-.251a15.78,15.78,0,0,0,2.511-23.184c-5.942-7.031-16.572-8.7-25.109-6.528Z" transform="translate(518.307 381.421)" fill="#ffab24"/>
        <path id="Trazado_1034912" data-name="Trazado 1034912" d="M19.864,14.638c-7.784,1.925-15.986,8.2-16.4,16.823-.251,5.608,4.017,9.123,8.621,11.383l2.26,1a3.01,3.01,0,0,0,1,.67c8.621,4.017,19.083,5.942,27.2-.251a15.78,15.78,0,0,0,2.511-23.184c-5.942-7.031-16.572-8.7-25.109-6.528Z" transform="translate(-369.182 158.793)" fill="#ffab24"/>
        <path id="Trazado_1034647" data-name="Trazado 1034647" d="M125.677.03A138.906,138.906,0,0,0,81.15,32.755C52.777,64.393,39.051,110.175,54.2,151.1c11.718,31.888,38.417,58,71.477,64.53Z" transform="translate(779.402 -1.109)" fill="#ffab24"/>
        <path id="Trazado_1034648" data-name="Trazado 1034648" d="M58.862,49.718C28.146,57.418-4.5,82.024-6,116.256c-1,22.1,15.9,35.99,33.981,45.029,2.929,1.423,5.859,2.762,8.872,4.017a13.249,13.249,0,0,0,3.934,2.846c33.981,15.819,75.494,23.519,107.55-.837,29.963-22.765,34.148-62.772,9.793-91.564-23.435-27.7-65.534-34.4-99.264-25.946Z" transform="translate(-329.55 262.543)" fill="#ffab24"/>
        <path id="Trazado_1034649" data-name="Trazado 1034649" d="M110.612,32.758C79.9,40.458,47.254,65.064,45.748,99.3c-1,22.1,15.9,35.99,33.981,45.029,2.929,1.423,5.859,2.762,8.872,4.017a13.249,13.249,0,0,0,3.934,2.846c33.981,15.819,75.494,23.519,107.55-.837,29.963-22.765,34.148-62.772,9.792-91.564-23.435-27.7-65.534-34.4-99.264-25.946Z" transform="translate(498.83 174.38)" fill="#ffab24"/>
      </g>
    </g>
  </g>
</svg>
