<svg xmlns="http://www.w3.org/2000/svg" width="39.027" height="39.092" viewBox="0 0 39.027 39.092">
  <g id="Layer_x0020_1" transform="translate(-0.343)">
    <g id="_348172616" transform="translate(19.863 10.002)">
      <path id="Trazado_1038312" data-name="Trazado 1038312" d="M256.534,155.814a.522.522,0,0,1-.534-.534V131.534a.522.522,0,0,1,.534-.534.574.574,0,0,1,.534.534v23.745A.574.574,0,0,1,256.534,155.814Z" transform="translate(-256 -131)" fill="#0b0a0a" fill-rule="evenodd"/>
    </g>
    <g id="_175999432" transform="translate(10.548 10.002)">
      <path id="Trazado_1038313" data-name="Trazado 1038313" d="M152.782,146.5c-1.3,0-2.367-.764-3.207-2.367a26.936,26.936,0,0,1-1.6-5.115c-.916-3.436-1.756-6.948-4.047-6.948H143.7c-2.291,0-3.13,3.512-3.97,6.948a33.51,33.51,0,0,1-1.68,5.115c-.84,1.6-1.909,2.367-3.207,2.367a.83.83,0,0,1-.382-.076.511.511,0,0,1-.458-.534.648.648,0,0,1,.611-.534c2.29.305,3.13-3.054,4.047-6.642a24.364,24.364,0,0,1,1.68-5.192c.84-1.68,1.985-2.52,3.512-2.52q2.176,0,3.436,2.52a24.365,24.365,0,0,1,1.68,5.192c.916,3.588,1.756,6.948,4.047,6.642a.648.648,0,0,1,.611.534.511.511,0,0,1-.458.534A.83.83,0,0,1,152.782,146.5Z" transform="translate(-134 -131)" fill="#0b0a0a" fill-rule="evenodd"/>
    </g>
    <g id="_176000512" transform="translate(4.593 4.276)">
      <path id="Trazado_1038314" data-name="Trazado 1038314" d="M86.006,86.54H56.534A.522.522,0,0,1,56,86.006V56.534a.534.534,0,0,1,1.069,0V85.471H86.006a.534.534,0,1,1,0,1.069Z" transform="translate(-56 -56)" fill="#0b0a0a" fill-rule="evenodd"/>
    </g>
    <g id="_176000896" transform="translate(0.343)">
      <path id="Trazado_1038315" data-name="Trazado 1038315" d="M9.4,5.345H.851a.419.419,0,0,1-.458-.305A.576.576,0,0,1,.47,4.428L4.745.153C4.9.076,4.974,0,5.127,0a.583.583,0,0,1,.382.153L9.784,4.428c.153.076.153.229.153.382A.522.522,0,0,1,9.4,5.345ZM2.149,4.276H8.181L5.127,1.3Z" transform="translate(-0.343)" fill="#0b0a0a" fill-rule="evenodd"/>
    </g>
    <g id="_403783032" transform="translate(34.064 29.441)">
      <path id="Trazado_1038316" data-name="Trazado 1038316" d="M442.534,395.258a.28.28,0,0,1-.229-.076.419.419,0,0,1-.305-.458v-8.551a.511.511,0,0,1,.305-.534.594.594,0,0,1,.611.153l4.276,4.276a.691.691,0,0,1,0,.764l-4.276,4.276A1.29,1.29,0,0,1,442.534,395.258Zm.534-7.864v6.032l2.978-2.978Z" transform="translate(-442 -385.608)" fill="#0b0a0a" fill-rule="evenodd"/>
    </g>
    <g id="_312567472" transform="translate(2.989 7.406)">
      <g id="_403783272">
        <path id="Trazado_1038317" data-name="Trazado 1038317" d="M38.894,98.069H35.534A.522.522,0,0,1,35,97.534.574.574,0,0,1,35.534,97h3.359a.574.574,0,0,1,.534.534A.522.522,0,0,1,38.894,98.069Z" transform="translate(-35 -97)" fill="#0b0a0a" fill-rule="evenodd"/>
      </g>
      <g id="Grupo_1177552" data-name="Grupo 1177552" transform="translate(1.603 3.207)">
        <g id="_403783344">
          <path id="Trazado_1038318" data-name="Trazado 1038318" d="M59.894,140.069H56.534a.574.574,0,0,1-.534-.534.522.522,0,0,1,.534-.534h3.359a.522.522,0,0,1,.534.534A.574.574,0,0,1,59.894,140.069Z" transform="translate(-56 -139)" fill="#0b0a0a" fill-rule="evenodd"/>
        </g>
        <g id="_358524208" transform="translate(0 3.894)">
          <path id="Trazado_1038319" data-name="Trazado 1038319" d="M59.894,191.069H56.534a.522.522,0,0,1-.534-.534.574.574,0,0,1,.534-.534h3.359a.574.574,0,0,1,.534.534A.522.522,0,0,1,59.894,191.069Z" transform="translate(-56 -190)" fill="#0b0a0a" fill-rule="evenodd"/>
        </g>
        <g id="_348172184" transform="translate(0 7.864)">
          <path id="Trazado_1038320" data-name="Trazado 1038320" d="M59.894,243.069H56.534a.522.522,0,0,1-.534-.534.574.574,0,0,1,.534-.534h3.359a.574.574,0,0,1,.534.534A.522.522,0,0,1,59.894,243.069Z" transform="translate(-56 -242)" fill="#0b0a0a" fill-rule="evenodd"/>
        </g>
        <g id="_348172256" transform="translate(0 11.834)">
          <path id="Trazado_1038321" data-name="Trazado 1038321" d="M59.894,295.069H56.534a.534.534,0,0,1,0-1.069h3.359a.534.534,0,0,1,0,1.069Z" transform="translate(-56 -294)" fill="#0b0a0a" fill-rule="evenodd"/>
        </g>
        <g id="_348172328" transform="translate(0 15.804)">
          <path id="Trazado_1038322" data-name="Trazado 1038322" d="M59.894,347.069H56.534a.534.534,0,0,1,0-1.069h3.359a.534.534,0,0,1,0,1.069Z" transform="translate(-56 -346)" fill="#0b0a0a" fill-rule="evenodd"/>
        </g>
      </g>
    </g>
    <g id="_348172400" transform="translate(30.857 31.991)">
      <path id="Trazado_1038323" data-name="Trazado 1038323" d="M400.534,423.428a.574.574,0,0,1-.534-.534v-3.359a.574.574,0,0,1,.534-.534.522.522,0,0,1,.534.534v3.359A.522.522,0,0,1,400.534,423.428Z" transform="translate(-400 -419)" fill="#0b0a0a" fill-rule="evenodd"/>
    </g>
    <g id="_348172472" transform="translate(27.727 30.387)">
      <path id="Trazado_1038324" data-name="Trazado 1038324" d="M359.534,402.428a.522.522,0,0,1-.534-.534v-3.359a.534.534,0,0,1,1.069,0v3.359A.522.522,0,0,1,359.534,402.428Z" transform="translate(-359 -398)" fill="#0b0a0a" fill-rule="evenodd"/>
    </g>
    <g id="_348172544" transform="translate(23.756 30.387)">
      <path id="Trazado_1038325" data-name="Trazado 1038325" d="M307.534,402.428a.574.574,0,0,1-.534-.534v-3.359a.574.574,0,0,1,.534-.534.522.522,0,0,1,.534.534v3.359A.522.522,0,0,1,307.534,402.428Z" transform="translate(-307 -398)" fill="#0b0a0a" fill-rule="evenodd"/>
    </g>
    <g id="_348172688" transform="translate(15.892 30.387)">
      <path id="Trazado_1038326" data-name="Trazado 1038326" d="M204.534,402.428a.522.522,0,0,1-.534-.534v-3.359a.522.522,0,0,1,.534-.534.574.574,0,0,1,.534.534v3.359A.574.574,0,0,1,204.534,402.428Z" transform="translate(-204 -398)" fill="#0b0a0a" fill-rule="evenodd"/>
    </g>
    <g id="_348172760" transform="translate(11.922 30.387)">
      <path id="Trazado_1038327" data-name="Trazado 1038327" d="M152.534,402.428a.522.522,0,0,1-.534-.534v-3.359a.534.534,0,0,1,1.069,0v3.359A.522.522,0,0,1,152.534,402.428Z" transform="translate(-152 -398)" fill="#0b0a0a" fill-rule="evenodd"/>
    </g>
    <g id="_312566032" transform="translate(17.801 18.629)">
      <g id="_348172856">
        <path id="Trazado_1038328" data-name="Trazado 1038328" d="M233.581,245.069h-4.047a.534.534,0,0,1,0-1.069h4.047a.534.534,0,0,1,0,1.069Z" transform="translate(-229 -244)" fill="#0b0a0a" fill-rule="evenodd"/>
      </g>
      <g id="_348172928" transform="translate(0 6.49)">
        <path id="Trazado_1038329" data-name="Trazado 1038329" d="M233.581,330.069h-4.047a.534.534,0,0,1,0-1.069h4.047a.534.534,0,0,1,0,1.069Z" transform="translate(-229 -329)" fill="#0b0a0a" fill-rule="evenodd"/>
      </g>
    </g>
  </g>
</svg>
