<svg xmlns="http://www.w3.org/2000/svg" width="319.722" height="122.22" viewBox="0 0 319.722 122.22">
  <g id="Grupo_1177795" data-name="Grupo 1177795" transform="translate(-3333.652 -4683.92)">
    <path id="Trazado_1039155" data-name="Trazado 1039155" d="M3.129-4.764V0H1.652V-12.6H5.115a4.571,4.571,0,0,1,3.133.984A3.515,3.515,0,0,1,9.36-8.842,3.82,3.82,0,0,1,8.125-5.906,4.718,4.718,0,0,1,4.79-4.764Zm0-6.5V-6.1H4.676a3.458,3.458,0,0,0,2.333-.7,2.474,2.474,0,0,0,.8-1.973q0-2.5-2.953-2.5ZM12.79-12.6v3.929H11.515V-12.6ZM19.463,2.865H18.179a11.232,11.232,0,0,1-2.725-7.673,11.658,11.658,0,0,1,2.725-7.8h1.3a11.845,11.845,0,0,0-2.76,7.778A11.638,11.638,0,0,0,19.463,2.865ZM27.691-9,24.668-4.447,27.638,0H25.96L24.193-2.918q-.167-.272-.4-.686h-.035q-.044.079-.413.686L21.547,0H19.886l3.067-4.412L20.018-9H21.7l1.74,3.076q.193.343.378.7h.035L26.1-9ZM29.415,2.865H28.132a11.638,11.638,0,0,0,2.742-7.69,11.845,11.845,0,0,0-2.76-7.778h1.3a11.611,11.611,0,0,1,2.742,7.8A11.188,11.188,0,0,1,29.415,2.865Zm19.173-9.4H40.326V-7.7h8.262Zm0,3.744H40.326v-1.16h8.262Z" transform="translate(3332 4716.073)" fill="#212429"/>
    <path id="Trazado_1039156" data-name="Trazado 1039156" d="M10.3-6.539H2.039V-7.7H10.3Zm0,3.744H2.039v-1.16H10.3ZM23.312-4.447h-4.8V-5.581h4.8Zm10.1-1.907a12.381,12.381,0,0,1-.286,2.8A6.533,6.533,0,0,1,32.3-1.49,3.718,3.718,0,0,1,30.974-.215,3.633,3.633,0,0,1,29.185.22,3.393,3.393,0,0,1,27.493-.2a3.546,3.546,0,0,1-1.252-1.217,6.17,6.17,0,0,1-.773-1.964A12.146,12.146,0,0,1,25.2-6.047a13.749,13.749,0,0,1,.277-2.918,6.674,6.674,0,0,1,.813-2.123,3.619,3.619,0,0,1,1.332-1.292,3.739,3.739,0,0,1,1.824-.435Q33.413-12.814,33.413-6.354Zm-1.477.141q0-5.379-2.558-5.379-2.7,0-2.7,5.476,0,5.106,2.646,5.106Q31.936-1.011,31.936-6.214ZM36.113.193a.933.933,0,0,1-.69-.29.955.955,0,0,1-.286-.694.969.969,0,0,1,.286-.7.926.926,0,0,1,.69-.294.95.95,0,0,1,.7.294.962.962,0,0,1,.29.7.947.947,0,0,1-.29.694A.958.958,0,0,1,36.113.193ZM46.573-3.85a4.242,4.242,0,0,1-.316,1.67,3.651,3.651,0,0,1-.9,1.283,4.034,4.034,0,0,1-1.411.826,5.517,5.517,0,0,1-1.837.29A5.074,5.074,0,0,1,39.5-.308V-1.837a4.8,4.8,0,0,0,2.628.826,3.556,3.556,0,0,0,1.235-.2,2.744,2.744,0,0,0,.936-.562,2.408,2.408,0,0,0,.593-.87A2.945,2.945,0,0,0,45.1-3.762a2.391,2.391,0,0,0-.826-1.929,3.623,3.623,0,0,0-2.4-.7q-.255,0-.536.009t-.562.022q-.281.013-.549.031t-.488.044l.431-6.319h5.827v1.3H41.414l-.255,3.7q.281-.018.6-.031t.563-.013a5.656,5.656,0,0,1,1.793.264,3.8,3.8,0,0,1,1.34.751,3.151,3.151,0,0,1,.835,1.2A4.2,4.2,0,0,1,46.573-3.85Z" transform="translate(3332 4767.073)" fill="#212429"/>
    <path id="Trazado_1039150" data-name="Trazado 1039150" d="M10.3-6.539H2.039V-7.7H10.3Zm0,3.744H2.039v-1.16H10.3ZM23.312-4.447h-4.8V-5.581h4.8Zm10.1-1.907a12.381,12.381,0,0,1-.286,2.8A6.533,6.533,0,0,1,32.3-1.49,3.718,3.718,0,0,1,30.974-.215,3.633,3.633,0,0,1,29.185.22,3.393,3.393,0,0,1,27.493-.2a3.546,3.546,0,0,1-1.252-1.217,6.17,6.17,0,0,1-.773-1.964A12.146,12.146,0,0,1,25.2-6.047a13.749,13.749,0,0,1,.277-2.918,6.674,6.674,0,0,1,.813-2.123,3.619,3.619,0,0,1,1.332-1.292,3.739,3.739,0,0,1,1.824-.435Q33.413-12.814,33.413-6.354Zm-1.477.141q0-5.379-2.558-5.379-2.7,0-2.7,5.476,0,5.106,2.646,5.106Q31.936-1.011,31.936-6.214ZM36.113.193a.933.933,0,0,1-.69-.29.955.955,0,0,1-.286-.694.969.969,0,0,1,.286-.7.926.926,0,0,1,.69-.294.95.95,0,0,1,.7.294.962.962,0,0,1,.29.7.947.947,0,0,1-.29.694A.958.958,0,0,1,36.113.193ZM46.573-3.85a4.242,4.242,0,0,1-.316,1.67,3.651,3.651,0,0,1-.9,1.283,4.034,4.034,0,0,1-1.411.826,5.517,5.517,0,0,1-1.837.29A5.074,5.074,0,0,1,39.5-.308V-1.837a4.8,4.8,0,0,0,2.628.826,3.556,3.556,0,0,0,1.235-.2,2.744,2.744,0,0,0,.936-.562,2.408,2.408,0,0,0,.593-.87A2.945,2.945,0,0,0,45.1-3.762a2.391,2.391,0,0,0-.826-1.929,3.623,3.623,0,0,0-2.4-.7q-.255,0-.536.009t-.562.022q-.281.013-.549.031t-.488.044l.431-6.319h5.827v1.3H41.414l-.255,3.7q.281-.018.6-.031t.563-.013a5.656,5.656,0,0,1,1.793.264,3.8,3.8,0,0,1,1.34.751,3.151,3.151,0,0,1,.835,1.2A4.2,4.2,0,0,1,46.573-3.85ZM62.661-2.268l-.826.826L58.847-4.43,55.876-1.441l-.826-.826,2.988-2.971L55.05-8.227l.826-.826,2.971,2.988,2.988-2.988.826.826L59.673-5.238ZM76.727-9.3a2.606,2.606,0,0,0-.18-1.011,2,2,0,0,0-.492-.716,2.017,2.017,0,0,0-.734-.426,2.874,2.874,0,0,0-.914-.141,3.023,3.023,0,0,0-.826.114,4.016,4.016,0,0,0-.787.316,4.839,4.839,0,0,0-.738.483,5.333,5.333,0,0,0-.664.624V-11.6a4.309,4.309,0,0,1,1.358-.9,4.781,4.781,0,0,1,1.833-.312,4.424,4.424,0,0,1,1.433.224,3.285,3.285,0,0,1,1.143.655,3.027,3.027,0,0,1,.76,1.063,3.587,3.587,0,0,1,.277,1.45,4.973,4.973,0,0,1-.171,1.354A4.186,4.186,0,0,1,77.5-6.926,5.513,5.513,0,0,1,76.63-5.9a12.387,12.387,0,0,1-1.239,1q-.888.633-1.463,1.081a6.469,6.469,0,0,0-.914.839,2.436,2.436,0,0,0-.475.782,2.734,2.734,0,0,0-.136.9h6.275V0H70.9V-.624a5.2,5.2,0,0,1,.176-1.424,3.7,3.7,0,0,1,.58-1.169,6.487,6.487,0,0,1,1.059-1.107q.655-.554,1.6-1.248a10.141,10.141,0,0,0,1.147-.94,4.889,4.889,0,0,0,.743-.9,3.22,3.22,0,0,0,.4-.91A3.922,3.922,0,0,0,76.727-9.3ZM87.68-9,84.657-4.447,87.627,0H85.949L84.182-2.918q-.167-.272-.4-.686h-.035q-.044.079-.413.686L81.537,0H79.875l3.067-4.412L80.007-9h1.679l1.74,3.076q.193.343.378.7h.035L86.089-9Zm15.464,4.342H99.593v3.542H98.424V-4.658H94.882V-5.836h3.542V-9.378h1.169v3.542h3.551Zm7.738,1.143a3.353,3.353,0,0,1,.158-1.006,3.645,3.645,0,0,1,.453-.945,3.746,3.746,0,0,1,.729-.8,3.478,3.478,0,0,1,.989-.571,3.737,3.737,0,0,1-1.3-1.173,2.775,2.775,0,0,1-.483-1.586,3.06,3.06,0,0,1,.268-1.283,3.091,3.091,0,0,1,.743-1.02,3.433,3.433,0,0,1,1.125-.672,4.006,4.006,0,0,1,1.406-.242,3.967,3.967,0,0,1,1.415.246,3.494,3.494,0,0,1,1.125.677,3.038,3.038,0,0,1,.738,1.02,3.082,3.082,0,0,1,.264,1.274,2.775,2.775,0,0,1-.483,1.586,3.783,3.783,0,0,1-1.283,1.173,3.446,3.446,0,0,1,.976.571,3.8,3.8,0,0,1,.725.8,3.645,3.645,0,0,1,.453.945,3.353,3.353,0,0,1,.158,1.006,3.743,3.743,0,0,1-.3,1.512,3.378,3.378,0,0,1-.839,1.173,3.875,3.875,0,0,1-1.292.76A4.829,4.829,0,0,1,114.969.2a4.765,4.765,0,0,1-1.644-.272,3.934,3.934,0,0,1-1.292-.76A3.4,3.4,0,0,1,111.185-2,3.7,3.7,0,0,1,110.882-3.516Zm1.564-.123a2.977,2.977,0,0,0,.18,1.063,2.293,2.293,0,0,0,.51.809,2.225,2.225,0,0,0,.8.514,2.889,2.889,0,0,0,1.042.18A2.744,2.744,0,0,0,116-1.257a2.376,2.376,0,0,0,.8-.519,2.332,2.332,0,0,0,.527-.809,2.828,2.828,0,0,0,.189-1.055,2.694,2.694,0,0,0-.18-.989,2.475,2.475,0,0,0-.514-.813,2.415,2.415,0,0,0-.8-.554,2.6,2.6,0,0,0-1.046-.2,2.63,2.63,0,0,0-1.006.189,2.408,2.408,0,0,0-.8.527,2.442,2.442,0,0,0-.532.809A2.69,2.69,0,0,0,112.446-3.639Zm.448-5.845a2.1,2.1,0,0,0,.163.831,2.093,2.093,0,0,0,.448.668,2.106,2.106,0,0,0,.664.448,2.024,2.024,0,0,0,.809.163,2.009,2.009,0,0,0,.813-.167,2.1,2.1,0,0,0,.664-.453,2.194,2.194,0,0,0,.448-.668,2.03,2.03,0,0,0,.167-.822,2.155,2.155,0,0,0-.163-.844,2.065,2.065,0,0,0-.444-.668,2.077,2.077,0,0,0-.664-.444,2.078,2.078,0,0,0-.822-.163,2.1,2.1,0,0,0-.848.167,2.049,2.049,0,0,0-.659.453,1.979,1.979,0,0,0-.426.672A2.272,2.272,0,0,0,112.894-9.483ZM128.76-6.354a12.383,12.383,0,0,1-.286,2.8,6.533,6.533,0,0,1-.826,2.061,3.718,3.718,0,0,1-1.327,1.274,3.633,3.633,0,0,1-1.789.435A3.393,3.393,0,0,1,122.841-.2a3.546,3.546,0,0,1-1.252-1.217,6.17,6.17,0,0,1-.773-1.964,12.146,12.146,0,0,1-.264-2.667,13.749,13.749,0,0,1,.277-2.918,6.674,6.674,0,0,1,.813-2.123,3.619,3.619,0,0,1,1.332-1.292,3.739,3.739,0,0,1,1.824-.435Q128.76-12.814,128.76-6.354Zm-1.477.141q0-5.379-2.558-5.379-2.7,0-2.7,5.476,0,5.106,2.646,5.106Q127.284-1.011,127.284-6.214Zm11.181-.141a12.381,12.381,0,0,1-.286,2.8,6.533,6.533,0,0,1-.826,2.061,3.718,3.718,0,0,1-1.327,1.274,3.633,3.633,0,0,1-1.789.435A3.393,3.393,0,0,1,132.546-.2a3.546,3.546,0,0,1-1.252-1.217,6.17,6.17,0,0,1-.773-1.964,12.146,12.146,0,0,1-.264-2.667,13.749,13.749,0,0,1,.277-2.918,6.674,6.674,0,0,1,.813-2.123,3.619,3.619,0,0,1,1.332-1.292,3.739,3.739,0,0,1,1.824-.435Q138.465-12.814,138.465-6.354Zm-1.477.141q0-5.379-2.558-5.379-2.7,0-2.7,5.476,0,5.106,2.646,5.106Q136.989-1.011,136.989-6.214ZM154.1-2.268l-.826.826L150.29-4.43,147.32-1.441l-.826-.826,2.988-2.971-2.988-2.988.826-.826,2.971,2.988,2.988-2.988.826.826-2.988,2.988ZM167.749,0h-1.441V-10.89a3.336,3.336,0,0,1-.488.382,7.951,7.951,0,0,1-.721.426q-.4.211-.844.4a6.132,6.132,0,0,1-.866.29v-1.459a8.379,8.379,0,0,0,1.006-.356q.532-.224,1.046-.5t.971-.58a7.71,7.71,0,0,0,.791-.593h.545Zm14.339-4.447h-4.8V-5.581h4.8ZM197.12-6.354a12.381,12.381,0,0,1-.286,2.8,6.533,6.533,0,0,1-.826,2.061,3.718,3.718,0,0,1-1.327,1.274,3.633,3.633,0,0,1-1.789.435A3.393,3.393,0,0,1,191.2-.2a3.546,3.546,0,0,1-1.252-1.217,6.17,6.17,0,0,1-.773-1.964,12.146,12.146,0,0,1-.264-2.667,13.749,13.749,0,0,1,.277-2.918A6.674,6.674,0,0,1,190-11.087a3.619,3.619,0,0,1,1.332-1.292,3.739,3.739,0,0,1,1.824-.435Q197.12-12.814,197.12-6.354Zm-1.477.141q0-5.379-2.558-5.379-2.7,0-2.7,5.476,0,5.106,2.646,5.106Q195.644-1.011,195.644-6.214Zm17.45-.325h-8.262V-7.7h8.262Zm0,3.744h-8.262v-1.16h8.262Zm13.011-1.652h-4.8V-5.581h4.8ZM235.274-9,232.25-4.447,235.221,0h-1.679l-1.767-2.918q-.167-.272-.4-.686h-.035q-.044.079-.413.686L229.13,0h-1.661l3.067-4.412L227.6-9h1.679l1.74,3.076q.193.343.378.7h.035L233.683-9Zm15.464,4.342h-3.551v3.542h-1.169V-4.658h-3.542V-5.836h3.542V-9.378h1.169v3.542h3.551Zm7.738,1.143a3.353,3.353,0,0,1,.158-1.006,3.645,3.645,0,0,1,.453-.945,3.746,3.746,0,0,1,.729-.8,3.478,3.478,0,0,1,.989-.571,3.737,3.737,0,0,1-1.3-1.173A2.775,2.775,0,0,1,259.02-9.6a3.06,3.06,0,0,1,.268-1.283,3.091,3.091,0,0,1,.743-1.02,3.433,3.433,0,0,1,1.125-.672,4.006,4.006,0,0,1,1.406-.242,3.967,3.967,0,0,1,1.415.246,3.494,3.494,0,0,1,1.125.677,3.038,3.038,0,0,1,.738,1.02A3.082,3.082,0,0,1,266.1-9.6a2.775,2.775,0,0,1-.483,1.586,3.783,3.783,0,0,1-1.283,1.173,3.446,3.446,0,0,1,.976.571,3.8,3.8,0,0,1,.725.8,3.645,3.645,0,0,1,.453.945,3.353,3.353,0,0,1,.158,1.006A3.743,3.743,0,0,1,266.35-2a3.378,3.378,0,0,1-.839,1.173,3.875,3.875,0,0,1-1.292.76A4.829,4.829,0,0,1,262.562.2a4.765,4.765,0,0,1-1.644-.272,3.934,3.934,0,0,1-1.292-.76A3.4,3.4,0,0,1,258.779-2,3.7,3.7,0,0,1,258.475-3.516Zm1.564-.123a2.977,2.977,0,0,0,.18,1.063,2.293,2.293,0,0,0,.51.809,2.225,2.225,0,0,0,.8.514,2.889,2.889,0,0,0,1.042.18,2.744,2.744,0,0,0,1.02-.185,2.376,2.376,0,0,0,.8-.519,2.332,2.332,0,0,0,.527-.809,2.828,2.828,0,0,0,.189-1.055,2.694,2.694,0,0,0-.18-.989,2.475,2.475,0,0,0-.514-.813,2.415,2.415,0,0,0-.8-.554,2.6,2.6,0,0,0-1.046-.2,2.63,2.63,0,0,0-1.006.189,2.408,2.408,0,0,0-.8.527,2.442,2.442,0,0,0-.532.809A2.69,2.69,0,0,0,260.04-3.639Zm.448-5.845a2.1,2.1,0,0,0,.163.831,2.093,2.093,0,0,0,.448.668,2.106,2.106,0,0,0,.664.448,2.024,2.024,0,0,0,.809.163,2.009,2.009,0,0,0,.813-.167,2.1,2.1,0,0,0,.664-.453,2.194,2.194,0,0,0,.448-.668,2.03,2.03,0,0,0,.167-.822,2.155,2.155,0,0,0-.163-.844,2.065,2.065,0,0,0-.444-.668,2.077,2.077,0,0,0-.664-.444,2.078,2.078,0,0,0-.822-.163,2.1,2.1,0,0,0-.848.167,2.049,2.049,0,0,0-.659.453,1.979,1.979,0,0,0-.426.672A2.272,2.272,0,0,0,260.488-9.483Zm15.866,3.129a12.381,12.381,0,0,1-.286,2.8,6.533,6.533,0,0,1-.826,2.061,3.718,3.718,0,0,1-1.327,1.274,3.633,3.633,0,0,1-1.789.435A3.393,3.393,0,0,1,270.435-.2a3.546,3.546,0,0,1-1.252-1.217,6.17,6.17,0,0,1-.773-1.964,12.146,12.146,0,0,1-.264-2.667,13.749,13.749,0,0,1,.277-2.918,6.674,6.674,0,0,1,.813-2.123,3.619,3.619,0,0,1,1.332-1.292,3.739,3.739,0,0,1,1.824-.435Q276.354-12.814,276.354-6.354Zm-1.477.141q0-5.379-2.558-5.379-2.7,0-2.7,5.476,0,5.106,2.646,5.106Q274.878-1.011,274.878-6.214Zm11.181-.141a12.381,12.381,0,0,1-.286,2.8,6.533,6.533,0,0,1-.826,2.061A3.718,3.718,0,0,1,283.62-.215a3.633,3.633,0,0,1-1.789.435A3.393,3.393,0,0,1,280.14-.2a3.546,3.546,0,0,1-1.252-1.217,6.17,6.17,0,0,1-.773-1.964,12.146,12.146,0,0,1-.264-2.667,13.749,13.749,0,0,1,.277-2.918,6.674,6.674,0,0,1,.813-2.123,3.619,3.619,0,0,1,1.332-1.292,3.739,3.739,0,0,1,1.824-.435Q286.059-12.814,286.059-6.354Zm-1.477.141q0-5.379-2.558-5.379-2.7,0-2.7,5.476,0,5.106,2.646,5.106Q284.583-1.011,284.583-6.214Z" transform="translate(3332 4805.92)" fill="#212429"/>
    <path id="Trazado_1039154" data-name="Trazado 1039154" d="M4.992,2.865H1.758V-12.6H4.992v1.046H3.041V1.819H4.992ZM11.5-4.447H6.7V-5.581h4.8ZM21.6-6.354a12.381,12.381,0,0,1-.286,2.8,6.533,6.533,0,0,1-.826,2.061A3.718,3.718,0,0,1,19.159-.215,3.633,3.633,0,0,1,17.371.22,3.393,3.393,0,0,1,15.679-.2a3.546,3.546,0,0,1-1.252-1.217,6.17,6.17,0,0,1-.773-1.964,12.146,12.146,0,0,1-.264-2.667,13.749,13.749,0,0,1,.277-2.918,6.674,6.674,0,0,1,.813-2.123,3.619,3.619,0,0,1,1.332-1.292,3.739,3.739,0,0,1,1.824-.435Q21.6-12.814,21.6-6.354Zm-1.477.141q0-5.379-2.558-5.379-2.7,0-2.7,5.476,0,5.106,2.646,5.106Q20.122-1.011,20.122-6.214ZM24.3.193a.933.933,0,0,1-.69-.29.955.955,0,0,1-.286-.694.969.969,0,0,1,.286-.7.926.926,0,0,1,.69-.294.95.95,0,0,1,.7.294.962.962,0,0,1,.29.7A.947.947,0,0,1,25-.1.958.958,0,0,1,24.3.193ZM34.759-3.85a4.242,4.242,0,0,1-.316,1.67,3.651,3.651,0,0,1-.9,1.283,4.034,4.034,0,0,1-1.411.826,5.517,5.517,0,0,1-1.837.29,5.074,5.074,0,0,1-2.61-.527V-1.837a4.8,4.8,0,0,0,2.628.826,3.556,3.556,0,0,0,1.235-.2,2.744,2.744,0,0,0,.936-.562,2.408,2.408,0,0,0,.593-.87,2.945,2.945,0,0,0,.207-1.116,2.391,2.391,0,0,0-.826-1.929,3.623,3.623,0,0,0-2.4-.7q-.255,0-.536.009t-.562.022q-.281.013-.549.031t-.488.044l.431-6.319h5.827v1.3H29.6l-.255,3.7q.281-.018.6-.031t.563-.013a5.657,5.657,0,0,1,1.793.264,3.8,3.8,0,0,1,1.34.751,3.151,3.151,0,0,1,.835,1.2A4.2,4.2,0,0,1,34.759-3.85ZM43.981-9,40.957-4.447,43.928,0H42.249L40.483-2.918q-.167-.272-.4-.686h-.035q-.044.079-.413.686L37.837,0H36.176l3.067-4.412L36.308-9h1.679l1.74,3.076q.193.343.378.7h.035L42.39-9Zm4.188-2.424a1.52,1.52,0,0,0-.105-.59,1.168,1.168,0,0,0-.287-.418,1.176,1.176,0,0,0-.428-.249,1.676,1.676,0,0,0-.533-.082,1.764,1.764,0,0,0-.482.067,2.343,2.343,0,0,0-.459.185,2.822,2.822,0,0,0-.431.282,3.111,3.111,0,0,0-.387.364v-.9a2.514,2.514,0,0,1,.792-.525,2.789,2.789,0,0,1,1.069-.182,2.58,2.58,0,0,1,.836.131,1.916,1.916,0,0,1,.666.382,1.766,1.766,0,0,1,.443.62,2.092,2.092,0,0,1,.161.846,2.9,2.9,0,0,1-.1.79,2.442,2.442,0,0,1-.3.666,3.216,3.216,0,0,1-.51.6,7.226,7.226,0,0,1-.723.584q-.518.369-.854.631a3.773,3.773,0,0,0-.533.49,1.421,1.421,0,0,0-.277.456,1.6,1.6,0,0,0-.079.525h3.66V-6H44.77v-.364a3.033,3.033,0,0,1,.1-.831,2.157,2.157,0,0,1,.338-.682,3.784,3.784,0,0,1,.618-.646q.382-.323.936-.728a5.915,5.915,0,0,0,.669-.549,2.852,2.852,0,0,0,.433-.523,1.878,1.878,0,0,0,.233-.531A2.288,2.288,0,0,0,48.169-11.424ZM65.105-4.658H61.554v3.542H60.385V-4.658H56.843V-5.836h3.542V-9.378h1.169v3.542h3.551Zm7.738,1.143A3.353,3.353,0,0,1,73-4.522a3.645,3.645,0,0,1,.453-.945,3.746,3.746,0,0,1,.729-.8,3.478,3.478,0,0,1,.989-.571,3.737,3.737,0,0,1-1.3-1.173A2.775,2.775,0,0,1,73.388-9.6a3.06,3.06,0,0,1,.268-1.283A3.091,3.091,0,0,1,74.4-11.9a3.433,3.433,0,0,1,1.125-.672,4.006,4.006,0,0,1,1.406-.242,3.967,3.967,0,0,1,1.415.246,3.494,3.494,0,0,1,1.125.677,3.038,3.038,0,0,1,.738,1.02A3.082,3.082,0,0,1,80.472-9.6a2.775,2.775,0,0,1-.483,1.586,3.783,3.783,0,0,1-1.283,1.173,3.446,3.446,0,0,1,.976.571,3.8,3.8,0,0,1,.725.8,3.645,3.645,0,0,1,.453.945,3.353,3.353,0,0,1,.158,1.006A3.743,3.743,0,0,1,80.718-2a3.378,3.378,0,0,1-.839,1.173,3.875,3.875,0,0,1-1.292.76A4.829,4.829,0,0,1,76.93.2,4.765,4.765,0,0,1,75.286-.07a3.934,3.934,0,0,1-1.292-.76A3.4,3.4,0,0,1,73.146-2,3.7,3.7,0,0,1,72.843-3.516Zm1.564-.123a2.977,2.977,0,0,0,.18,1.063,2.293,2.293,0,0,0,.51.809,2.225,2.225,0,0,0,.8.514,2.889,2.889,0,0,0,1.042.18,2.744,2.744,0,0,0,1.02-.185,2.376,2.376,0,0,0,.8-.519,2.332,2.332,0,0,0,.527-.809,2.828,2.828,0,0,0,.189-1.055,2.694,2.694,0,0,0-.18-.989,2.475,2.475,0,0,0-.514-.813,2.415,2.415,0,0,0-.8-.554,2.6,2.6,0,0,0-1.046-.2,2.63,2.63,0,0,0-1.006.189,2.408,2.408,0,0,0-.8.527,2.442,2.442,0,0,0-.532.809A2.69,2.69,0,0,0,74.408-3.639Zm.448-5.845a2.1,2.1,0,0,0,.163.831,2.093,2.093,0,0,0,.448.668,2.106,2.106,0,0,0,.664.448,2.024,2.024,0,0,0,.809.163,2.009,2.009,0,0,0,.813-.167,2.1,2.1,0,0,0,.664-.453,2.194,2.194,0,0,0,.448-.668,2.03,2.03,0,0,0,.167-.822,2.155,2.155,0,0,0-.163-.844A2.065,2.065,0,0,0,78.424-11a2.077,2.077,0,0,0-.664-.444,2.078,2.078,0,0,0-.822-.163,2.1,2.1,0,0,0-.848.167,2.049,2.049,0,0,0-.659.453,1.979,1.979,0,0,0-.426.672A2.272,2.272,0,0,0,74.856-9.483ZM90.722-6.354a12.381,12.381,0,0,1-.286,2.8A6.533,6.533,0,0,1,89.61-1.49,3.718,3.718,0,0,1,88.283-.215,3.633,3.633,0,0,1,86.494.22,3.393,3.393,0,0,1,84.8-.2,3.546,3.546,0,0,1,83.55-1.415a6.17,6.17,0,0,1-.773-1.964,12.146,12.146,0,0,1-.264-2.667,13.749,13.749,0,0,1,.277-2.918,6.674,6.674,0,0,1,.813-2.123,3.619,3.619,0,0,1,1.332-1.292,3.739,3.739,0,0,1,1.824-.435Q90.722-12.814,90.722-6.354Zm-1.477.141q0-5.379-2.558-5.379-2.7,0-2.7,5.476,0,5.106,2.646,5.106Q89.245-1.011,89.245-6.214Zm11.181-.141a12.381,12.381,0,0,1-.286,2.8,6.533,6.533,0,0,1-.826,2.061A3.718,3.718,0,0,1,97.988-.215,3.633,3.633,0,0,1,96.2.22,3.393,3.393,0,0,1,94.507-.2a3.546,3.546,0,0,1-1.252-1.217,6.17,6.17,0,0,1-.773-1.964,12.146,12.146,0,0,1-.264-2.667,13.749,13.749,0,0,1,.277-2.918,6.674,6.674,0,0,1,.813-2.123,3.619,3.619,0,0,1,1.332-1.292,3.739,3.739,0,0,1,1.824-.435Q100.427-12.814,100.427-6.354Zm-1.477.141q0-5.379-2.558-5.379-2.7,0-2.7,5.476,0,5.106,2.646,5.106Q98.95-1.011,98.95-6.214ZM109.2-9l-3.023,4.553L109.147,0h-1.679L105.7-2.918q-.167-.272-.4-.686h-.035q-.044.079-.413.686L103.057,0H101.4l3.067-4.412L101.527-9h1.679l1.74,3.076q.193.343.378.7h.035L107.609-9Zm11.227,4.553h-4.8V-5.581h4.8Zm14.585.6a4.243,4.243,0,0,1-.316,1.67,3.651,3.651,0,0,1-.9,1.283,4.034,4.034,0,0,1-1.411.826,5.517,5.517,0,0,1-1.837.29,5.074,5.074,0,0,1-2.61-.527V-1.837a4.8,4.8,0,0,0,2.628.826,3.556,3.556,0,0,0,1.235-.2,2.744,2.744,0,0,0,.936-.562,2.408,2.408,0,0,0,.593-.87,2.946,2.946,0,0,0,.207-1.116,2.391,2.391,0,0,0-.826-1.929,3.623,3.623,0,0,0-2.4-.7q-.255,0-.536.009t-.562.022q-.281.013-.549.031t-.488.044L128.6-12.6h5.827v1.3h-4.579L129.6-7.6q.281-.018.6-.031t.563-.013a5.656,5.656,0,0,1,1.793.264,3.8,3.8,0,0,1,1.34.751,3.151,3.151,0,0,1,.835,1.2A4.2,4.2,0,0,1,135.012-3.85Zm10.153-2.5a12.381,12.381,0,0,1-.286,2.8,6.533,6.533,0,0,1-.826,2.061,3.718,3.718,0,0,1-1.327,1.274,3.633,3.633,0,0,1-1.789.435A3.393,3.393,0,0,1,139.246-.2a3.546,3.546,0,0,1-1.252-1.217,6.17,6.17,0,0,1-.773-1.964,12.146,12.146,0,0,1-.264-2.667,13.749,13.749,0,0,1,.277-2.918,6.674,6.674,0,0,1,.813-2.123,3.619,3.619,0,0,1,1.332-1.292,3.739,3.739,0,0,1,1.824-.435Q145.165-12.814,145.165-6.354Zm-1.477.141q0-5.379-2.558-5.379-2.7,0-2.7,5.476,0,5.106,2.646,5.106Q143.689-1.011,143.689-6.214Zm11.181-.141a12.381,12.381,0,0,1-.286,2.8,6.533,6.533,0,0,1-.826,2.061,3.718,3.718,0,0,1-1.327,1.274,3.633,3.633,0,0,1-1.789.435A3.393,3.393,0,0,1,148.951-.2,3.546,3.546,0,0,1,147.7-1.415a6.17,6.17,0,0,1-.773-1.964,12.146,12.146,0,0,1-.264-2.667,13.749,13.749,0,0,1,.277-2.918,6.674,6.674,0,0,1,.813-2.123,3.619,3.619,0,0,1,1.332-1.292,3.739,3.739,0,0,1,1.824-.435Q154.87-12.814,154.87-6.354Zm-1.477.141q0-5.379-2.558-5.379-2.7,0-2.7,5.476,0,5.106,2.646,5.106Q153.393-1.011,153.393-6.214ZM159.3,2.865h-3.226V1.819h1.942V-11.558h-1.942V-12.6H159.3Z" transform="translate(3437 4716.073)" fill="#212429"/>
    <path id="Trazado_1039153" data-name="Trazado 1039153" d="M8.033-9,5.01-4.447,7.98,0H6.3L4.535-2.918q-.167-.272-.4-.686H4.1q-.044.079-.413.686L1.89,0H.229L3.3-4.412.36-9H2.039l1.74,3.076q.193.343.378.7h.035L6.442-9Zm4.188-2.424a1.52,1.52,0,0,0-.105-.59,1.168,1.168,0,0,0-.287-.418,1.176,1.176,0,0,0-.428-.249,1.676,1.676,0,0,0-.533-.082,1.764,1.764,0,0,0-.482.067,2.343,2.343,0,0,0-.459.185,2.823,2.823,0,0,0-.431.282,3.111,3.111,0,0,0-.387.364v-.9a2.514,2.514,0,0,1,.792-.525,2.789,2.789,0,0,1,1.069-.182,2.58,2.58,0,0,1,.836.131,1.916,1.916,0,0,1,.666.382,1.766,1.766,0,0,1,.443.62,2.092,2.092,0,0,1,.161.846,2.9,2.9,0,0,1-.1.79,2.442,2.442,0,0,1-.3.666,3.216,3.216,0,0,1-.51.6,7.225,7.225,0,0,1-.723.584q-.518.369-.854.631a3.773,3.773,0,0,0-.533.49,1.421,1.421,0,0,0-.277.456,1.6,1.6,0,0,0-.079.525h3.66V-6H8.822v-.364a3.033,3.033,0,0,1,.1-.831,2.157,2.157,0,0,1,.338-.682,3.784,3.784,0,0,1,.618-.646q.382-.323.936-.728a5.915,5.915,0,0,0,.669-.549,2.852,2.852,0,0,0,.433-.523,1.878,1.878,0,0,0,.233-.531A2.288,2.288,0,0,0,12.221-11.424ZM29.158-4.658H25.607v3.542H24.438V-4.658H20.9V-5.836h3.542V-9.378h1.169v3.542h3.551ZM36.9-3.516a3.353,3.353,0,0,1,.158-1.006,3.645,3.645,0,0,1,.453-.945,3.746,3.746,0,0,1,.729-.8,3.478,3.478,0,0,1,.989-.571,3.737,3.737,0,0,1-1.3-1.173A2.775,2.775,0,0,1,37.441-9.6a3.06,3.06,0,0,1,.268-1.283,3.091,3.091,0,0,1,.743-1.02,3.433,3.433,0,0,1,1.125-.672,4.006,4.006,0,0,1,1.406-.242,3.967,3.967,0,0,1,1.415.246,3.494,3.494,0,0,1,1.125.677,3.038,3.038,0,0,1,.738,1.02A3.082,3.082,0,0,1,44.525-9.6a2.775,2.775,0,0,1-.483,1.586,3.783,3.783,0,0,1-1.283,1.173,3.446,3.446,0,0,1,.976.571,3.8,3.8,0,0,1,.725.8,3.645,3.645,0,0,1,.453.945,3.353,3.353,0,0,1,.158,1.006A3.743,3.743,0,0,1,44.771-2a3.378,3.378,0,0,1-.839,1.173,3.875,3.875,0,0,1-1.292.76A4.829,4.829,0,0,1,40.983.2,4.765,4.765,0,0,1,39.339-.07a3.934,3.934,0,0,1-1.292-.76A3.4,3.4,0,0,1,37.2-2,3.7,3.7,0,0,1,36.9-3.516Zm1.564-.123a2.977,2.977,0,0,0,.18,1.063,2.293,2.293,0,0,0,.51.809,2.225,2.225,0,0,0,.8.514,2.889,2.889,0,0,0,1.042.18,2.744,2.744,0,0,0,1.02-.185,2.376,2.376,0,0,0,.8-.519,2.332,2.332,0,0,0,.527-.809,2.828,2.828,0,0,0,.189-1.055,2.694,2.694,0,0,0-.18-.989,2.475,2.475,0,0,0-.514-.813,2.415,2.415,0,0,0-.8-.554,2.6,2.6,0,0,0-1.046-.2,2.63,2.63,0,0,0-1.006.189,2.408,2.408,0,0,0-.8.527,2.442,2.442,0,0,0-.532.809A2.69,2.69,0,0,0,38.46-3.639Zm.448-5.845a2.1,2.1,0,0,0,.163.831,2.093,2.093,0,0,0,.448.668,2.106,2.106,0,0,0,.664.448,2.024,2.024,0,0,0,.809.163,2.009,2.009,0,0,0,.813-.167,2.1,2.1,0,0,0,.664-.453,2.194,2.194,0,0,0,.448-.668,2.03,2.03,0,0,0,.167-.822,2.155,2.155,0,0,0-.163-.844A2.065,2.065,0,0,0,42.477-11a2.077,2.077,0,0,0-.664-.444,2.078,2.078,0,0,0-.822-.163,2.1,2.1,0,0,0-.848.167,2.049,2.049,0,0,0-.659.453,1.979,1.979,0,0,0-.426.672A2.272,2.272,0,0,0,38.908-9.483ZM54.774-6.354a12.381,12.381,0,0,1-.286,2.8,6.533,6.533,0,0,1-.826,2.061A3.718,3.718,0,0,1,52.335-.215,3.633,3.633,0,0,1,50.547.22,3.393,3.393,0,0,1,48.855-.2,3.546,3.546,0,0,1,47.6-1.415a6.17,6.17,0,0,1-.773-1.964,12.146,12.146,0,0,1-.264-2.667,13.749,13.749,0,0,1,.277-2.918,6.674,6.674,0,0,1,.813-2.123,3.619,3.619,0,0,1,1.332-1.292,3.739,3.739,0,0,1,1.824-.435Q54.774-12.814,54.774-6.354ZM53.3-6.214q0-5.379-2.558-5.379-2.7,0-2.7,5.476,0,5.106,2.646,5.106Q53.3-1.011,53.3-6.214Zm11.181-.141a12.381,12.381,0,0,1-.286,2.8,6.533,6.533,0,0,1-.826,2.061A3.718,3.718,0,0,1,62.04-.215,3.633,3.633,0,0,1,60.252.22,3.393,3.393,0,0,1,58.56-.2a3.546,3.546,0,0,1-1.252-1.217,6.17,6.17,0,0,1-.773-1.964,12.146,12.146,0,0,1-.264-2.667,13.749,13.749,0,0,1,.277-2.918,6.674,6.674,0,0,1,.813-2.123,3.619,3.619,0,0,1,1.332-1.292,3.739,3.739,0,0,1,1.824-.435Q64.479-12.814,64.479-6.354ZM63-6.214q0-5.379-2.558-5.379-2.7,0-2.7,5.476,0,5.106,2.646,5.106Q63-1.011,63-6.214Z" transform="translate(3437 4767.073)" fill="#212429"/>
    <path id="Trazado_1039151" data-name="Trazado 1039151" d="M8.033-9,5.01-4.447,7.98,0H6.3L4.535-2.918q-.167-.272-.4-.686H4.1q-.044.079-.413.686L1.89,0H.229L3.3-4.412.36-9H2.039l1.74,3.076q.193.343.378.7h.035L6.442-9ZM19.26-4.447h-4.8V-5.581h4.8Z" transform="translate(3556 4767.073)" fill="#212429"/>
    <path id="Trazado_1039152" data-name="Trazado 1039152" d="M8.517-3.85A4.242,4.242,0,0,1,8.2-2.18,3.651,3.651,0,0,1,7.3-.9,4.034,4.034,0,0,1,5.889-.07,5.517,5.517,0,0,1,4.052.22a5.074,5.074,0,0,1-2.61-.527V-1.837a4.8,4.8,0,0,0,2.628.826,3.556,3.556,0,0,0,1.235-.2,2.744,2.744,0,0,0,.936-.562,2.408,2.408,0,0,0,.593-.87A2.945,2.945,0,0,0,7.04-3.762a2.391,2.391,0,0,0-.826-1.929,3.623,3.623,0,0,0-2.4-.7q-.255,0-.536.009t-.562.022q-.281.013-.549.031t-.488.044L2.109-12.6H7.937v1.3H3.357L3.1-7.6q.281-.018.6-.031t.563-.013a5.656,5.656,0,0,1,1.793.264,3.8,3.8,0,0,1,1.34.751,3.151,3.151,0,0,1,.835,1.2A4.2,4.2,0,0,1,8.517-3.85Zm10.153-2.5a12.381,12.381,0,0,1-.286,2.8,6.533,6.533,0,0,1-.826,2.061A3.718,3.718,0,0,1,16.231-.215,3.633,3.633,0,0,1,14.442.22,3.393,3.393,0,0,1,12.75-.2,3.546,3.546,0,0,1,11.5-1.415a6.17,6.17,0,0,1-.773-1.964,12.146,12.146,0,0,1-.264-2.667,13.749,13.749,0,0,1,.277-2.918,6.674,6.674,0,0,1,.813-2.123,3.619,3.619,0,0,1,1.332-1.292,3.739,3.739,0,0,1,1.824-.435Q18.67-12.814,18.67-6.354Zm-1.477.141q0-5.379-2.558-5.379-2.7,0-2.7,5.476,0,5.106,2.646,5.106Q17.193-1.011,17.193-6.214Zm11.181-.141a12.381,12.381,0,0,1-.286,2.8,6.533,6.533,0,0,1-.826,2.061A3.718,3.718,0,0,1,25.936-.215,3.633,3.633,0,0,1,24.147.22,3.393,3.393,0,0,1,22.455-.2,3.546,3.546,0,0,1,21.2-1.415a6.17,6.17,0,0,1-.773-1.964,12.146,12.146,0,0,1-.264-2.667,13.749,13.749,0,0,1,.277-2.918,6.674,6.674,0,0,1,.813-2.123,3.619,3.619,0,0,1,1.332-1.292,3.739,3.739,0,0,1,1.824-.435Q28.375-12.814,28.375-6.354ZM26.9-6.214q0-5.379-2.558-5.379-2.7,0-2.7,5.476,0,5.106,2.646,5.106Q26.9-1.011,26.9-6.214Z" transform="translate(3625 4767.073)" fill="#212429"/>
    <g id="Grupo_1177719" data-name="Grupo 1177719" transform="translate(2372.66 2870.92)">
      <text id="d" transform="translate(1032.063 1832)" fill="#212429" font-size="18" font-family="SegoeUI-Italic, Segoe UI" font-style="italic" letter-spacing="0em"><tspan x="0" y="0">d</tspan></text>
      <text id="dx" transform="translate(1027.063 1858)" fill="#212429" font-size="18" font-family="SegoeUI-Italic, Segoe UI" font-style="italic" letter-spacing="0em"><tspan x="0" y="0">dx</tspan></text>
      <path id="Trazado_1038784" data-name="Trazado 1038784" d="M2526.533,1495h36.338" transform="translate(-1506.533 345)" fill="none" stroke="#212429" stroke-width="1"/>
    </g>
    <g id="Grupo_1177725" data-name="Grupo 1177725" transform="translate(2372.66 2921.92)">
      <text id="d-2" data-name="d" transform="translate(1032.063 1832)" fill="#212429" font-size="18" font-family="SegoeUI-Italic, Segoe UI" font-style="italic" letter-spacing="0em"><tspan x="0" y="0">d</tspan></text>
      <text id="dx-2" data-name="dx" transform="translate(1027.063 1858)" fill="#212429" font-size="18" font-family="SegoeUI-Italic, Segoe UI" font-style="italic" letter-spacing="0em"><tspan x="0" y="0">dx</tspan></text>
      <path id="Trazado_1038784-2" data-name="Trazado 1038784" d="M2526.533,1495h36.338" transform="translate(-1506.533 345)" fill="none" stroke="#212429" stroke-width="1"/>
    </g>
    <g id="Grupo_1177726" data-name="Grupo 1177726" transform="translate(2492.66 2921.92)">
      <text id="d-3" data-name="d" transform="translate(1032.063 1832)" fill="#212429" font-size="18" font-family="SegoeUI-Italic, Segoe UI" font-style="italic" letter-spacing="0em"><tspan x="0" y="0">d</tspan></text>
      <text id="dx-3" data-name="dx" transform="translate(1027.063 1858)" fill="#212429" font-size="18" font-family="SegoeUI-Italic, Segoe UI" font-style="italic" letter-spacing="0em"><tspan x="0" y="0">dx</tspan></text>
      <path id="Trazado_1038784-3" data-name="Trazado 1038784" d="M2526.533,1495h36.338" transform="translate(-1506.533 345)" fill="none" stroke="#212429" stroke-width="1"/>
    </g>
    <g id="Grupo_1177727" data-name="Grupo 1177727" transform="translate(2562.999 2921.92)">
      <text id="d-4" data-name="d" transform="translate(1032.063 1832)" fill="#212429" font-size="18" font-family="SegoeUI-Italic, Segoe UI" font-style="italic" letter-spacing="0em"><tspan x="0" y="0">d</tspan></text>
      <text id="dx-4" data-name="dx" transform="translate(1027.063 1858)" fill="#212429" font-size="18" font-family="SegoeUI-Italic, Segoe UI" font-style="italic" letter-spacing="0em"><tspan x="0" y="0">dx</tspan></text>
      <path id="Trazado_1038784-4" data-name="Trazado 1038784" d="M2526.533,1495h36.338" transform="translate(-1506.533 345)" fill="none" stroke="#212429" stroke-width="1"/>
    </g>
  </g>
</svg>
