<svg xmlns="http://www.w3.org/2000/svg" width="383.035" height="50" viewBox="0 0 383.035 50">
  <g id="Grupo_1177796" data-name="Grupo 1177796" transform="translate(-393 -5131.917)">
    <g id="Grupo_1177795" data-name="Grupo 1177795">
      <path id="Trazado_1039140" data-name="Trazado 1039140" d="M-8.027-11.2a2.806,2.806,0,0,0-1.028-.211q-1.336,0-1.336,1.45V-9h2.057v2.048h-2.057V0H-13.16V-6.952h-1.512V-9h1.512v-1.116a3.24,3.24,0,0,1,1-2.479,3.821,3.821,0,0,1,2.725-.94,4.785,4.785,0,0,1,1.406.176ZM-1.671,2.865H-3.938a11.026,11.026,0,0,1-2.839-7.69A11.731,11.731,0,0,1-3.938-12.6h2.25A12.632,12.632,0,0,0-4.351-4.825,12.216,12.216,0,0,0-1.671,2.865ZM8.342-9,5.371-4.641,8.324,0h-3.2l-1.3-2.426q-.158-.29-.378-.817H3.411a5.707,5.707,0,0,1-.36.791L1.741,0h-3.19L1.592-4.482-1.265-9H1.952L3.235-6.478a5.532,5.532,0,0,1,.36.844h.035A5.946,5.946,0,0,1,4.009-6.5L5.318-9ZM10.831,2.865H8.581a12.144,12.144,0,0,0,2.689-7.69A12.6,12.6,0,0,0,8.581-12.6h2.268A11.731,11.731,0,0,1,13.7-4.825,11.047,11.047,0,0,1,10.831,2.865Z" transform="translate(762.338 5160.376)" fill="#212429"/>
      <path id="Trazado_1039141" data-name="Trazado 1039141" d="M-61.758,2.865h-4.122V-12.6h4.122v1.767H-63.6V1.1h1.837ZM-54.1-11.2a2.806,2.806,0,0,0-1.028-.211q-1.336,0-1.336,1.45V-9h2.057v2.048h-2.057V0h-2.769V-6.952h-1.512V-9h1.512v-1.116a3.24,3.24,0,0,1,1-2.479,3.821,3.821,0,0,1,2.725-.94,4.785,4.785,0,0,1,1.406.176Zm6.356,14.063h-2.268a11.026,11.026,0,0,1-2.839-7.69A11.731,11.731,0,0,1-50.013-12.6h2.25a12.632,12.632,0,0,0-2.663,7.778A12.216,12.216,0,0,0-47.745,2.865ZM-37.733-9-40.7-4.641-37.75,0h-3.2l-1.3-2.426q-.158-.29-.378-.817h-.035a5.707,5.707,0,0,1-.36.791L-44.333,0h-3.19l3.041-4.482L-47.339-9h3.217l1.283,2.522a5.532,5.532,0,0,1,.36.844h.035a5.946,5.946,0,0,1,.378-.861l1.31-2.5Zm2.489,11.865h-2.25A12.144,12.144,0,0,0-34.8-4.825,12.6,12.6,0,0,0-37.493-12.6h2.268a11.731,11.731,0,0,1,2.848,7.778A11.047,11.047,0,0,1-35.243,2.865Zm14.231-3.894a5.092,5.092,0,0,1-1.45,3.88,5.877,5.877,0,0,1-4.2,1.375,6.659,6.659,0,0,1-2.883-.519V1.371a5.521,5.521,0,0,0,2.8.809,3.02,3.02,0,0,0,2.18-.743A2.665,2.665,0,0,0-23.79-.58v-.712h-.035A3.1,3.1,0,0,1-26.628.22,3.372,3.372,0,0,1-29.362-.993a4.919,4.919,0,0,1-1.011-3.252,5.478,5.478,0,0,1,1.125-3.63A3.673,3.673,0,0,1-26.286-9.22a2.733,2.733,0,0,1,2.461,1.266h.035V-9h2.777Zm-2.742-3.3v-.712a2.188,2.188,0,0,0-.505-1.455,1.635,1.635,0,0,0-1.314-.6,1.7,1.7,0,0,0-1.45.721,3.389,3.389,0,0,0-.527,2.03,2.86,2.86,0,0,0,.5,1.78,1.633,1.633,0,0,0,1.371.655,1.7,1.7,0,0,0,1.393-.664A2.721,2.721,0,0,0-23.754-4.324Zm10.39,7.189h-2.268a11.026,11.026,0,0,1-2.839-7.69A11.731,11.731,0,0,1-15.631-12.6h2.25a12.632,12.632,0,0,0-2.663,7.778A12.216,12.216,0,0,0-13.364,2.865ZM-3.351-9-6.322-4.641-3.369,0h-3.2l-1.3-2.426q-.158-.29-.378-.817h-.035a5.707,5.707,0,0,1-.36.791L-9.952,0h-3.19L-10.1-4.482-12.958-9h3.217l1.283,2.522a5.532,5.532,0,0,1,.36.844h.035A5.946,5.946,0,0,1-7.684-6.5L-6.375-9ZM-.862,2.865h-2.25A12.144,12.144,0,0,0-.423-4.825,12.6,12.6,0,0,0-3.112-12.6H-.845A11.731,11.731,0,0,1,2-4.825,11.047,11.047,0,0,1-.862,2.865Zm8.993,0H3.991V1.1H5.846V-10.837H3.991V-12.6h4.14ZM25.642-6.152H17.082v-1.8h8.561Zm0,3.814H17.082V-4.122h8.561ZM39.726-11.2a2.806,2.806,0,0,0-1.028-.211q-1.336,0-1.336,1.45V-9h2.057v2.048H37.362V0H34.593V-6.952H33.081V-9h1.512v-1.116a3.24,3.24,0,0,1,1-2.479,3.821,3.821,0,0,1,2.725-.94,4.785,4.785,0,0,1,1.406.176ZM46.082,2.865H43.815a11.026,11.026,0,0,1-2.839-7.69A11.731,11.731,0,0,1,43.815-12.6h2.25A12.632,12.632,0,0,0,43.4-4.825,12.216,12.216,0,0,0,46.082,2.865ZM56.095-9,53.124-4.641,56.077,0h-3.2l-1.3-2.426q-.158-.29-.378-.817h-.035a5.707,5.707,0,0,1-.36.791L49.494,0H46.3l3.041-4.482L46.488-9h3.217l1.283,2.522a5.532,5.532,0,0,1,.36.844h.035a5.946,5.946,0,0,1,.378-.861L53.071-9ZM58.584,2.865h-2.25a12.144,12.144,0,0,0,2.689-7.69A12.6,12.6,0,0,0,56.334-12.6H58.6a11.731,11.731,0,0,1,2.848,7.778A11.047,11.047,0,0,1,58.584,2.865Z" transform="translate(503.338 5162.376)" fill="#212429"/>
      <path id="Trazado_1039142" data-name="Trazado 1039142" d="M-38.2-1.028a5.092,5.092,0,0,1-1.45,3.88,5.877,5.877,0,0,1-4.2,1.375,6.659,6.659,0,0,1-2.883-.519V1.371a5.521,5.521,0,0,0,2.8.809,3.02,3.02,0,0,0,2.18-.743A2.665,2.665,0,0,0-40.98-.58v-.712h-.035A3.1,3.1,0,0,1-43.819.22,3.372,3.372,0,0,1-46.552-.993a4.919,4.919,0,0,1-1.011-3.252,5.478,5.478,0,0,1,1.125-3.63A3.673,3.673,0,0,1-43.476-9.22a2.733,2.733,0,0,1,2.461,1.266h.035V-9H-38.2Zm-2.742-3.3v-.712a2.188,2.188,0,0,0-.505-1.455,1.635,1.635,0,0,0-1.314-.6,1.7,1.7,0,0,0-1.45.721,3.389,3.389,0,0,0-.527,2.03,2.86,2.86,0,0,0,.5,1.78,1.633,1.633,0,0,0,1.371.655,1.7,1.7,0,0,0,1.393-.664A2.721,2.721,0,0,0-40.945-4.324Zm10.39,7.189h-2.268a11.026,11.026,0,0,1-2.839-7.69A11.731,11.731,0,0,1-32.822-12.6h2.25a12.632,12.632,0,0,0-2.663,7.778A12.216,12.216,0,0,0-30.554,2.865ZM-20.542-9l-2.971,4.359L-20.56,0h-3.2l-1.3-2.426q-.158-.29-.378-.817h-.035a5.707,5.707,0,0,1-.36.791L-27.143,0h-3.19l3.041-4.482L-30.148-9h3.217l1.283,2.522a5.532,5.532,0,0,1,.36.844h.035a5.946,5.946,0,0,1,.378-.861l1.31-2.5Zm2.489,11.865H-20.3a12.144,12.144,0,0,0,2.689-7.69A12.6,12.6,0,0,0-20.3-12.6h2.268a11.731,11.731,0,0,1,2.848,7.778A11.047,11.047,0,0,1-18.053,2.865ZM1.805-4.263H-1.579V-.879H-3.354V-4.263h-3.4V-6.047h3.4v-3.4h1.775v3.4H1.805ZM18.842-1.028a5.092,5.092,0,0,1-1.45,3.88,5.877,5.877,0,0,1-4.2,1.375,6.659,6.659,0,0,1-2.883-.519V1.371a5.521,5.521,0,0,0,2.8.809,3.02,3.02,0,0,0,2.18-.743A2.665,2.665,0,0,0,16.065-.58v-.712H16.03A3.1,3.1,0,0,1,13.226.22,3.372,3.372,0,0,1,10.492-.993,4.919,4.919,0,0,1,9.482-4.245a5.478,5.478,0,0,1,1.125-3.63A3.673,3.673,0,0,1,13.569-9.22,2.733,2.733,0,0,1,16.03-7.954h.035V-9h2.777ZM16.1-4.324v-.712a2.188,2.188,0,0,0-.505-1.455,1.635,1.635,0,0,0-1.314-.6,1.7,1.7,0,0,0-1.45.721,3.389,3.389,0,0,0-.527,2.03,2.86,2.86,0,0,0,.5,1.78,1.633,1.633,0,0,0,1.371.655,1.7,1.7,0,0,0,1.393-.664A2.721,2.721,0,0,0,16.1-4.324ZM26.49,2.865H24.223a11.026,11.026,0,0,1-2.839-7.69A11.731,11.731,0,0,1,24.223-12.6h2.25A12.632,12.632,0,0,0,23.81-4.825,12.216,12.216,0,0,0,26.49,2.865ZM36.5-9,33.532-4.641,36.485,0h-3.2l-1.3-2.426q-.158-.29-.378-.817h-.035a5.707,5.707,0,0,1-.36.791L29.9,0h-3.19l3.041-4.482L26.9-9h3.217L31.4-6.478a5.532,5.532,0,0,1,.36.844h.035A5.946,5.946,0,0,1,32.17-6.5L33.479-9ZM38.992,2.865h-2.25a12.144,12.144,0,0,0,2.689-7.69A12.6,12.6,0,0,0,36.742-12.6H39.01a11.731,11.731,0,0,1,2.848,7.778A11.047,11.047,0,0,1,38.992,2.865Z" transform="translate(657.338 5162.376)" fill="#212429"/>
      <g id="Grupo_1177728" data-name="Grupo 1177728" transform="translate(-627.001 3318.917)">
        <text id="d" transform="translate(1032.063 1832)" fill="#212429" font-size="18" font-family="SegoeUI-BoldItalic, Segoe UI" font-weight="700" font-style="italic" letter-spacing="0em"><tspan x="0" y="0">d</tspan></text>
        <text id="dx" transform="translate(1027.063 1858)" fill="#212429" font-size="18" font-family="SegoeUI-BoldItalic, Segoe UI" font-weight="700" font-style="italic" letter-spacing="0em"><tspan x="0" y="0">dx</tspan></text>
        <path id="Trazado_1038784" data-name="Trazado 1038784" d="M2526.533,1495h36.338" transform="translate(-1506.533 345)" fill="none" stroke="#212429" stroke-width="1"/>
      </g>
      <g id="Grupo_1177729" data-name="Grupo 1177729" transform="translate(-451.662 3318.917)">
        <text id="d-2" data-name="d" transform="translate(1032.063 1832)" fill="#212429" font-size="18" font-family="SegoeUI-BoldItalic, Segoe UI" font-weight="700" font-style="italic" letter-spacing="0em"><tspan x="0" y="0">d</tspan></text>
        <text id="dx-2" data-name="dx" transform="translate(1027.063 1858)" fill="#212429" font-size="18" font-family="SegoeUI-BoldItalic, Segoe UI" font-weight="700" font-style="italic" letter-spacing="0em"><tspan x="0" y="0">dx</tspan></text>
        <path id="Trazado_1038784-2" data-name="Trazado 1038784" d="M2526.533,1495h36.338" transform="translate(-1506.533 345)" fill="none" stroke="#212429" stroke-width="1"/>
      </g>
      <g id="Grupo_1177730" data-name="Grupo 1177730" transform="translate(-316.661 3318.917)">
        <text id="d-3" data-name="d" transform="translate(1032.063 1832)" fill="#212429" font-size="18" font-family="SegoeUI-BoldItalic, Segoe UI" font-weight="700" font-style="italic" letter-spacing="0em"><tspan x="0" y="0">d</tspan></text>
        <text id="dx-3" data-name="dx" transform="translate(1027.063 1858)" fill="#212429" font-size="18" font-family="SegoeUI-BoldItalic, Segoe UI" font-weight="700" font-style="italic" letter-spacing="0em"><tspan x="0" y="0">dx</tspan></text>
        <path id="Trazado_1038784-3" data-name="Trazado 1038784" d="M2526.533,1495h36.338" transform="translate(-1506.533 345)" fill="none" stroke="#212429" stroke-width="1"/>
      </g>
    </g>
  </g>
</svg>
