<svg xmlns="http://www.w3.org/2000/svg" width="456.616" height="39.544" viewBox="0 0 456.616 39.544">
  <g id="Grupo_1177796" data-name="Grupo 1177796" transform="translate(-813 -5769.68)">
    <path id="Trazado_1039143" data-name="Trazado 1039143" d="M-71.2,2.865h-4.122V-12.6H-71.2v1.767h-1.837V1.1H-71.2ZM-63.538-11.2a2.806,2.806,0,0,0-1.028-.211q-1.336,0-1.336,1.45V-9h2.057v2.048H-65.9V0h-2.769V-6.952h-1.512V-9h1.512v-1.116a3.24,3.24,0,0,1,1-2.479,3.821,3.821,0,0,1,2.725-.94,4.785,4.785,0,0,1,1.406.176Zm6.356,14.063H-59.45a11.026,11.026,0,0,1-2.839-7.69A11.731,11.731,0,0,1-59.45-12.6h2.25a12.632,12.632,0,0,0-2.663,7.778A12.216,12.216,0,0,0-57.182,2.865ZM-47.169-9-50.14-4.641-47.187,0h-3.2l-1.3-2.426q-.158-.29-.378-.817H-52.1a5.707,5.707,0,0,1-.36.791L-53.77,0h-3.19l3.041-4.482L-56.776-9h3.217l1.283,2.522a5.532,5.532,0,0,1,.36.844h.035A5.946,5.946,0,0,1-51.5-6.5l1.31-2.5ZM-44.68,2.865h-2.25a12.144,12.144,0,0,0,2.689-7.69A12.6,12.6,0,0,0-46.93-12.6h2.268a11.731,11.731,0,0,1,2.848,7.778A11.047,11.047,0,0,1-44.68,2.865ZM-32.251-12.6l-6.144,14.7h-2.479l6.117-14.7Zm9.784,11.575a5.092,5.092,0,0,1-1.45,3.88,5.877,5.877,0,0,1-4.2,1.375A6.659,6.659,0,0,1-31,3.709V1.371a5.521,5.521,0,0,0,2.8.809,3.02,3.02,0,0,0,2.18-.743A2.665,2.665,0,0,0-25.244-.58v-.712h-.035A3.1,3.1,0,0,1-28.083.22,3.372,3.372,0,0,1-30.816-.993a4.919,4.919,0,0,1-1.011-3.252A5.478,5.478,0,0,1-30.7-7.875,3.673,3.673,0,0,1-27.74-9.22a2.733,2.733,0,0,1,2.461,1.266h.035V-9h2.777Zm-2.742-3.3v-.712a2.188,2.188,0,0,0-.505-1.455,1.635,1.635,0,0,0-1.314-.6,1.7,1.7,0,0,0-1.45.721,3.389,3.389,0,0,0-.527,2.03,2.86,2.86,0,0,0,.5,1.78,1.633,1.633,0,0,0,1.371.655,1.7,1.7,0,0,0,1.393-.664A2.721,2.721,0,0,0-25.209-4.324Zm10.39,7.189h-2.268a11.026,11.026,0,0,1-2.839-7.69A11.731,11.731,0,0,1-17.086-12.6h2.25A12.632,12.632,0,0,0-17.5-4.825,12.216,12.216,0,0,0-14.818,2.865ZM-4.806-9-7.777-4.641-4.823,0h-3.2l-1.3-2.426q-.158-.29-.378-.817h-.035a5.707,5.707,0,0,1-.36.791L-11.407,0H-14.6l3.041-4.482L-14.412-9H-11.2l1.283,2.522a5.532,5.532,0,0,1,.36.844h.035A5.946,5.946,0,0,1-9.139-6.5L-7.829-9ZM-2.317,2.865h-2.25a12.144,12.144,0,0,0,2.689-7.69A12.6,12.6,0,0,0-4.567-12.6H-2.3A11.731,11.731,0,0,1,.548-4.825,11.047,11.047,0,0,1-2.317,2.865Zm8.993,0H2.537V1.1H4.391V-10.837H2.537V-12.6h4.14ZM24.188-6.152H15.627v-1.8h8.561Zm0,3.814H15.627V-4.122h8.561Zm13.073,5.2H33.138V-12.6h4.122v1.767H35.424V1.1h1.837Zm10.61-3.894a5.092,5.092,0,0,1-1.45,3.88,5.877,5.877,0,0,1-4.2,1.375,6.659,6.659,0,0,1-2.883-.519V1.371a5.521,5.521,0,0,0,2.8.809,3.02,3.02,0,0,0,2.18-.743A2.665,2.665,0,0,0,45.093-.58v-.712h-.035A3.1,3.1,0,0,1,42.255.22,3.372,3.372,0,0,1,39.521-.993,4.919,4.919,0,0,1,38.51-4.245a5.478,5.478,0,0,1,1.125-3.63A3.673,3.673,0,0,1,42.6-9.22a2.733,2.733,0,0,1,2.461,1.266h.035V-9h2.777Zm-2.742-3.3v-.712a2.188,2.188,0,0,0-.505-1.455,1.635,1.635,0,0,0-1.314-.6,1.7,1.7,0,0,0-1.45.721,3.389,3.389,0,0,0-.527,2.03,2.86,2.86,0,0,0,.5,1.78,1.633,1.633,0,0,0,1.371.655A1.7,1.7,0,0,0,44.6-2.571,2.721,2.721,0,0,0,45.129-4.324Zm10.39,7.189H53.251a11.026,11.026,0,0,1-2.839-7.69A11.731,11.731,0,0,1,53.251-12.6H55.5a12.632,12.632,0,0,0-2.663,7.778A12.216,12.216,0,0,0,55.519,2.865ZM65.532-9,62.561-4.641,65.514,0h-3.2l-1.3-2.426q-.158-.29-.378-.817H60.6a5.707,5.707,0,0,1-.36.791L58.931,0h-3.19l3.041-4.482L55.925-9h3.217l1.283,2.522a5.532,5.532,0,0,1,.36.844h.035A5.946,5.946,0,0,1,61.2-6.5L62.508-9ZM68.021,2.865h-2.25a12.144,12.144,0,0,0,2.689-7.69A12.6,12.6,0,0,0,65.771-12.6h2.268a11.731,11.731,0,0,1,2.848,7.778A11.047,11.047,0,0,1,68.021,2.865Z" transform="translate(928.339 5794.463)" fill="#212429"/>
    <path id="Trazado_1039144" data-name="Trazado 1039144" d="M-34.186-11.2a2.806,2.806,0,0,0-1.028-.211q-1.336,0-1.336,1.45V-9h2.057v2.048H-36.55V0h-2.769V-6.952h-1.512V-9h1.512v-1.116a3.24,3.24,0,0,1,1-2.479,3.821,3.821,0,0,1,2.725-.94,4.785,4.785,0,0,1,1.406.176ZM-27.83,2.865H-30.1a11.026,11.026,0,0,1-2.839-7.69A11.731,11.731,0,0,1-30.1-12.6h2.25a12.632,12.632,0,0,0-2.663,7.778A12.216,12.216,0,0,0-27.83,2.865ZM-17.817-9l-2.971,4.359L-17.835,0h-3.2l-1.3-2.426q-.158-.29-.378-.817h-.035a5.707,5.707,0,0,1-.36.791L-24.418,0h-3.19l3.041-4.482L-27.424-9h3.217l1.283,2.522a5.532,5.532,0,0,1,.36.844h.035A5.946,5.946,0,0,1-22.15-6.5l1.31-2.5Zm2.489,11.865h-2.25a12.144,12.144,0,0,0,2.689-7.69A12.6,12.6,0,0,0-17.578-12.6h2.268a11.731,11.731,0,0,1,2.848,7.778A11.047,11.047,0,0,1-15.328,2.865Zm15.27-6.7H-4.866V-5.774H-.058ZM13.164-11.2a2.806,2.806,0,0,0-1.028-.211q-1.336,0-1.336,1.45V-9h2.057v2.048H10.8V0H8.032V-6.952H6.52V-9H8.032v-1.116a3.24,3.24,0,0,1,1-2.479,3.821,3.821,0,0,1,2.725-.94,4.785,4.785,0,0,1,1.406.176ZM19.521,2.865H17.253a11.026,11.026,0,0,1-2.839-7.69A11.731,11.731,0,0,1,17.253-12.6H19.5A12.632,12.632,0,0,0,16.84-4.825,12.216,12.216,0,0,0,19.521,2.865ZM29.533-9,26.562-4.641,29.516,0h-3.2l-1.3-2.426q-.158-.29-.378-.817H24.6a5.707,5.707,0,0,1-.36.791L22.933,0h-3.19l3.041-4.482L19.927-9h3.217l1.283,2.522a5.532,5.532,0,0,1,.36.844h.035A5.946,5.946,0,0,1,25.2-6.5L26.51-9ZM32.022,2.865h-2.25a12.144,12.144,0,0,0,2.689-7.69A12.6,12.6,0,0,0,29.772-12.6H32.04a11.731,11.731,0,0,1,2.848,7.778A11.047,11.047,0,0,1,32.022,2.865Z" transform="translate(1084 5794.463)" fill="#212429"/>
    <path id="Trazado_1039145" data-name="Trazado 1039145" d="M-46.336-1.028a5.092,5.092,0,0,1-1.45,3.88,5.877,5.877,0,0,1-4.2,1.375,6.659,6.659,0,0,1-2.883-.519V1.371a5.521,5.521,0,0,0,2.8.809,3.02,3.02,0,0,0,2.18-.743A2.665,2.665,0,0,0-49.113-.58v-.712h-.035A3.1,3.1,0,0,1-51.952.22,3.372,3.372,0,0,1-54.686-.993,4.919,4.919,0,0,1-55.7-4.245a5.478,5.478,0,0,1,1.125-3.63A3.673,3.673,0,0,1-51.609-9.22a2.733,2.733,0,0,1,2.461,1.266h.035V-9h2.777Zm-2.742-3.3v-.712a2.188,2.188,0,0,0-.505-1.455,1.635,1.635,0,0,0-1.314-.6,1.7,1.7,0,0,0-1.45.721,3.389,3.389,0,0,0-.527,2.03,2.86,2.86,0,0,0,.5,1.78A1.633,1.633,0,0,0-51-1.907a1.7,1.7,0,0,0,1.393-.664A2.721,2.721,0,0,0-49.078-4.324Zm10.39,7.189h-2.268a11.026,11.026,0,0,1-2.839-7.69A11.731,11.731,0,0,1-40.955-12.6h2.25a12.632,12.632,0,0,0-2.663,7.778A12.216,12.216,0,0,0-38.688,2.865ZM-28.675-9l-2.971,4.359L-28.693,0h-3.2l-1.3-2.426q-.158-.29-.378-.817h-.035a5.707,5.707,0,0,1-.36.791L-35.276,0h-3.19l3.041-4.482L-38.282-9h3.217l1.283,2.522a5.532,5.532,0,0,1,.36.844h.035a5.946,5.946,0,0,1,.378-.861L-31.7-9Zm2.489,11.865h-2.25a12.144,12.144,0,0,0,2.689-7.69A12.6,12.6,0,0,0-28.436-12.6h2.268a11.731,11.731,0,0,1,2.848,7.778A11.047,11.047,0,0,1-26.186,2.865Zm8.993,0h-4.14V1.1h1.854V-10.837h-1.854V-12.6h4.14ZM-2.142-12.6l-6.144,14.7h-2.479l6.117-14.7ZM8.645,2.865H4.523V-12.6H8.645v1.767H6.808V1.1H8.645Zm10.61-3.894a5.092,5.092,0,0,1-1.45,3.88,5.877,5.877,0,0,1-4.2,1.375,6.659,6.659,0,0,1-2.883-.519V1.371a5.521,5.521,0,0,0,2.8.809,3.02,3.02,0,0,0,2.18-.743A2.665,2.665,0,0,0,16.478-.58v-.712h-.035A3.1,3.1,0,0,1,13.639.22,3.372,3.372,0,0,1,10.906-.993,4.919,4.919,0,0,1,9.9-4.245a5.478,5.478,0,0,1,1.125-3.63A3.673,3.673,0,0,1,13.982-9.22a2.733,2.733,0,0,1,2.461,1.266h.035V-9h2.777Zm-2.742-3.3v-.712a2.188,2.188,0,0,0-.505-1.455,1.635,1.635,0,0,0-1.314-.6,1.7,1.7,0,0,0-1.45.721,3.389,3.389,0,0,0-.527,2.03,2.86,2.86,0,0,0,.5,1.78,1.633,1.633,0,0,0,1.371.655,1.7,1.7,0,0,0,1.393-.664A2.721,2.721,0,0,0,16.513-4.324ZM26.9,2.865H24.636A11.026,11.026,0,0,1,21.8-4.825,11.731,11.731,0,0,1,24.636-12.6h2.25a12.632,12.632,0,0,0-2.663,7.778A12.216,12.216,0,0,0,26.9,2.865ZM36.916-9,33.946-4.641,36.9,0H33.7L32.4-2.426q-.158-.29-.378-.817h-.035a5.707,5.707,0,0,1-.36.791L30.316,0h-3.19l3.041-4.482L27.31-9h3.217L31.81-6.478a5.532,5.532,0,0,1,.36.844h.035a5.946,5.946,0,0,1,.378-.861L33.893-9ZM39.405,2.865h-2.25a12.144,12.144,0,0,0,2.689-7.69A12.6,12.6,0,0,0,37.155-12.6h2.268a11.731,11.731,0,0,1,2.848,7.778A11.047,11.047,0,0,1,39.405,2.865Zm8.993,0h-4.14V1.1h1.854V-10.837H44.259V-12.6H48.4ZM52.489-7.343h3.117V-6H50.715v-.554a2.577,2.577,0,0,1,.19-1.013,3.36,3.36,0,0,1,.477-.8A4.136,4.136,0,0,1,52.01-9q.341-.274.649-.495.323-.231.566-.441a3.228,3.228,0,0,0,.41-.418,1.588,1.588,0,0,0,.249-.42,1.25,1.25,0,0,0,.082-.454.912.912,0,0,0-.267-.713,1.185,1.185,0,0,0-.815-.241,2.738,2.738,0,0,0-1.815.754v-1.425a3.9,3.9,0,0,1,2.163-.62,3.2,3.2,0,0,1,1,.146,2.12,2.12,0,0,1,.751.418,1.782,1.782,0,0,1,.469.659,2.223,2.223,0,0,1,.161.864,2.436,2.436,0,0,1-.156.9,2.773,2.773,0,0,1-.415.718,3.767,3.767,0,0,1-.6.592q-.338.269-.7.52-.246.174-.474.346a4.5,4.5,0,0,0-.4.338,1.837,1.837,0,0,0-.277.326A.562.562,0,0,0,52.489-7.343Z" transform="translate(1214 5794.463)" fill="#212429"/>
    <path id="Trazado_1039146" data-name="Trazado 1039146" d="M9.176-2.971q-.062.272-.119.659t-.105.8Q8.9-1.09,8.873-.69T8.842,0H6.029q0-.123.013-.33t.035-.426q.022-.22.044-.426t.031-.33H6.117a6.665,6.665,0,0,1-.567.7,3.671,3.671,0,0,1-.633.545,2.885,2.885,0,0,1-.734.356,2.825,2.825,0,0,1-.87.127A2.839,2.839,0,0,1,2.149-.009a2.372,2.372,0,0,1-.875-.664A2.985,2.985,0,0,1,.725-1.753,5.248,5.248,0,0,1,.536-3.226,6.584,6.584,0,0,1,.932-5.5,5.72,5.72,0,0,1,2.079-7.409,5.553,5.553,0,0,1,3.911-8.728,5.878,5.878,0,0,1,6.372-9.22q.352,0,.716.035t.593.079l.905-4.219h2.769ZM7.286-7.163a3.089,3.089,0,0,0-.444-.079,4.336,4.336,0,0,0-.47-.026,2.609,2.609,0,0,0-1.063.2,2.684,2.684,0,0,0-.8.532,3.144,3.144,0,0,0-.567.747,4.8,4.8,0,0,0-.365.844,5.075,5.075,0,0,0-.193.826,5.023,5.023,0,0,0-.057.7,2.442,2.442,0,0,0,.07.6,1.519,1.519,0,0,0,.207.479.961.961,0,0,0,.352.316,1.063,1.063,0,0,0,.505.114,1.41,1.41,0,0,0,.866-.286,2.793,2.793,0,0,0,.677-.747,5,5,0,0,0,.5-1.037,10.531,10.531,0,0,0,.334-1.156Z" transform="translate(825.062 5783.004)" fill="#212429"/>
    <path id="Trazado_1039147" data-name="Trazado 1039147" d="M9.176-2.971q-.062.272-.119.659t-.105.8Q8.9-1.09,8.873-.69T8.842,0H6.029q0-.123.013-.33t.035-.426q.022-.22.044-.426t.031-.33H6.117a6.665,6.665,0,0,1-.567.7,3.671,3.671,0,0,1-.633.545,2.885,2.885,0,0,1-.734.356,2.825,2.825,0,0,1-.87.127A2.839,2.839,0,0,1,2.149-.009a2.372,2.372,0,0,1-.875-.664A2.985,2.985,0,0,1,.725-1.753,5.248,5.248,0,0,1,.536-3.226,6.584,6.584,0,0,1,.932-5.5,5.72,5.72,0,0,1,2.079-7.409,5.553,5.553,0,0,1,3.911-8.728,5.878,5.878,0,0,1,6.372-9.22q.352,0,.716.035t.593.079l.905-4.219h2.769ZM7.286-7.163a3.089,3.089,0,0,0-.444-.079,4.336,4.336,0,0,0-.47-.026,2.609,2.609,0,0,0-1.063.2,2.684,2.684,0,0,0-.8.532,3.144,3.144,0,0,0-.567.747,4.8,4.8,0,0,0-.365.844,5.075,5.075,0,0,0-.193.826,5.023,5.023,0,0,0-.057.7,2.442,2.442,0,0,0,.07.6,1.519,1.519,0,0,0,.207.479.961.961,0,0,0,.352.316,1.063,1.063,0,0,0,.505.114,1.41,1.41,0,0,0,.866-.286,2.793,2.793,0,0,0,.677-.747,5,5,0,0,0,.5-1.037,10.531,10.531,0,0,0,.334-1.156ZM17.527-4.518l2,4.518H16.446l-.809-2.355q-.07-.2-.132-.435t-.114-.453h-.044q-.132.22-.264.448a3.233,3.233,0,0,1-.272.4L13.027,0H9.758l4.008-4.553L11.841-9h3.094l.738,2.373a3.671,3.671,0,0,1,.149.5q.062.268.088.444h.035q.105-.193.281-.453t.316-.453L18.3-9h3.155Z" transform="translate(820.062 5809.004)" fill="#212429"/>
    <path id="Trazado_1038784" data-name="Trazado 1038784" d="M2526.533,1495h36.338" transform="translate(-1713.533 4296.004)" fill="none" stroke="#212429" stroke-width="1"/>
    <path id="Trazado_1039148" data-name="Trazado 1039148" d="M9.176-2.971q-.062.272-.119.659t-.105.8Q8.9-1.09,8.873-.69T8.842,0H6.029q0-.123.013-.33t.035-.426q.022-.22.044-.426t.031-.33H6.117a6.665,6.665,0,0,1-.567.7,3.671,3.671,0,0,1-.633.545,2.885,2.885,0,0,1-.734.356,2.825,2.825,0,0,1-.87.127A2.839,2.839,0,0,1,2.149-.009a2.372,2.372,0,0,1-.875-.664A2.985,2.985,0,0,1,.725-1.753,5.248,5.248,0,0,1,.536-3.226,6.584,6.584,0,0,1,.932-5.5,5.72,5.72,0,0,1,2.079-7.409,5.553,5.553,0,0,1,3.911-8.728,5.878,5.878,0,0,1,6.372-9.22q.352,0,.716.035t.593.079l.905-4.219h2.769ZM7.286-7.163a3.089,3.089,0,0,0-.444-.079,4.336,4.336,0,0,0-.47-.026,2.609,2.609,0,0,0-1.063.2,2.684,2.684,0,0,0-.8.532,3.144,3.144,0,0,0-.567.747,4.8,4.8,0,0,0-.365.844,5.075,5.075,0,0,0-.193.826,5.023,5.023,0,0,0-.057.7,2.442,2.442,0,0,0,.07.6,1.519,1.519,0,0,0,.207.479.961.961,0,0,0,.352.316,1.063,1.063,0,0,0,.505.114,1.41,1.41,0,0,0,.866-.286,2.793,2.793,0,0,0,.677-.747,5,5,0,0,0,.5-1.037,10.531,10.531,0,0,0,.334-1.156Z" transform="translate(1012.062 5783.004)" fill="#212429"/>
    <path id="Trazado_1039149" data-name="Trazado 1039149" d="M9.176-2.971q-.062.272-.119.659t-.105.8Q8.9-1.09,8.873-.69T8.842,0H6.029q0-.123.013-.33t.035-.426q.022-.22.044-.426t.031-.33H6.117a6.665,6.665,0,0,1-.567.7,3.671,3.671,0,0,1-.633.545,2.885,2.885,0,0,1-.734.356,2.825,2.825,0,0,1-.87.127A2.839,2.839,0,0,1,2.149-.009a2.372,2.372,0,0,1-.875-.664A2.985,2.985,0,0,1,.725-1.753,5.248,5.248,0,0,1,.536-3.226,6.584,6.584,0,0,1,.932-5.5,5.72,5.72,0,0,1,2.079-7.409,5.553,5.553,0,0,1,3.911-8.728,5.878,5.878,0,0,1,6.372-9.22q.352,0,.716.035t.593.079l.905-4.219h2.769ZM7.286-7.163a3.089,3.089,0,0,0-.444-.079,4.336,4.336,0,0,0-.47-.026,2.609,2.609,0,0,0-1.063.2,2.684,2.684,0,0,0-.8.532,3.144,3.144,0,0,0-.567.747,4.8,4.8,0,0,0-.365.844,5.075,5.075,0,0,0-.193.826,5.023,5.023,0,0,0-.057.7,2.442,2.442,0,0,0,.07.6,1.519,1.519,0,0,0,.207.479.961.961,0,0,0,.352.316,1.063,1.063,0,0,0,.505.114,1.41,1.41,0,0,0,.866-.286,2.793,2.793,0,0,0,.677-.747,5,5,0,0,0,.5-1.037,10.531,10.531,0,0,0,.334-1.156ZM17.527-4.518l2,4.518H16.446l-.809-2.355q-.07-.2-.132-.435t-.114-.453h-.044q-.132.22-.264.448a3.233,3.233,0,0,1-.272.4L13.027,0H9.758l4.008-4.553L11.841-9h3.094l.738,2.373a3.671,3.671,0,0,1,.149.5q.062.268.088.444h.035q.105-.193.281-.453t.316-.453L18.3-9h3.155Z" transform="translate(1007.062 5809.004)" fill="#212429"/>
    <path id="Trazado_1038784-2" data-name="Trazado 1038784" d="M2526.533,1495h36.338" transform="translate(-1526.533 4296.004)" fill="none" stroke="#212429" stroke-width="1"/>
    <path id="Trazado_1039150" data-name="Trazado 1039150" d="M9.176-2.971q-.062.272-.119.659t-.105.8Q8.9-1.09,8.873-.69T8.842,0H6.029q0-.123.013-.33t.035-.426q.022-.22.044-.426t.031-.33H6.117a6.665,6.665,0,0,1-.567.7,3.671,3.671,0,0,1-.633.545,2.885,2.885,0,0,1-.734.356,2.825,2.825,0,0,1-.87.127A2.839,2.839,0,0,1,2.149-.009a2.372,2.372,0,0,1-.875-.664A2.985,2.985,0,0,1,.725-1.753,5.248,5.248,0,0,1,.536-3.226,6.584,6.584,0,0,1,.932-5.5,5.72,5.72,0,0,1,2.079-7.409,5.553,5.553,0,0,1,3.911-8.728,5.878,5.878,0,0,1,6.372-9.22q.352,0,.716.035t.593.079l.905-4.219h2.769ZM7.286-7.163a3.089,3.089,0,0,0-.444-.079,4.336,4.336,0,0,0-.47-.026,2.609,2.609,0,0,0-1.063.2,2.684,2.684,0,0,0-.8.532,3.144,3.144,0,0,0-.567.747,4.8,4.8,0,0,0-.365.844,5.075,5.075,0,0,0-.193.826,5.023,5.023,0,0,0-.057.7,2.442,2.442,0,0,0,.07.6,1.519,1.519,0,0,0,.207.479.961.961,0,0,0,.352.316,1.063,1.063,0,0,0,.505.114,1.41,1.41,0,0,0,.866-.286,2.793,2.793,0,0,0,.677-.747,5,5,0,0,0,.5-1.037,10.531,10.531,0,0,0,.334-1.156Z" transform="translate(1137.062 5783.004)" fill="#212429"/>
    <path id="Trazado_1039151" data-name="Trazado 1039151" d="M9.176-2.971q-.062.272-.119.659t-.105.8Q8.9-1.09,8.873-.69T8.842,0H6.029q0-.123.013-.33t.035-.426q.022-.22.044-.426t.031-.33H6.117a6.665,6.665,0,0,1-.567.7,3.671,3.671,0,0,1-.633.545,2.885,2.885,0,0,1-.734.356,2.825,2.825,0,0,1-.87.127A2.839,2.839,0,0,1,2.149-.009a2.372,2.372,0,0,1-.875-.664A2.985,2.985,0,0,1,.725-1.753,5.248,5.248,0,0,1,.536-3.226,6.584,6.584,0,0,1,.932-5.5,5.72,5.72,0,0,1,2.079-7.409,5.553,5.553,0,0,1,3.911-8.728,5.878,5.878,0,0,1,6.372-9.22q.352,0,.716.035t.593.079l.905-4.219h2.769ZM7.286-7.163a3.089,3.089,0,0,0-.444-.079,4.336,4.336,0,0,0-.47-.026,2.609,2.609,0,0,0-1.063.2,2.684,2.684,0,0,0-.8.532,3.144,3.144,0,0,0-.567.747,4.8,4.8,0,0,0-.365.844,5.075,5.075,0,0,0-.193.826,5.023,5.023,0,0,0-.057.7,2.442,2.442,0,0,0,.07.6,1.519,1.519,0,0,0,.207.479.961.961,0,0,0,.352.316,1.063,1.063,0,0,0,.505.114,1.41,1.41,0,0,0,.866-.286,2.793,2.793,0,0,0,.677-.747,5,5,0,0,0,.5-1.037,10.531,10.531,0,0,0,.334-1.156ZM17.527-4.518l2,4.518H16.446l-.809-2.355q-.07-.2-.132-.435t-.114-.453h-.044q-.132.22-.264.448a3.233,3.233,0,0,1-.272.4L13.027,0H9.758l4.008-4.553L11.841-9h3.094l.738,2.373a3.671,3.671,0,0,1,.149.5q.062.268.088.444h.035q.105-.193.281-.453t.316-.453L18.3-9h3.155Z" transform="translate(1132.062 5809.004)" fill="#212429"/>
    <path id="Trazado_1038784-3" data-name="Trazado 1038784" d="M2526.533,1495h36.338" transform="translate(-1401.533 4296.004)" fill="none" stroke="#212429" stroke-width="1"/>
  </g>
</svg>
