<svg xmlns="http://www.w3.org/2000/svg" width="495.428" height="184.107" viewBox="0 0 495.428 184.107">
  <g id="Grupo_1177797" data-name="Grupo 1177797" transform="translate(-758.133 -6063.671)">
    <path id="Trazado_1039162" data-name="Trazado 1039162" d="M-25.569-10.424a1.622,1.622,0,0,1-1.151-.417,1.345,1.345,0,0,1-.448-1.024,1.3,1.3,0,0,1,.448-1.02,1.676,1.676,0,0,1,1.151-.4,1.672,1.672,0,0,1,1.156.4,1.3,1.3,0,0,1,.444,1.02,1.34,1.34,0,0,1-.444,1.037A1.65,1.65,0,0,1-25.569-10.424ZM-24.2-.158a4.892,4.892,0,0,1-.976,3.19,3.421,3.421,0,0,1-2.812,1.2,3.889,3.889,0,0,1-1.327-.264V1.784a2.163,2.163,0,0,0,1.028.325q1.31,0,1.31-2.057V-9H-24.2Zm4.818-12.6v3.885h-2.109v-3.885Zm8.123,15.627h-2.268a11.026,11.026,0,0,1-2.839-7.69A11.731,11.731,0,0,1-13.525-12.6h2.25a12.632,12.632,0,0,0-2.663,7.778A12.216,12.216,0,0,0-11.257,2.865ZM-1.245-9-4.215-4.641-1.262,0h-3.2l-1.3-2.426q-.158-.29-.378-.817h-.035a5.707,5.707,0,0,1-.36.791L-7.845,0h-3.19l3.041-4.482L-10.851-9h3.217l1.283,2.522a5.532,5.532,0,0,1,.36.844h.035A5.946,5.946,0,0,1-5.578-6.5L-4.268-9ZM1.245,2.865h-2.25a12.144,12.144,0,0,0,2.689-7.69A12.6,12.6,0,0,0-1.005-12.6H1.262A11.731,11.731,0,0,1,4.11-4.825,11.047,11.047,0,0,1,1.245,2.865ZM21.1-6.152H12.542v-1.8H21.1Zm0,3.814H12.542V-4.122H21.1Z" transform="translate(902 6088.455)" fill="#212429"/>
    <path id="Trazado_1039163" data-name="Trazado 1039163" d="M6.029,2.865H1.907V-12.6H6.029v1.767H4.192V1.1H6.029Zm7.112,0H10.874a11.026,11.026,0,0,1-2.839-7.69A11.731,11.731,0,0,1,10.874-12.6h2.25a12.632,12.632,0,0,0-2.663,7.778A12.216,12.216,0,0,0,13.141,2.865ZM23.154-9,20.183-4.641,23.136,0h-3.2l-1.3-2.426q-.158-.29-.378-.817h-.035a5.707,5.707,0,0,1-.36.791L16.553,0h-3.19L16.4-4.482,13.548-9h3.217l1.283,2.522a5.532,5.532,0,0,1,.36.844h.035a5.946,5.946,0,0,1,.378-.861L20.131-9Zm2.28,1.657h3.117V-6H23.66v-.554a2.577,2.577,0,0,1,.19-1.013,3.36,3.36,0,0,1,.477-.8A4.136,4.136,0,0,1,24.955-9q.341-.274.649-.495.323-.231.566-.441a3.228,3.228,0,0,0,.41-.418,1.588,1.588,0,0,0,.249-.42,1.25,1.25,0,0,0,.082-.454.912.912,0,0,0-.267-.713,1.185,1.185,0,0,0-.815-.241,2.738,2.738,0,0,0-1.815.754v-1.425a3.9,3.9,0,0,1,2.163-.62,3.2,3.2,0,0,1,1,.146,2.12,2.12,0,0,1,.751.418,1.782,1.782,0,0,1,.469.659,2.223,2.223,0,0,1,.161.864,2.436,2.436,0,0,1-.156.9,2.773,2.773,0,0,1-.415.718,3.767,3.767,0,0,1-.6.592q-.338.269-.7.52-.246.174-.474.346a4.5,4.5,0,0,0-.4.338,1.837,1.837,0,0,0-.277.326A.562.562,0,0,0,25.434-7.343ZM40.307-3.832H35.5V-5.774h4.808ZM53.8-12.885V0H51.033V-9.756a3.315,3.315,0,0,1-.541.382,5.58,5.58,0,0,1-.664.325A5.925,5.925,0,0,1,49.1-8.8a5.328,5.328,0,0,1-.747.145V-11a11.549,11.549,0,0,0,2.039-.809,11.6,11.6,0,0,0,1.731-1.081Zm5.451,15.75H57a12.144,12.144,0,0,0,2.689-7.69A12.6,12.6,0,0,0,57-12.6h2.268a11.731,11.731,0,0,1,2.848,7.778A11.047,11.047,0,0,1,59.253,2.865ZM76.65-12.6l-6.144,14.7H68.028l6.117-14.7ZM87.9,2.865H85.636A11.026,11.026,0,0,1,82.8-4.825,11.731,11.731,0,0,1,85.636-12.6h2.25a12.632,12.632,0,0,0-2.663,7.778A12.216,12.216,0,0,0,87.9,2.865ZM91.826-2.3h5.344V0H88.785V-.949a4.418,4.418,0,0,1,.325-1.736,5.76,5.76,0,0,1,.817-1.38A7.09,7.09,0,0,1,91-5.146q.584-.47,1.112-.848.554-.4.971-.756a5.534,5.534,0,0,0,.7-.716,2.723,2.723,0,0,0,.426-.721,2.143,2.143,0,0,0,.141-.778,1.563,1.563,0,0,0-.457-1.222,2.032,2.032,0,0,0-1.4-.413,4.694,4.694,0,0,0-3.111,1.292v-2.443A6.679,6.679,0,0,1,93.1-12.814a5.478,5.478,0,0,1,1.718.25,3.635,3.635,0,0,1,1.288.716,3.055,3.055,0,0,1,.8,1.129,3.811,3.811,0,0,1,.277,1.481,4.176,4.176,0,0,1-.268,1.547,4.753,4.753,0,0,1-.712,1.23,6.458,6.458,0,0,1-1.024,1.015q-.58.461-1.2.892-.422.3-.813.593a7.707,7.707,0,0,0-.69.58A3.149,3.149,0,0,0,92-2.821.963.963,0,0,0,91.826-2.3ZM108.272-9,105.3-4.641,108.254,0h-3.2l-1.3-2.426q-.158-.29-.378-.817h-.035a5.707,5.707,0,0,1-.36.791L101.671,0h-3.19l3.041-4.482L98.665-9h3.217l1.283,2.522a5.532,5.532,0,0,1,.36.844h.035a5.946,5.946,0,0,1,.378-.861l1.31-2.5Zm15.7,4.737h-3.384V-.879h-1.775V-4.263h-3.4V-6.047h3.4v-3.4h1.775v3.4h3.384Zm8.072,3.85V-2.83A4.878,4.878,0,0,0,135-1.907a2.659,2.659,0,0,0,1.657-.457,1.517,1.517,0,0,0,.593-1.274,1.449,1.449,0,0,0-.734-1.3A3.8,3.8,0,0,0,134.5-5.4h-1.169V-7.523h1.081q2.461,0,2.461-1.635,0-1.538-1.89-1.538a4.308,4.308,0,0,0-2.461.817v-2.268a6.8,6.8,0,0,1,3.094-.668,4.669,4.669,0,0,1,3.01.87A2.769,2.769,0,0,1,139.7-9.686a2.937,2.937,0,0,1-2.5,3.094v.044a3.405,3.405,0,0,1,2.109.971,2.738,2.738,0,0,1,.773,1.973,3.382,3.382,0,0,1-1.292,2.795A5.586,5.586,0,0,1,135.217.22,6.9,6.9,0,0,1,132.044-.413ZM143.78,2.865h-2.25a12.144,12.144,0,0,0,2.689-7.69A12.6,12.6,0,0,0,141.53-12.6H143.8a11.731,11.731,0,0,1,2.848,7.778A11.047,11.047,0,0,1,143.78,2.865Zm8.993,0h-4.14V1.1h1.854V-10.837h-1.854V-12.6h4.14Z" transform="translate(981.66 6088.455)" fill="#212429"/>
    <path id="Trazado_1039164" data-name="Trazado 1039164" d="M9.176-2.971q-.062.272-.119.659t-.105.8Q8.9-1.09,8.873-.69T8.842,0H6.029q0-.123.013-.33t.035-.426q.022-.22.044-.426t.031-.33H6.117a6.665,6.665,0,0,1-.567.7,3.671,3.671,0,0,1-.633.545,2.885,2.885,0,0,1-.734.356,2.825,2.825,0,0,1-.87.127A2.839,2.839,0,0,1,2.149-.009a2.372,2.372,0,0,1-.875-.664A2.985,2.985,0,0,1,.725-1.753,5.248,5.248,0,0,1,.536-3.226,6.584,6.584,0,0,1,.932-5.5,5.72,5.72,0,0,1,2.079-7.409,5.553,5.553,0,0,1,3.911-8.728,5.878,5.878,0,0,1,6.372-9.22q.352,0,.716.035t.593.079l.905-4.219h2.769ZM7.286-7.163a3.089,3.089,0,0,0-.444-.079,4.336,4.336,0,0,0-.47-.026,2.609,2.609,0,0,0-1.063.2,2.684,2.684,0,0,0-.8.532,3.144,3.144,0,0,0-.567.747,4.8,4.8,0,0,0-.365.844,5.075,5.075,0,0,0-.193.826,5.023,5.023,0,0,0-.057.7,2.442,2.442,0,0,0,.07.6,1.519,1.519,0,0,0,.207.479.961.961,0,0,0,.352.316,1.063,1.063,0,0,0,.505.114,1.41,1.41,0,0,0,.866-.286,2.793,2.793,0,0,0,.677-.747,5,5,0,0,0,.5-1.037,10.531,10.531,0,0,0,.334-1.156Z" transform="translate(948.723 6076.996)" fill="#212429"/>
    <path id="Trazado_1039165" data-name="Trazado 1039165" d="M9.176-2.971q-.062.272-.119.659t-.105.8Q8.9-1.09,8.873-.69T8.842,0H6.029q0-.123.013-.33t.035-.426q.022-.22.044-.426t.031-.33H6.117a6.665,6.665,0,0,1-.567.7,3.671,3.671,0,0,1-.633.545,2.885,2.885,0,0,1-.734.356,2.825,2.825,0,0,1-.87.127A2.839,2.839,0,0,1,2.149-.009a2.372,2.372,0,0,1-.875-.664A2.985,2.985,0,0,1,.725-1.753,5.248,5.248,0,0,1,.536-3.226,6.584,6.584,0,0,1,.932-5.5,5.72,5.72,0,0,1,2.079-7.409,5.553,5.553,0,0,1,3.911-8.728,5.878,5.878,0,0,1,6.372-9.22q.352,0,.716.035t.593.079l.905-4.219h2.769ZM7.286-7.163a3.089,3.089,0,0,0-.444-.079,4.336,4.336,0,0,0-.47-.026,2.609,2.609,0,0,0-1.063.2,2.684,2.684,0,0,0-.8.532,3.144,3.144,0,0,0-.567.747,4.8,4.8,0,0,0-.365.844,5.075,5.075,0,0,0-.193.826,5.023,5.023,0,0,0-.057.7,2.442,2.442,0,0,0,.07.6,1.519,1.519,0,0,0,.207.479.961.961,0,0,0,.352.316,1.063,1.063,0,0,0,.505.114,1.41,1.41,0,0,0,.866-.286,2.793,2.793,0,0,0,.677-.747,5,5,0,0,0,.5-1.037,10.531,10.531,0,0,0,.334-1.156ZM17.527-4.518l2,4.518H16.446l-.809-2.355q-.07-.2-.132-.435t-.114-.453h-.044q-.132.22-.264.448a3.233,3.233,0,0,1-.272.4L13.027,0H9.758l4.008-4.553L11.841-9h3.094l.738,2.373a3.671,3.671,0,0,1,.149.5q.062.268.088.444h.035q.105-.193.281-.453t.316-.453L18.3-9h3.155Z" transform="translate(943.723 6102.996)" fill="#212429"/>
    <path id="Trazado_1038784" data-name="Trazado 1038784" d="M2526.533,1495h36.338" transform="translate(-1589.872 4589.996)" fill="none" stroke="#212429" stroke-width="1"/>
    <path id="Trazado_1039153" data-name="Trazado 1039153" d="M-37.306-6.152h-8.561v-1.8h8.561Zm0,3.814h-8.561V-4.122h8.561Zm13.073,5.2h-4.122V-12.6h4.122v1.767H-26.07V1.1h1.837Zm7.112,0h-2.268a11.026,11.026,0,0,1-2.839-7.69A11.731,11.731,0,0,1-19.389-12.6h2.25A12.632,12.632,0,0,0-19.8-4.825,12.216,12.216,0,0,0-17.121,2.865ZM-13.2-2.3h5.344V0H-16.24V-.949a4.418,4.418,0,0,1,.325-1.736,5.76,5.76,0,0,1,.817-1.38,7.09,7.09,0,0,1,1.077-1.081q.584-.47,1.112-.848.554-.4.971-.756a5.534,5.534,0,0,0,.7-.716,2.723,2.723,0,0,0,.426-.721,2.143,2.143,0,0,0,.141-.778,1.563,1.563,0,0,0-.457-1.222,2.032,2.032,0,0,0-1.4-.413,4.694,4.694,0,0,0-3.111,1.292v-2.443a6.679,6.679,0,0,1,3.709-1.063,5.478,5.478,0,0,1,1.718.25,3.635,3.635,0,0,1,1.288.716,3.055,3.055,0,0,1,.8,1.129,3.811,3.811,0,0,1,.277,1.481A4.176,4.176,0,0,1-8.106-7.69a4.753,4.753,0,0,1-.712,1.23A6.458,6.458,0,0,1-9.842-5.445q-.58.461-1.2.892-.422.3-.813.593a7.707,7.707,0,0,0-.69.58,3.149,3.149,0,0,0-.475.558A.963.963,0,0,0-13.2-2.3ZM3.247-9,.276-4.641,3.229,0H.03l-1.3-2.426q-.158-.29-.378-.817h-.035a5.707,5.707,0,0,1-.36.791L-3.354,0h-3.19L-3.5-4.482-6.36-9h3.217L-1.86-6.478a5.532,5.532,0,0,1,.36.844h.035A5.946,5.946,0,0,1-1.086-6.5L.223-9Zm15.7,4.737H15.564V-.879H13.788V-4.263h-3.4V-6.047h3.4v-3.4h1.775v3.4h3.384Zm8.072,3.85V-2.83a4.878,4.878,0,0,0,2.953.923,2.659,2.659,0,0,0,1.657-.457,1.517,1.517,0,0,0,.593-1.274,1.449,1.449,0,0,0-.734-1.3A3.8,3.8,0,0,0,29.472-5.4H28.3V-7.523h1.081q2.461,0,2.461-1.635,0-1.538-1.89-1.538a4.308,4.308,0,0,0-2.461.817v-2.268a6.8,6.8,0,0,1,3.094-.668,4.669,4.669,0,0,1,3.01.87,2.769,2.769,0,0,1,1.077,2.259,2.937,2.937,0,0,1-2.5,3.094v.044a3.405,3.405,0,0,1,2.109.971A2.738,2.738,0,0,1,35.053-3.6,3.382,3.382,0,0,1,33.761-.809,5.586,5.586,0,0,1,30.192.22,6.9,6.9,0,0,1,27.019-.413ZM38.755,2.865H36.5a12.144,12.144,0,0,0,2.689-7.69A12.6,12.6,0,0,0,36.5-12.6h2.268A11.731,11.731,0,0,1,41.62-4.825,11.047,11.047,0,0,1,38.755,2.865Z" transform="translate(804 6140.455)" fill="#212429"/>
    <path id="Trazado_1039154" data-name="Trazado 1039154" d="M11.463,2.865H9.2a11.026,11.026,0,0,1-2.839-7.69A11.731,11.731,0,0,1,9.2-12.6h2.25A12.632,12.632,0,0,0,8.782-4.825,12.216,12.216,0,0,0,11.463,2.865ZM21.475-9,18.5-4.641,21.458,0h-3.2l-1.3-2.426q-.158-.29-.378-.817h-.035a5.707,5.707,0,0,1-.36.791L14.875,0h-3.19l3.041-4.482L11.869-9h3.217l1.283,2.522a5.532,5.532,0,0,1,.36.844h.035a5.946,5.946,0,0,1,.378-.861L18.452-9Zm2.28,1.657h3.117V-6H21.982v-.554a2.577,2.577,0,0,1,.19-1.013,3.36,3.36,0,0,1,.477-.8A4.136,4.136,0,0,1,23.276-9q.341-.274.649-.495.323-.231.566-.441a3.228,3.228,0,0,0,.41-.418,1.588,1.588,0,0,0,.249-.42,1.25,1.25,0,0,0,.082-.454.912.912,0,0,0-.267-.713,1.185,1.185,0,0,0-.815-.241,2.738,2.738,0,0,0-1.815.754v-1.425a3.9,3.9,0,0,1,2.163-.62,3.2,3.2,0,0,1,1,.146,2.12,2.12,0,0,1,.751.418,1.782,1.782,0,0,1,.469.659,2.223,2.223,0,0,1,.161.864,2.436,2.436,0,0,1-.156.9,2.773,2.773,0,0,1-.415.718,3.767,3.767,0,0,1-.6.592q-.338.269-.7.52-.246.174-.474.346a4.5,4.5,0,0,0-.4.338,1.837,1.837,0,0,0-.277.326A.562.562,0,0,0,23.756-7.343ZM38.629-3.832H33.821V-5.774h4.808Zm13.495-9.053V0H49.355V-9.756a3.315,3.315,0,0,1-.541.382,5.58,5.58,0,0,1-.664.325,5.925,5.925,0,0,1-.729.246,5.328,5.328,0,0,1-.747.145V-11a11.549,11.549,0,0,0,2.039-.809,11.6,11.6,0,0,0,1.731-1.081Zm5.451,15.75h-2.25a12.144,12.144,0,0,0,2.689-7.69A12.6,12.6,0,0,0,55.324-12.6h2.268A11.731,11.731,0,0,1,60.44-4.825,11.047,11.047,0,0,1,57.574,2.865Zm15.27-6.7H68.037V-5.774h4.808Zm12.677,6.7H83.254a11.026,11.026,0,0,1-2.839-7.69A11.731,11.731,0,0,1,83.254-12.6H85.5a12.632,12.632,0,0,0-2.663,7.778A12.216,12.216,0,0,0,85.522,2.865ZM95.535-9,92.564-4.641,95.517,0h-3.2l-1.3-2.426q-.158-.29-.378-.817H90.6a5.707,5.707,0,0,1-.36.791L88.934,0h-3.19l3.041-4.482L85.928-9h3.217l1.283,2.522a5.532,5.532,0,0,1,.36.844h.035A5.946,5.946,0,0,1,91.2-6.5L92.511-9Zm2.28,1.657h3.117V-6H96.041v-.554a2.577,2.577,0,0,1,.19-1.013,3.36,3.36,0,0,1,.477-.8A4.136,4.136,0,0,1,97.335-9q.341-.274.649-.495.323-.231.566-.441a3.228,3.228,0,0,0,.41-.418,1.588,1.588,0,0,0,.249-.42,1.25,1.25,0,0,0,.082-.454.912.912,0,0,0-.267-.713,1.185,1.185,0,0,0-.815-.241,2.738,2.738,0,0,0-1.815.754v-1.425a3.9,3.9,0,0,1,2.163-.62,3.2,3.2,0,0,1,1,.146,2.12,2.12,0,0,1,.751.418,1.782,1.782,0,0,1,.469.659,2.223,2.223,0,0,1,.161.864,2.436,2.436,0,0,1-.156.9,2.772,2.772,0,0,1-.415.718,3.767,3.767,0,0,1-.6.592q-.338.269-.7.52-.246.174-.474.346a4.5,4.5,0,0,0-.4.338,1.837,1.837,0,0,0-.277.326A.562.562,0,0,0,97.815-7.343Zm14.873,3.511H107.88V-5.774h4.808Zm13.495-9.053V0h-2.769V-9.756a3.315,3.315,0,0,1-.541.382,5.58,5.58,0,0,1-.664.325,5.925,5.925,0,0,1-.729.246,5.328,5.328,0,0,1-.747.145V-11a11.549,11.549,0,0,0,2.039-.809,11.6,11.6,0,0,0,1.731-1.081Zm5.451,15.75h-2.25a12.144,12.144,0,0,0,2.689-7.69,12.6,12.6,0,0,0-2.689-7.778h2.268A11.731,11.731,0,0,1,134.5-4.825,11.047,11.047,0,0,1,131.634,2.865Z" transform="translate(897.999 6140.455)" fill="#212429"/>
    <path id="Trazado_1039155" data-name="Trazado 1039155" d="M6.5,2.865H4.228a11.026,11.026,0,0,1-2.839-7.69A11.731,11.731,0,0,1,4.228-12.6h2.25A12.632,12.632,0,0,0,3.814-4.825,12.216,12.216,0,0,0,6.5,2.865ZM10.417-2.3h5.344V0H7.376V-.949A4.418,4.418,0,0,1,7.7-2.685a5.76,5.76,0,0,1,.817-1.38A7.09,7.09,0,0,1,9.6-5.146q.584-.47,1.112-.848.554-.4.971-.756a5.534,5.534,0,0,0,.7-.716,2.723,2.723,0,0,0,.426-.721,2.143,2.143,0,0,0,.141-.778,1.563,1.563,0,0,0-.457-1.222,2.032,2.032,0,0,0-1.4-.413A4.694,4.694,0,0,0,7.982-9.308v-2.443a6.679,6.679,0,0,1,3.709-1.063,5.478,5.478,0,0,1,1.718.25,3.635,3.635,0,0,1,1.288.716,3.055,3.055,0,0,1,.8,1.129,3.811,3.811,0,0,1,.277,1.481A4.176,4.176,0,0,1,15.51-7.69,4.753,4.753,0,0,1,14.8-6.46a6.458,6.458,0,0,1-1.024,1.015q-.58.461-1.2.892-.422.3-.813.593a7.707,7.707,0,0,0-.69.58,3.149,3.149,0,0,0-.475.558A.963.963,0,0,0,10.417-2.3ZM26.863-9,23.892-4.641,26.845,0h-3.2l-1.3-2.426q-.158-.29-.378-.817h-.035a5.707,5.707,0,0,1-.36.791L20.262,0h-3.19l3.041-4.482L17.257-9h3.217l1.283,2.522a5.532,5.532,0,0,1,.36.844h.035A5.946,5.946,0,0,1,22.53-6.5L23.84-9Zm15.7,4.737H39.18V-.879H37.4V-4.263H34V-6.047h3.4v-3.4H39.18v3.4h3.384Zm8.072,3.85V-2.83a4.878,4.878,0,0,0,2.953.923,2.659,2.659,0,0,0,1.657-.457,1.517,1.517,0,0,0,.593-1.274,1.449,1.449,0,0,0-.734-1.3A3.8,3.8,0,0,0,53.088-5.4H51.919V-7.523H53q2.461,0,2.461-1.635,0-1.538-1.89-1.538a4.308,4.308,0,0,0-2.461.817v-2.268a6.8,6.8,0,0,1,3.094-.668,4.669,4.669,0,0,1,3.01.87,2.769,2.769,0,0,1,1.077,2.259,2.937,2.937,0,0,1-2.5,3.094v.044a3.405,3.405,0,0,1,2.109.971A2.738,2.738,0,0,1,58.669-3.6,3.382,3.382,0,0,1,57.377-.809,5.586,5.586,0,0,1,53.809.22,6.9,6.9,0,0,1,50.636-.413ZM62.371,2.865h-2.25a12.144,12.144,0,0,0,2.689-7.69A12.6,12.6,0,0,0,60.121-12.6h2.268a11.731,11.731,0,0,1,2.848,7.778A11.047,11.047,0,0,1,62.371,2.865Zm8.993,0h-4.14V1.1h1.854V-10.837H67.224V-12.6h4.14ZM86.414-12.6l-6.144,14.7H77.792L83.91-12.6ZM97.2,2.865H93.08V-12.6H97.2v1.767H95.365V1.1H97.2Zm7.112,0h-2.268a11.026,11.026,0,0,1-2.839-7.69,11.731,11.731,0,0,1,2.839-7.778h2.25a12.632,12.632,0,0,0-2.663,7.778A12.216,12.216,0,0,0,104.314,2.865ZM108.236-2.3h5.344V0H105.2V-.949a4.418,4.418,0,0,1,.325-1.736,5.76,5.76,0,0,1,.817-1.38,7.09,7.09,0,0,1,1.077-1.081q.584-.47,1.112-.848.554-.4.971-.756a5.534,5.534,0,0,0,.7-.716,2.723,2.723,0,0,0,.426-.721,2.143,2.143,0,0,0,.141-.778,1.563,1.563,0,0,0-.457-1.222,2.032,2.032,0,0,0-1.4-.413A4.694,4.694,0,0,0,105.8-9.308v-2.443a6.679,6.679,0,0,1,3.709-1.063,5.478,5.478,0,0,1,1.718.25,3.635,3.635,0,0,1,1.288.716,3.055,3.055,0,0,1,.8,1.129,3.811,3.811,0,0,1,.277,1.481,4.176,4.176,0,0,1-.268,1.547,4.753,4.753,0,0,1-.712,1.23,6.458,6.458,0,0,1-1.024,1.015q-.58.461-1.2.892-.422.3-.813.593a7.707,7.707,0,0,0-.69.58,3.149,3.149,0,0,0-.475.558A.963.963,0,0,0,108.236-2.3ZM124.682-9l-2.971,4.359L124.665,0h-3.2l-1.3-2.426q-.158-.29-.378-.817h-.035a5.707,5.707,0,0,1-.36.791L118.082,0h-3.19l3.041-4.482L115.076-9h3.217l1.283,2.522a5.532,5.532,0,0,1,.36.844h.035a5.946,5.946,0,0,1,.378-.861l1.31-2.5Zm15.7,4.737H137V-.879h-1.775V-4.263h-3.4V-6.047h3.4v-3.4H137v3.4h3.384Zm8.072,3.85V-2.83a4.878,4.878,0,0,0,2.953.923,2.659,2.659,0,0,0,1.657-.457,1.517,1.517,0,0,0,.593-1.274,1.449,1.449,0,0,0-.734-1.3,3.8,3.8,0,0,0-2.017-.457h-1.169V-7.523h1.081q2.461,0,2.461-1.635,0-1.538-1.89-1.538a4.308,4.308,0,0,0-2.461.817v-2.268a6.8,6.8,0,0,1,3.094-.668,4.669,4.669,0,0,1,3.01.87,2.769,2.769,0,0,1,1.077,2.259,2.937,2.937,0,0,1-2.5,3.094v.044a3.405,3.405,0,0,1,2.109.971,2.738,2.738,0,0,1,.773,1.973A3.382,3.382,0,0,1,155.2-.809,5.586,5.586,0,0,1,151.628.22,6.9,6.9,0,0,1,148.455-.413ZM160.19,2.865h-2.25a12.144,12.144,0,0,0,2.689-7.69A12.6,12.6,0,0,0,157.94-12.6h2.268a11.731,11.731,0,0,1,2.848,7.778A11.047,11.047,0,0,1,160.19,2.865Zm6.437-10.208h3.117V-6h-4.891v-.554a2.577,2.577,0,0,1,.19-1.013,3.36,3.36,0,0,1,.477-.8A4.136,4.136,0,0,1,166.148-9q.341-.274.649-.495.323-.231.566-.441a3.228,3.228,0,0,0,.41-.418,1.588,1.588,0,0,0,.249-.42,1.25,1.25,0,0,0,.082-.454.912.912,0,0,0-.267-.713,1.185,1.185,0,0,0-.815-.241,2.738,2.738,0,0,0-1.815.754v-1.425a3.9,3.9,0,0,1,2.163-.62,3.2,3.2,0,0,1,1,.146,2.12,2.12,0,0,1,.751.418,1.782,1.782,0,0,1,.469.659,2.223,2.223,0,0,1,.161.864,2.436,2.436,0,0,1-.156.9,2.773,2.773,0,0,1-.415.718,3.767,3.767,0,0,1-.6.592q-.338.269-.7.52-.246.174-.474.346a4.5,4.5,0,0,0-.4.338,1.837,1.837,0,0,0-.277.326A.562.562,0,0,0,166.628-7.343Zm8.6,10.208h-4.14V1.1h1.854V-10.837h-1.854V-12.6h4.14Z" transform="translate(1078.337 6140.455)" fill="#212429"/>
    <path id="Trazado_1039156" data-name="Trazado 1039156" d="M9.176-2.971q-.062.272-.119.659t-.105.8Q8.9-1.09,8.873-.69T8.842,0H6.029q0-.123.013-.33t.035-.426q.022-.22.044-.426t.031-.33H6.117a6.665,6.665,0,0,1-.567.7,3.671,3.671,0,0,1-.633.545,2.885,2.885,0,0,1-.734.356,2.825,2.825,0,0,1-.87.127A2.839,2.839,0,0,1,2.149-.009a2.372,2.372,0,0,1-.875-.664A2.985,2.985,0,0,1,.725-1.753,5.248,5.248,0,0,1,.536-3.226,6.584,6.584,0,0,1,.932-5.5,5.72,5.72,0,0,1,2.079-7.409,5.553,5.553,0,0,1,3.911-8.728,5.878,5.878,0,0,1,6.372-9.22q.352,0,.716.035t.593.079l.905-4.219h2.769ZM7.286-7.163a3.089,3.089,0,0,0-.444-.079,4.336,4.336,0,0,0-.47-.026,2.609,2.609,0,0,0-1.063.2,2.684,2.684,0,0,0-.8.532,3.144,3.144,0,0,0-.567.747,4.8,4.8,0,0,0-.365.844,5.075,5.075,0,0,0-.193.826,5.023,5.023,0,0,0-.057.7,2.442,2.442,0,0,0,.07.6,1.519,1.519,0,0,0,.207.479.961.961,0,0,0,.352.316,1.063,1.063,0,0,0,.505.114,1.41,1.41,0,0,0,.866-.286,2.793,2.793,0,0,0,.677-.747,5,5,0,0,0,.5-1.037,10.531,10.531,0,0,0,.334-1.156Z" transform="translate(865.062 6128.996)" fill="#212429"/>
    <path id="Trazado_1039157" data-name="Trazado 1039157" d="M9.176-2.971q-.062.272-.119.659t-.105.8Q8.9-1.09,8.873-.69T8.842,0H6.029q0-.123.013-.33t.035-.426q.022-.22.044-.426t.031-.33H6.117a6.665,6.665,0,0,1-.567.7,3.671,3.671,0,0,1-.633.545,2.885,2.885,0,0,1-.734.356,2.825,2.825,0,0,1-.87.127A2.839,2.839,0,0,1,2.149-.009a2.372,2.372,0,0,1-.875-.664A2.985,2.985,0,0,1,.725-1.753,5.248,5.248,0,0,1,.536-3.226,6.584,6.584,0,0,1,.932-5.5,5.72,5.72,0,0,1,2.079-7.409,5.553,5.553,0,0,1,3.911-8.728,5.878,5.878,0,0,1,6.372-9.22q.352,0,.716.035t.593.079l.905-4.219h2.769ZM7.286-7.163a3.089,3.089,0,0,0-.444-.079,4.336,4.336,0,0,0-.47-.026,2.609,2.609,0,0,0-1.063.2,2.684,2.684,0,0,0-.8.532,3.144,3.144,0,0,0-.567.747,4.8,4.8,0,0,0-.365.844,5.075,5.075,0,0,0-.193.826,5.023,5.023,0,0,0-.057.7,2.442,2.442,0,0,0,.07.6,1.519,1.519,0,0,0,.207.479.961.961,0,0,0,.352.316,1.063,1.063,0,0,0,.505.114,1.41,1.41,0,0,0,.866-.286,2.793,2.793,0,0,0,.677-.747,5,5,0,0,0,.5-1.037,10.531,10.531,0,0,0,.334-1.156ZM17.527-4.518l2,4.518H16.446l-.809-2.355q-.07-.2-.132-.435t-.114-.453h-.044q-.132.22-.264.448a3.233,3.233,0,0,1-.272.4L13.027,0H9.758l4.008-4.553L11.841-9h3.094l.738,2.373a3.671,3.671,0,0,1,.149.5q.062.268.088.444h.035q.105-.193.281-.453t.316-.453L18.3-9h3.155Z" transform="translate(860.062 6154.996)" fill="#212429"/>
    <path id="Trazado_1038784-2" data-name="Trazado 1038784" d="M2526.533,1495h36.338" transform="translate(-1673.533 4641.996)" fill="none" stroke="#212429" stroke-width="1"/>
    <path id="Trazado_1039158" data-name="Trazado 1039158" d="M9.176-2.971q-.062.272-.119.659t-.105.8Q8.9-1.09,8.873-.69T8.842,0H6.029q0-.123.013-.33t.035-.426q.022-.22.044-.426t.031-.33H6.117a6.665,6.665,0,0,1-.567.7,3.671,3.671,0,0,1-.633.545,2.885,2.885,0,0,1-.734.356,2.825,2.825,0,0,1-.87.127A2.839,2.839,0,0,1,2.149-.009a2.372,2.372,0,0,1-.875-.664A2.985,2.985,0,0,1,.725-1.753,5.248,5.248,0,0,1,.536-3.226,6.584,6.584,0,0,1,.932-5.5,5.72,5.72,0,0,1,2.079-7.409,5.553,5.553,0,0,1,3.911-8.728,5.878,5.878,0,0,1,6.372-9.22q.352,0,.716.035t.593.079l.905-4.219h2.769ZM7.286-7.163a3.089,3.089,0,0,0-.444-.079,4.336,4.336,0,0,0-.47-.026,2.609,2.609,0,0,0-1.063.2,2.684,2.684,0,0,0-.8.532,3.144,3.144,0,0,0-.567.747,4.8,4.8,0,0,0-.365.844,5.075,5.075,0,0,0-.193.826,5.023,5.023,0,0,0-.057.7,2.442,2.442,0,0,0,.07.6,1.519,1.519,0,0,0,.207.479.961.961,0,0,0,.352.316,1.063,1.063,0,0,0,.505.114,1.41,1.41,0,0,0,.866-.286,2.793,2.793,0,0,0,.677-.747,5,5,0,0,0,.5-1.037,10.531,10.531,0,0,0,.334-1.156Z" transform="translate(1051.061 6128.996)" fill="#212429"/>
    <path id="Trazado_1039159" data-name="Trazado 1039159" d="M9.176-2.971q-.062.272-.119.659t-.105.8Q8.9-1.09,8.873-.69T8.842,0H6.029q0-.123.013-.33t.035-.426q.022-.22.044-.426t.031-.33H6.117a6.665,6.665,0,0,1-.567.7,3.671,3.671,0,0,1-.633.545,2.885,2.885,0,0,1-.734.356,2.825,2.825,0,0,1-.87.127A2.839,2.839,0,0,1,2.149-.009a2.372,2.372,0,0,1-.875-.664A2.985,2.985,0,0,1,.725-1.753,5.248,5.248,0,0,1,.536-3.226,6.584,6.584,0,0,1,.932-5.5,5.72,5.72,0,0,1,2.079-7.409,5.553,5.553,0,0,1,3.911-8.728,5.878,5.878,0,0,1,6.372-9.22q.352,0,.716.035t.593.079l.905-4.219h2.769ZM7.286-7.163a3.089,3.089,0,0,0-.444-.079,4.336,4.336,0,0,0-.47-.026,2.609,2.609,0,0,0-1.063.2,2.684,2.684,0,0,0-.8.532,3.144,3.144,0,0,0-.567.747,4.8,4.8,0,0,0-.365.844,5.075,5.075,0,0,0-.193.826,5.023,5.023,0,0,0-.057.7,2.442,2.442,0,0,0,.07.6,1.519,1.519,0,0,0,.207.479.961.961,0,0,0,.352.316,1.063,1.063,0,0,0,.505.114,1.41,1.41,0,0,0,.866-.286,2.793,2.793,0,0,0,.677-.747,5,5,0,0,0,.5-1.037,10.531,10.531,0,0,0,.334-1.156ZM17.527-4.518l2,4.518H16.446l-.809-2.355q-.07-.2-.132-.435t-.114-.453h-.044q-.132.22-.264.448a3.233,3.233,0,0,1-.272.4L13.027,0H9.758l4.008-4.553L11.841-9h3.094l.738,2.373a3.671,3.671,0,0,1,.149.5q.062.268.088.444h.035q.105-.193.281-.453t.316-.453L18.3-9h3.155Z" transform="translate(1046.061 6154.996)" fill="#212429"/>
    <path id="Trazado_1038784-3" data-name="Trazado 1038784" d="M2526.533,1495h36.338" transform="translate(-1487.534 4641.996)" fill="none" stroke="#212429" stroke-width="1"/>
    <path id="Trazado_1039160" data-name="Trazado 1039160" d="M10.652-6.152H2.092v-1.8h8.561Zm0,3.814H2.092V-4.122h8.561Zm13.073,5.2H19.6V-12.6h4.122v1.767H21.888V1.1h1.837Zm7.112,0H28.57a11.026,11.026,0,0,1-2.839-7.69A11.731,11.731,0,0,1,28.57-12.6h2.25a12.632,12.632,0,0,0-2.663,7.778A12.216,12.216,0,0,0,30.837,2.865ZM34.759-2.3H40.1V0H31.718V-.949a4.418,4.418,0,0,1,.325-1.736,5.76,5.76,0,0,1,.817-1.38,7.09,7.09,0,0,1,1.077-1.081q.584-.47,1.112-.848.554-.4.971-.756a5.535,5.535,0,0,0,.7-.716,2.723,2.723,0,0,0,.426-.721,2.144,2.144,0,0,0,.141-.778,1.563,1.563,0,0,0-.457-1.222,2.032,2.032,0,0,0-1.4-.413,4.694,4.694,0,0,0-3.111,1.292v-2.443a6.679,6.679,0,0,1,3.709-1.063,5.478,5.478,0,0,1,1.718.25,3.635,3.635,0,0,1,1.288.716,3.055,3.055,0,0,1,.8,1.129,3.811,3.811,0,0,1,.277,1.481,4.176,4.176,0,0,1-.268,1.547,4.753,4.753,0,0,1-.712,1.23,6.458,6.458,0,0,1-1.024,1.015q-.58.461-1.2.892-.422.3-.813.593a7.707,7.707,0,0,0-.69.58,3.149,3.149,0,0,0-.475.558A.963.963,0,0,0,34.759-2.3ZM51.205-9,48.235-4.641,51.188,0h-3.2l-1.3-2.426q-.158-.29-.378-.817h-.035a5.707,5.707,0,0,1-.36.791L44.6,0h-3.19l3.041-4.482L41.6-9h3.217L46.1-6.478a5.532,5.532,0,0,1,.36.844h.035a5.946,5.946,0,0,1,.378-.861L48.182-9Zm15.7,4.737H63.522V-.879H61.747V-4.263h-3.4V-6.047h3.4v-3.4h1.775v3.4h3.384Zm8.072,3.85V-2.83a4.878,4.878,0,0,0,2.953.923,2.659,2.659,0,0,0,1.657-.457,1.517,1.517,0,0,0,.593-1.274,1.449,1.449,0,0,0-.734-1.3A3.8,3.8,0,0,0,77.43-5.4H76.261V-7.523h1.081q2.461,0,2.461-1.635,0-1.538-1.89-1.538a4.308,4.308,0,0,0-2.461.817v-2.268a6.8,6.8,0,0,1,3.094-.668,4.669,4.669,0,0,1,3.01.87,2.769,2.769,0,0,1,1.077,2.259,2.937,2.937,0,0,1-2.5,3.094v.044a3.405,3.405,0,0,1,2.109.971A2.738,2.738,0,0,1,83.011-3.6,3.382,3.382,0,0,1,81.719-.809,5.586,5.586,0,0,1,78.151.22,6.9,6.9,0,0,1,74.978-.413ZM86.713,2.865h-2.25a12.144,12.144,0,0,0,2.689-7.69A12.6,12.6,0,0,0,84.463-12.6h2.268a11.731,11.731,0,0,1,2.848,7.778A11.047,11.047,0,0,1,86.713,2.865Zm10.733,0H95.179a11.026,11.026,0,0,1-2.839-7.69A11.731,11.731,0,0,1,95.179-12.6h2.25a12.632,12.632,0,0,0-2.663,7.778A12.216,12.216,0,0,0,97.447,2.865ZM101.368-2.3h5.344V0H98.327V-.949a4.418,4.418,0,0,1,.325-1.736,5.76,5.76,0,0,1,.817-1.38,7.09,7.09,0,0,1,1.077-1.081q.584-.47,1.112-.848.554-.4.971-.756a5.534,5.534,0,0,0,.7-.716,2.723,2.723,0,0,0,.426-.721,2.143,2.143,0,0,0,.141-.778,1.563,1.563,0,0,0-.457-1.222,2.032,2.032,0,0,0-1.4-.413,4.694,4.694,0,0,0-3.111,1.292v-2.443a6.679,6.679,0,0,1,3.709-1.063,5.478,5.478,0,0,1,1.718.25,3.635,3.635,0,0,1,1.288.716,3.055,3.055,0,0,1,.8,1.129,3.811,3.811,0,0,1,.277,1.481,4.176,4.176,0,0,1-.268,1.547,4.753,4.753,0,0,1-.712,1.23,6.458,6.458,0,0,1-1.024,1.015q-.58.461-1.2.892-.422.3-.813.593a7.707,7.707,0,0,0-.69.58,3.149,3.149,0,0,0-.475.558A.963.963,0,0,0,101.368-2.3ZM117.814-9l-2.971,4.359L117.8,0h-3.2l-1.3-2.426q-.158-.29-.378-.817h-.035a5.707,5.707,0,0,1-.36.791L111.214,0h-3.19l3.041-4.482L108.208-9h3.217l1.283,2.522a5.532,5.532,0,0,1,.36.844h.035a5.946,5.946,0,0,1,.378-.861l1.31-2.5ZM120.3,2.865h-2.25a12.144,12.144,0,0,0,2.689-7.69,12.6,12.6,0,0,0-2.689-7.778h2.268a11.731,11.731,0,0,1,2.848,7.778A11.047,11.047,0,0,1,120.3,2.865Zm15.27-6.7h-4.808V-5.774h4.808Zm12.677,6.7h-2.268a11.026,11.026,0,0,1-2.839-7.69,11.731,11.731,0,0,1,2.839-7.778h2.25a12.632,12.632,0,0,0-2.663,7.778A12.216,12.216,0,0,0,148.251,2.865ZM158.264-9l-2.971,4.359L158.246,0h-3.2l-1.3-2.426q-.158-.29-.378-.817h-.035a5.707,5.707,0,0,1-.36.791L151.663,0h-3.19l3.041-4.482L148.657-9h3.217l1.283,2.522a5.532,5.532,0,0,1,.36.844h.035a5.946,5.946,0,0,1,.378-.861L155.24-9Zm2.28,1.657h3.117V-6H158.77v-.554a2.577,2.577,0,0,1,.19-1.013,3.36,3.36,0,0,1,.477-.8A4.136,4.136,0,0,1,160.065-9q.341-.274.649-.495.323-.231.566-.441a3.228,3.228,0,0,0,.41-.418,1.588,1.588,0,0,0,.249-.42,1.25,1.25,0,0,0,.082-.454.912.912,0,0,0-.267-.713,1.185,1.185,0,0,0-.815-.241,2.738,2.738,0,0,0-1.815.754v-1.425a3.9,3.9,0,0,1,2.163-.62,3.2,3.2,0,0,1,1,.146,2.12,2.12,0,0,1,.751.418,1.782,1.782,0,0,1,.469.659,2.223,2.223,0,0,1,.161.864,2.436,2.436,0,0,1-.156.9,2.773,2.773,0,0,1-.415.718,3.767,3.767,0,0,1-.6.592q-.338.269-.7.52-.246.174-.474.346a4.5,4.5,0,0,0-.4.338,1.837,1.837,0,0,0-.277.326A.562.562,0,0,0,160.544-7.343Zm14.873,3.511h-4.808V-5.774h4.808Zm13.495-9.053V0h-2.769V-9.756a3.315,3.315,0,0,1-.541.382,5.58,5.58,0,0,1-.664.325,5.925,5.925,0,0,1-.729.246,5.328,5.328,0,0,1-.747.145V-11A11.549,11.549,0,0,0,185.5-11.8a11.6,11.6,0,0,0,1.731-1.081Zm5.451,15.75h-2.25a12.144,12.144,0,0,0,2.689-7.69,12.6,12.6,0,0,0-2.689-7.778h2.268a11.731,11.731,0,0,1,2.848,7.778A11.047,11.047,0,0,1,194.363,2.865Zm10.733,0h-2.268a11.026,11.026,0,0,1-2.839-7.69,11.731,11.731,0,0,1,2.839-7.778h2.25a12.632,12.632,0,0,0-2.663,7.778A12.216,12.216,0,0,0,205.1,2.865ZM209.018-2.3h5.344V0h-8.385V-.949a4.418,4.418,0,0,1,.325-1.736,5.76,5.76,0,0,1,.817-1.38A7.09,7.09,0,0,1,208.2-5.146q.584-.47,1.112-.848.554-.4.971-.756a5.534,5.534,0,0,0,.7-.716,2.723,2.723,0,0,0,.426-.721,2.143,2.143,0,0,0,.141-.778,1.563,1.563,0,0,0-.457-1.222,2.032,2.032,0,0,0-1.4-.413,4.694,4.694,0,0,0-3.111,1.292v-2.443a6.679,6.679,0,0,1,3.709-1.063,5.478,5.478,0,0,1,1.718.25,3.635,3.635,0,0,1,1.288.716,3.055,3.055,0,0,1,.8,1.129,3.811,3.811,0,0,1,.277,1.481,4.176,4.176,0,0,1-.268,1.547,4.753,4.753,0,0,1-.712,1.23,6.458,6.458,0,0,1-1.024,1.015q-.58.461-1.2.892-.422.3-.813.593a7.707,7.707,0,0,0-.69.58,3.149,3.149,0,0,0-.475.558A.963.963,0,0,0,209.018-2.3Zm8.993,5.168h-2.25a12.144,12.144,0,0,0,2.689-7.69,12.6,12.6,0,0,0-2.689-7.778h2.268a11.731,11.731,0,0,1,2.848,7.778A11.047,11.047,0,0,1,218.011,2.865Zm8.993,0h-4.14V1.1h1.854V-10.837h-1.854V-12.6H227ZM242.054-12.6l-6.144,14.7h-2.479l6.117-14.7ZM252.842,2.865H248.72V-12.6h4.122v1.767h-1.837V1.1h1.837Zm7.112,0h-2.268a11.026,11.026,0,0,1-2.839-7.69,11.731,11.731,0,0,1,2.839-7.778h2.25a12.632,12.632,0,0,0-2.663,7.778A12.216,12.216,0,0,0,259.954,2.865ZM263.876-2.3h5.344V0h-8.385V-.949a4.418,4.418,0,0,1,.325-1.736,5.76,5.76,0,0,1,.817-1.38,7.09,7.09,0,0,1,1.077-1.081q.584-.47,1.112-.848.554-.4.971-.756a5.534,5.534,0,0,0,.7-.716,2.723,2.723,0,0,0,.426-.721,2.143,2.143,0,0,0,.141-.778,1.563,1.563,0,0,0-.457-1.222,2.032,2.032,0,0,0-1.4-.413,4.694,4.694,0,0,0-3.111,1.292v-2.443a6.679,6.679,0,0,1,3.709-1.063,5.478,5.478,0,0,1,1.718.25,3.635,3.635,0,0,1,1.288.716,3.055,3.055,0,0,1,.8,1.129,3.811,3.811,0,0,1,.277,1.481,4.176,4.176,0,0,1-.268,1.547,4.753,4.753,0,0,1-.712,1.23,6.458,6.458,0,0,1-1.024,1.015q-.58.461-1.2.892-.422.3-.813.593a7.707,7.707,0,0,0-.69.58,3.149,3.149,0,0,0-.475.558A.963.963,0,0,0,263.876-2.3ZM280.322-9l-2.971,4.359L280.3,0h-3.2l-1.3-2.426q-.158-.29-.378-.817h-.035a5.707,5.707,0,0,1-.36.791L273.721,0h-3.19l3.041-4.482L270.716-9h3.217l1.283,2.522a5.532,5.532,0,0,1,.36.844h.035a5.946,5.946,0,0,1,.378-.861L277.3-9Zm15.7,4.737h-3.384V-.879h-1.775V-4.263h-3.4V-6.047h3.4v-3.4h1.775v3.4h3.384Zm8.072,3.85V-2.83a4.878,4.878,0,0,0,2.953.923,2.659,2.659,0,0,0,1.657-.457,1.517,1.517,0,0,0,.593-1.274,1.449,1.449,0,0,0-.734-1.3,3.8,3.8,0,0,0-2.017-.457h-1.169V-7.523h1.081q2.461,0,2.461-1.635,0-1.538-1.89-1.538a4.308,4.308,0,0,0-2.461.817v-2.268a6.8,6.8,0,0,1,3.094-.668,4.669,4.669,0,0,1,3.01.87,2.769,2.769,0,0,1,1.077,2.259,2.937,2.937,0,0,1-2.5,3.094v.044a3.405,3.405,0,0,1,2.109.971,2.738,2.738,0,0,1,.773,1.973,3.382,3.382,0,0,1-1.292,2.795A5.586,5.586,0,0,1,307.268.22,6.9,6.9,0,0,1,304.095-.413ZM315.83,2.865h-2.25a12.144,12.144,0,0,0,2.689-7.69A12.6,12.6,0,0,0,313.58-12.6h2.268A11.731,11.731,0,0,1,318.7-4.825,11.047,11.047,0,0,1,315.83,2.865Zm6.437-10.208h3.117V-6h-4.891v-.554a2.577,2.577,0,0,1,.19-1.013,3.359,3.359,0,0,1,.477-.8A4.134,4.134,0,0,1,321.788-9q.341-.274.649-.495.323-.231.566-.441a3.23,3.23,0,0,0,.41-.418,1.589,1.589,0,0,0,.249-.42,1.25,1.25,0,0,0,.082-.454.912.912,0,0,0-.267-.713,1.185,1.185,0,0,0-.815-.241,2.738,2.738,0,0,0-1.815.754v-1.425a3.9,3.9,0,0,1,2.163-.62,3.2,3.2,0,0,1,1,.146,2.12,2.12,0,0,1,.751.418,1.782,1.782,0,0,1,.469.659,2.223,2.223,0,0,1,.161.864,2.436,2.436,0,0,1-.156.9,2.772,2.772,0,0,1-.415.718,3.765,3.765,0,0,1-.6.592q-.338.269-.7.52-.246.174-.474.346a4.5,4.5,0,0,0-.4.338,1.835,1.835,0,0,0-.277.326A.562.562,0,0,0,322.267-7.343Zm8.6,10.208h-4.14V1.1h1.854V-10.837h-1.854V-12.6h4.14Z" transform="translate(841 6175.996)" fill="#212429"/>
    <path id="Trazado_1039152" data-name="Trazado 1039152" d="M10.652-6.152H2.092v-1.8h8.561Zm0,3.814H2.092V-4.122h8.561Zm13.073,5.2H19.6V-12.6h4.122v1.767H21.888V1.1h1.837ZM32.71-12.6v7.945h1.512v2.074H32.71V0H30.178V-2.584H24.685V-4.755q.729-.817,1.512-1.789t1.512-2q.729-1.028,1.358-2.07A20.749,20.749,0,0,0,30.134-12.6ZM27.172-4.658h3.006v-4.4q-.308.571-.668,1.156t-.756,1.151q-.4.567-.8,1.1T27.172-4.658ZM44.559-9,41.588-4.641,44.541,0h-3.2l-1.3-2.426q-.158-.29-.378-.817h-.035a5.707,5.707,0,0,1-.36.791L37.958,0h-3.19l3.041-4.482L34.953-9h3.217l1.283,2.522a5.532,5.532,0,0,1,.36.844h.035a5.946,5.946,0,0,1,.378-.861L41.536-9Zm2.28,1.657h3.117V-6H45.065v-.554a2.577,2.577,0,0,1,.19-1.013,3.36,3.36,0,0,1,.477-.8A4.136,4.136,0,0,1,46.36-9q.341-.274.649-.495.323-.231.566-.441a3.228,3.228,0,0,0,.41-.418,1.588,1.588,0,0,0,.249-.42,1.25,1.25,0,0,0,.082-.454.912.912,0,0,0-.267-.713,1.185,1.185,0,0,0-.815-.241,2.738,2.738,0,0,0-1.815.754v-1.425a3.9,3.9,0,0,1,2.163-.62,3.2,3.2,0,0,1,1,.146,2.12,2.12,0,0,1,.751.418,1.782,1.782,0,0,1,.469.659,2.223,2.223,0,0,1,.161.864,2.436,2.436,0,0,1-.156.9,2.773,2.773,0,0,1-.415.718,3.767,3.767,0,0,1-.6.592q-.338.269-.7.52-.246.174-.474.346a4.5,4.5,0,0,0-.4.338,1.837,1.837,0,0,0-.277.326A.562.562,0,0,0,46.839-7.343ZM66.3-4.263H62.916V-.879H61.141V-4.263h-3.4V-6.047h3.4v-3.4h1.775v3.4H66.3Zm16.8.07a4.62,4.62,0,0,1-.325,1.74,4.248,4.248,0,0,1-.905,1.4,4.189,4.189,0,0,1-1.38.932A4.443,4.443,0,0,1,78.74.22a4.412,4.412,0,0,1-1.9-.4,3.841,3.841,0,0,1-1.419-1.147,5.363,5.363,0,0,1-.888-1.841,9.1,9.1,0,0,1-.308-2.47,10.168,10.168,0,0,1,.4-2.949,6.77,6.77,0,0,1,1.143-2.263,5.132,5.132,0,0,1,1.8-1.455,5.345,5.345,0,0,1,2.373-.514,5.986,5.986,0,0,1,2.268.343v2.32a4.158,4.158,0,0,0-2.092-.545,2.923,2.923,0,0,0-1.274.272,2.817,2.817,0,0,0-.98.773,3.74,3.74,0,0,0-.642,1.208,5.378,5.378,0,0,0-.25,1.578h.053A3.057,3.057,0,0,1,79.663-8.1a3.447,3.447,0,0,1,1.415.281,3.07,3.07,0,0,1,1.081.8,3.649,3.649,0,0,1,.694,1.235A4.927,4.927,0,0,1,83.1-4.192Zm-2.716.176q0-2.03-1.661-2.03a1.63,1.63,0,0,0-.686.141,1.525,1.525,0,0,0-.527.4,1.8,1.8,0,0,0-.338.6,2.366,2.366,0,0,0-.119.769,2.974,2.974,0,0,0,.123.87,2.311,2.311,0,0,0,.347.708,1.719,1.719,0,0,0,.532.479,1.357,1.357,0,0,0,.686.176,1.484,1.484,0,0,0,.681-.154,1.525,1.525,0,0,0,.519-.431,1.979,1.979,0,0,0,.33-.668A3.047,3.047,0,0,0,80.384-4.017ZM93.56-9,90.59-4.641,93.543,0h-3.2l-1.3-2.426q-.158-.29-.378-.817H88.63a5.707,5.707,0,0,1-.36.791L86.96,0h-3.19L86.81-4.482,83.954-9h3.217l1.283,2.522a5.532,5.532,0,0,1,.36.844h.035a5.946,5.946,0,0,1,.378-.861L90.537-9Zm11.113,5.168H99.866V-5.774h4.808ZM114.626-2.3h5.344V0h-8.385V-.949a4.418,4.418,0,0,1,.325-1.736,5.76,5.76,0,0,1,.817-1.38A7.09,7.09,0,0,1,113.8-5.146q.584-.47,1.112-.848.554-.4.971-.756a5.534,5.534,0,0,0,.7-.716,2.723,2.723,0,0,0,.426-.721,2.143,2.143,0,0,0,.141-.778,1.563,1.563,0,0,0-.457-1.222,2.032,2.032,0,0,0-1.4-.413,4.694,4.694,0,0,0-3.111,1.292v-2.443a6.679,6.679,0,0,1,3.709-1.063,5.478,5.478,0,0,1,1.718.25,3.635,3.635,0,0,1,1.288.716,3.055,3.055,0,0,1,.8,1.129,3.811,3.811,0,0,1,.277,1.481,4.176,4.176,0,0,1-.268,1.547,4.753,4.753,0,0,1-.712,1.23,6.458,6.458,0,0,1-1.024,1.015q-.58.461-1.2.892-.422.3-.813.593a7.707,7.707,0,0,0-.69.58,3.149,3.149,0,0,0-.475.558A.963.963,0,0,0,114.626-2.3ZM131.072-9,128.1-4.641,131.055,0h-3.2l-1.3-2.426q-.158-.29-.378-.817h-.035a5.707,5.707,0,0,1-.36.791L124.472,0h-3.19l3.041-4.482L121.466-9h3.217l1.283,2.522a5.532,5.532,0,0,1,.36.844h.035a5.946,5.946,0,0,1,.378-.861l1.31-2.5Zm2.28,1.657h3.117V-6h-4.891v-.554a2.577,2.577,0,0,1,.19-1.013,3.36,3.36,0,0,1,.477-.8A4.136,4.136,0,0,1,132.873-9q.341-.274.649-.495.323-.231.566-.441a3.228,3.228,0,0,0,.41-.418,1.588,1.588,0,0,0,.249-.42,1.25,1.25,0,0,0,.082-.454.912.912,0,0,0-.267-.713,1.185,1.185,0,0,0-.815-.241,2.738,2.738,0,0,0-1.815.754v-1.425a3.9,3.9,0,0,1,2.163-.62,3.2,3.2,0,0,1,1,.146,2.12,2.12,0,0,1,.751.418,1.782,1.782,0,0,1,.469.659,2.223,2.223,0,0,1,.161.864,2.436,2.436,0,0,1-.156.9,2.773,2.773,0,0,1-.415.718,3.767,3.767,0,0,1-.6.592q-.338.269-.7.52-.246.174-.474.346a4.5,4.5,0,0,0-.4.338,1.837,1.837,0,0,0-.277.326A.562.562,0,0,0,133.353-7.343Zm19.461,3.08H149.43V-.879h-1.775V-4.263h-3.4V-6.047h3.4v-3.4h1.775v3.4h3.384ZM163.628-2.3h5.344V0h-8.385V-.949a4.418,4.418,0,0,1,.325-1.736,5.76,5.76,0,0,1,.817-1.38,7.09,7.09,0,0,1,1.077-1.081q.584-.47,1.112-.848.554-.4.971-.756a5.534,5.534,0,0,0,.7-.716,2.723,2.723,0,0,0,.426-.721,2.143,2.143,0,0,0,.141-.778,1.563,1.563,0,0,0-.457-1.222,2.032,2.032,0,0,0-1.4-.413,4.694,4.694,0,0,0-3.111,1.292v-2.443a6.679,6.679,0,0,1,3.709-1.063,5.478,5.478,0,0,1,1.718.25,3.635,3.635,0,0,1,1.288.716,3.055,3.055,0,0,1,.8,1.129,3.811,3.811,0,0,1,.277,1.481,4.176,4.176,0,0,1-.268,1.547,4.753,4.753,0,0,1-.712,1.23,6.458,6.458,0,0,1-1.024,1.015q-.58.461-1.2.892-.422.3-.813.593a7.707,7.707,0,0,0-.69.58,3.149,3.149,0,0,0-.475.558A.963.963,0,0,0,163.628-2.3Zm11.34,5.168h-4.14V1.1h1.854V-10.837h-1.854V-12.6h4.14ZM190.018-12.6l-6.144,14.7H181.4l6.117-14.7ZM200.806,2.865h-4.122V-12.6h4.122v1.767h-1.837V1.1h1.837ZM209.79-12.6v7.945H211.3v2.074H209.79V0h-2.531V-2.584h-5.493V-4.755q.729-.817,1.512-1.789t1.512-2q.729-1.028,1.358-2.07a20.749,20.749,0,0,0,1.068-1.991Zm-5.537,7.945h3.006v-4.4q-.308.571-.668,1.156t-.756,1.151q-.4.567-.8,1.1T204.253-4.658ZM221.639-9l-2.971,4.359L221.622,0h-3.2l-1.3-2.426q-.158-.29-.378-.817h-.035a5.707,5.707,0,0,1-.36.791L215.039,0h-3.19l3.041-4.482L212.033-9h3.217l1.283,2.522a5.532,5.532,0,0,1,.36.844h.035a5.946,5.946,0,0,1,.378-.861l1.31-2.5Zm2.28,1.657h3.117V-6h-4.891v-.554a2.577,2.577,0,0,1,.19-1.013,3.36,3.36,0,0,1,.477-.8A4.136,4.136,0,0,1,223.44-9q.341-.274.649-.495.323-.231.566-.441a3.228,3.228,0,0,0,.41-.418,1.588,1.588,0,0,0,.249-.42,1.25,1.25,0,0,0,.082-.454.912.912,0,0,0-.267-.713,1.185,1.185,0,0,0-.815-.241,2.738,2.738,0,0,0-1.815.754v-1.425a3.9,3.9,0,0,1,2.163-.62,3.2,3.2,0,0,1,1,.146,2.12,2.12,0,0,1,.751.418,1.782,1.782,0,0,1,.469.659,2.223,2.223,0,0,1,.161.864,2.436,2.436,0,0,1-.156.9,2.773,2.773,0,0,1-.415.718,3.767,3.767,0,0,1-.6.592q-.338.269-.7.52-.246.174-.474.346a4.5,4.5,0,0,0-.4.338,1.837,1.837,0,0,0-.277.326A.562.562,0,0,0,223.919-7.343Zm19.461,3.08H240V-.879h-1.775V-4.263h-3.4V-6.047h3.4v-3.4H240v3.4h3.384Zm14.356-8.622V0h-2.769V-9.756a3.315,3.315,0,0,1-.541.382,5.58,5.58,0,0,1-.664.325,5.925,5.925,0,0,1-.729.246,5.328,5.328,0,0,1-.747.145V-11a11.549,11.549,0,0,0,2.039-.809,11.6,11.6,0,0,0,1.731-1.081ZM264.55-2.3h5.344V0h-8.385V-.949a4.418,4.418,0,0,1,.325-1.736,5.76,5.76,0,0,1,.817-1.38,7.09,7.09,0,0,1,1.077-1.081q.584-.47,1.112-.848.554-.4.971-.756a5.534,5.534,0,0,0,.7-.716,2.723,2.723,0,0,0,.426-.721,2.143,2.143,0,0,0,.141-.778,1.563,1.563,0,0,0-.457-1.222,2.032,2.032,0,0,0-1.4-.413,4.694,4.694,0,0,0-3.111,1.292v-2.443a6.679,6.679,0,0,1,3.709-1.063,5.478,5.478,0,0,1,1.718.25,3.635,3.635,0,0,1,1.288.716,3.055,3.055,0,0,1,.8,1.129,3.811,3.811,0,0,1,.277,1.481,4.176,4.176,0,0,1-.268,1.547,4.753,4.753,0,0,1-.712,1.23,6.458,6.458,0,0,1-1.024,1.015q-.58.461-1.2.892-.422.3-.813.593a7.707,7.707,0,0,0-.69.58,3.149,3.149,0,0,0-.475.558A.963.963,0,0,0,264.55-2.3ZM281-9l-2.971,4.359L280.978,0h-3.2l-1.3-2.426q-.158-.29-.378-.817h-.035a5.707,5.707,0,0,1-.36.791L274.4,0H271.2l3.041-4.482L271.389-9h3.217l1.283,2.522a5.532,5.532,0,0,1,.36.844h.035a5.946,5.946,0,0,1,.378-.861l1.31-2.5Zm15.7,4.737h-3.384V-.879h-1.775V-4.263h-3.4V-6.047h3.4v-3.4h1.775v3.4H296.7Zm16.6-2.646a11.18,11.18,0,0,1-.369,3,6.438,6.438,0,0,1-1.077,2.237,4.755,4.755,0,0,1-1.727,1.4A5.291,5.291,0,0,1,307.81.22a6.568,6.568,0,0,1-2.663-.492V-2.558a4.267,4.267,0,0,0,2.391.65,2.752,2.752,0,0,0,2.241-.976A4.352,4.352,0,0,0,310.6-5.7l-.053-.018A2.854,2.854,0,0,1,308-4.482a3.487,3.487,0,0,1-1.428-.29,3.431,3.431,0,0,1-1.134-.8,3.675,3.675,0,0,1-.747-1.226,4.407,4.407,0,0,1-.268-1.564,4.857,4.857,0,0,1,.325-1.811,4.145,4.145,0,0,1,.91-1.406,4.014,4.014,0,0,1,1.4-.91,4.917,4.917,0,0,1,1.811-.321,4.145,4.145,0,0,1,1.846.4,3.878,3.878,0,0,1,1.393,1.156,5.4,5.4,0,0,1,.879,1.854A9.4,9.4,0,0,1,313.294-6.908Zm-2.8-1.477a3.266,3.266,0,0,0-.123-.91,2.394,2.394,0,0,0-.343-.734,1.669,1.669,0,0,0-.536-.488,1.379,1.379,0,0,0-.694-.18,1.413,1.413,0,0,0-.664.158,1.618,1.618,0,0,0-.523.435,2.061,2.061,0,0,0-.343.664,2.74,2.74,0,0,0-.123.835,2.853,2.853,0,0,0,.123.875,1.867,1.867,0,0,0,.347.646,1.456,1.456,0,0,0,.541.4,1.76,1.76,0,0,0,.7.136,1.51,1.51,0,0,0,.668-.145,1.609,1.609,0,0,0,.514-.391,1.77,1.77,0,0,0,.334-.58A2.138,2.138,0,0,0,310.49-8.385Zm8.36,11.25h-4.14V1.1h1.854V-10.837h-1.854V-12.6h4.14Z" transform="translate(848 6212.455)" fill="#212429"/>
    <path id="Trazado_1039161" data-name="Trazado 1039161" d="M10.652-6.152H2.092v-1.8h8.561Zm0,3.814H2.092V-4.122h8.561Zm13.539,5.2H21.924a11.026,11.026,0,0,1-2.839-7.69A11.731,11.731,0,0,1,21.924-12.6h2.25A12.632,12.632,0,0,0,21.51-4.825,12.216,12.216,0,0,0,24.191,2.865ZM28.113-2.3h5.344V0H25.072V-.949A4.418,4.418,0,0,1,25.4-2.685a5.76,5.76,0,0,1,.817-1.38,7.09,7.09,0,0,1,1.077-1.081q.584-.47,1.112-.848.554-.4.971-.756a5.534,5.534,0,0,0,.7-.716,2.723,2.723,0,0,0,.426-.721,2.143,2.143,0,0,0,.141-.778,1.563,1.563,0,0,0-.457-1.222,2.032,2.032,0,0,0-1.4-.413,4.694,4.694,0,0,0-3.111,1.292v-2.443a6.679,6.679,0,0,1,3.709-1.063,5.478,5.478,0,0,1,1.718.25,3.635,3.635,0,0,1,1.288.716,3.055,3.055,0,0,1,.8,1.129,3.811,3.811,0,0,1,.277,1.481,4.176,4.176,0,0,1-.268,1.547,4.753,4.753,0,0,1-.712,1.23A6.458,6.458,0,0,1,31.47-5.445q-.58.461-1.2.892-.422.3-.813.593a7.707,7.707,0,0,0-.69.58,3.149,3.149,0,0,0-.475.558A.963.963,0,0,0,28.113-2.3ZM44.559-9,41.588-4.641,44.541,0h-3.2l-1.3-2.426q-.158-.29-.378-.817h-.035a5.707,5.707,0,0,1-.36.791L37.958,0h-3.19l3.041-4.482L34.953-9h3.217l1.283,2.522a5.532,5.532,0,0,1,.36.844h.035a5.946,5.946,0,0,1,.378-.861L41.536-9Zm2.28,1.657h3.117V-6H45.065v-.554a2.577,2.577,0,0,1,.19-1.013,3.36,3.36,0,0,1,.477-.8A4.136,4.136,0,0,1,46.36-9q.341-.274.649-.495.323-.231.566-.441a3.228,3.228,0,0,0,.41-.418,1.588,1.588,0,0,0,.249-.42,1.25,1.25,0,0,0,.082-.454.912.912,0,0,0-.267-.713,1.185,1.185,0,0,0-.815-.241,2.738,2.738,0,0,0-1.815.754v-1.425a3.9,3.9,0,0,1,2.163-.62,3.2,3.2,0,0,1,1,.146,2.12,2.12,0,0,1,.751.418,1.782,1.782,0,0,1,.469.659,2.223,2.223,0,0,1,.161.864,2.436,2.436,0,0,1-.156.9,2.773,2.773,0,0,1-.415.718,3.767,3.767,0,0,1-.6.592q-.338.269-.7.52-.246.174-.474.346a4.5,4.5,0,0,0-.4.338,1.837,1.837,0,0,0-.277.326A.562.562,0,0,0,46.839-7.343ZM66.3-4.263H62.916V-.879H61.141V-4.263h-3.4V-6.047h3.4v-3.4h1.775v3.4H66.3Zm16.8.07a4.62,4.62,0,0,1-.325,1.74,4.248,4.248,0,0,1-.905,1.4,4.189,4.189,0,0,1-1.38.932A4.443,4.443,0,0,1,78.74.22a4.412,4.412,0,0,1-1.9-.4,3.841,3.841,0,0,1-1.419-1.147,5.363,5.363,0,0,1-.888-1.841,9.1,9.1,0,0,1-.308-2.47,10.168,10.168,0,0,1,.4-2.949,6.77,6.77,0,0,1,1.143-2.263,5.132,5.132,0,0,1,1.8-1.455,5.345,5.345,0,0,1,2.373-.514,5.986,5.986,0,0,1,2.268.343v2.32a4.158,4.158,0,0,0-2.092-.545,2.923,2.923,0,0,0-1.274.272,2.817,2.817,0,0,0-.98.773,3.74,3.74,0,0,0-.642,1.208,5.378,5.378,0,0,0-.25,1.578h.053A3.057,3.057,0,0,1,79.663-8.1a3.447,3.447,0,0,1,1.415.281,3.07,3.07,0,0,1,1.081.8,3.649,3.649,0,0,1,.694,1.235A4.927,4.927,0,0,1,83.1-4.192Zm-2.716.176q0-2.03-1.661-2.03a1.63,1.63,0,0,0-.686.141,1.525,1.525,0,0,0-.527.4,1.8,1.8,0,0,0-.338.6,2.366,2.366,0,0,0-.119.769,2.974,2.974,0,0,0,.123.87,2.311,2.311,0,0,0,.347.708,1.719,1.719,0,0,0,.532.479,1.357,1.357,0,0,0,.686.176,1.484,1.484,0,0,0,.681-.154,1.525,1.525,0,0,0,.519-.431,1.979,1.979,0,0,0,.33-.668A3.047,3.047,0,0,0,80.384-4.017ZM93.56-9,90.59-4.641,93.543,0h-3.2l-1.3-2.426q-.158-.29-.378-.817H88.63a5.707,5.707,0,0,1-.36.791L86.96,0h-3.19L86.81-4.482,83.954-9h3.217l1.283,2.522a5.532,5.532,0,0,1,.36.844h.035a5.946,5.946,0,0,1,.378-.861L90.537-9Zm15.7,4.737h-3.384V-.879H104.1V-4.263h-3.4V-6.047h3.4v-3.4h1.775v3.4h3.384ZM120.075-2.3h5.344V0h-8.385V-.949a4.418,4.418,0,0,1,.325-1.736,5.76,5.76,0,0,1,.817-1.38,7.09,7.09,0,0,1,1.077-1.081q.584-.47,1.112-.848.554-.4.971-.756a5.534,5.534,0,0,0,.7-.716,2.723,2.723,0,0,0,.426-.721,2.143,2.143,0,0,0,.141-.778,1.563,1.563,0,0,0-.457-1.222,2.032,2.032,0,0,0-1.4-.413,4.694,4.694,0,0,0-3.111,1.292v-2.443a6.679,6.679,0,0,1,3.709-1.063,5.478,5.478,0,0,1,1.718.25,3.635,3.635,0,0,1,1.288.716,3.055,3.055,0,0,1,.8,1.129,3.811,3.811,0,0,1,.277,1.481,4.176,4.176,0,0,1-.268,1.547,4.753,4.753,0,0,1-.712,1.23,6.458,6.458,0,0,1-1.024,1.015q-.58.461-1.2.892-.422.3-.813.593a7.707,7.707,0,0,0-.69.58,3.149,3.149,0,0,0-.475.558A.963.963,0,0,0,120.075-2.3Zm8.993,5.168h-2.25a12.144,12.144,0,0,0,2.689-7.69,12.6,12.6,0,0,0-2.689-7.778h2.268a11.731,11.731,0,0,1,2.848,7.778A11.047,11.047,0,0,1,129.068,2.865Zm17.4-15.469-6.144,14.7h-2.479l6.117-14.7ZM157.719,2.865h-2.268a11.026,11.026,0,0,1-2.839-7.69,11.731,11.731,0,0,1,2.839-7.778h2.25a12.632,12.632,0,0,0-2.663,7.778A12.216,12.216,0,0,0,157.719,2.865ZM166.238-12.6v7.945h1.512v2.074h-1.512V0h-2.531V-2.584h-5.493V-4.755q.729-.817,1.512-1.789t1.512-2q.729-1.028,1.358-2.07a20.749,20.749,0,0,0,1.068-1.991ZM160.7-4.658h3.006v-4.4q-.308.571-.668,1.156t-.756,1.151q-.4.567-.8,1.1T160.7-4.658ZM178.087-9l-2.971,4.359L178.069,0h-3.2l-1.3-2.426q-.158-.29-.378-.817h-.035a5.707,5.707,0,0,1-.36.791L171.486,0H168.3l3.041-4.482L168.481-9H171.7l1.283,2.522a5.532,5.532,0,0,1,.36.844h.035a5.946,5.946,0,0,1,.378-.861l1.31-2.5Zm2.28,1.657h3.117V-6h-4.891v-.554a2.577,2.577,0,0,1,.19-1.013,3.36,3.36,0,0,1,.477-.8A4.136,4.136,0,0,1,179.888-9q.341-.274.649-.495.323-.231.566-.441a3.228,3.228,0,0,0,.41-.418,1.588,1.588,0,0,0,.249-.42,1.25,1.25,0,0,0,.082-.454.912.912,0,0,0-.267-.713,1.185,1.185,0,0,0-.815-.241,2.738,2.738,0,0,0-1.815.754v-1.425a3.9,3.9,0,0,1,2.163-.62,3.2,3.2,0,0,1,1,.146,2.12,2.12,0,0,1,.751.418,1.782,1.782,0,0,1,.469.659,2.223,2.223,0,0,1,.161.864,2.436,2.436,0,0,1-.156.9,2.773,2.773,0,0,1-.415.718,3.767,3.767,0,0,1-.6.592q-.338.269-.7.52-.246.174-.474.346a4.5,4.5,0,0,0-.4.338,1.837,1.837,0,0,0-.277.326A.562.562,0,0,0,180.367-7.343Zm19.461,3.08h-3.384V-.879h-1.775V-4.263h-3.4V-6.047h3.4v-3.4h1.775v3.4h3.384Zm14.356-8.622V0h-2.769V-9.756a3.315,3.315,0,0,1-.541.382,5.58,5.58,0,0,1-.664.325,5.925,5.925,0,0,1-.729.246,5.328,5.328,0,0,1-.747.145V-11a11.549,11.549,0,0,0,2.039-.809,11.6,11.6,0,0,0,1.731-1.081ZM221-2.3h5.344V0h-8.385V-.949a4.418,4.418,0,0,1,.325-1.736,5.76,5.76,0,0,1,.817-1.38,7.09,7.09,0,0,1,1.077-1.081q.584-.47,1.112-.848.554-.4.971-.756a5.534,5.534,0,0,0,.7-.716,2.723,2.723,0,0,0,.426-.721,2.143,2.143,0,0,0,.141-.778,1.563,1.563,0,0,0-.457-1.222,2.032,2.032,0,0,0-1.4-.413,4.694,4.694,0,0,0-3.111,1.292v-2.443a6.679,6.679,0,0,1,3.709-1.063,5.478,5.478,0,0,1,1.718.25,3.635,3.635,0,0,1,1.288.716,3.055,3.055,0,0,1,.8,1.129,3.811,3.811,0,0,1,.277,1.481,4.176,4.176,0,0,1-.268,1.547,4.753,4.753,0,0,1-.712,1.23,6.458,6.458,0,0,1-1.024,1.015q-.58.461-1.2.892-.422.3-.813.593a7.707,7.707,0,0,0-.69.58,3.149,3.149,0,0,0-.475.558A.963.963,0,0,0,221-2.3ZM237.444-9l-2.971,4.359L237.426,0h-3.2l-1.3-2.426q-.158-.29-.378-.817h-.035a5.707,5.707,0,0,1-.36.791L230.843,0h-3.19l3.041-4.482L227.837-9h3.217l1.283,2.522a5.532,5.532,0,0,1,.36.844h.035a5.946,5.946,0,0,1,.378-.861L234.42-9Zm15.7,4.737h-3.384V-.879h-1.775V-4.263h-3.4V-6.047h3.4v-3.4h1.775v3.4h3.384Zm16.6-2.646a11.18,11.18,0,0,1-.369,3A6.438,6.438,0,0,1,268.3-1.67a4.755,4.755,0,0,1-1.727,1.4,5.291,5.291,0,0,1-2.312.488,6.568,6.568,0,0,1-2.663-.492V-2.558a4.267,4.267,0,0,0,2.391.65,2.752,2.752,0,0,0,2.241-.976,4.352,4.352,0,0,0,.817-2.821l-.053-.018a2.854,2.854,0,0,1-2.54,1.239,3.487,3.487,0,0,1-1.428-.29,3.431,3.431,0,0,1-1.134-.8,3.675,3.675,0,0,1-.747-1.226,4.407,4.407,0,0,1-.268-1.564,4.857,4.857,0,0,1,.325-1.811,4.145,4.145,0,0,1,.91-1.406,4.014,4.014,0,0,1,1.4-.91,4.917,4.917,0,0,1,1.811-.321,4.145,4.145,0,0,1,1.846.4,3.878,3.878,0,0,1,1.393,1.156,5.4,5.4,0,0,1,.879,1.854A9.4,9.4,0,0,1,269.742-6.908Zm-2.8-1.477a3.266,3.266,0,0,0-.123-.91,2.394,2.394,0,0,0-.343-.734,1.669,1.669,0,0,0-.536-.488,1.379,1.379,0,0,0-.694-.18,1.413,1.413,0,0,0-.664.158,1.618,1.618,0,0,0-.523.435,2.061,2.061,0,0,0-.343.664,2.74,2.74,0,0,0-.123.835,2.853,2.853,0,0,0,.123.875,1.867,1.867,0,0,0,.347.646,1.456,1.456,0,0,0,.541.4,1.76,1.76,0,0,0,.7.136,1.51,1.51,0,0,0,.668-.145,1.609,1.609,0,0,0,.514-.391,1.77,1.77,0,0,0,.334-.58A2.138,2.138,0,0,0,266.938-8.385Zm6.014,11.25H270.7a12.144,12.144,0,0,0,2.689-7.69A12.6,12.6,0,0,0,270.7-12.6h2.268a11.731,11.731,0,0,1,2.848,7.778A11.047,11.047,0,0,1,272.952,2.865Z" transform="translate(870 6244.914)" fill="#212429"/>
  </g>
</svg>
