<svg xmlns="http://www.w3.org/2000/svg" width="300.811" height="170.22" viewBox="0 0 300.811 170.22">
  <g id="Grupo_1177796" data-name="Grupo 1177796" transform="translate(-459.625 -6641.995)">
    <path id="Trazado_1039152" data-name="Trazado 1039152" d="M-33.52,2.865h-2.268a11.026,11.026,0,0,1-2.839-7.69A11.731,11.731,0,0,1-35.787-12.6h2.25A12.632,12.632,0,0,0-36.2-4.825,12.216,12.216,0,0,0-33.52,2.865ZM-26.17-7.726h.035q.018-.272.018-.343,0-3.006-2.136-3.006a5.1,5.1,0,0,0-2.364.615l.563-2.2a6.094,6.094,0,0,1,2.5-.536q4.28,0,4.28,5.089a13.211,13.211,0,0,1-.65,3.973A6.693,6.693,0,0,1-25.929-.923,4.9,4.9,0,0,1-29.194.22a3.776,3.776,0,0,1-2.773-.993,3.643,3.643,0,0,1-1.006-2.716A6.055,6.055,0,0,1-31.7-7.339,3.982,3.982,0,0,1-28.42-8.965,2.481,2.481,0,0,1-26.17-7.726Zm-.29,2.057q-.334-1.354-1.38-1.354a1.929,1.929,0,0,0-1.63,1.063,4.349,4.349,0,0,0-.672,2.373q0,1.679,1.257,1.679a1.884,1.884,0,0,0,1.564-1.05A6.393,6.393,0,0,0-26.46-5.669Zm7.771,1.327V0h-2.839V-12.6h4.447q4.764,0,4.764,4.017a3.854,3.854,0,0,1-1.367,3.072,5.414,5.414,0,0,1-3.652,1.173Zm0-6.082V-6.5h1.116q2.268,0,2.268-1.986,0-1.942-2.268-1.942ZM-3.72-12.6l-6.144,14.7h-2.479l6.117-14.7ZM3.27-7.726H3.3q.018-.272.018-.343,0-3.006-2.136-3.006a5.1,5.1,0,0,0-2.364.615l.563-2.2a6.094,6.094,0,0,1,2.5-.536q4.28,0,4.28,5.089a13.211,13.211,0,0,1-.65,3.973A6.693,6.693,0,0,1,3.511-.923,4.9,4.9,0,0,1,.246.22,3.776,3.776,0,0,1-2.527-.773,3.643,3.643,0,0,1-3.533-3.489a6.055,6.055,0,0,1,1.274-3.85A3.982,3.982,0,0,1,1.02-8.965,2.481,2.481,0,0,1,3.27-7.726Zm-.29,2.057Q2.646-7.022,1.6-7.022A1.929,1.929,0,0,0-.031-5.959,4.349,4.349,0,0,0-.7-3.586Q-.7-1.907.554-1.907a1.884,1.884,0,0,0,1.564-1.05A6.393,6.393,0,0,0,2.979-5.669ZM15.418,0H7.912V-12.6h2.839V-2.3h4.667Zm2.665,2.865h-2.25a12.144,12.144,0,0,0,2.689-7.69A12.6,12.6,0,0,0,15.833-12.6H18.1a11.731,11.731,0,0,1,2.848,7.778A11.047,11.047,0,0,1,18.083,2.865ZM37.941-6.152H29.38v-1.8h8.561Zm0,3.814H29.38V-4.122h8.561Z" transform="translate(518 6672.454)" fill="#212429"/>
    <path id="Trazado_1039153" data-name="Trazado 1039153" d="M6.029,2.865H1.907V-12.6H6.029v1.767H4.192V1.1H6.029Zm7.93-15.75V0H11.19V-9.756a3.315,3.315,0,0,1-.541.382,5.58,5.58,0,0,1-.664.325,5.925,5.925,0,0,1-.729.246,5.328,5.328,0,0,1-.747.145V-11a11.549,11.549,0,0,0,2.039-.809,11.6,11.6,0,0,0,1.731-1.081ZM22.108.22q-4.5,0-4.5-6.319a8.6,8.6,0,0,1,1.217-5,4.056,4.056,0,0,1,3.529-1.718q4.395,0,4.395,6.425a8.466,8.466,0,0,1-1.2,4.9A3.952,3.952,0,0,1,22.108.22ZM22.231-10.7q-1.8,0-1.8,4.526,0,4.263,1.767,4.263,1.723,0,1.723-4.395T22.231-10.7ZM32.463.22q-4.5,0-4.5-6.319a8.6,8.6,0,0,1,1.217-5,4.056,4.056,0,0,1,3.529-1.718q4.395,0,4.395,6.425a8.466,8.466,0,0,1-1.2,4.9A3.952,3.952,0,0,1,32.463.22ZM32.586-10.7q-1.8,0-1.8,4.526,0,4.263,1.767,4.263,1.723,0,1.723-4.395T32.586-10.7ZM46.66,0H39.154V-12.6h2.839V-2.3H46.66ZM50.7-4.329H49.382a6.431,6.431,0,0,1-1.656-4.486,6.843,6.843,0,0,1,1.656-4.537h1.312a7.368,7.368,0,0,0-1.553,4.537A7.126,7.126,0,0,0,50.7-4.329Zm4.354-9.187V-6H53.444v-5.691a1.934,1.934,0,0,1-.315.223,3.255,3.255,0,0,1-.387.19,3.456,3.456,0,0,1-.426.144,3.108,3.108,0,0,1-.436.085v-1.364a6.736,6.736,0,0,0,1.189-.472,6.769,6.769,0,0,0,1.01-.631Zm6.553.164L58.028-4.78H56.582l3.568-8.572Zm2.077,6.008h3.117V-6H61.915v-.554a2.577,2.577,0,0,1,.19-1.013,3.36,3.36,0,0,1,.477-.8A4.136,4.136,0,0,1,63.209-9q.341-.274.649-.495.323-.231.566-.441a3.228,3.228,0,0,0,.41-.418,1.588,1.588,0,0,0,.249-.42,1.25,1.25,0,0,0,.082-.454.912.912,0,0,0-.267-.713,1.185,1.185,0,0,0-.815-.241,2.738,2.738,0,0,0-1.815.754v-1.425a3.9,3.9,0,0,1,2.163-.62,3.2,3.2,0,0,1,1,.146,2.12,2.12,0,0,1,.751.418,1.782,1.782,0,0,1,.469.659,2.223,2.223,0,0,1,.161.864,2.436,2.436,0,0,1-.156.9,2.772,2.772,0,0,1-.415.718,3.767,3.767,0,0,1-.6.592q-.338.269-.7.52-.246.174-.474.346a4.5,4.5,0,0,0-.4.338,1.837,1.837,0,0,0-.277.326A.562.562,0,0,0,63.689-7.343Zm5.246,3.014H67.622a7.084,7.084,0,0,0,1.569-4.486,7.35,7.35,0,0,0-1.569-4.537h1.323a6.843,6.843,0,0,1,1.661,4.537A6.444,6.444,0,0,1,68.934-4.329ZM88.292,0H84.706L81.032-5.476A5.248,5.248,0,0,1,80.7-6.17h-.044V0H77.815V-12.6h2.839v5.959H80.7q.105-.246.352-.7L84.53-12.6h3.384L83.52-6.592ZM99.034-5.361H96.9l-2.522-5.15h-.035l-2.382,5.15H89.841l3.779-7.453h1.424Zm5.539,1.033h-1.323a6.431,6.431,0,0,1-1.656-4.486,6.843,6.843,0,0,1,1.656-4.537h1.312a7.368,7.368,0,0,0-1.553,4.537A7.126,7.126,0,0,0,104.573-4.329Zm4.354-9.187V-6h-1.615v-5.691a1.934,1.934,0,0,1-.315.223,3.255,3.255,0,0,1-.387.19,3.456,3.456,0,0,1-.426.144,3.108,3.108,0,0,1-.436.085v-1.364a6.736,6.736,0,0,0,1.189-.472,6.768,6.768,0,0,0,1.01-.631Zm6.553.164L111.9-4.78h-1.446l3.568-8.572Zm.478,7.111v-1.41a2.846,2.846,0,0,0,1.723.538,1.551,1.551,0,0,0,.966-.267.885.885,0,0,0,.346-.743.845.845,0,0,0-.428-.759,2.218,2.218,0,0,0-1.177-.267h-.682v-1.241h.631q1.435,0,1.435-.954,0-.9-1.1-.9a2.513,2.513,0,0,0-1.435.477v-1.323a3.965,3.965,0,0,1,1.8-.39,2.723,2.723,0,0,1,1.756.508,1.615,1.615,0,0,1,.628,1.318,1.713,1.713,0,0,1-1.461,1.8v.026a1.986,1.986,0,0,1,1.23.566,1.6,1.6,0,0,1,.451,1.151,1.972,1.972,0,0,1-.754,1.63,3.258,3.258,0,0,1-2.081.6A4.023,4.023,0,0,1,115.958-6.241ZM122.8-4.329h-1.312a7.084,7.084,0,0,0,1.569-4.486,7.35,7.35,0,0,0-1.569-4.537h1.323a6.843,6.843,0,0,1,1.661,4.537A6.444,6.444,0,0,1,122.8-4.329Zm7.227,7.194h-4.14V1.1h1.854V-10.837H125.89V-12.6h4.14Z" transform="translate(609.66 6672.454)" fill="#212429"/>
    <g id="Grupo_1177705" data-name="Grupo 1177705" transform="translate(-455.339 4828.995)">
      <text id="d" transform="translate(1032.063 1832)" fill="#212429" font-size="18" font-family="SegoeUI-BoldItalic, Segoe UI" font-weight="700" font-style="italic" letter-spacing="0em"><tspan x="0" y="0">d</tspan></text>
      <text id="dL" transform="translate(1027.063 1858)" fill="#212429" font-size="18" font-family="SegoeUI-BoldItalic, Segoe UI" font-weight="700" font-style="italic" letter-spacing="0em"><tspan x="0" y="0">dL</tspan></text>
      <path id="Trazado_1038784" data-name="Trazado 1038784" d="M2526.533,1495h36.338" transform="translate(-1506.533 345)" fill="none" stroke="#212429" stroke-width="1"/>
    </g>
    <path id="Trazado_1039154" data-name="Trazado 1039154" d="M-31.814-6.152h-8.561v-1.8h8.561Zm0,3.814h-8.561V-4.122h8.561Zm14.356-10.547V0h-2.769V-9.756a3.315,3.315,0,0,1-.541.382,5.58,5.58,0,0,1-.664.325,5.925,5.925,0,0,1-.729.246,5.328,5.328,0,0,1-.747.145V-11a11.549,11.549,0,0,0,2.039-.809,11.6,11.6,0,0,0,1.731-1.081ZM-9.309.22q-4.5,0-4.5-6.319a8.6,8.6,0,0,1,1.217-5,4.056,4.056,0,0,1,3.529-1.718q4.395,0,4.395,6.425a8.466,8.466,0,0,1-1.2,4.9A3.952,3.952,0,0,1-9.309.22ZM-9.186-10.7q-1.8,0-1.8,4.526,0,4.263,1.767,4.263Q-7.5-1.907-7.5-6.3T-9.186-10.7ZM1.046.22q-4.5,0-4.5-6.319a8.6,8.6,0,0,1,1.217-5,4.056,4.056,0,0,1,3.529-1.718q4.395,0,4.395,6.425a8.466,8.466,0,0,1-1.2,4.9A3.952,3.952,0,0,1,1.046.22ZM1.169-10.7q-1.8,0-1.8,4.526,0,4.263,1.767,4.263,1.723,0,1.723-4.395T1.169-10.7ZM18.213,0H14.627L10.953-5.476a5.248,5.248,0,0,1-.334-.694h-.044V0H7.737V-12.6h2.839v5.959h.044q.105-.246.352-.7l3.48-5.256h3.384L13.441-6.592Zm3.553-4.329H20.444a6.431,6.431,0,0,1-1.656-4.486,6.843,6.843,0,0,1,1.656-4.537h1.312A7.368,7.368,0,0,0,20.2-8.815,7.126,7.126,0,0,0,21.766-4.329Zm4.354-9.187V-6H24.5v-5.691a1.934,1.934,0,0,1-.315.223,3.255,3.255,0,0,1-.387.19,3.456,3.456,0,0,1-.426.144,3.108,3.108,0,0,1-.436.085v-1.364a6.736,6.736,0,0,0,1.189-.472,6.769,6.769,0,0,0,1.01-.631Zm6.553.164L29.089-4.78H27.643l3.568-8.572Zm.478,7.111v-1.41a2.846,2.846,0,0,0,1.723.538,1.551,1.551,0,0,0,.966-.267.885.885,0,0,0,.346-.743.845.845,0,0,0-.428-.759,2.218,2.218,0,0,0-1.177-.267H33.9v-1.241h.631q1.435,0,1.435-.954,0-.9-1.1-.9a2.513,2.513,0,0,0-1.435.477v-1.323a3.965,3.965,0,0,1,1.8-.39,2.723,2.723,0,0,1,1.756.508,1.615,1.615,0,0,1,.628,1.318,1.713,1.713,0,0,1-1.461,1.8v.026a1.986,1.986,0,0,1,1.23.566A1.6,1.6,0,0,1,37.836-8.1a1.972,1.972,0,0,1-.754,1.63,3.258,3.258,0,0,1-2.081.6A4.023,4.023,0,0,1,33.151-6.241ZM40-4.329H38.683a7.084,7.084,0,0,0,1.569-4.486,7.35,7.35,0,0,0-1.569-4.537h1.323a6.843,6.843,0,0,1,1.661,4.537A6.444,6.444,0,0,1,40-4.329Z" transform="translate(500 6731.454)" fill="#212429"/>
    <path id="Trazado_1039155" data-name="Trazado 1039155" d="M13.915,0H6.409V-12.6H9.248V-2.3h4.667ZM17.96-4.329H16.637a6.431,6.431,0,0,1-1.656-4.486,6.843,6.843,0,0,1,1.656-4.537H17.95A7.368,7.368,0,0,0,16.4-8.815,7.126,7.126,0,0,0,17.96-4.329Zm4.354-9.187V-6H20.7v-5.691a1.934,1.934,0,0,1-.315.223,3.255,3.255,0,0,1-.387.19,3.456,3.456,0,0,1-.426.144,3.108,3.108,0,0,1-.436.085v-1.364a6.736,6.736,0,0,0,1.189-.472,6.769,6.769,0,0,0,1.01-.631Zm6.553.164L25.283-4.78H23.837l3.568-8.572Zm2.077,6.008h3.117V-6H29.17v-.554a2.577,2.577,0,0,1,.19-1.013,3.36,3.36,0,0,1,.477-.8A4.136,4.136,0,0,1,30.465-9q.341-.274.649-.495.323-.231.566-.441a3.228,3.228,0,0,0,.41-.418,1.588,1.588,0,0,0,.249-.42,1.25,1.25,0,0,0,.082-.454.912.912,0,0,0-.267-.713,1.185,1.185,0,0,0-.815-.241,2.738,2.738,0,0,0-1.815.754v-1.425a3.9,3.9,0,0,1,2.163-.62,3.2,3.2,0,0,1,1,.146,2.12,2.12,0,0,1,.751.418,1.782,1.782,0,0,1,.469.659,2.223,2.223,0,0,1,.161.864,2.436,2.436,0,0,1-.156.9,2.773,2.773,0,0,1-.415.718,3.767,3.767,0,0,1-.6.592q-.338.269-.7.52-.246.174-.474.346a4.5,4.5,0,0,0-.4.338,1.837,1.837,0,0,0-.277.326A.562.562,0,0,0,30.944-7.343ZM36.19-4.329H34.877a7.084,7.084,0,0,0,1.569-4.486,7.35,7.35,0,0,0-1.569-4.537H36.2a6.843,6.843,0,0,1,1.661,4.537A6.444,6.444,0,0,1,36.19-4.329Zm18.092.066H50.9V-.879H49.123V-4.263h-3.4V-6.047h3.4v-3.4H50.9v3.4h3.384Z" transform="translate(590.66 6731.454)" fill="#212429"/>
    <path id="Trazado_1039156" data-name="Trazado 1039156" d="M7.313-12.885V0H4.544V-9.756A3.315,3.315,0,0,1,4-9.374a5.58,5.58,0,0,1-.664.325A5.925,5.925,0,0,1,2.61-8.8a5.328,5.328,0,0,1-.747.145V-11A11.549,11.549,0,0,0,3.9-11.8a11.6,11.6,0,0,0,1.731-1.081ZM15.462.22q-4.5,0-4.5-6.319a8.6,8.6,0,0,1,1.217-5,4.056,4.056,0,0,1,3.529-1.718q4.395,0,4.395,6.425a8.466,8.466,0,0,1-1.2,4.9A3.952,3.952,0,0,1,15.462.22ZM15.585-10.7q-1.8,0-1.8,4.526,0,4.263,1.767,4.263,1.723,0,1.723-4.395T15.585-10.7ZM25.817.22q-4.5,0-4.5-6.319a8.6,8.6,0,0,1,1.217-5,4.056,4.056,0,0,1,3.529-1.718q4.395,0,4.395,6.425a8.466,8.466,0,0,1-1.2,4.9A3.952,3.952,0,0,1,25.817.22ZM25.94-10.7q-1.8,0-1.8,4.526,0,4.263,1.767,4.263,1.723,0,1.723-4.395T25.94-10.7ZM42.984,0H39.4L35.724-5.476a5.248,5.248,0,0,1-.334-.694h-.044V0H32.507V-12.6h2.839v5.959h.044q.105-.246.352-.7l3.48-5.256h3.384L38.211-6.592Zm3.553-4.329H45.214a6.431,6.431,0,0,1-1.656-4.486,6.843,6.843,0,0,1,1.656-4.537h1.312a7.368,7.368,0,0,0-1.553,4.537A7.126,7.126,0,0,0,46.537-4.329Zm4.354-9.187V-6H49.276v-5.691a1.934,1.934,0,0,1-.315.223,3.255,3.255,0,0,1-.387.19,3.456,3.456,0,0,1-.426.144,3.108,3.108,0,0,1-.436.085v-1.364a6.736,6.736,0,0,0,1.189-.472,6.769,6.769,0,0,0,1.01-.631Zm6.553.164L53.86-4.78H52.414l3.568-8.572Zm.478,7.111v-1.41a2.846,2.846,0,0,0,1.723.538,1.551,1.551,0,0,0,.966-.267.885.885,0,0,0,.346-.743.845.845,0,0,0-.428-.759,2.218,2.218,0,0,0-1.177-.267H58.67v-1.241H59.3q1.435,0,1.435-.954,0-.9-1.1-.9a2.513,2.513,0,0,0-1.435.477v-1.323a3.965,3.965,0,0,1,1.8-.39,2.723,2.723,0,0,1,1.756.508,1.615,1.615,0,0,1,.628,1.318,1.713,1.713,0,0,1-1.461,1.8v.026a1.986,1.986,0,0,1,1.23.566A1.6,1.6,0,0,1,62.607-8.1a1.972,1.972,0,0,1-.754,1.63,3.258,3.258,0,0,1-2.081.6A4.023,4.023,0,0,1,57.921-6.241Zm6.845,1.912H63.454a7.084,7.084,0,0,0,1.569-4.486,7.35,7.35,0,0,0-1.569-4.537h1.323a6.843,6.843,0,0,1,1.661,4.537A6.444,6.444,0,0,1,64.766-4.329Z" transform="translate(693.999 6731.454)" fill="#212429"/>
    <g id="Grupo_1177705-2" data-name="Grupo 1177705" transform="translate(-470.339 4887.995)">
      <text id="d-2" data-name="d" transform="translate(1032.063 1832)" fill="#212429" font-size="18" font-family="SegoeUI-BoldItalic, Segoe UI" font-weight="700" font-style="italic" letter-spacing="0em"><tspan x="0" y="0">d</tspan></text>
      <text id="dL-2" data-name="dL" transform="translate(1027.063 1858)" fill="#212429" font-size="18" font-family="SegoeUI-BoldItalic, Segoe UI" font-weight="700" font-style="italic" letter-spacing="0em"><tspan x="0" y="0">dL</tspan></text>
      <path id="Trazado_1038784-2" data-name="Trazado 1038784" d="M2526.533,1495h36.338" transform="translate(-1506.533 345)" fill="none" stroke="#212429" stroke-width="1"/>
    </g>
    <g id="Grupo_1177744" data-name="Grupo 1177744" transform="translate(-366.34 4887.995)">
      <text id="d-3" data-name="d" transform="translate(1032.063 1832)" fill="#212429" font-size="18" font-family="SegoeUI-BoldItalic, Segoe UI" font-weight="700" font-style="italic" letter-spacing="0em"><tspan x="0" y="0">d</tspan></text>
      <text id="dL-3" data-name="dL" transform="translate(1027.063 1858)" fill="#212429" font-size="18" font-family="SegoeUI-BoldItalic, Segoe UI" font-weight="700" font-style="italic" letter-spacing="0em"><tspan x="0" y="0">dL</tspan></text>
      <path id="Trazado_1038784-3" data-name="Trazado 1038784" d="M2526.533,1495h36.338" transform="translate(-1506.533 345)" fill="none" stroke="#212429" stroke-width="1"/>
    </g>
    <path id="Trazado_1039157" data-name="Trazado 1039157" d="M-45.607-6.152h-8.561v-1.8h8.561Zm0,3.814h-8.561V-4.122h8.561Zm8.292,2.013V-2.7a5.181,5.181,0,0,0,2.751.791,2.584,2.584,0,0,0,1.718-.523,1.76,1.76,0,0,0,.62-1.419q0-1.872-2.646-1.872a19.59,19.59,0,0,0-2.25.149l.475-7.031h6.671v2.268h-4.553L-34.7-7.813q.677-.053,1.169-.053a4.3,4.3,0,0,1,3.041,1.02A3.56,3.56,0,0,1-29.4-4.1a4.048,4.048,0,0,1-1.31,3.116A5.032,5.032,0,0,1-34.257.22,7.6,7.6,0,0,1-37.315-.325ZM-23.1.22q-4.5,0-4.5-6.319a8.6,8.6,0,0,1,1.217-5,4.056,4.056,0,0,1,3.529-1.718q4.395,0,4.395,6.425a8.466,8.466,0,0,1-1.2,4.9A3.952,3.952,0,0,1-23.1.22Zm.123-10.916q-1.8,0-1.8,4.526,0,4.263,1.767,4.263,1.723,0,1.723-4.395T-22.978-10.7ZM-5.935,0H-9.52l-3.674-5.476a5.248,5.248,0,0,1-.334-.694h-.044V0h-2.839V-12.6h2.839v5.959h.044q.105-.246.352-.7L-9.7-12.6h3.384l-4.395,6.012Zm3.553-4.329H-3.7A6.431,6.431,0,0,1-5.36-8.815,6.843,6.843,0,0,1-3.7-13.352h1.312A7.368,7.368,0,0,0-3.945-8.815,7.126,7.126,0,0,0-2.381-4.329Zm4.354-9.187V-6H.357v-5.691a1.934,1.934,0,0,1-.315.223,3.255,3.255,0,0,1-.387.19,3.456,3.456,0,0,1-.426.144,3.108,3.108,0,0,1-.436.085v-1.364a6.736,6.736,0,0,0,1.189-.472,6.769,6.769,0,0,0,1.01-.631Zm6.553.164L4.942-4.78H3.5l3.568-8.572ZM9-6.241v-1.41a2.846,2.846,0,0,0,1.723.538,1.551,1.551,0,0,0,.966-.267.885.885,0,0,0,.346-.743.845.845,0,0,0-.428-.759,2.218,2.218,0,0,0-1.177-.267H9.751v-1.241h.631q1.435,0,1.435-.954,0-.9-1.1-.9a2.513,2.513,0,0,0-1.435.477v-1.323a3.965,3.965,0,0,1,1.8-.39,2.723,2.723,0,0,1,1.756.508,1.615,1.615,0,0,1,.628,1.318,1.713,1.713,0,0,1-1.461,1.8v.026a1.986,1.986,0,0,1,1.23.566A1.6,1.6,0,0,1,13.689-8.1a1.972,1.972,0,0,1-.754,1.63,3.258,3.258,0,0,1-2.081.6A4.023,4.023,0,0,1,9-6.241Zm6.845,1.912H14.536A7.084,7.084,0,0,0,16.1-8.815a7.35,7.35,0,0,0-1.569-4.537h1.323a6.843,6.843,0,0,1,1.661,4.537A6.444,6.444,0,0,1,15.848-4.329ZM27.267,0H19.762V-12.6H22.6V-2.3h4.667Zm4.045-4.329H29.99a6.431,6.431,0,0,1-1.656-4.486,6.843,6.843,0,0,1,1.656-4.537H31.3a7.368,7.368,0,0,0-1.553,4.537A7.126,7.126,0,0,0,31.313-4.329Zm3.626-3.907h-2.8V-9.368h2.8Zm4.974-5.28V-6H38.3v-5.691a1.934,1.934,0,0,1-.315.223,3.255,3.255,0,0,1-.387.19,3.456,3.456,0,0,1-.426.144,3.108,3.108,0,0,1-.436.085v-1.364a6.736,6.736,0,0,0,1.189-.472,6.769,6.769,0,0,0,1.01-.631Zm6.553.164L42.882-4.78H41.436L45-13.352Zm2.077,6.008h3.117V-6H46.769v-.554a2.577,2.577,0,0,1,.19-1.013,3.36,3.36,0,0,1,.477-.8A4.136,4.136,0,0,1,48.063-9q.341-.274.649-.495.323-.231.566-.441a3.228,3.228,0,0,0,.41-.418,1.588,1.588,0,0,0,.249-.42,1.25,1.25,0,0,0,.082-.454.912.912,0,0,0-.267-.713,1.185,1.185,0,0,0-.815-.241,2.738,2.738,0,0,0-1.815.754v-1.425a3.9,3.9,0,0,1,2.163-.62,3.2,3.2,0,0,1,1,.146,2.12,2.12,0,0,1,.751.418,1.782,1.782,0,0,1,.469.659,2.223,2.223,0,0,1,.161.864,2.436,2.436,0,0,1-.156.9,2.773,2.773,0,0,1-.415.718,3.767,3.767,0,0,1-.6.592q-.338.269-.7.52-.246.174-.474.346a4.5,4.5,0,0,0-.4.338,1.837,1.837,0,0,0-.277.326A.562.562,0,0,0,48.542-7.343Zm5.246,3.014H52.476a7.084,7.084,0,0,0,1.569-4.486,7.35,7.35,0,0,0-1.569-4.537H53.8a6.843,6.843,0,0,1,1.661,4.537A6.444,6.444,0,0,1,53.788-4.329Z" transform="translate(610 6811.995)" fill="#212429"/>
    <path id="Trazado_1039158" data-name="Trazado 1039158" d="M-88.286-6.152h-8.561v-1.8h8.561Zm0,3.814h-8.561V-4.122h8.561ZM-73.93-12.885V0H-76.7V-9.756a3.315,3.315,0,0,1-.541.382,5.58,5.58,0,0,1-.664.325,5.925,5.925,0,0,1-.729.246,5.328,5.328,0,0,1-.747.145V-11A11.549,11.549,0,0,0-77.34-11.8a11.6,11.6,0,0,0,1.731-1.081ZM-65.781.22q-4.5,0-4.5-6.319a8.6,8.6,0,0,1,1.217-5,4.056,4.056,0,0,1,3.529-1.718q4.395,0,4.395,6.425a8.466,8.466,0,0,1-1.2,4.9A3.952,3.952,0,0,1-65.781.22Zm.123-10.916q-1.8,0-1.8,4.526,0,4.263,1.767,4.263,1.723,0,1.723-4.395T-65.658-10.7ZM-55.426.22q-4.5,0-4.5-6.319a8.6,8.6,0,0,1,1.217-5,4.056,4.056,0,0,1,3.529-1.718q4.395,0,4.395,6.425a8.466,8.466,0,0,1-1.2,4.9A3.952,3.952,0,0,1-55.426.22ZM-55.3-10.7q-1.8,0-1.8,4.526,0,4.263,1.767,4.263,1.723,0,1.723-4.395T-55.3-10.7ZM-38.259,0h-3.586l-3.674-5.476a5.248,5.248,0,0,1-.334-.694H-45.9V0h-2.839V-12.6H-45.9v5.959h.044q.105-.246.352-.7l3.48-5.256h3.384l-4.395,6.012Zm3.553-4.329h-1.323a6.431,6.431,0,0,1-1.656-4.486,6.843,6.843,0,0,1,1.656-4.537h1.312a7.368,7.368,0,0,0-1.553,4.537A7.126,7.126,0,0,0-34.706-4.329Zm4.354-9.187V-6h-1.615v-5.691a1.934,1.934,0,0,1-.315.223,3.255,3.255,0,0,1-.387.19,3.456,3.456,0,0,1-.426.144,3.108,3.108,0,0,1-.436.085v-1.364a6.736,6.736,0,0,0,1.189-.472,6.769,6.769,0,0,0,1.01-.631Zm6.553.164L-27.383-4.78h-1.446l3.568-8.572Zm.478,7.111v-1.41a2.846,2.846,0,0,0,1.723.538,1.551,1.551,0,0,0,.966-.267.885.885,0,0,0,.346-.743.845.845,0,0,0-.428-.759,2.218,2.218,0,0,0-1.177-.267h-.682v-1.241h.631q1.435,0,1.435-.954,0-.9-1.1-.9a2.513,2.513,0,0,0-1.435.477v-1.323a3.965,3.965,0,0,1,1.8-.39,2.723,2.723,0,0,1,1.756.508,1.615,1.615,0,0,1,.628,1.318,1.713,1.713,0,0,1-1.461,1.8v.026a1.986,1.986,0,0,1,1.23.566A1.6,1.6,0,0,1-18.636-8.1a1.972,1.972,0,0,1-.754,1.63,3.258,3.258,0,0,1-2.081.6A4.023,4.023,0,0,1-23.321-6.241Zm6.845,1.912h-1.312A7.084,7.084,0,0,0-16.22-8.815a7.35,7.35,0,0,0-1.569-4.537h1.323A6.843,6.843,0,0,1-14.8-8.815,6.444,6.444,0,0,1-16.476-4.329Zm8.967,7.194H-9.777a11.026,11.026,0,0,1-2.839-7.69A11.731,11.731,0,0,1-9.777-12.6h2.25A12.632,12.632,0,0,0-10.19-4.825,12.216,12.216,0,0,0-7.509,2.865Zm7.464-15.75V0H-2.814V-9.756a3.315,3.315,0,0,1-.541.382,5.58,5.58,0,0,1-.664.325,5.925,5.925,0,0,1-.729.246,5.328,5.328,0,0,1-.747.145V-11A11.549,11.549,0,0,0-3.455-11.8a11.6,11.6,0,0,0,1.731-1.081Zm11.234.281L5.045,2.092H2.567L8.684-12.6ZM14.75-2.3h5.344V0H11.709V-.949a4.418,4.418,0,0,1,.325-1.736,5.76,5.76,0,0,1,.817-1.38,7.09,7.09,0,0,1,1.077-1.081q.584-.47,1.112-.848.554-.4.971-.756a5.534,5.534,0,0,0,.7-.716,2.723,2.723,0,0,0,.426-.721,2.143,2.143,0,0,0,.141-.778,1.563,1.563,0,0,0-.457-1.222,2.032,2.032,0,0,0-1.4-.413,4.694,4.694,0,0,0-3.111,1.292v-2.443a6.679,6.679,0,0,1,3.709-1.063,5.478,5.478,0,0,1,1.718.25,3.635,3.635,0,0,1,1.288.716,3.055,3.055,0,0,1,.8,1.129,3.811,3.811,0,0,1,.277,1.481,4.176,4.176,0,0,1-.268,1.547,4.753,4.753,0,0,1-.712,1.23,6.458,6.458,0,0,1-1.024,1.015q-.58.461-1.2.892-.422.3-.813.593a7.707,7.707,0,0,0-.69.58,3.149,3.149,0,0,0-.475.558A.963.963,0,0,0,14.75-2.3Zm8.993,5.168h-2.25a12.144,12.144,0,0,0,2.689-7.69A12.6,12.6,0,0,0,21.493-12.6h2.268a11.731,11.731,0,0,1,2.848,7.778A11.047,11.047,0,0,1,23.743,2.865ZM36.929,0H29.423V-12.6h2.839V-2.3h4.667Zm4.045-4.329H39.651A6.431,6.431,0,0,1,38-8.815a6.843,6.843,0,0,1,1.656-4.537h1.312A7.368,7.368,0,0,0,39.41-8.815,7.126,7.126,0,0,0,40.974-4.329ZM44.6-8.235H41.8V-9.368h2.8Zm4.974-5.28V-6H47.959v-5.691a1.934,1.934,0,0,1-.315.223,3.255,3.255,0,0,1-.387.19,3.456,3.456,0,0,1-.426.144,3.108,3.108,0,0,1-.436.085v-1.364a6.736,6.736,0,0,0,1.189-.472,6.769,6.769,0,0,0,1.01-.631Zm6.553.164L52.543-4.78H51.1l3.568-8.572ZM58.2-7.343h3.117V-6H56.43v-.554a2.577,2.577,0,0,1,.19-1.013,3.36,3.36,0,0,1,.477-.8A4.136,4.136,0,0,1,57.724-9q.341-.274.649-.495.323-.231.566-.441a3.228,3.228,0,0,0,.41-.418,1.588,1.588,0,0,0,.249-.42,1.25,1.25,0,0,0,.082-.454.912.912,0,0,0-.267-.713,1.185,1.185,0,0,0-.815-.241,2.738,2.738,0,0,0-1.815.754v-1.425a3.9,3.9,0,0,1,2.163-.62,3.2,3.2,0,0,1,1,.146,2.12,2.12,0,0,1,.751.418,1.782,1.782,0,0,1,.469.659,2.223,2.223,0,0,1,.161.864,2.436,2.436,0,0,1-.156.9,2.773,2.773,0,0,1-.415.718,3.767,3.767,0,0,1-.6.592q-.338.269-.7.52-.246.174-.474.346a4.5,4.5,0,0,0-.4.338,1.837,1.837,0,0,0-.277.326A.562.562,0,0,0,58.2-7.343Zm5.246,3.014H62.137a7.084,7.084,0,0,0,1.569-4.486,7.35,7.35,0,0,0-1.569-4.537H63.46a6.843,6.843,0,0,1,1.661,4.537A6.444,6.444,0,0,1,63.449-4.329Zm18.092.066H78.158V-.879H76.382V-4.263h-3.4V-6.047h3.4v-3.4h1.775v3.4h3.384ZM93.692.22q-4.5,0-4.5-6.319a8.6,8.6,0,0,1,1.217-5,4.056,4.056,0,0,1,3.529-1.718q4.395,0,4.395,6.425a8.466,8.466,0,0,1-1.2,4.9A3.952,3.952,0,0,1,93.692.22ZM93.815-10.7q-1.8,0-1.8,4.526,0,4.263,1.767,4.263Q95.5-1.907,95.5-6.3T93.815-10.7Z" transform="translate(610 6778.995)" fill="#212429"/>
  </g>
</svg>
