<svg xmlns="http://www.w3.org/2000/svg" width="233.984" height="39.544" viewBox="0 0 233.984 39.544">
  <g id="Grupo_1177797" data-name="Grupo 1177797" transform="translate(-474 -7717.593)">
    <path id="Trazado_1039159" data-name="Trazado 1039159" d="M-88.977-11.2A2.806,2.806,0,0,0-90-11.408q-1.336,0-1.336,1.45V-9h2.057v2.048h-2.057V0h-2.769V-6.952h-1.512V-9h1.512v-1.116a3.24,3.24,0,0,1,1-2.479,3.821,3.821,0,0,1,2.725-.94,4.785,4.785,0,0,1,1.406.176ZM-82.62,2.865h-2.268a11.026,11.026,0,0,1-2.839-7.69A11.731,11.731,0,0,1-84.888-12.6h2.25A12.632,12.632,0,0,0-85.3-4.825,12.216,12.216,0,0,0-82.62,2.865Zm10.144-3.894a5.092,5.092,0,0,1-1.45,3.88,5.877,5.877,0,0,1-4.2,1.375,6.659,6.659,0,0,1-2.883-.519V1.371a5.521,5.521,0,0,0,2.8.809,3.02,3.02,0,0,0,2.18-.743A2.665,2.665,0,0,0-75.253-.58v-.712h-.035A3.1,3.1,0,0,1-78.092.22,3.372,3.372,0,0,1-80.826-.993a4.919,4.919,0,0,1-1.011-3.252,5.478,5.478,0,0,1,1.125-3.63A3.673,3.673,0,0,1-77.749-9.22a2.733,2.733,0,0,1,2.461,1.266h.035V-9h2.777Zm-2.742-3.3v-.712a2.188,2.188,0,0,0-.505-1.455,1.635,1.635,0,0,0-1.314-.6,1.7,1.7,0,0,0-1.45.721,3.389,3.389,0,0,0-.527,2.03,2.86,2.86,0,0,0,.5,1.78,1.633,1.633,0,0,0,1.371.655,1.7,1.7,0,0,0,1.393-.664A2.721,2.721,0,0,0-75.218-4.324Zm10.39,7.189H-67.1a11.026,11.026,0,0,1-2.839-7.69A11.731,11.731,0,0,1-67.1-12.6h2.25a12.632,12.632,0,0,0-2.663,7.778A12.216,12.216,0,0,0-64.828,2.865ZM-54.815-9l-2.971,4.359L-54.833,0h-3.2l-1.3-2.426q-.158-.29-.378-.817h-.035a5.707,5.707,0,0,1-.36.791L-61.416,0h-3.19l3.041-4.482L-64.422-9H-61.2l1.283,2.522a5.532,5.532,0,0,1,.36.844h.035a5.946,5.946,0,0,1,.378-.861l1.31-2.5Zm2.489,11.865h-2.25a12.144,12.144,0,0,0,2.689-7.69A12.6,12.6,0,0,0-54.576-12.6h2.268a11.731,11.731,0,0,1,2.848,7.778A11.047,11.047,0,0,1-52.326,2.865Zm6.646,0h-2.25a12.144,12.144,0,0,0,2.689-7.69A12.6,12.6,0,0,0-47.93-12.6h2.268a11.731,11.731,0,0,1,2.848,7.778A11.047,11.047,0,0,1-45.68,2.865Zm19.858-9.018h-8.561v-1.8h8.561Zm0,3.814h-8.561V-4.122h8.561ZM-11.738-11.2a2.806,2.806,0,0,0-1.028-.211q-1.336,0-1.336,1.45V-9h2.057v2.048H-14.1V0h-2.769V-6.952h-1.512V-9h1.512v-1.116a3.24,3.24,0,0,1,1-2.479,3.821,3.821,0,0,1,2.725-.94,4.785,4.785,0,0,1,1.406.176Zm3.509-1.564v3.885h-2.109v-3.885ZM-.106,2.865H-2.374a11.026,11.026,0,0,1-2.839-7.69A11.731,11.731,0,0,1-2.374-12.6h2.25A12.632,12.632,0,0,0-2.787-4.825,12.216,12.216,0,0,0-.106,2.865ZM10.038-1.028a5.092,5.092,0,0,1-1.45,3.88,5.877,5.877,0,0,1-4.2,1.375A6.659,6.659,0,0,1,1.5,3.709V1.371a5.521,5.521,0,0,0,2.8.809,3.02,3.02,0,0,0,2.18-.743A2.665,2.665,0,0,0,7.261-.58v-.712H7.225A3.1,3.1,0,0,1,4.422.22,3.372,3.372,0,0,1,1.688-.993,4.919,4.919,0,0,1,.678-4.245,5.478,5.478,0,0,1,1.8-7.875,3.673,3.673,0,0,1,4.765-9.22,2.733,2.733,0,0,1,7.225-7.954h.035V-9h2.777ZM7.3-4.324v-.712A2.188,2.188,0,0,0,6.79-6.491a1.635,1.635,0,0,0-1.314-.6,1.7,1.7,0,0,0-1.45.721A3.389,3.389,0,0,0,3.5-4.342,2.86,2.86,0,0,0,4-2.562a1.633,1.633,0,0,0,1.371.655,1.7,1.7,0,0,0,1.393-.664A2.721,2.721,0,0,0,7.3-4.324Zm10.39,7.189H15.419a11.026,11.026,0,0,1-2.839-7.69A11.731,11.731,0,0,1,15.419-12.6h2.25a12.632,12.632,0,0,0-2.663,7.778A12.216,12.216,0,0,0,17.686,2.865ZM27.7-9,24.728-4.641,27.681,0h-3.2l-1.3-2.426q-.158-.29-.378-.817h-.035a5.707,5.707,0,0,1-.36.791L21.1,0h-3.19l3.041-4.482L18.092-9h3.217l1.283,2.522a5.532,5.532,0,0,1,.36.844h.035a5.946,5.946,0,0,1,.378-.861L24.675-9ZM30.188,2.865h-2.25a12.144,12.144,0,0,0,2.689-7.69A12.6,12.6,0,0,0,27.938-12.6h2.268a11.731,11.731,0,0,1,2.848,7.778A11.047,11.047,0,0,1,30.188,2.865Zm6.646,0h-2.25a12.144,12.144,0,0,0,2.689-7.69A12.6,12.6,0,0,0,34.584-12.6h2.268A11.731,11.731,0,0,1,39.7-4.825,11.047,11.047,0,0,1,36.834,2.865ZM52.243-7.271l-.743.738L49.767-8.276,48.024-6.533l-.743-.748L49.024-9l-1.743-1.743L48-11.491l1.764,1.743,1.753-1.743.713.774L50.5-9ZM66.355-1.028a5.092,5.092,0,0,1-1.45,3.88,5.877,5.877,0,0,1-4.2,1.375,6.659,6.659,0,0,1-2.883-.519V1.371a5.521,5.521,0,0,0,2.8.809,3.02,3.02,0,0,0,2.18-.743A2.665,2.665,0,0,0,63.578-.58v-.712h-.035A3.1,3.1,0,0,1,60.739.22,3.372,3.372,0,0,1,58.006-.993a4.919,4.919,0,0,1-1.011-3.252,5.478,5.478,0,0,1,1.125-3.63A3.673,3.673,0,0,1,61.082-9.22a2.733,2.733,0,0,1,2.461,1.266h.035V-9h2.777Zm-2.742-3.3v-.712a2.188,2.188,0,0,0-.505-1.455,1.635,1.635,0,0,0-1.314-.6,1.7,1.7,0,0,0-1.45.721,3.389,3.389,0,0,0-.527,2.03,2.86,2.86,0,0,0,.5,1.78,1.633,1.633,0,0,0,1.371.655,1.7,1.7,0,0,0,1.393-.664A2.721,2.721,0,0,0,63.613-4.324Zm7.543-8.437v3.885H69.046v-3.885ZM79.279,2.865H77.011a11.026,11.026,0,0,1-2.839-7.69A11.731,11.731,0,0,1,77.011-12.6h2.25A12.632,12.632,0,0,0,76.6-4.825,12.216,12.216,0,0,0,79.279,2.865ZM89.291-9,86.321-4.641,89.274,0h-3.2l-1.3-2.426q-.158-.29-.378-.817h-.035a5.707,5.707,0,0,1-.36.791L82.691,0H79.5l3.041-4.482L79.685-9H82.9l1.283,2.522a5.532,5.532,0,0,1,.36.844h.035a5.946,5.946,0,0,1,.378-.861L86.268-9ZM91.78,2.865H89.53a12.144,12.144,0,0,0,2.689-7.69A12.6,12.6,0,0,0,89.53-12.6H91.8a11.731,11.731,0,0,1,2.848,7.778A11.047,11.047,0,0,1,91.78,2.865Z" transform="translate(613.339 7742.376)" fill="#212429"/>
    <path id="Trazado_1039160" data-name="Trazado 1039160" d="M9.176-2.971q-.062.272-.119.659t-.105.8Q8.9-1.09,8.873-.69T8.842,0H6.029q0-.123.013-.33t.035-.426q.022-.22.044-.426t.031-.33H6.117a6.665,6.665,0,0,1-.567.7,3.671,3.671,0,0,1-.633.545,2.885,2.885,0,0,1-.734.356,2.825,2.825,0,0,1-.87.127A2.839,2.839,0,0,1,2.149-.009a2.372,2.372,0,0,1-.875-.664A2.985,2.985,0,0,1,.725-1.753,5.248,5.248,0,0,1,.536-3.226,6.584,6.584,0,0,1,.932-5.5,5.72,5.72,0,0,1,2.079-7.409,5.553,5.553,0,0,1,3.911-8.728,5.878,5.878,0,0,1,6.372-9.22q.352,0,.716.035t.593.079l.905-4.219h2.769ZM7.286-7.163a3.089,3.089,0,0,0-.444-.079,4.336,4.336,0,0,0-.47-.026,2.609,2.609,0,0,0-1.063.2,2.684,2.684,0,0,0-.8.532,3.144,3.144,0,0,0-.567.747,4.8,4.8,0,0,0-.365.844,5.075,5.075,0,0,0-.193.826,5.023,5.023,0,0,0-.057.7,2.442,2.442,0,0,0,.07.6,1.519,1.519,0,0,0,.207.479.961.961,0,0,0,.352.316,1.063,1.063,0,0,0,.505.114,1.41,1.41,0,0,0,.866-.286,2.793,2.793,0,0,0,.677-.747,5,5,0,0,0,.5-1.037,10.531,10.531,0,0,0,.334-1.156Z" transform="translate(486.062 7730.917)" fill="#212429"/>
    <path id="Trazado_1039161" data-name="Trazado 1039161" d="M9.176-2.971q-.062.272-.119.659t-.105.8Q8.9-1.09,8.873-.69T8.842,0H6.029q0-.123.013-.33t.035-.426q.022-.22.044-.426t.031-.33H6.117a6.665,6.665,0,0,1-.567.7,3.671,3.671,0,0,1-.633.545,2.885,2.885,0,0,1-.734.356,2.825,2.825,0,0,1-.87.127A2.839,2.839,0,0,1,2.149-.009a2.372,2.372,0,0,1-.875-.664A2.985,2.985,0,0,1,.725-1.753,5.248,5.248,0,0,1,.536-3.226,6.584,6.584,0,0,1,.932-5.5,5.72,5.72,0,0,1,2.079-7.409,5.553,5.553,0,0,1,3.911-8.728,5.878,5.878,0,0,1,6.372-9.22q.352,0,.716.035t.593.079l.905-4.219h2.769ZM7.286-7.163a3.089,3.089,0,0,0-.444-.079,4.336,4.336,0,0,0-.47-.026,2.609,2.609,0,0,0-1.063.2,2.684,2.684,0,0,0-.8.532,3.144,3.144,0,0,0-.567.747,4.8,4.8,0,0,0-.365.844,5.075,5.075,0,0,0-.193.826,5.023,5.023,0,0,0-.057.7,2.442,2.442,0,0,0,.07.6,1.519,1.519,0,0,0,.207.479.961.961,0,0,0,.352.316,1.063,1.063,0,0,0,.505.114,1.41,1.41,0,0,0,.866-.286,2.793,2.793,0,0,0,.677-.747,5,5,0,0,0,.5-1.037,10.531,10.531,0,0,0,.334-1.156ZM17.527-4.518l2,4.518H16.446l-.809-2.355q-.07-.2-.132-.435t-.114-.453h-.044q-.132.22-.264.448a3.233,3.233,0,0,1-.272.4L13.027,0H9.758l4.008-4.553L11.841-9h3.094l.738,2.373a3.671,3.671,0,0,1,.149.5q.062.268.088.444h.035q.105-.193.281-.453t.316-.453L18.3-9h3.155Z" transform="translate(481.062 7756.917)" fill="#212429"/>
    <path id="Trazado_1038784" data-name="Trazado 1038784" d="M2526.533,1495h36.338" transform="translate(-2052.533 6243.917)" fill="none" stroke="#212429" stroke-width="1"/>
  </g>
</svg>
