<svg xmlns="http://www.w3.org/2000/svg" width="241.562" height="144.189" viewBox="0 0 241.562 144.189">
  <g id="Grupo_1177798" data-name="Grupo 1177798" transform="translate(-471.39 -8146.676)">
    <path id="Trazado_1039170" data-name="Trazado 1039170" d="M-18.713,0h-2.769V-5.115q0-1.978-1.441-1.978a1.476,1.476,0,0,0-1.2.554,2.136,2.136,0,0,0-.457,1.406V0h-2.777V-13.324h2.777v5.66h.035A3.156,3.156,0,0,1-21.772-9.22q3.059,0,3.059,3.691Zm4.678-12.762v3.885h-2.109v-3.885ZM-5.912,2.865H-8.18a11.026,11.026,0,0,1-2.839-7.69A11.731,11.731,0,0,1-8.18-12.6h2.25A12.632,12.632,0,0,0-8.593-4.825,12.216,12.216,0,0,0-5.912,2.865ZM4.1-9,1.129-4.641,4.083,0H.883l-1.3-2.426q-.158-.29-.378-.817H-.831a5.707,5.707,0,0,1-.36.791L-2.5,0h-3.19L-2.65-4.482-5.506-9H-2.29l1.283,2.522a5.532,5.532,0,0,1,.36.844h.035A5.946,5.946,0,0,1-.233-6.5L1.077-9ZM6.589,2.865H4.339a12.144,12.144,0,0,0,2.689-7.69A12.6,12.6,0,0,0,4.339-12.6H6.607A11.731,11.731,0,0,1,9.454-4.825,11.047,11.047,0,0,1,6.589,2.865ZM26.447-6.152H17.887v-1.8h8.561Zm0,3.814H17.887V-4.122h8.561Z" transform="translate(531 8173)" fill="#212429"/>
    <path id="Trazado_1039171" data-name="Trazado 1039171" d="M-32.849,2.865h-2.268a11.026,11.026,0,0,1-2.839-7.69A11.731,11.731,0,0,1-35.117-12.6h2.25A12.632,12.632,0,0,0-35.53-4.825,12.216,12.216,0,0,0-32.849,2.865Zm1.18-3.278V-2.83a4.878,4.878,0,0,0,2.953.923,2.659,2.659,0,0,0,1.657-.457,1.517,1.517,0,0,0,.593-1.274,1.449,1.449,0,0,0-.734-1.3A3.8,3.8,0,0,0-29.217-5.4h-1.169V-7.523h1.081q2.461,0,2.461-1.635,0-1.538-1.89-1.538a4.308,4.308,0,0,0-2.461.817v-2.268a6.8,6.8,0,0,1,3.094-.668,4.669,4.669,0,0,1,3.01.87,2.769,2.769,0,0,1,1.077,2.259,2.937,2.937,0,0,1-2.5,3.094v.044a3.405,3.405,0,0,1,2.109.971A2.738,2.738,0,0,1-23.636-3.6,3.382,3.382,0,0,1-24.928-.809,5.586,5.586,0,0,1-28.5.22,6.9,6.9,0,0,1-31.67-.413ZM-12.481-9l-2.971,4.359L-12.5,0h-3.2L-17-2.426q-.158-.29-.378-.817h-.035a5.707,5.707,0,0,1-.36.791L-19.082,0h-3.19l3.041-4.482L-22.088-9h3.217l1.283,2.522a5.532,5.532,0,0,1,.36.844h.035a5.946,5.946,0,0,1,.378-.861L-15.5-9Zm2.28,1.657h3.117V-6h-4.891v-.554a2.577,2.577,0,0,1,.19-1.013,3.36,3.36,0,0,1,.477-.8A4.136,4.136,0,0,1-10.68-9q.341-.274.649-.495.323-.231.566-.441a3.228,3.228,0,0,0,.41-.418,1.588,1.588,0,0,0,.249-.42,1.25,1.25,0,0,0,.082-.454.912.912,0,0,0-.267-.713,1.185,1.185,0,0,0-.815-.241,2.738,2.738,0,0,0-1.815.754v-1.425a3.9,3.9,0,0,1,2.163-.62,3.2,3.2,0,0,1,1,.146,2.12,2.12,0,0,1,.751.418,1.782,1.782,0,0,1,.469.659,2.223,2.223,0,0,1,.161.864,2.436,2.436,0,0,1-.156.9,2.773,2.773,0,0,1-.415.718,3.767,3.767,0,0,1-.6.592q-.338.269-.7.52-.246.174-.474.346a4.5,4.5,0,0,0-.4.338,1.837,1.837,0,0,0-.277.326A.562.562,0,0,0-10.2-7.343ZM9.26-4.263H5.876V-.879H4.1V-4.263H.7V-6.047H4.1v-3.4H5.876v3.4H9.26Zm14.356-8.622V0H20.847V-9.756a3.315,3.315,0,0,1-.541.382,5.58,5.58,0,0,1-.664.325,5.925,5.925,0,0,1-.729.246,5.328,5.328,0,0,1-.747.145V-11a11.549,11.549,0,0,0,2.039-.809,11.6,11.6,0,0,0,1.731-1.081Zm5.451,15.75h-2.25a12.144,12.144,0,0,0,2.689-7.69A12.6,12.6,0,0,0,26.817-12.6h2.268a11.731,11.731,0,0,1,2.848,7.778A11.047,11.047,0,0,1,29.067,2.865ZM34.033-6.19V-7.574a3.022,3.022,0,0,0,1.6.461,1.507,1.507,0,0,0,1-.305A1.027,1.027,0,0,0,37-8.245q0-1.092-1.543-1.092a11.427,11.427,0,0,0-1.312.087l.277-4.1h3.891v1.323H35.658l-.1,1.471q.395-.031.682-.031a2.507,2.507,0,0,1,1.774.595,2.077,2.077,0,0,1,.641,1.6,2.361,2.361,0,0,1-.764,1.817,2.935,2.935,0,0,1-2.071.7A4.432,4.432,0,0,1,34.033-6.19Z" transform="translate(644 8173)" fill="#212429"/>
    <path id="Trazado_1039168" data-name="Trazado 1039168" d="M9.176-2.971q-.062.272-.119.659t-.105.8Q8.9-1.09,8.873-.69T8.842,0H6.029q0-.123.013-.33t.035-.426q.022-.22.044-.426t.031-.33H6.117a6.665,6.665,0,0,1-.567.7,3.671,3.671,0,0,1-.633.545,2.885,2.885,0,0,1-.734.356,2.825,2.825,0,0,1-.87.127A2.839,2.839,0,0,1,2.149-.009a2.372,2.372,0,0,1-.875-.664A2.985,2.985,0,0,1,.725-1.753,5.248,5.248,0,0,1,.536-3.226,6.584,6.584,0,0,1,.932-5.5,5.72,5.72,0,0,1,2.079-7.409,5.553,5.553,0,0,1,3.911-8.728,5.878,5.878,0,0,1,6.372-9.22q.352,0,.716.035t.593.079l.905-4.219h2.769ZM7.286-7.163a3.089,3.089,0,0,0-.444-.079,4.336,4.336,0,0,0-.47-.026,2.609,2.609,0,0,0-1.063.2,2.684,2.684,0,0,0-.8.532,3.144,3.144,0,0,0-.567.747,4.8,4.8,0,0,0-.365.844,5.075,5.075,0,0,0-.193.826,5.023,5.023,0,0,0-.057.7,2.442,2.442,0,0,0,.07.6,1.519,1.519,0,0,0,.207.479.961.961,0,0,0,.352.316,1.063,1.063,0,0,0,.505.114,1.41,1.41,0,0,0,.866-.286,2.793,2.793,0,0,0,.677-.747,5,5,0,0,0,.5-1.037,10.531,10.531,0,0,0,.334-1.156Z" transform="translate(574.723 8160)" fill="#212429"/>
    <path id="Trazado_1039169" data-name="Trazado 1039169" d="M9.176-2.971q-.062.272-.119.659t-.105.8Q8.9-1.09,8.873-.69T8.842,0H6.029q0-.123.013-.33t.035-.426q.022-.22.044-.426t.031-.33H6.117a6.665,6.665,0,0,1-.567.7,3.671,3.671,0,0,1-.633.545,2.885,2.885,0,0,1-.734.356,2.825,2.825,0,0,1-.87.127A2.839,2.839,0,0,1,2.149-.009a2.372,2.372,0,0,1-.875-.664A2.985,2.985,0,0,1,.725-1.753,5.248,5.248,0,0,1,.536-3.226,6.584,6.584,0,0,1,.932-5.5,5.72,5.72,0,0,1,2.079-7.409,5.553,5.553,0,0,1,3.911-8.728,5.878,5.878,0,0,1,6.372-9.22q.352,0,.716.035t.593.079l.905-4.219h2.769ZM7.286-7.163a3.089,3.089,0,0,0-.444-.079,4.336,4.336,0,0,0-.47-.026,2.609,2.609,0,0,0-1.063.2,2.684,2.684,0,0,0-.8.532,3.144,3.144,0,0,0-.567.747,4.8,4.8,0,0,0-.365.844,5.075,5.075,0,0,0-.193.826,5.023,5.023,0,0,0-.057.7,2.442,2.442,0,0,0,.07.6,1.519,1.519,0,0,0,.207.479.961.961,0,0,0,.352.316,1.063,1.063,0,0,0,.505.114,1.41,1.41,0,0,0,.866-.286,2.793,2.793,0,0,0,.677-.747,5,5,0,0,0,.5-1.037,10.531,10.531,0,0,0,.334-1.156ZM17.527-4.518l2,4.518H16.446l-.809-2.355q-.07-.2-.132-.435t-.114-.453h-.044q-.132.22-.264.448a3.233,3.233,0,0,1-.272.4L13.027,0H9.758l4.008-4.553L11.841-9h3.094l.738,2.373a3.671,3.671,0,0,1,.149.5q.062.268.088.444h.035q.105-.193.281-.453t.316-.453L18.3-9h3.155Z" transform="translate(569.723 8186)" fill="#212429"/>
    <path id="Trazado_1038784" data-name="Trazado 1038784" d="M2526.533,1495h36.338" transform="translate(-1963.872 6673)" fill="none" stroke="#212429" stroke-width="1"/>
    <path id="Trazado_1039164" data-name="Trazado 1039164" d="M-54.049-6.152H-62.61v-1.8h8.561Zm0,3.814H-62.61V-4.122h8.561Zm8.292,2.013V-2.7a5.181,5.181,0,0,0,2.751.791,2.584,2.584,0,0,0,1.718-.523,1.76,1.76,0,0,0,.62-1.419q0-1.872-2.646-1.872a19.59,19.59,0,0,0-2.25.149l.475-7.031h6.671v2.268h-4.553l-.176,2.522q.677-.053,1.169-.053a4.3,4.3,0,0,1,3.041,1.02,3.56,3.56,0,0,1,1.1,2.742,4.048,4.048,0,0,1-1.31,3.116A5.032,5.032,0,0,1-42.7.22,7.6,7.6,0,0,1-45.757-.325Zm15.6,3.19h-2.268a11.026,11.026,0,0,1-2.839-7.69A11.731,11.731,0,0,1-32.423-12.6h2.25a12.632,12.632,0,0,0-2.663,7.778A12.216,12.216,0,0,0-30.155,2.865Zm1.18-3.278V-2.83a4.878,4.878,0,0,0,2.953.923,2.659,2.659,0,0,0,1.657-.457,1.517,1.517,0,0,0,.593-1.274,1.449,1.449,0,0,0-.734-1.3A3.8,3.8,0,0,0-26.523-5.4h-1.169V-7.523h1.081q2.461,0,2.461-1.635,0-1.538-1.89-1.538a4.308,4.308,0,0,0-2.461.817v-2.268a6.8,6.8,0,0,1,3.094-.668,4.669,4.669,0,0,1,3.01.87A2.769,2.769,0,0,1-21.32-9.686a2.937,2.937,0,0,1-2.5,3.094v.044a3.405,3.405,0,0,1,2.109.971A2.738,2.738,0,0,1-20.942-3.6,3.382,3.382,0,0,1-22.234-.809,5.586,5.586,0,0,1-25.8.22,6.9,6.9,0,0,1-28.975-.413ZM-9.787-9l-2.971,4.359L-9.8,0H-13l-1.3-2.426q-.158-.29-.378-.817h-.035a5.707,5.707,0,0,1-.36.791L-16.388,0h-3.19l3.041-4.482L-19.394-9h3.217l1.283,2.522a5.532,5.532,0,0,1,.36.844h.035A5.946,5.946,0,0,1-14.12-6.5l1.31-2.5Zm2.28,1.657H-4.39V-6H-9.281v-.554a2.577,2.577,0,0,1,.19-1.013,3.36,3.36,0,0,1,.477-.8A4.136,4.136,0,0,1-7.986-9q.341-.274.649-.495.323-.231.566-.441a3.228,3.228,0,0,0,.41-.418,1.589,1.589,0,0,0,.249-.42,1.25,1.25,0,0,0,.082-.454.912.912,0,0,0-.267-.713,1.185,1.185,0,0,0-.815-.241,2.738,2.738,0,0,0-1.815.754v-1.425a3.9,3.9,0,0,1,2.163-.62,3.2,3.2,0,0,1,1,.146,2.12,2.12,0,0,1,.751.418,1.782,1.782,0,0,1,.469.659,2.223,2.223,0,0,1,.161.864,2.436,2.436,0,0,1-.156.9,2.773,2.773,0,0,1-.415.718,3.767,3.767,0,0,1-.6.592q-.338.269-.7.52-.246.174-.474.346a4.5,4.5,0,0,0-.4.338,1.837,1.837,0,0,0-.277.326A.562.562,0,0,0-7.507-7.343Zm19.461,3.08H8.57V-.879H6.795V-4.263h-3.4V-6.047h3.4v-3.4H8.57v3.4h3.384ZM26.31-12.885V0H23.542V-9.756A3.315,3.315,0,0,1,23-9.374a5.58,5.58,0,0,1-.664.325,5.925,5.925,0,0,1-.729.246,5.328,5.328,0,0,1-.747.145V-11A11.549,11.549,0,0,0,22.9-11.8a11.6,11.6,0,0,0,1.731-1.081Zm5.451,15.75h-2.25A12.144,12.144,0,0,0,32.2-4.825,12.6,12.6,0,0,0,29.511-12.6h2.268a11.731,11.731,0,0,1,2.848,7.778A11.047,11.047,0,0,1,31.761,2.865ZM40.88-13.352v4.635h.882v1.21H40.88V-6H39.4V-7.507H36.2V-8.774q.426-.477.882-1.043t.882-1.166q.426-.6.792-1.207a12.1,12.1,0,0,0,.623-1.161ZM37.65-8.717H39.4v-2.568q-.179.333-.39.674t-.441.672q-.231.331-.467.641T37.65-8.717ZM57.642-2.18,56.368-.914,53.4-3.9,50.409-.914,49.134-2.2,52.122-5.15,49.134-8.139l1.239-1.274L53.4-6.425,56.4-9.413l1.222,1.327L54.654-5.15Z" transform="translate(534 8218)" fill="#212429"/>
    <path id="Trazado_1039165" data-name="Trazado 1039165" d="M-29.829,2.865H-32.1a11.026,11.026,0,0,1-2.839-7.69A11.731,11.731,0,0,1-32.1-12.6h2.25a12.632,12.632,0,0,0-2.663,7.778A12.216,12.216,0,0,0-29.829,2.865Zm1.18-3.278V-2.83a4.878,4.878,0,0,0,2.953.923,2.659,2.659,0,0,0,1.657-.457,1.517,1.517,0,0,0,.593-1.274,1.449,1.449,0,0,0-.734-1.3A3.8,3.8,0,0,0-26.2-5.4h-1.169V-7.523h1.081q2.461,0,2.461-1.635,0-1.538-1.89-1.538a4.308,4.308,0,0,0-2.461.817v-2.268a6.8,6.8,0,0,1,3.094-.668,4.669,4.669,0,0,1,3.01.87,2.769,2.769,0,0,1,1.077,2.259,2.937,2.937,0,0,1-2.5,3.094v.044a3.405,3.405,0,0,1,2.109.971A2.738,2.738,0,0,1-20.616-3.6,3.382,3.382,0,0,1-21.908-.809,5.586,5.586,0,0,1-25.476.22,6.9,6.9,0,0,1-28.649-.413ZM-9.461-9l-2.971,4.359L-9.478,0h-3.2l-1.3-2.426q-.158-.29-.378-.817h-.035a5.707,5.707,0,0,1-.36.791L-16.061,0h-3.19l3.041-4.482L-19.067-9h3.217l1.283,2.522a5.532,5.532,0,0,1,.36.844h.035a5.946,5.946,0,0,1,.378-.861l1.31-2.5Zm2.28,1.657h3.117V-6H-8.954v-.554a2.577,2.577,0,0,1,.19-1.013,3.36,3.36,0,0,1,.477-.8A4.136,4.136,0,0,1-7.66-9q.341-.274.649-.495.323-.231.566-.441a3.228,3.228,0,0,0,.41-.418,1.589,1.589,0,0,0,.249-.42,1.25,1.25,0,0,0,.082-.454.912.912,0,0,0-.267-.713,1.185,1.185,0,0,0-.815-.241,2.738,2.738,0,0,0-1.815.754v-1.425a3.9,3.9,0,0,1,2.163-.62,3.2,3.2,0,0,1,1,.146,2.12,2.12,0,0,1,.751.418,1.782,1.782,0,0,1,.469.659,2.223,2.223,0,0,1,.161.864,2.436,2.436,0,0,1-.156.9,2.773,2.773,0,0,1-.415.718,3.767,3.767,0,0,1-.6.592q-.338.269-.7.52-.246.174-.474.346a4.5,4.5,0,0,0-.4.338,1.837,1.837,0,0,0-.277.326A.562.562,0,0,0-7.181-7.343ZM12.28-4.263H8.9V-.879H7.121V-4.263H3.72V-6.047h3.4v-3.4H8.9v3.4H12.28Zm14.356-8.622V0H23.868V-9.756a3.315,3.315,0,0,1-.541.382,5.58,5.58,0,0,1-.664.325,5.925,5.925,0,0,1-.729.246,5.328,5.328,0,0,1-.747.145V-11a11.549,11.549,0,0,0,2.039-.809,11.6,11.6,0,0,0,1.731-1.081Zm5.451,15.75h-2.25a12.144,12.144,0,0,0,2.689-7.69A12.6,12.6,0,0,0,29.837-12.6h2.268a11.731,11.731,0,0,1,2.848,7.778A11.047,11.047,0,0,1,32.087,2.865Z" transform="translate(678 8218)" fill="#212429"/>
    <path id="Trazado_1039166" data-name="Trazado 1039166" d="M9.176-2.971q-.062.272-.119.659t-.105.8Q8.9-1.09,8.873-.69T8.842,0H6.029q0-.123.013-.33t.035-.426q.022-.22.044-.426t.031-.33H6.117a6.665,6.665,0,0,1-.567.7,3.671,3.671,0,0,1-.633.545,2.885,2.885,0,0,1-.734.356,2.825,2.825,0,0,1-.87.127A2.839,2.839,0,0,1,2.149-.009a2.372,2.372,0,0,1-.875-.664A2.985,2.985,0,0,1,.725-1.753,5.248,5.248,0,0,1,.536-3.226,6.584,6.584,0,0,1,.932-5.5,5.72,5.72,0,0,1,2.079-7.409,5.553,5.553,0,0,1,3.911-8.728,5.878,5.878,0,0,1,6.372-9.22q.352,0,.716.035t.593.079l.905-4.219h2.769ZM7.286-7.163a3.089,3.089,0,0,0-.444-.079,4.336,4.336,0,0,0-.47-.026,2.609,2.609,0,0,0-1.063.2,2.684,2.684,0,0,0-.8.532,3.144,3.144,0,0,0-.567.747,4.8,4.8,0,0,0-.365.844,5.075,5.075,0,0,0-.193.826,5.023,5.023,0,0,0-.057.7,2.442,2.442,0,0,0,.07.6,1.519,1.519,0,0,0,.207.479.961.961,0,0,0,.352.316,1.063,1.063,0,0,0,.505.114,1.41,1.41,0,0,0,.866-.286,2.793,2.793,0,0,0,.677-.747,5,5,0,0,0,.5-1.037,10.531,10.531,0,0,0,.334-1.156Z" transform="translate(612.062 8204)" fill="#212429"/>
    <path id="Trazado_1039167" data-name="Trazado 1039167" d="M9.176-2.971q-.062.272-.119.659t-.105.8Q8.9-1.09,8.873-.69T8.842,0H6.029q0-.123.013-.33t.035-.426q.022-.22.044-.426t.031-.33H6.117a6.665,6.665,0,0,1-.567.7,3.671,3.671,0,0,1-.633.545,2.885,2.885,0,0,1-.734.356,2.825,2.825,0,0,1-.87.127A2.839,2.839,0,0,1,2.149-.009a2.372,2.372,0,0,1-.875-.664A2.985,2.985,0,0,1,.725-1.753,5.248,5.248,0,0,1,.536-3.226,6.584,6.584,0,0,1,.932-5.5,5.72,5.72,0,0,1,2.079-7.409,5.553,5.553,0,0,1,3.911-8.728,5.878,5.878,0,0,1,6.372-9.22q.352,0,.716.035t.593.079l.905-4.219h2.769ZM7.286-7.163a3.089,3.089,0,0,0-.444-.079,4.336,4.336,0,0,0-.47-.026,2.609,2.609,0,0,0-1.063.2,2.684,2.684,0,0,0-.8.532,3.144,3.144,0,0,0-.567.747,4.8,4.8,0,0,0-.365.844,5.075,5.075,0,0,0-.193.826,5.023,5.023,0,0,0-.057.7,2.442,2.442,0,0,0,.07.6,1.519,1.519,0,0,0,.207.479.961.961,0,0,0,.352.316,1.063,1.063,0,0,0,.505.114,1.41,1.41,0,0,0,.866-.286,2.793,2.793,0,0,0,.677-.747,5,5,0,0,0,.5-1.037,10.531,10.531,0,0,0,.334-1.156ZM17.527-4.518l2,4.518H16.446l-.809-2.355q-.07-.2-.132-.435t-.114-.453h-.044q-.132.22-.264.448a3.233,3.233,0,0,1-.272.4L13.027,0H9.758l4.008-4.553L11.841-9h3.094l.738,2.373a3.671,3.671,0,0,1,.149.5q.062.268.088.444h.035q.105-.193.281-.453t.316-.453L18.3-9h3.155Z" transform="translate(607.062 8230)" fill="#212429"/>
    <path id="Trazado_1038784-2" data-name="Trazado 1038784" d="M2526.533,1495h36.338" transform="translate(-1926.533 6717)" fill="none" stroke="#212429" stroke-width="1"/>
    <path id="Trazado_1039163" data-name="Trazado 1039163" d="M-64.2-6.152h-8.561v-1.8H-64.2Zm0,3.814h-8.561V-4.122H-64.2Zm8.292,2.013V-2.7a5.181,5.181,0,0,0,2.751.791,2.584,2.584,0,0,0,1.718-.523,1.76,1.76,0,0,0,.62-1.419q0-1.872-2.646-1.872a19.59,19.59,0,0,0-2.25.149l.475-7.031h6.671v2.268H-53.12L-53.3-7.813q.677-.053,1.169-.053a4.3,4.3,0,0,1,3.041,1.02,3.56,3.56,0,0,1,1.1,2.742A4.048,4.048,0,0,1-49.3-.989,5.032,5.032,0,0,1-52.848.22,7.6,7.6,0,0,1-55.906-.325Zm15.6,3.19h-2.268a11.026,11.026,0,0,1-2.839-7.69A11.731,11.731,0,0,1-42.571-12.6h2.25a12.632,12.632,0,0,0-2.663,7.778A12.216,12.216,0,0,0-40.3,2.865Zm1.18-3.278V-2.83a4.878,4.878,0,0,0,2.953.923,2.659,2.659,0,0,0,1.657-.457,1.517,1.517,0,0,0,.593-1.274,1.449,1.449,0,0,0-.734-1.3A3.8,3.8,0,0,0-36.672-5.4h-1.169V-7.523h1.081q2.461,0,2.461-1.635,0-1.538-1.89-1.538a4.308,4.308,0,0,0-2.461.817v-2.268a6.8,6.8,0,0,1,3.094-.668,4.669,4.669,0,0,1,3.01.87,2.769,2.769,0,0,1,1.077,2.259,2.937,2.937,0,0,1-2.5,3.094v.044a3.405,3.405,0,0,1,2.109.971A2.738,2.738,0,0,1-31.091-3.6,3.382,3.382,0,0,1-32.383-.809,5.586,5.586,0,0,1-35.951.22,6.9,6.9,0,0,1-39.124-.413ZM-19.936-9l-2.971,4.359L-19.953,0h-3.2l-1.3-2.426q-.158-.29-.378-.817h-.035a5.707,5.707,0,0,1-.36.791L-26.536,0h-3.19l3.041-4.482L-29.542-9h3.217l1.283,2.522a5.532,5.532,0,0,1,.36.844h.035a5.946,5.946,0,0,1,.378-.861l1.31-2.5Zm2.28,1.657h3.117V-6h-4.891v-.554a2.577,2.577,0,0,1,.19-1.013,3.36,3.36,0,0,1,.477-.8A4.136,4.136,0,0,1-18.135-9q.341-.274.649-.495.323-.231.566-.441a3.228,3.228,0,0,0,.41-.418,1.588,1.588,0,0,0,.249-.42,1.25,1.25,0,0,0,.082-.454.912.912,0,0,0-.267-.713,1.185,1.185,0,0,0-.815-.241,2.738,2.738,0,0,0-1.815.754v-1.425a3.9,3.9,0,0,1,2.163-.62,3.2,3.2,0,0,1,1,.146,2.12,2.12,0,0,1,.751.418,1.782,1.782,0,0,1,.469.659,2.223,2.223,0,0,1,.161.864,2.436,2.436,0,0,1-.156.9,2.773,2.773,0,0,1-.415.718,3.767,3.767,0,0,1-.6.592q-.338.269-.7.52-.246.174-.474.346a4.5,4.5,0,0,0-.4.338,1.837,1.837,0,0,0-.277.326A.562.562,0,0,0-17.656-7.343ZM1.805-4.263H-1.579V-.879H-3.354V-4.263h-3.4V-6.047h3.4v-3.4h1.775v3.4H1.805Zm14.356-8.622V0H13.393V-9.756a3.315,3.315,0,0,1-.541.382,5.58,5.58,0,0,1-.664.325,5.925,5.925,0,0,1-.729.246,5.328,5.328,0,0,1-.747.145V-11a11.549,11.549,0,0,0,2.039-.809,11.6,11.6,0,0,0,1.731-1.081Zm5.451,15.75h-2.25a12.144,12.144,0,0,0,2.689-7.69A12.6,12.6,0,0,0,19.362-12.6H21.63a11.731,11.731,0,0,1,2.848,7.778A11.047,11.047,0,0,1,21.612,2.865Zm9.119-16.217v4.635h.882v1.21h-.882V-6H29.255V-7.507h-3.2V-8.774q.426-.477.882-1.043t.882-1.166q.426-.6.792-1.207a12.1,12.1,0,0,0,.623-1.161ZM27.5-8.717h1.753v-2.568q-.179.333-.39.674t-.441.672q-.231.331-.467.641T27.5-8.717ZM47.493-2.18,46.219-.914,43.248-3.9,40.26-.914,38.985-2.2,41.974-5.15,38.985-8.139l1.239-1.274,3.023,2.988,3.006-2.988,1.222,1.327L44.5-5.15ZM64.31-4.192a4.62,4.62,0,0,1-.325,1.74,4.248,4.248,0,0,1-.905,1.4,4.189,4.189,0,0,1-1.38.932A4.443,4.443,0,0,1,59.951.22a4.412,4.412,0,0,1-1.9-.4,3.841,3.841,0,0,1-1.419-1.147,5.363,5.363,0,0,1-.888-1.841,9.1,9.1,0,0,1-.308-2.47,10.168,10.168,0,0,1,.4-2.949,6.77,6.77,0,0,1,1.143-2.263,5.132,5.132,0,0,1,1.8-1.455,5.345,5.345,0,0,1,2.373-.514,5.986,5.986,0,0,1,2.268.343v2.32a4.158,4.158,0,0,0-2.092-.545,2.923,2.923,0,0,0-1.274.272,2.817,2.817,0,0,0-.98.773,3.74,3.74,0,0,0-.642,1.208,5.378,5.378,0,0,0-.25,1.578h.053A3.057,3.057,0,0,1,60.874-8.1a3.447,3.447,0,0,1,1.415.281,3.07,3.07,0,0,1,1.081.8,3.649,3.649,0,0,1,.694,1.235A4.927,4.927,0,0,1,64.31-4.192Zm-2.716.176q0-2.03-1.661-2.03a1.63,1.63,0,0,0-.686.141,1.525,1.525,0,0,0-.527.4,1.8,1.8,0,0,0-.338.6,2.366,2.366,0,0,0-.119.769,2.974,2.974,0,0,0,.123.87,2.311,2.311,0,0,0,.347.708,1.719,1.719,0,0,0,.532.479,1.357,1.357,0,0,0,.686.176,1.484,1.484,0,0,0,.681-.154,1.525,1.525,0,0,0,.519-.431,1.979,1.979,0,0,0,.33-.668A3.047,3.047,0,0,0,61.594-4.017ZM74.771-9,71.8-4.641,74.753,0h-3.2l-1.3-2.426q-.158-.29-.378-.817H69.84a5.707,5.707,0,0,1-.36.791L68.17,0H64.98l3.041-4.482L65.165-9h3.217l1.283,2.522a5.532,5.532,0,0,1,.36.844h.035a5.946,5.946,0,0,1,.378-.861L71.748-9Z" transform="translate(593 8257)" fill="#212429"/>
    <path id="Trazado_1039162" data-name="Trazado 1039162" d="M-52.866-6.152h-8.561v-1.8h8.561Zm0,3.814h-8.561V-4.122h8.561Zm8.072,1.925V-2.83a4.878,4.878,0,0,0,2.953.923,2.659,2.659,0,0,0,1.657-.457,1.517,1.517,0,0,0,.593-1.274,1.449,1.449,0,0,0-.734-1.3A3.8,3.8,0,0,0-42.342-5.4h-1.169V-7.523h1.081q2.461,0,2.461-1.635,0-1.538-1.89-1.538a4.308,4.308,0,0,0-2.461.817v-2.268a6.8,6.8,0,0,1,3.094-.668,4.669,4.669,0,0,1,3.01.87,2.769,2.769,0,0,1,1.077,2.259,2.937,2.937,0,0,1-2.5,3.094v.044a3.405,3.405,0,0,1,2.109.971A2.738,2.738,0,0,1-36.761-3.6,3.382,3.382,0,0,1-38.053-.809,5.586,5.586,0,0,1-41.622.22,6.9,6.9,0,0,1-44.794-.413ZM-30.361.22q-4.5,0-4.5-6.319a8.6,8.6,0,0,1,1.217-5,4.056,4.056,0,0,1,3.529-1.718q4.395,0,4.395,6.425a8.466,8.466,0,0,1-1.2,4.9A3.952,3.952,0,0,1-30.361.22Zm.123-10.916q-1.8,0-1.8,4.526,0,4.263,1.767,4.263,1.723,0,1.723-4.395T-30.238-10.7ZM-15.251-9l-2.971,4.359L-15.268,0h-3.2l-1.3-2.426q-.158-.29-.378-.817h-.035a5.707,5.707,0,0,1-.36.791L-21.851,0h-3.19L-22-4.482-24.857-9h3.217l1.283,2.522a5.532,5.532,0,0,1,.36.844h.035a5.946,5.946,0,0,1,.378-.861l1.31-2.5ZM-8.675,2.865h-2.268a11.026,11.026,0,0,1-2.839-7.69A11.731,11.731,0,0,1-10.942-12.6h2.25a12.632,12.632,0,0,0-2.663,7.778A12.216,12.216,0,0,0-8.675,2.865ZM-7.5-.413V-2.83a4.878,4.878,0,0,0,2.953.923,2.659,2.659,0,0,0,1.657-.457,1.517,1.517,0,0,0,.593-1.274,1.449,1.449,0,0,0-.734-1.3A3.8,3.8,0,0,0-5.043-5.4H-6.212V-7.523h1.081q2.461,0,2.461-1.635,0-1.538-1.89-1.538a4.308,4.308,0,0,0-2.461.817v-2.268a6.8,6.8,0,0,1,3.094-.668,4.669,4.669,0,0,1,3.01.87A2.769,2.769,0,0,1,.16-9.686a2.937,2.937,0,0,1-2.5,3.094v.044a3.405,3.405,0,0,1,2.109.971A2.738,2.738,0,0,1,.538-3.6,3.382,3.382,0,0,1-.754-.809,5.586,5.586,0,0,1-4.322.22,6.9,6.9,0,0,1-7.5-.413ZM11.693-9,8.722-4.641,11.676,0h-3.2l-1.3-2.426q-.158-.29-.378-.817H6.762a5.707,5.707,0,0,1-.36.791L5.093,0H1.9L4.943-4.482,2.087-9H5.3L6.587-6.478a5.532,5.532,0,0,1,.36.844h.035A5.946,5.946,0,0,1,7.36-6.5L8.67-9Zm2.28,1.657H17.09V-6H12.2v-.554a2.577,2.577,0,0,1,.19-1.013,3.36,3.36,0,0,1,.477-.8A4.136,4.136,0,0,1,13.494-9q.341-.274.649-.495.323-.231.566-.441a3.228,3.228,0,0,0,.41-.418,1.588,1.588,0,0,0,.249-.42,1.25,1.25,0,0,0,.082-.454.912.912,0,0,0-.267-.713,1.185,1.185,0,0,0-.815-.241,2.738,2.738,0,0,0-1.815.754v-1.425a3.9,3.9,0,0,1,2.163-.62,3.2,3.2,0,0,1,1,.146,2.12,2.12,0,0,1,.751.418,1.782,1.782,0,0,1,.469.659,2.223,2.223,0,0,1,.161.864,2.436,2.436,0,0,1-.156.9,2.773,2.773,0,0,1-.415.718,3.767,3.767,0,0,1-.6.592q-.338.269-.7.52-.246.174-.474.346a4.5,4.5,0,0,0-.4.338,1.837,1.837,0,0,0-.277.326A.562.562,0,0,0,13.973-7.343Zm19.461,3.08H30.05V-.879H28.275V-4.263h-3.4V-6.047h3.4v-3.4H30.05v3.4h3.384ZM47.79-12.885V0H45.022V-9.756a3.315,3.315,0,0,1-.541.382,5.58,5.58,0,0,1-.664.325,5.925,5.925,0,0,1-.729.246,5.328,5.328,0,0,1-.747.145V-11A11.549,11.549,0,0,0,44.38-11.8a11.6,11.6,0,0,0,1.731-1.081Zm5.451,15.75h-2.25a12.144,12.144,0,0,0,2.689-7.69A12.6,12.6,0,0,0,50.991-12.6h2.268a11.731,11.731,0,0,1,2.848,7.778A11.047,11.047,0,0,1,53.241,2.865ZM62.36-13.352v4.635h.882v1.21H62.36V-6H60.884V-7.507h-3.2V-8.774q.426-.477.882-1.043t.882-1.166q.426-.6.792-1.207a12.1,12.1,0,0,0,.623-1.161ZM59.13-8.717h1.753v-2.568q-.179.333-.39.674t-.441.672q-.231.331-.467.641T59.13-8.717Z" transform="translate(593 8288)" fill="#212429"/>
  </g>
</svg>
