<svg xmlns="http://www.w3.org/2000/svg" width="279.938" height="88.14" viewBox="0 0 279.938 88.14">
  <g id="Grupo_1177797" data-name="Grupo 1177797" transform="translate(-449.845 -9831.793)">
    <path id="Trazado_1039162" data-name="Trazado 1039162" d="M-21.329-.448a8.311,8.311,0,0,1-3.6.668,6.074,6.074,0,0,1-4.562-1.705,6.233,6.233,0,0,1-1.661-4.544,6.659,6.659,0,0,1,1.868-4.9,6.533,6.533,0,0,1,4.847-1.881,9.065,9.065,0,0,1,3.111.466v2.733a5.513,5.513,0,0,0-2.883-.756,3.824,3.824,0,0,0-2.865,1.116,4.142,4.142,0,0,0-1.09,3.023,4.062,4.062,0,0,0,1.028,2.914A3.633,3.633,0,0,0-24.37-2.232a5.905,5.905,0,0,0,3.041-.809Zm4.405-12.313v3.885h-2.109v-3.885ZM-8.8,2.865h-2.268a11.026,11.026,0,0,1-2.839-7.69A11.731,11.731,0,0,1-11.068-12.6h2.25a12.632,12.632,0,0,0-2.663,7.778A12.216,12.216,0,0,0-8.8,2.865ZM1.326,4.14H-1.451V-1.239h-.035A3.085,3.085,0,0,1-4.255.22,3.446,3.446,0,0,1-6.984-.962,4.881,4.881,0,0,1-8.017-4.28,5.394,5.394,0,0,1-6.883-7.875,3.679,3.679,0,0,1-3.93-9.22,2.678,2.678,0,0,1-1.486-7.954h.035V-9H1.326ZM-1.4-4.3v-.721A2.2,2.2,0,0,0-1.908-6.5a1.643,1.643,0,0,0-1.31-.6,1.7,1.7,0,0,0-1.45.725A3.359,3.359,0,0,0-5.2-4.359a2.835,2.835,0,0,0,.514,1.8,1.629,1.629,0,0,0,1.34.65A1.722,1.722,0,0,0-1.93-2.566,2.673,2.673,0,0,0-1.4-4.3Zm6.3,7.163H2.655a12.144,12.144,0,0,0,2.689-7.69A12.6,12.6,0,0,0,2.655-12.6H4.923A11.731,11.731,0,0,1,7.77-4.825,11.047,11.047,0,0,1,4.905,2.865ZM24.763-6.152H16.2v-1.8h8.561Zm0,3.814H16.2V-4.122h8.561Z" transform="translate(481 9863.793)" fill="#212429"/>
    <path id="Trazado_1039163" data-name="Trazado 1039163" d="M6.029,2.865H1.907V-12.6H6.029v1.767H4.192V1.1H6.029Zm7.93-15.75V0H11.19V-9.756a3.315,3.315,0,0,1-.541.382,5.58,5.58,0,0,1-.664.325,5.925,5.925,0,0,1-.729.246,5.328,5.328,0,0,1-.747.145V-11a11.549,11.549,0,0,0,2.039-.809,11.6,11.6,0,0,0,1.731-1.081ZM22.108.22q-4.5,0-4.5-6.319a8.6,8.6,0,0,1,1.217-5,4.056,4.056,0,0,1,3.529-1.718q4.395,0,4.395,6.425a8.466,8.466,0,0,1-1.2,4.9A3.952,3.952,0,0,1,22.108.22ZM22.231-10.7q-1.8,0-1.8,4.526,0,4.263,1.767,4.263,1.723,0,1.723-4.395T22.231-10.7ZM32.463.22q-4.5,0-4.5-6.319a8.6,8.6,0,0,1,1.217-5,4.056,4.056,0,0,1,3.529-1.718q4.395,0,4.395,6.425a8.466,8.466,0,0,1-1.2,4.9A3.952,3.952,0,0,1,32.463.22ZM32.586-10.7q-1.8,0-1.8,4.526,0,4.263,1.767,4.263,1.723,0,1.723-4.395T32.586-10.7ZM42.819.22q-4.5,0-4.5-6.319a8.6,8.6,0,0,1,1.217-5,4.056,4.056,0,0,1,3.529-1.718q4.395,0,4.395,6.425a8.466,8.466,0,0,1-1.2,4.9A3.952,3.952,0,0,1,42.819.22ZM42.942-10.7q-1.8,0-1.8,4.526,0,4.263,1.767,4.263,1.723,0,1.723-4.395T42.942-10.7ZM63.688-4.263H60.3V-.879H58.528V-4.263h-3.4V-6.047h3.4v-3.4H60.3v3.4h3.384ZM71.979-.325V-2.7a5.181,5.181,0,0,0,2.751.791,2.584,2.584,0,0,0,1.718-.523,1.76,1.76,0,0,0,.62-1.419q0-1.872-2.646-1.872a19.59,19.59,0,0,0-2.25.149l.475-7.031h6.671v2.268H74.765L74.59-7.813q.677-.053,1.169-.053A4.3,4.3,0,0,1,78.8-6.847,3.56,3.56,0,0,1,79.9-4.1a4.048,4.048,0,0,1-1.31,3.116A5.032,5.032,0,0,1,75.038.22,7.6,7.6,0,0,1,71.979-.325ZM86.193.22q-4.5,0-4.5-6.319a8.6,8.6,0,0,1,1.217-5,4.056,4.056,0,0,1,3.529-1.718q4.395,0,4.395,6.425a8.466,8.466,0,0,1-1.2,4.9A3.952,3.952,0,0,1,86.193.22ZM86.316-10.7q-1.8,0-1.8,4.526,0,4.263,1.767,4.263Q88-1.907,88-6.3T86.316-10.7Zm15.1,14.836H98.64V-1.239H98.6A3.085,3.085,0,0,1,95.836.22,3.446,3.446,0,0,1,93.107-.962,4.881,4.881,0,0,1,92.075-4.28a5.394,5.394,0,0,1,1.134-3.595A3.679,3.679,0,0,1,96.162-9.22,2.678,2.678,0,0,1,98.6-7.954h.035V-9h2.777ZM98.693-4.3v-.721a2.2,2.2,0,0,0-.51-1.477,1.643,1.643,0,0,0-1.31-.6,1.7,1.7,0,0,0-1.45.725A3.359,3.359,0,0,0,94.9-4.359a2.835,2.835,0,0,0,.514,1.8,1.629,1.629,0,0,0,1.34.65,1.722,1.722,0,0,0,1.411-.659A2.673,2.673,0,0,0,98.693-4.3Zm19.515.035h-3.384V-.879h-1.775V-4.263h-3.4V-6.047h3.4v-3.4h1.775v3.4h3.384ZM130.358.22q-4.5,0-4.5-6.319a8.6,8.6,0,0,1,1.217-5,4.056,4.056,0,0,1,3.529-1.718Q135-12.814,135-6.39a8.466,8.466,0,0,1-1.2,4.9A3.952,3.952,0,0,1,130.358.22Zm.123-10.916q-1.8,0-1.8,4.526,0,4.263,1.767,4.263,1.723,0,1.723-4.395T130.481-10.7ZM138.015.22A1.62,1.62,0,0,1,136.873-.2a1.356,1.356,0,0,1-.457-1.037,1.306,1.306,0,0,1,.47-1.037,1.736,1.736,0,0,1,1.173-.4,1.671,1.671,0,0,1,1.165.409,1.331,1.331,0,0,1,.453,1.033,1.339,1.339,0,0,1-.461,1.05A1.742,1.742,0,0,1,138.015.22Zm9.784-13.1V0h-2.769V-9.756a3.315,3.315,0,0,1-.541.382,5.58,5.58,0,0,1-.664.325,5.925,5.925,0,0,1-.729.246,5.328,5.328,0,0,1-.747.145V-11a11.549,11.549,0,0,0,2.039-.809,11.6,11.6,0,0,0,1.731-1.081ZM160.818,4.14H158.04V-1.239h-.035A3.085,3.085,0,0,1,155.237.22a3.446,3.446,0,0,1-2.729-1.182,4.881,4.881,0,0,1-1.033-3.318,5.394,5.394,0,0,1,1.134-3.595,3.679,3.679,0,0,1,2.953-1.345,2.678,2.678,0,0,1,2.443,1.266h.035V-9h2.777ZM158.093-4.3v-.721a2.2,2.2,0,0,0-.51-1.477,1.643,1.643,0,0,0-1.31-.6,1.7,1.7,0,0,0-1.45.725,3.359,3.359,0,0,0-.527,2.008,2.835,2.835,0,0,0,.514,1.8,1.629,1.629,0,0,0,1.34.65,1.722,1.722,0,0,0,1.411-.659A2.673,2.673,0,0,0,158.093-4.3Zm6.095-3.045H167.3V-6h-4.891v-.554a2.577,2.577,0,0,1,.19-1.013,3.36,3.36,0,0,1,.477-.8A4.136,4.136,0,0,1,163.708-9q.341-.274.649-.495.323-.231.566-.441a3.228,3.228,0,0,0,.41-.418,1.588,1.588,0,0,0,.249-.42,1.25,1.25,0,0,0,.082-.454.912.912,0,0,0-.267-.713,1.185,1.185,0,0,0-.815-.241,2.738,2.738,0,0,0-1.815.754v-1.425a3.9,3.9,0,0,1,2.163-.62,3.2,3.2,0,0,1,1,.146,2.12,2.12,0,0,1,.751.418,1.782,1.782,0,0,1,.469.659,2.223,2.223,0,0,1,.161.864,2.436,2.436,0,0,1-.156.9,2.773,2.773,0,0,1-.415.718,3.767,3.767,0,0,1-.6.592q-.338.269-.7.52-.246.174-.474.346a4.5,4.5,0,0,0-.4.338,1.837,1.837,0,0,0-.277.326A.562.562,0,0,0,164.188-7.343Zm8.6,10.208h-4.14V1.1H170.5V-10.837h-1.854V-12.6h4.14Z" transform="translate(557 9863.793)" fill="#212429"/>
    <g id="Grupo_1177728" data-name="Grupo 1177728" transform="translate(-507.339 8018.793)">
      <text id="d" transform="translate(1032.063 1832)" fill="#212429" font-size="18" font-family="SegoeUI-BoldItalic, Segoe UI" font-weight="700" font-style="italic" letter-spacing="0em"><tspan x="0" y="0">d</tspan></text>
      <text id="dp" transform="translate(1027.063 1858)" fill="#212429" font-size="18" font-family="SegoeUI-BoldItalic, Segoe UI" font-weight="700" font-style="italic" letter-spacing="0em"><tspan x="0" y="0">dp</tspan></text>
      <path id="Trazado_1038784" data-name="Trazado 1038784" d="M2526.533,1495h36.338" transform="translate(-1506.533 345)" fill="none" stroke="#212429" stroke-width="1"/>
    </g>
    <path id="Trazado_1039164" data-name="Trazado 1039164" d="M10.652-6.152H2.092v-1.8h8.561Zm0,3.814H2.092V-4.122h8.561ZM18.944-.325V-2.7a5.181,5.181,0,0,0,2.751.791,2.584,2.584,0,0,0,1.718-.523,1.76,1.76,0,0,0,.62-1.419q0-1.872-2.646-1.872a19.59,19.59,0,0,0-2.25.149l.475-7.031h6.671v2.268H21.73l-.176,2.522q.677-.053,1.169-.053a4.3,4.3,0,0,1,3.041,1.02,3.56,3.56,0,0,1,1.1,2.742,4.048,4.048,0,0,1-1.31,3.116A5.032,5.032,0,0,1,22,.22,7.6,7.6,0,0,1,18.944-.325ZM33.158.22q-4.5,0-4.5-6.319a8.6,8.6,0,0,1,1.217-5A4.056,4.056,0,0,1,33.4-12.814q4.395,0,4.395,6.425a8.466,8.466,0,0,1-1.2,4.9A3.952,3.952,0,0,1,33.158.22ZM33.281-10.7q-1.8,0-1.8,4.526,0,4.263,1.767,4.263,1.723,0,1.723-4.395T33.281-10.7ZM54.027-4.263H50.643V-.879H48.867V-4.263h-3.4V-6.047h3.4v-3.4h1.775v3.4h3.384ZM66.177.22q-4.5,0-4.5-6.319a8.6,8.6,0,0,1,1.217-5,4.056,4.056,0,0,1,3.529-1.718q4.395,0,4.395,6.425a8.466,8.466,0,0,1-1.2,4.9A3.952,3.952,0,0,1,66.177.22ZM66.3-10.7q-1.8,0-1.8,4.526,0,4.263,1.767,4.263,1.723,0,1.723-4.395T66.3-10.7ZM73.834.22A1.62,1.62,0,0,1,72.691-.2a1.356,1.356,0,0,1-.457-1.037,1.306,1.306,0,0,1,.47-1.037,1.736,1.736,0,0,1,1.173-.4,1.671,1.671,0,0,1,1.165.409,1.331,1.331,0,0,1,.453,1.033,1.339,1.339,0,0,1-.461,1.05A1.742,1.742,0,0,1,73.834.22ZM80.076-2.3H85.42V0H77.035V-.949a4.418,4.418,0,0,1,.325-1.736,5.76,5.76,0,0,1,.817-1.38,7.09,7.09,0,0,1,1.077-1.081q.584-.47,1.112-.848.554-.4.971-.756a5.534,5.534,0,0,0,.7-.716,2.723,2.723,0,0,0,.426-.721,2.143,2.143,0,0,0,.141-.778,1.563,1.563,0,0,0-.457-1.222,2.032,2.032,0,0,0-1.4-.413,4.694,4.694,0,0,0-3.111,1.292v-2.443a6.679,6.679,0,0,1,3.709-1.063,5.478,5.478,0,0,1,1.718.25,3.635,3.635,0,0,1,1.288.716,3.055,3.055,0,0,1,.8,1.129,3.811,3.811,0,0,1,.277,1.481,4.176,4.176,0,0,1-.268,1.547,4.753,4.753,0,0,1-.712,1.23,6.458,6.458,0,0,1-1.024,1.015q-.58.461-1.2.892-.422.3-.813.593a7.707,7.707,0,0,0-.69.58,3.149,3.149,0,0,0-.475.558A.963.963,0,0,0,80.076-2.3ZM96.636,4.14H93.859V-1.239h-.035A3.085,3.085,0,0,1,91.055.22,3.446,3.446,0,0,1,88.326-.962,4.881,4.881,0,0,1,87.293-4.28a5.394,5.394,0,0,1,1.134-3.595A3.679,3.679,0,0,1,91.38-9.22a2.678,2.678,0,0,1,2.443,1.266h.035V-9h2.777ZM93.912-4.3v-.721A2.2,2.2,0,0,0,93.4-6.5a1.643,1.643,0,0,0-1.31-.6,1.7,1.7,0,0,0-1.45.725,3.359,3.359,0,0,0-.527,2.008,2.835,2.835,0,0,0,.514,1.8,1.629,1.629,0,0,0,1.34.65,1.722,1.722,0,0,0,1.411-.659A2.673,2.673,0,0,0,93.912-4.3Z" transform="translate(546 9915.793)" fill="#212429"/>
  </g>
</svg>
