<svg xmlns="http://www.w3.org/2000/svg" width="133.271" height="39.544" viewBox="0 0 133.271 39.544">
  <g id="Grupo_1177794" data-name="Grupo 1177794" transform="translate(-524.001 -1464.676)">
    <path id="Trazado_1039130" data-name="Trazado 1039130" d="M9.861-9,6.891-4.641,9.844,0h-3.2l-1.3-2.426q-.158-.29-.378-.817H4.931a5.707,5.707,0,0,1-.36.791L3.261,0H.07L3.111-4.482.255-9H3.472L4.755-6.478a5.532,5.532,0,0,1,.36.844H5.15A5.946,5.946,0,0,1,5.528-6.5L6.838-9Zm5.833,3H14.079V-8.917q0-1.22-.872-1.22a.865.865,0,0,0-.692.323,1.23,1.23,0,0,0-.272.82V-6h-1.62v-5.25h1.62v.831h.021a1.856,1.856,0,0,1,1.687-.959q1.743,0,1.743,2.163Zm16.221-.152H23.355v-1.8h8.561Zm0,3.814H23.355V-4.122h8.561ZM48.82,0H46.052V-5q0-2.092-1.494-2.092a1.483,1.483,0,0,0-1.187.554,2.109,2.109,0,0,0-.466,1.406V0H40.128V-9h2.777v1.424h.035A3.183,3.183,0,0,1,45.832-9.22q2.988,0,2.988,3.709ZM55.6-11.25,53.87-8.707,55.592-6H53.726l-.759-1.415q-.092-.169-.22-.477h-.021a3.329,3.329,0,0,1-.21.461L51.752-6H49.891l1.774-2.615L50-11.25h1.876l.748,1.471a3.227,3.227,0,0,1,.21.492h.021a3.468,3.468,0,0,1,.22-.5l.764-1.461Zm8.8,6.921H63.083a6.431,6.431,0,0,1-1.656-4.486,6.843,6.843,0,0,1,1.656-4.537H64.4a7.368,7.368,0,0,0-1.553,4.537A7.126,7.126,0,0,0,64.406-4.329ZM70.246-6H68.631V-8.917q0-1.22-.872-1.22a.865.865,0,0,0-.692.323,1.23,1.23,0,0,0-.272.82V-6h-1.62v-5.25H66.8v.831h.021a1.856,1.856,0,0,1,1.687-.959q1.743,0,1.743,2.163Zm4.138-2.235h-2.8V-9.368h2.8Zm4.974-5.28V-6H77.743v-5.691a1.934,1.934,0,0,1-.315.223,3.255,3.255,0,0,1-.387.19,3.456,3.456,0,0,1-.426.144,3.108,3.108,0,0,1-.436.085v-1.364a6.736,6.736,0,0,0,1.189-.472,6.768,6.768,0,0,0,1.01-.631Zm3.18,9.187H81.225a7.084,7.084,0,0,0,1.569-4.486,7.35,7.35,0,0,0-1.569-4.537h1.323a6.843,6.843,0,0,1,1.661,4.537A6.444,6.444,0,0,1,82.538-4.329Z" transform="translate(573.063 1489)" fill="#212429"/>
    <path id="Trazado_1039131" data-name="Trazado 1039131" d="M9.176-2.971q-.062.272-.119.659t-.105.8Q8.9-1.09,8.873-.69T8.842,0H6.029q0-.123.013-.33t.035-.426q.022-.22.044-.426t.031-.33H6.117a6.665,6.665,0,0,1-.567.7,3.671,3.671,0,0,1-.633.545,2.885,2.885,0,0,1-.734.356,2.825,2.825,0,0,1-.87.127A2.839,2.839,0,0,1,2.149-.009a2.372,2.372,0,0,1-.875-.664A2.985,2.985,0,0,1,.725-1.753,5.248,5.248,0,0,1,.536-3.226,6.584,6.584,0,0,1,.932-5.5,5.72,5.72,0,0,1,2.079-7.409,5.553,5.553,0,0,1,3.911-8.728,5.878,5.878,0,0,1,6.372-9.22q.352,0,.716.035t.593.079l.905-4.219h2.769ZM7.286-7.163a3.089,3.089,0,0,0-.444-.079,4.336,4.336,0,0,0-.47-.026,2.609,2.609,0,0,0-1.063.2,2.684,2.684,0,0,0-.8.532,3.144,3.144,0,0,0-.567.747,4.8,4.8,0,0,0-.365.844,5.075,5.075,0,0,0-.193.826,5.023,5.023,0,0,0-.057.7,2.442,2.442,0,0,0,.07.6,1.519,1.519,0,0,0,.207.479.961.961,0,0,0,.352.316,1.063,1.063,0,0,0,.505.114,1.41,1.41,0,0,0,.866-.286,2.793,2.793,0,0,0,.677-.747,5,5,0,0,0,.5-1.037,10.531,10.531,0,0,0,.334-1.156Z" transform="translate(536.063 1478)" fill="#212429"/>
    <path id="Trazado_1039132" data-name="Trazado 1039132" d="M9.176-2.971q-.062.272-.119.659t-.105.8Q8.9-1.09,8.873-.69T8.842,0H6.029q0-.123.013-.33t.035-.426q.022-.22.044-.426t.031-.33H6.117a6.665,6.665,0,0,1-.567.7,3.671,3.671,0,0,1-.633.545,2.885,2.885,0,0,1-.734.356,2.825,2.825,0,0,1-.87.127A2.839,2.839,0,0,1,2.149-.009a2.372,2.372,0,0,1-.875-.664A2.985,2.985,0,0,1,.725-1.753,5.248,5.248,0,0,1,.536-3.226,6.584,6.584,0,0,1,.932-5.5,5.72,5.72,0,0,1,2.079-7.409,5.553,5.553,0,0,1,3.911-8.728,5.878,5.878,0,0,1,6.372-9.22q.352,0,.716.035t.593.079l.905-4.219h2.769ZM7.286-7.163a3.089,3.089,0,0,0-.444-.079,4.336,4.336,0,0,0-.47-.026,2.609,2.609,0,0,0-1.063.2,2.684,2.684,0,0,0-.8.532,3.144,3.144,0,0,0-.567.747,4.8,4.8,0,0,0-.365.844,5.075,5.075,0,0,0-.193.826,5.023,5.023,0,0,0-.057.7,2.442,2.442,0,0,0,.07.6,1.519,1.519,0,0,0,.207.479.961.961,0,0,0,.352.316,1.063,1.063,0,0,0,.505.114,1.41,1.41,0,0,0,.866-.286,2.793,2.793,0,0,0,.677-.747,5,5,0,0,0,.5-1.037,10.531,10.531,0,0,0,.334-1.156ZM17.527-4.518l2,4.518H16.446l-.809-2.355q-.07-.2-.132-.435t-.114-.453h-.044q-.132.22-.264.448a3.233,3.233,0,0,1-.272.4L13.027,0H9.758l4.008-4.553L11.841-9h3.094l.738,2.373a3.671,3.671,0,0,1,.149.5q.062.268.088.444h.035q.105-.193.281-.453t.316-.453L18.3-9h3.155Z" transform="translate(531.063 1504)" fill="#212429"/>
    <path id="Trazado_1038783" data-name="Trazado 1038783" d="M2526.533,1495h36.338" transform="translate(-2002.532 -9)" fill="none" stroke="#212429" stroke-width="1"/>
  </g>
</svg>
