<svg xmlns="http://www.w3.org/2000/svg" width="239.659" height="39.544" viewBox="0 0 239.659 39.544">
  <g id="Grupo_1177795" data-name="Grupo 1177795" transform="translate(-471.089 -1596.676)">
    <path id="Trazado_1039133" data-name="Trazado 1039133" d="M9.861-9,6.891-4.641,9.844,0h-3.2l-1.3-2.426q-.158-.29-.378-.817H4.931a5.707,5.707,0,0,1-.36.791L3.261,0H.07L3.111-4.482.255-9H3.472L4.755-6.478a5.532,5.532,0,0,1,.36.844H5.15A5.946,5.946,0,0,1,5.528-6.5L6.838-9Zm.809,2.81V-7.574a3.022,3.022,0,0,0,1.6.461,1.507,1.507,0,0,0,1-.305,1.027,1.027,0,0,0,.361-.828q0-1.092-1.543-1.092a11.427,11.427,0,0,0-1.312.087l.277-4.1h3.891v1.323H12.3l-.1,1.471q.395-.031.682-.031a2.507,2.507,0,0,1,1.774.595,2.077,2.077,0,0,1,.641,1.6,2.361,2.361,0,0,1-.764,1.817,2.935,2.935,0,0,1-2.071.7A4.432,4.432,0,0,1,10.67-6.19ZM31.6-6.152H23.042v-1.8H31.6Zm0,3.814H23.042V-4.122H31.6ZM39.894-.325V-2.7a5.181,5.181,0,0,0,2.751.791,2.584,2.584,0,0,0,1.718-.523,1.76,1.76,0,0,0,.62-1.419q0-1.872-2.646-1.872a19.59,19.59,0,0,0-2.25.149l.475-7.031h6.671v2.268H42.68L42.5-7.813q.677-.053,1.169-.053a4.3,4.3,0,0,1,3.041,1.02,3.56,3.56,0,0,1,1.1,2.742A4.048,4.048,0,0,1,46.5-.989,5.032,5.032,0,0,1,42.953.22,7.6,7.6,0,0,1,39.894-.325ZM58.863-9,55.892-4.641,58.845,0h-3.2l-1.3-2.426q-.158-.29-.378-.817h-.035a5.707,5.707,0,0,1-.36.791L52.262,0h-3.19l3.041-4.482L49.256-9h3.217l1.283,2.522a5.532,5.532,0,0,1,.36.844h.035A5.946,5.946,0,0,1,54.53-6.5L55.839-9Zm3.87,4.671H61.41a6.431,6.431,0,0,1-1.656-4.486,6.843,6.843,0,0,1,1.656-4.537h1.312a7.368,7.368,0,0,0-1.553,4.537A7.126,7.126,0,0,0,62.732-4.329Zm.816-1.861V-7.574a3.022,3.022,0,0,0,1.6.461,1.507,1.507,0,0,0,1-.305,1.027,1.027,0,0,0,.361-.828q0-1.092-1.543-1.092a11.427,11.427,0,0,0-1.312.087l.277-4.1h3.891v1.323H65.174l-.1,1.471q.395-.031.682-.031a2.507,2.507,0,0,1,1.774.595,2.077,2.077,0,0,1,.641,1.6A2.361,2.361,0,0,1,67.4-6.577a2.935,2.935,0,0,1-2.071.7A4.432,4.432,0,0,1,63.548-6.19ZM72.4-8.235h-2.8V-9.368h2.8Zm4.974-5.28V-6H75.757v-5.691a1.934,1.934,0,0,1-.315.223,3.255,3.255,0,0,1-.387.19,3.456,3.456,0,0,1-.426.144,3.108,3.108,0,0,1-.436.085v-1.364a6.736,6.736,0,0,0,1.189-.472,6.768,6.768,0,0,0,1.01-.631Zm3.18,9.187H79.239a7.084,7.084,0,0,0,1.569-4.486,7.35,7.35,0,0,0-1.569-4.537h1.323a6.843,6.843,0,0,1,1.661,4.537A6.444,6.444,0,0,1,80.552-4.329ZM98.644-6.152H90.083v-1.8h8.561Zm0,3.814H90.083V-4.122h8.561Zm8.292,2.013V-2.7a5.181,5.181,0,0,0,2.751.791A2.584,2.584,0,0,0,111.4-2.43a1.76,1.76,0,0,0,.62-1.419q0-1.872-2.646-1.872a19.59,19.59,0,0,0-2.25.149L107.6-12.6h6.671v2.268h-4.553l-.176,2.522q.677-.053,1.169-.053a4.3,4.3,0,0,1,3.041,1.02,3.56,3.56,0,0,1,1.1,2.742,4.048,4.048,0,0,1-1.31,3.116A5.032,5.032,0,0,1,109.994.22,7.6,7.6,0,0,1,106.935-.325ZM125.9-9l-2.971,4.359L125.886,0h-3.2l-1.3-2.426q-.158-.29-.378-.817h-.035a5.707,5.707,0,0,1-.36.791L119.3,0h-3.19l3.041-4.482L116.3-9h3.217L120.8-6.478a5.532,5.532,0,0,1,.36.844h.035a5.946,5.946,0,0,1,.378-.861L122.88-9Zm4.961-4.352v4.635h.882v1.21h-.882V-6h-1.476V-7.507h-3.2V-8.774q.426-.477.882-1.043t.882-1.166q.426-.6.792-1.207a12.1,12.1,0,0,0,.623-1.161Zm-3.23,4.635h1.753v-2.568q-.179.333-.39.674t-.441.672q-.231.331-.467.641T127.636-8.717Z" transform="translate(579.001 1621)" fill="#212429"/>
    <path id="Trazado_1039134" data-name="Trazado 1039134" d="M8.262-11.162a4.521,4.521,0,0,0-.541-.171,2.336,2.336,0,0,0-.576-.075,1.277,1.277,0,0,0-.958.343,2.233,2.233,0,0,0-.5,1.072L5.476-9H7.523L7.093-6.952H5L2.865,2.988H.088l2.127-9.94H.686L1.134-9H2.646l.29-1.292a4.155,4.155,0,0,1,1.375-2.443,4.268,4.268,0,0,1,2.729-.8,5.861,5.861,0,0,1,.9.07,4.976,4.976,0,0,1,.751.167Zm3.131,2.285H9.635L9.38-12.762h2.3ZM20.429-12.6a24.113,24.113,0,0,0-1.894,2.224,14.978,14.978,0,0,0-1.468,2.386,12.788,12.788,0,0,0-.945,2.61,12.165,12.165,0,0,0-.334,2.9,12.409,12.409,0,0,0,.075,1.345A12.894,12.894,0,0,0,16.088.224a10.612,10.612,0,0,0,.382,1.327,7.808,7.808,0,0,0,.558,1.217H14.875a7.383,7.383,0,0,1-.646-1.261A11.242,11.242,0,0,1,13.767.092a11.957,11.957,0,0,1-.277-1.459,11.249,11.249,0,0,1-.092-1.4,12.4,12.4,0,0,1,.316-2.83,12.4,12.4,0,0,1,.914-2.588,12.975,12.975,0,0,1,1.459-2.338A16.04,16.04,0,0,1,18.039-12.6Zm5.117,8.086L27.55,0H24.465l-.809-2.355q-.07-.2-.132-.435t-.114-.453h-.044q-.132.22-.264.448a3.233,3.233,0,0,1-.272.4L21.046,0h-3.27l4.008-4.553L19.86-9h3.094l.738,2.373a3.671,3.671,0,0,1,.149.5q.062.268.088.444h.035q.105-.193.281-.453t.316-.453L26.32-9h3.155Zm8.3-2.54a12.4,12.4,0,0,1-.316,2.83,12.155,12.155,0,0,1-.918,2.584A13.236,13.236,0,0,1,31.147.69,16.376,16.376,0,0,1,29.2,2.769h-2.4A23.6,23.6,0,0,0,28.7.558a15.049,15.049,0,0,0,1.472-2.382,12.629,12.629,0,0,0,.949-2.61,12.165,12.165,0,0,0,.334-2.9,12.409,12.409,0,0,0-.075-1.345,12.894,12.894,0,0,0-.224-1.367,10.35,10.35,0,0,0-.387-1.332,8.4,8.4,0,0,0-.562-1.23h2.162a7.383,7.383,0,0,1,.646,1.261,11.152,11.152,0,0,1,.461,1.419,12.133,12.133,0,0,1,.277,1.463A11.249,11.249,0,0,1,33.845-7.058Zm8.591.905v-1.8h8.552v1.8Zm0,3.814V-4.122h8.552v1.784Z" transform="translate(471.001 1621)" fill="#212429"/>
    <path id="Trazado_1039135" data-name="Trazado 1039135" d="M9.176-2.971q-.062.272-.119.659t-.105.8Q8.9-1.09,8.873-.69T8.842,0H6.029q0-.123.013-.33t.035-.426q.022-.22.044-.426t.031-.33H6.117a6.665,6.665,0,0,1-.567.7,3.671,3.671,0,0,1-.633.545,2.885,2.885,0,0,1-.734.356,2.825,2.825,0,0,1-.87.127A2.839,2.839,0,0,1,2.149-.009a2.372,2.372,0,0,1-.875-.664A2.985,2.985,0,0,1,.725-1.753,5.248,5.248,0,0,1,.536-3.226,6.584,6.584,0,0,1,.932-5.5,5.72,5.72,0,0,1,2.079-7.409,5.553,5.553,0,0,1,3.911-8.728,5.878,5.878,0,0,1,6.372-9.22q.352,0,.716.035t.593.079l.905-4.219h2.769ZM7.286-7.163a3.089,3.089,0,0,0-.444-.079,4.336,4.336,0,0,0-.47-.026,2.609,2.609,0,0,0-1.063.2,2.684,2.684,0,0,0-.8.532,3.144,3.144,0,0,0-.567.747,4.8,4.8,0,0,0-.365.844,5.075,5.075,0,0,0-.193.826,5.023,5.023,0,0,0-.057.7,2.442,2.442,0,0,0,.07.6,1.519,1.519,0,0,0,.207.479.961.961,0,0,0,.352.316,1.063,1.063,0,0,0,.505.114,1.41,1.41,0,0,0,.866-.286,2.793,2.793,0,0,0,.677-.747,5,5,0,0,0,.5-1.037,10.531,10.531,0,0,0,.334-1.156Z" transform="translate(542.001 1610)" fill="#212429"/>
    <path id="Trazado_1039136" data-name="Trazado 1039136" d="M9.176-2.971q-.062.272-.119.659t-.105.8Q8.9-1.09,8.873-.69T8.842,0H6.029q0-.123.013-.33t.035-.426q.022-.22.044-.426t.031-.33H6.117a6.665,6.665,0,0,1-.567.7,3.671,3.671,0,0,1-.633.545,2.885,2.885,0,0,1-.734.356,2.825,2.825,0,0,1-.87.127A2.839,2.839,0,0,1,2.149-.009a2.372,2.372,0,0,1-.875-.664A2.985,2.985,0,0,1,.725-1.753,5.248,5.248,0,0,1,.536-3.226,6.584,6.584,0,0,1,.932-5.5,5.72,5.72,0,0,1,2.079-7.409,5.553,5.553,0,0,1,3.911-8.728,5.878,5.878,0,0,1,6.372-9.22q.352,0,.716.035t.593.079l.905-4.219h2.769ZM7.286-7.163a3.089,3.089,0,0,0-.444-.079,4.336,4.336,0,0,0-.47-.026,2.609,2.609,0,0,0-1.063.2,2.684,2.684,0,0,0-.8.532,3.144,3.144,0,0,0-.567.747,4.8,4.8,0,0,0-.365.844,5.075,5.075,0,0,0-.193.826,5.023,5.023,0,0,0-.057.7,2.442,2.442,0,0,0,.07.6,1.519,1.519,0,0,0,.207.479.961.961,0,0,0,.352.316,1.063,1.063,0,0,0,.505.114,1.41,1.41,0,0,0,.866-.286,2.793,2.793,0,0,0,.677-.747,5,5,0,0,0,.5-1.037,10.531,10.531,0,0,0,.334-1.156ZM17.527-4.518l2,4.518H16.446l-.809-2.355q-.07-.2-.132-.435t-.114-.453h-.044q-.132.22-.264.448a3.233,3.233,0,0,1-.272.4L13.027,0H9.758l4.008-4.553L11.841-9h3.094l.738,2.373a3.671,3.671,0,0,1,.149.5q.062.268.088.444h.035q.105-.193.281-.453t.316-.453L18.3-9h3.155Z" transform="translate(537.001 1636)" fill="#212429"/>
    <path id="Trazado_1038783" data-name="Trazado 1038783" d="M2526.533,1495h36.338" transform="translate(-1996.594 123)" fill="none" stroke="#212429" stroke-width="1"/>
  </g>
</svg>
