<svg xmlns="http://www.w3.org/2000/svg" width="243.836" height="50" viewBox="0 0 243.836 50">
  <g id="Grupo_1177801" data-name="Grupo 1177801" transform="translate(-625.158 -2733)">
    <path id="Contenido" d="M11.021-12.6,6.354,0H4.729L.158-12.6H1.8L5.291-2.61a5.934,5.934,0,0,1,.255,1.116h.035a5.475,5.475,0,0,1,.29-1.134L9.431-12.6Zm2.867,0v3.929H12.614V-12.6ZM20.561,2.865H19.278a11.232,11.232,0,0,1-2.725-7.673,11.658,11.658,0,0,1,2.725-7.8h1.3a11.845,11.845,0,0,0-2.76,7.778A11.638,11.638,0,0,0,20.561,2.865ZM26.39-.088a2.779,2.779,0,0,1-1.345.281q-2.364,0-2.364-2.637V-7.77H21.134V-9h1.547v-2.2l1.441-.466V-9H26.39v1.23H24.123V-2.7a2.1,2.1,0,0,0,.308,1.292,1.228,1.228,0,0,0,1.02.387,1.515,1.515,0,0,0,.94-.3Zm1.962,2.953H27.069a11.638,11.638,0,0,0,2.742-7.69,11.845,11.845,0,0,0-2.76-7.778h1.3a11.611,11.611,0,0,1,2.742,7.8A11.188,11.188,0,0,1,28.352,2.865Zm19.173-9.4H39.263V-7.7h8.262Zm0,3.744H39.263v-1.16h8.262Z" transform="translate(625 2765)" fill="#212429"/>
    <path id="Contenido-2" data-name="Contenido" d="M4.992,2.865H1.758V-12.6H4.992v1.046H3.041V1.819H4.992ZM11.8,0H10.355V-10.89a3.336,3.336,0,0,1-.488.382,7.951,7.951,0,0,1-.721.426q-.4.211-.844.4a6.132,6.132,0,0,1-.866.29v-1.459a8.379,8.379,0,0,0,1.006-.356q.532-.224,1.046-.5t.971-.58a7.711,7.711,0,0,0,.791-.593H11.8ZM24.1-6.354a12.381,12.381,0,0,1-.286,2.8,6.533,6.533,0,0,1-.826,2.061A3.718,3.718,0,0,1,21.664-.215,3.633,3.633,0,0,1,19.876.22,3.393,3.393,0,0,1,18.184-.2a3.546,3.546,0,0,1-1.252-1.217,6.17,6.17,0,0,1-.773-1.964,12.146,12.146,0,0,1-.264-2.667,13.749,13.749,0,0,1,.277-2.918,6.674,6.674,0,0,1,.813-2.123,3.619,3.619,0,0,1,1.332-1.292,3.739,3.739,0,0,1,1.824-.435Q24.1-12.814,24.1-6.354Zm-1.477.141q0-5.379-2.558-5.379-2.7,0-2.7,5.476,0,5.106,2.646,5.106Q22.627-1.011,22.627-6.214Zm11.181-.141a12.381,12.381,0,0,1-.286,2.8A6.533,6.533,0,0,1,32.7-1.49,3.718,3.718,0,0,1,31.369-.215,3.633,3.633,0,0,1,29.581.22,3.393,3.393,0,0,1,27.889-.2a3.546,3.546,0,0,1-1.252-1.217,6.17,6.17,0,0,1-.773-1.964A12.146,12.146,0,0,1,25.6-6.047a13.749,13.749,0,0,1,.277-2.918,6.674,6.674,0,0,1,.813-2.123,3.619,3.619,0,0,1,1.332-1.292,3.739,3.739,0,0,1,1.824-.435Q33.808-12.814,33.808-6.354Zm-1.477.141q0-5.379-2.558-5.379-2.7,0-2.7,5.476,0,5.106,2.646,5.106Q32.332-1.011,32.332-6.214Zm17.45,1.556H46.231v3.542H45.062V-4.658H41.52V-5.836h3.542V-9.378h1.169v3.542h3.551Zm15.464.809a4.242,4.242,0,0,1-.316,1.67,3.651,3.651,0,0,1-.9,1.283,4.034,4.034,0,0,1-1.411.826A5.517,5.517,0,0,1,60.78.22a5.074,5.074,0,0,1-2.61-.527V-1.837a4.8,4.8,0,0,0,2.628.826,3.556,3.556,0,0,0,1.235-.2,2.744,2.744,0,0,0,.936-.562,2.408,2.408,0,0,0,.593-.87,2.945,2.945,0,0,0,.207-1.116,2.391,2.391,0,0,0-.826-1.929,3.623,3.623,0,0,0-2.4-.7q-.255,0-.536.009t-.562.022q-.281.013-.549.031t-.488.044l.431-6.319h5.827v1.3H60.086l-.255,3.7q.281-.018.6-.031t.563-.013a5.656,5.656,0,0,1,1.793.264,3.8,3.8,0,0,1,1.34.751,3.151,3.151,0,0,1,.835,1.2A4.2,4.2,0,0,1,65.245-3.85ZM75.4-6.354a12.381,12.381,0,0,1-.286,2.8,6.533,6.533,0,0,1-.826,2.061A3.718,3.718,0,0,1,72.959-.215,3.633,3.633,0,0,1,71.171.22,3.393,3.393,0,0,1,69.479-.2a3.546,3.546,0,0,1-1.252-1.217,6.17,6.17,0,0,1-.773-1.964,12.146,12.146,0,0,1-.264-2.667,13.749,13.749,0,0,1,.277-2.918,6.674,6.674,0,0,1,.813-2.123,3.619,3.619,0,0,1,1.332-1.292,3.739,3.739,0,0,1,1.824-.435Q75.4-12.814,75.4-6.354Zm-1.477.141q0-5.379-2.558-5.379-2.7,0-2.7,5.476,0,5.106,2.646,5.106Q73.922-1.011,73.922-6.214ZM77.052-.325V-1.872A4.266,4.266,0,0,0,79.645-1q1.9,0,1.9-1.266a1.1,1.1,0,0,0-.163-.611,1.62,1.62,0,0,0-.439-.444,3.383,3.383,0,0,0-.65-.347q-.374-.154-.8-.321a10.357,10.357,0,0,1-1.05-.479,3.173,3.173,0,0,1-.756-.545,2.028,2.028,0,0,1-.457-.69,2.441,2.441,0,0,1-.154-.905,2.15,2.15,0,0,1,.29-1.121,2.572,2.572,0,0,1,.773-.817,3.607,3.607,0,0,1,1.1-.5,4.893,4.893,0,0,1,1.279-.167,5.164,5.164,0,0,1,2.092.4v1.459A4.077,4.077,0,0,0,80.322-8a2.671,2.671,0,0,0-.729.092,1.786,1.786,0,0,0-.558.259,1.2,1.2,0,0,0-.36.4,1.053,1.053,0,0,0-.127.514,1.233,1.233,0,0,0,.127.589,1.3,1.3,0,0,0,.374.422,2.855,2.855,0,0,0,.6.334q.352.149.8.325a11.131,11.131,0,0,1,1.072.47,3.678,3.678,0,0,1,.809.545,2.129,2.129,0,0,1,.514.7,2.254,2.254,0,0,1,.18.94,2.217,2.217,0,0,1-.294,1.16,2.523,2.523,0,0,1-.787.817,3.6,3.6,0,0,1-1.134.483,5.6,5.6,0,0,1-1.345.158A5.106,5.106,0,0,1,77.052-.325Zm8.923-10.96a.913.913,0,0,1-.659-.264.89.89,0,0,1-.272-.668.9.9,0,0,1,.272-.672.905.905,0,0,1,.659-.268.931.931,0,0,1,.672.268.9.9,0,0,1,.277.672.891.891,0,0,1-.277.659A.923.923,0,0,1,85.975-11.285ZM86.678,0H85.237V-9h1.441Zm10.39,0H95.627V-5.133Q95.627-8,93.535-8a2.269,2.269,0,0,0-1.789.813,3.013,3.013,0,0,0-.708,2.052V0H89.6V-9h1.441v1.494h.035a3.248,3.248,0,0,1,2.953-1.705,2.753,2.753,0,0,1,2.259.954A4.248,4.248,0,0,1,97.069-5.5Zm6.5,2.865h-1.283a11.232,11.232,0,0,1-2.725-7.673,11.658,11.658,0,0,1,2.725-7.8h1.3a11.845,11.845,0,0,0-2.76,7.778A11.638,11.638,0,0,0,103.566,2.865ZM114.3-7.831h-1.951v5.44q0,1.23.888,1.23a2.456,2.456,0,0,0,.773-.167V-.1a3.021,3.021,0,0,1-1.072.2q-2.039,0-2.039-2.435v-5.5h-3.419v5.37A7.806,7.806,0,0,1,107.2,0h-1.468a6.947,6.947,0,0,0,.316-2.461v-5.37a3.8,3.8,0,0,0-2.136.782V-8.367A3.041,3.041,0,0,1,106.063-9H114.3Zm6.383,7.743a2.779,2.779,0,0,1-1.345.281q-2.364,0-2.364-2.637V-7.77h-1.547V-9h1.547v-2.2l1.441-.466V-9h2.268v1.23h-2.268V-2.7a2.1,2.1,0,0,0,.308,1.292,1.228,1.228,0,0,0,1.02.387,1.515,1.515,0,0,0,.94-.3ZM128.295-12.6l-6.047,14.7H120.9l6.029-14.7ZM137.147-4a4.669,4.669,0,0,1-.3,1.7,4.078,4.078,0,0,1-.826,1.336,3.691,3.691,0,0,1-1.257.875,3.98,3.98,0,0,1-1.582.312,3.6,3.6,0,0,1-1.7-.4,3.6,3.6,0,0,1-1.274-1.138,5.459,5.459,0,0,1-.8-1.815,9.833,9.833,0,0,1-.272-2.417A11.358,11.358,0,0,1,129.5-8.53a7.249,7.249,0,0,1,1.037-2.294,4.781,4.781,0,0,1,1.622-1.472,4.345,4.345,0,0,1,2.118-.519,5.1,5.1,0,0,1,2.092.36v1.362a4.442,4.442,0,0,0-2.057-.5,3.065,3.065,0,0,0-1.521.378,3.492,3.492,0,0,0-1.16,1.068,5.209,5.209,0,0,0-.743,1.666,8.45,8.45,0,0,0-.259,2.171h.035a3.027,3.027,0,0,1,2.874-1.573,3.783,3.783,0,0,1,1.49.281,3.216,3.216,0,0,1,1.134.8,3.581,3.581,0,0,1,.725,1.226A4.667,4.667,0,0,1,137.147-4Zm-1.477.185A3.922,3.922,0,0,0,135.5-5a2.574,2.574,0,0,0-.479-.9,2.065,2.065,0,0,0-.769-.567,2.588,2.588,0,0,0-1.037-.2,2.428,2.428,0,0,0-.993.2,2.473,2.473,0,0,0-.791.549,2.545,2.545,0,0,0-.523.809,2.561,2.561,0,0,0-.189.98,3.909,3.909,0,0,0,.185,1.217,3.144,3.144,0,0,0,.519.989,2.466,2.466,0,0,0,.8.664,2.173,2.173,0,0,0,1.024.242,2.345,2.345,0,0,0,.993-.207A2.216,2.216,0,0,0,135-1.793a2.665,2.665,0,0,0,.492-.883A3.5,3.5,0,0,0,135.67-3.814Zm3.693,6.68H138.08a11.638,11.638,0,0,0,2.742-7.69,11.845,11.845,0,0,0-2.76-7.778h1.3a11.611,11.611,0,0,1,2.742,7.8A11.188,11.188,0,0,1,139.364,2.865Zm7.631,0h-3.226V1.819h1.942V-11.558h-1.942V-12.6h3.226Z" transform="translate(722 2765)" fill="#212429"/>
    <g id="Grupo_1177778" data-name="Grupo 1177778" transform="translate(-337 920)">
      <text id="d" transform="translate(1032.063 1832)" fill="#212429" font-size="18" font-family="SegoeUI-BoldItalic, Segoe UI" font-weight="700" font-style="italic" letter-spacing="0em"><tspan x="0" y="0">d</tspan></text>
      <text id="dx" transform="translate(1027.063 1858)" fill="#212429" font-size="18" font-family="SegoeUI-BoldItalic, Segoe UI" font-weight="700" font-style="italic" letter-spacing="0em"><tspan x="0" y="0">dx</tspan></text>
      <path id="Trazado_1038784" data-name="Trazado 1038784" d="M2526.533,1495h36.338" transform="translate(-1506.533 345)" fill="none" stroke="#212429" stroke-width="1"/>
    </g>
  </g>
</svg>
