<svg xmlns="http://www.w3.org/2000/svg" width="162.857" height="99.324" viewBox="0 0 162.857 99.324">
  <g id="Grupo_1177797" data-name="Grupo 1177797" transform="translate(-958.794 -2538.529)">
    <path id="Trazado_1039148" data-name="Trazado 1039148" d="M-25.367-4.342V0h-2.839V-12.6h4.447Q-19-12.6-19-8.587a3.854,3.854,0,0,1-1.367,3.072,5.414,5.414,0,0,1-3.652,1.173Zm0-6.082V-6.5h1.116q2.268,0,2.268-1.986,0-1.942-2.268-1.942Zm10.426-2.338v3.885h-2.109v-3.885ZM-6.819,2.865H-9.086a11.026,11.026,0,0,1-2.839-7.69A11.731,11.731,0,0,1-9.086-12.6h2.25A12.632,12.632,0,0,0-9.5-4.825,12.216,12.216,0,0,0-6.819,2.865ZM-.058-.105A4.105,4.105,0,0,1-1.913.22q-2.936,0-2.936-3.05V-6.952H-6.307V-9h1.459v-1.942l2.769-.791V-9H-.058v2.048H-2.08v3.639q0,1.406,1.116,1.406a1.882,1.882,0,0,0,.905-.255ZM2.747,2.865H.5a12.144,12.144,0,0,0,2.689-7.69A12.6,12.6,0,0,0,.5-12.6H2.765A11.731,11.731,0,0,1,5.613-4.825,11.047,11.047,0,0,1,2.747,2.865ZM22.606-6.152H14.045v-1.8h8.561Zm0,3.814H14.045V-4.122h8.561Z" transform="translate(987 2568.988)" fill="#212429"/>
    <path id="Trazado_1039149" data-name="Trazado 1039149" d="M-61.16-6.152H-69.72v-1.8h8.561Zm0,3.814H-69.72V-4.122h8.561Zm8.292,2.013V-2.7a5.181,5.181,0,0,0,2.751.791A2.584,2.584,0,0,0-48.4-2.43a1.76,1.76,0,0,0,.62-1.419q0-1.872-2.646-1.872a19.59,19.59,0,0,0-2.25.149L-52.2-12.6h6.671v2.268h-4.553l-.176,2.522q.677-.053,1.169-.053a4.3,4.3,0,0,1,3.041,1.02,3.56,3.56,0,0,1,1.1,2.742,4.048,4.048,0,0,1-1.31,3.116A5.032,5.032,0,0,1-49.809.22,7.6,7.6,0,0,1-52.868-.325ZM-38.654.22q-4.5,0-4.5-6.319a8.6,8.6,0,0,1,1.217-5,4.056,4.056,0,0,1,3.529-1.718q4.395,0,4.395,6.425a8.466,8.466,0,0,1-1.2,4.9A3.952,3.952,0,0,1-38.654.22Zm.123-10.916q-1.8,0-1.8,4.526,0,4.263,1.767,4.263,1.723,0,1.723-4.395T-38.531-10.7ZM-28.3.22q-4.5,0-4.5-6.319a8.6,8.6,0,0,1,1.217-5,4.056,4.056,0,0,1,3.529-1.718q4.395,0,4.395,6.425a8.466,8.466,0,0,1-1.2,4.9A3.952,3.952,0,0,1-28.3.22Zm.123-10.916q-1.8,0-1.8,4.526,0,4.263,1.767,4.263,1.723,0,1.723-4.395T-28.176-10.7ZM-7.448-2.18-8.722-.914-11.693-3.9-14.681-.914-15.955-2.2l2.988-2.953-2.988-2.988,1.239-1.274,3.023,2.988,3.006-2.988,1.222,1.327L-10.436-5.15ZM6.109,2.865H3.841A11.026,11.026,0,0,1,1-4.825,11.731,11.731,0,0,1,3.841-12.6h2.25A12.632,12.632,0,0,0,3.428-4.825,12.216,12.216,0,0,0,6.109,2.865ZM10.03-2.3h5.344V0H6.989V-.949a4.418,4.418,0,0,1,.325-1.736,5.76,5.76,0,0,1,.817-1.38A7.09,7.09,0,0,1,9.209-5.146q.584-.47,1.112-.848.554-.4.971-.756a5.534,5.534,0,0,0,.7-.716,2.723,2.723,0,0,0,.426-.721,2.143,2.143,0,0,0,.141-.778,1.563,1.563,0,0,0-.457-1.222,2.032,2.032,0,0,0-1.4-.413A4.694,4.694,0,0,0,7.6-9.308v-2.443A6.679,6.679,0,0,1,11.3-12.814a5.478,5.478,0,0,1,1.718.25,3.635,3.635,0,0,1,1.288.716,3.055,3.055,0,0,1,.8,1.129,3.811,3.811,0,0,1,.277,1.481,4.176,4.176,0,0,1-.268,1.547,4.753,4.753,0,0,1-.712,1.23,6.458,6.458,0,0,1-1.024,1.015q-.58.461-1.2.892-.422.3-.813.593a7.707,7.707,0,0,0-.69.58,3.149,3.149,0,0,0-.475.558A.963.963,0,0,0,10.03-2.3ZM24.807-12.6l-6.144,14.7H16.185L22.3-12.6Zm.819,12.19V-2.83a4.878,4.878,0,0,0,2.953.923,2.659,2.659,0,0,0,1.657-.457,1.517,1.517,0,0,0,.593-1.274,1.449,1.449,0,0,0-.734-1.3A3.8,3.8,0,0,0,28.078-5.4H26.909V-7.523H27.99q2.461,0,2.461-1.635,0-1.538-1.89-1.538a4.308,4.308,0,0,0-2.461.817v-2.268a6.8,6.8,0,0,1,3.094-.668,4.669,4.669,0,0,1,3.01.87,2.769,2.769,0,0,1,1.077,2.259,2.937,2.937,0,0,1-2.5,3.094v.044a3.405,3.405,0,0,1,2.109.971A2.738,2.738,0,0,1,33.659-3.6,3.382,3.382,0,0,1,32.367-.809,5.586,5.586,0,0,1,28.8.22,6.9,6.9,0,0,1,25.626-.413ZM37.361,2.865h-2.25A12.144,12.144,0,0,0,37.8-4.825,12.6,12.6,0,0,0,35.111-12.6h2.268a11.731,11.731,0,0,1,2.848,7.778A11.047,11.047,0,0,1,37.361,2.865ZM48.209-.105A4.105,4.105,0,0,1,46.354.22q-2.936,0-2.936-3.05V-6.952H41.96V-9h1.459v-1.942l2.769-.791V-9h2.021v2.048H46.187v3.639q0,1.406,1.116,1.406a1.882,1.882,0,0,0,.905-.255Zm5.653-3.727H49.054V-5.774h4.808Zm5.48-9.684V-6H57.727v-5.691a1.934,1.934,0,0,1-.315.223,3.255,3.255,0,0,1-.387.19,3.456,3.456,0,0,1-.426.144,3.108,3.108,0,0,1-.436.085v-1.364a6.736,6.736,0,0,0,1.189-.472,6.769,6.769,0,0,0,1.01-.631Zm6.553.164L62.311-4.78H60.865l3.568-8.572Zm.478,7.111v-1.41a2.846,2.846,0,0,0,1.723.538,1.551,1.551,0,0,0,.966-.267.885.885,0,0,0,.346-.743.845.845,0,0,0-.428-.759A2.218,2.218,0,0,0,67.8-9.148h-.682v-1.241h.631q1.435,0,1.435-.954,0-.9-1.1-.9a2.513,2.513,0,0,0-1.435.477v-1.323a3.965,3.965,0,0,1,1.8-.39,2.723,2.723,0,0,1,1.756.508,1.615,1.615,0,0,1,.628,1.318,1.713,1.713,0,0,1-1.461,1.8v.026a1.986,1.986,0,0,1,1.23.566A1.6,1.6,0,0,1,71.058-8.1a1.972,1.972,0,0,1-.754,1.63,3.258,3.258,0,0,1-2.081.6A4.023,4.023,0,0,1,66.373-6.241Z" transform="translate(1033 2607.988)" fill="#212429"/>
    <path id="Trazado_1039150" data-name="Trazado 1039150" d="M-48.715-6.152h-8.561v-1.8h8.561Zm0,3.814h-8.561V-4.122h8.561Zm13.539,5.2h-2.268a11.026,11.026,0,0,1-2.839-7.69A11.731,11.731,0,0,1-37.444-12.6h2.25a12.632,12.632,0,0,0-2.663,7.778A12.216,12.216,0,0,0-35.177,2.865Zm7.464-15.75V0h-2.769V-9.756a3.315,3.315,0,0,1-.541.382,5.58,5.58,0,0,1-.664.325,5.925,5.925,0,0,1-.729.246,5.328,5.328,0,0,1-.747.145V-11a11.549,11.549,0,0,0,2.039-.809,11.6,11.6,0,0,0,1.731-1.081ZM-19.564.22q-4.5,0-4.5-6.319a8.6,8.6,0,0,1,1.217-5,4.056,4.056,0,0,1,3.529-1.718q4.395,0,4.395,6.425a8.466,8.466,0,0,1-1.2,4.9A3.952,3.952,0,0,1-19.564.22Zm.123-10.916q-1.8,0-1.8,4.526,0,4.263,1.767,4.263,1.723,0,1.723-4.395T-19.441-10.7ZM-9.208.22q-4.5,0-4.5-6.319a8.6,8.6,0,0,1,1.217-5,4.056,4.056,0,0,1,3.529-1.718q4.395,0,4.395,6.425a8.466,8.466,0,0,1-1.2,4.9A3.952,3.952,0,0,1-9.208.22ZM-9.085-10.7q-1.8,0-1.8,4.526,0,4.263,1.767,4.263Q-7.4-1.907-7.4-6.3T-9.085-10.7ZM1.147.22q-4.5,0-4.5-6.319a8.6,8.6,0,0,1,1.217-5,4.056,4.056,0,0,1,3.529-1.718q4.395,0,4.395,6.425a8.466,8.466,0,0,1-1.2,4.9A3.952,3.952,0,0,1,1.147.22ZM1.27-10.7q-1.8,0-1.8,4.526,0,4.263,1.767,4.263,1.723,0,1.723-4.395T1.27-10.7ZM14.587-12.6,8.444,2.092H5.965l6.117-14.7Zm.819,12.19V-2.83a4.878,4.878,0,0,0,2.953.923,2.659,2.659,0,0,0,1.657-.457,1.517,1.517,0,0,0,.593-1.274,1.449,1.449,0,0,0-.734-1.3A3.8,3.8,0,0,0,17.859-5.4H16.69V-7.523h1.081q2.461,0,2.461-1.635,0-1.538-1.89-1.538a4.308,4.308,0,0,0-2.461.817v-2.268a6.8,6.8,0,0,1,3.094-.668,4.669,4.669,0,0,1,3.01.87,2.769,2.769,0,0,1,1.077,2.259,2.937,2.937,0,0,1-2.5,3.094v.044a3.405,3.405,0,0,1,2.109.971A2.738,2.738,0,0,1,23.44-3.6,3.382,3.382,0,0,1,22.148-.809,5.586,5.586,0,0,1,18.579.22,6.9,6.9,0,0,1,15.406-.413ZM27.142,2.865h-2.25a12.144,12.144,0,0,0,2.689-7.69A12.6,12.6,0,0,0,24.892-12.6h2.268a11.731,11.731,0,0,1,2.848,7.778A11.047,11.047,0,0,1,27.142,2.865ZM37.989-.105A4.105,4.105,0,0,1,36.135.22Q33.2.22,33.2-2.83V-6.952H31.74V-9H33.2v-1.942l2.769-.791V-9h2.021v2.048H35.968v3.639q0,1.406,1.116,1.406a1.882,1.882,0,0,0,.905-.255Zm3.935-8.13h-2.8V-9.368h2.8Zm4.974-5.28V-6H45.283v-5.691a1.934,1.934,0,0,1-.315.223,3.255,3.255,0,0,1-.387.19,3.456,3.456,0,0,1-.426.144,3.108,3.108,0,0,1-.436.085v-1.364a6.736,6.736,0,0,0,1.189-.472,6.769,6.769,0,0,0,1.01-.631Zm6.553.164L49.867-4.78H48.421l3.568-8.572Zm.478,7.111v-1.41a2.846,2.846,0,0,0,1.723.538,1.551,1.551,0,0,0,.966-.267.885.885,0,0,0,.346-.743.845.845,0,0,0-.428-.759,2.218,2.218,0,0,0-1.177-.267h-.682v-1.241h.631q1.435,0,1.435-.954,0-.9-1.1-.9a2.513,2.513,0,0,0-1.435.477v-1.323a3.965,3.965,0,0,1,1.8-.39,2.723,2.723,0,0,1,1.756.508,1.615,1.615,0,0,1,.628,1.318,1.713,1.713,0,0,1-1.461,1.8v.026a1.986,1.986,0,0,1,1.23.566A1.6,1.6,0,0,1,58.614-8.1a1.972,1.972,0,0,1-.754,1.63,3.258,3.258,0,0,1-2.081.6A4.023,4.023,0,0,1,53.928-6.241Z" transform="translate(1033 2634.988)" fill="#212429"/>
    <path id="Trazado_1039151" data-name="Trazado 1039151" d="M-26.156-.325V-2.7a5.181,5.181,0,0,0,2.751.791,2.584,2.584,0,0,0,1.718-.523,1.76,1.76,0,0,0,.62-1.419q0-1.872-2.646-1.872a19.59,19.59,0,0,0-2.25.149l.475-7.031h6.671v2.268H-23.37l-.176,2.522q.677-.053,1.169-.053a4.3,4.3,0,0,1,3.041,1.02,3.56,3.56,0,0,1,1.1,2.742,4.048,4.048,0,0,1-1.31,3.116A5.032,5.032,0,0,1-23.1.22,7.6,7.6,0,0,1-26.156-.325ZM-11.942.22q-4.5,0-4.5-6.319a8.6,8.6,0,0,1,1.217-5A4.056,4.056,0,0,1-11.7-12.814q4.395,0,4.395,6.425a8.466,8.466,0,0,1-1.2,4.9A3.952,3.952,0,0,1-11.942.22Zm.123-10.916q-1.8,0-1.8,4.526,0,4.263,1.767,4.263,1.723,0,1.723-4.395T-11.819-10.7ZM-1.587.22q-4.5,0-4.5-6.319a8.6,8.6,0,0,1,1.217-5,4.056,4.056,0,0,1,3.529-1.718q4.395,0,4.395,6.425a8.466,8.466,0,0,1-1.2,4.9A3.952,3.952,0,0,1-1.587.22ZM-1.464-10.7q-1.8,0-1.8,4.526,0,4.263,1.767,4.263Q.224-1.907.224-6.3T-1.464-10.7ZM10.271-.105A4.105,4.105,0,0,1,8.417.22Q5.481.22,5.481-2.83V-6.952H4.022V-9H5.481v-1.942l2.769-.791V-9h2.021v2.048H8.25v3.639q0,1.406,1.116,1.406a1.882,1.882,0,0,0,.905-.255Zm2.6-7.238h3.117V-6H11.094v-.554a2.577,2.577,0,0,1,.19-1.013,3.36,3.36,0,0,1,.477-.8A4.136,4.136,0,0,1,12.389-9q.341-.274.649-.495.323-.231.566-.441a3.228,3.228,0,0,0,.41-.418,1.588,1.588,0,0,0,.249-.42,1.25,1.25,0,0,0,.082-.454.912.912,0,0,0-.267-.713,1.185,1.185,0,0,0-.815-.241,2.738,2.738,0,0,0-1.815.754v-1.425a3.9,3.9,0,0,1,2.163-.62,3.2,3.2,0,0,1,1,.146,2.12,2.12,0,0,1,.751.418,1.782,1.782,0,0,1,.469.659,2.223,2.223,0,0,1,.161.864,2.436,2.436,0,0,1-.156.9,2.773,2.773,0,0,1-.415.718,3.767,3.767,0,0,1-.6.592q-.338.269-.7.52-.246.174-.474.346a4.5,4.5,0,0,0-.4.338,1.837,1.837,0,0,0-.277.326A.562.562,0,0,0,12.868-7.343Zm8.619-6.008L17.9-4.78H16.458l3.568-8.572Zm.478,7.111v-1.41a2.846,2.846,0,0,0,1.723.538,1.551,1.551,0,0,0,.966-.267A.885.885,0,0,0,25-8.122a.845.845,0,0,0-.428-.759A2.218,2.218,0,0,0,23.4-9.148h-.682v-1.241h.631q1.435,0,1.435-.954,0-.9-1.1-.9a2.513,2.513,0,0,0-1.435.477v-1.323a3.965,3.965,0,0,1,1.8-.39,2.723,2.723,0,0,1,1.756.508,1.615,1.615,0,0,1,.628,1.318,1.713,1.713,0,0,1-1.461,1.8v.026a1.986,1.986,0,0,1,1.23.566A1.6,1.6,0,0,1,26.65-8.1a1.972,1.972,0,0,1-.754,1.63,3.258,3.258,0,0,1-2.081.6A4.023,4.023,0,0,1,21.965-6.241Z" transform="translate(1095 2568.988)" fill="#212429"/>
    <g id="Grupo_1177705" data-name="Grupo 1177705" transform="translate(0 725.529)">
      <text id="d" transform="translate(1032.063 1832)" fill="#212429" font-size="18" font-family="SegoeUI-BoldItalic, Segoe UI" font-weight="700" font-style="italic" letter-spacing="0em"><tspan x="0" y="0">d</tspan></text>
      <text id="dt" transform="translate(1027.063 1858)" fill="#212429" font-size="18" font-family="SegoeUI-BoldItalic, Segoe UI" font-weight="700" font-style="italic" letter-spacing="0em"><tspan x="0" y="0">d</tspan><tspan y="0" font-size="10.499" baseline-shift="5.999400079342301">t</tspan></text>
      <path id="Trazado_1038784" data-name="Trazado 1038784" d="M2526.533,1495h36.338" transform="translate(-1506.533 345)" fill="none" stroke="#212429" stroke-width="1"/>
    </g>
  </g>
</svg>
