<svg xmlns="http://www.w3.org/2000/svg" width="358.07" height="106" viewBox="0 0 358.07 106">
  <g id="Grupo_1177794" data-name="Grupo 1177794" transform="translate(-410 -3213.232)">
    <path id="Trazado_1039134" data-name="Trazado 1039134" d="M11,2.865H6.875V-12.6H11v1.767H9.16V1.1H11ZM18.654-11.2a2.806,2.806,0,0,0-1.028-.211q-1.336,0-1.336,1.45V-9h2.057v2.048H16.29V0H13.521V-6.952H12.009V-9h1.512v-1.116a3.24,3.24,0,0,1,1-2.479,3.821,3.821,0,0,1,2.725-.94,4.785,4.785,0,0,1,1.406.176ZM25.01,2.865H22.743A11.026,11.026,0,0,1,19.9-4.825,11.731,11.731,0,0,1,22.743-12.6h2.25A12.632,12.632,0,0,0,22.33-4.825,12.216,12.216,0,0,0,25.01,2.865ZM35.023-9,32.052-4.641,35.005,0h-3.2l-1.3-2.426q-.158-.29-.378-.817h-.035a5.707,5.707,0,0,1-.36.791L28.422,0h-3.19l3.041-4.482L25.416-9h3.217l1.283,2.522a5.532,5.532,0,0,1,.36.844h.035A5.946,5.946,0,0,1,30.69-6.5L32-9ZM37.512,2.865h-2.25a12.144,12.144,0,0,0,2.689-7.69A12.6,12.6,0,0,0,35.262-12.6H37.53a11.731,11.731,0,0,1,2.848,7.778A11.047,11.047,0,0,1,37.512,2.865ZM57.37-4.263H53.986V-.879H52.211V-4.263h-3.4V-6.047h3.4v-3.4h1.775v3.4H57.37ZM74.407-1.028a5.092,5.092,0,0,1-1.45,3.88,5.877,5.877,0,0,1-4.2,1.375,6.659,6.659,0,0,1-2.883-.519V1.371a5.521,5.521,0,0,0,2.8.809,3.02,3.02,0,0,0,2.18-.743A2.665,2.665,0,0,0,71.629-.58v-.712h-.035A3.1,3.1,0,0,1,68.791.22,3.372,3.372,0,0,1,66.057-.993a4.919,4.919,0,0,1-1.011-3.252,5.478,5.478,0,0,1,1.125-3.63A3.673,3.673,0,0,1,69.133-9.22a2.733,2.733,0,0,1,2.461,1.266h.035V-9h2.777Zm-2.742-3.3v-.712a2.188,2.188,0,0,0-.505-1.455,1.635,1.635,0,0,0-1.314-.6,1.7,1.7,0,0,0-1.45.721,3.389,3.389,0,0,0-.527,2.03,2.86,2.86,0,0,0,.5,1.78,1.633,1.633,0,0,0,1.371.655,1.7,1.7,0,0,0,1.393-.664A2.721,2.721,0,0,0,71.665-4.324Zm10.39,7.189H79.788a11.026,11.026,0,0,1-2.839-7.69A11.731,11.731,0,0,1,79.788-12.6h2.25a12.632,12.632,0,0,0-2.663,7.778A12.216,12.216,0,0,0,82.055,2.865ZM92.068-9,89.1-4.641,92.05,0h-3.2l-1.3-2.426q-.158-.29-.378-.817h-.035a5.707,5.707,0,0,1-.36.791L85.467,0h-3.19l3.041-4.482L82.461-9h3.217l1.283,2.522a5.532,5.532,0,0,1,.36.844h.035a5.946,5.946,0,0,1,.378-.861L89.044-9ZM94.557,2.865h-2.25A12.144,12.144,0,0,0,95-4.825,12.6,12.6,0,0,0,92.307-12.6h2.268a11.731,11.731,0,0,1,2.848,7.778A11.047,11.047,0,0,1,94.557,2.865Zm8.993,0H99.41V1.1h1.854V-10.837H99.41V-12.6h4.14Zm17.511-9.018H112.5v-1.8h8.561Zm0,3.814H112.5V-4.122h8.561Z" transform="translate(459.062 3243.232)" fill="#212429"/>
    <path id="Trazado_1039135" data-name="Trazado 1039135" d="M7.04-11.2a2.806,2.806,0,0,0-1.028-.211q-1.336,0-1.336,1.45V-9H6.732v2.048H4.676V0H1.907V-6.952H.4V-9H1.907v-1.116a3.24,3.24,0,0,1,1-2.479,3.821,3.821,0,0,1,2.725-.94,4.785,4.785,0,0,1,1.406.176ZM13.4,2.865H11.129A11.026,11.026,0,0,1,8.29-4.825,11.731,11.731,0,0,1,11.129-12.6h2.25a12.632,12.632,0,0,0-2.663,7.778A12.216,12.216,0,0,0,13.4,2.865ZM23.409-9,20.438-4.641,23.391,0h-3.2l-1.3-2.426q-.158-.29-.378-.817h-.035a5.707,5.707,0,0,1-.36.791L16.808,0h-3.19l3.041-4.482L13.8-9h3.217L18.3-6.478a5.532,5.532,0,0,1,.36.844H18.7a5.946,5.946,0,0,1,.378-.861L20.385-9ZM25.9,2.865h-2.25a12.144,12.144,0,0,0,2.689-7.69A12.6,12.6,0,0,0,23.648-12.6h2.268a11.731,11.731,0,0,1,2.848,7.778A11.047,11.047,0,0,1,25.9,2.865ZM45.756-4.263H42.372V-.879H40.6V-4.263H37.2V-6.047h3.4v-3.4h1.775v3.4h3.384Z" transform="translate(635.062 3243.232)" fill="#212429"/>
    <path id="Trazado_1039136" data-name="Trazado 1039136" d="M9.993-1.028a5.092,5.092,0,0,1-1.45,3.88,5.877,5.877,0,0,1-4.2,1.375,6.659,6.659,0,0,1-2.883-.519V1.371a5.521,5.521,0,0,0,2.8.809,3.02,3.02,0,0,0,2.18-.743A2.665,2.665,0,0,0,7.216-.58v-.712H7.181A3.1,3.1,0,0,1,4.377.22,3.372,3.372,0,0,1,1.644-.993,4.919,4.919,0,0,1,.633-4.245a5.478,5.478,0,0,1,1.125-3.63A3.673,3.673,0,0,1,4.72-9.22,2.733,2.733,0,0,1,7.181-7.954h.035V-9H9.993Zm-2.742-3.3v-.712a2.188,2.188,0,0,0-.505-1.455,1.635,1.635,0,0,0-1.314-.6,1.7,1.7,0,0,0-1.45.721,3.389,3.389,0,0,0-.527,2.03,2.86,2.86,0,0,0,.5,1.78,1.633,1.633,0,0,0,1.371.655,1.7,1.7,0,0,0,1.393-.664A2.721,2.721,0,0,0,7.251-4.324Zm10.39,7.189H15.374a11.026,11.026,0,0,1-2.839-7.69A11.731,11.731,0,0,1,15.374-12.6h2.25a12.632,12.632,0,0,0-2.663,7.778A12.216,12.216,0,0,0,17.641,2.865ZM27.654-9,24.683-4.641,27.636,0h-3.2l-1.3-2.426q-.158-.29-.378-.817h-.035a5.707,5.707,0,0,1-.36.791L21.053,0h-3.19L20.9-4.482,18.048-9h3.217l1.283,2.522a5.532,5.532,0,0,1,.36.844h.035a5.946,5.946,0,0,1,.378-.861L24.631-9ZM30.143,2.865h-2.25a12.144,12.144,0,0,0,2.689-7.69A12.6,12.6,0,0,0,27.893-12.6h2.268a11.731,11.731,0,0,1,2.848,7.778A11.047,11.047,0,0,1,30.143,2.865Z" transform="translate(735.062 3243.232)" fill="#212429"/>
    <g id="Grupo_1177709" data-name="Grupo 1177709" transform="translate(141.999 9.232)">
      <text id="d" transform="translate(280.063 3223)" fill="#212429" font-size="18" font-family="SegoeUI-BoldItalic, Segoe UI" font-weight="700" font-style="italic" letter-spacing="0em"><tspan x="0" y="0">d</tspan></text>
      <text id="dx" transform="translate(275.063 3249)" fill="#212429" font-size="18" font-family="SegoeUI-BoldItalic, Segoe UI" font-weight="700" font-style="italic" letter-spacing="0em"><tspan x="0" y="0">dx</tspan></text>
      <path id="Trazado_1038783" data-name="Trazado 1038783" d="M2526.533,1495h36.338" transform="translate(-2258.532 1736)" fill="none" stroke="#212429" stroke-width="1"/>
    </g>
    <g id="Grupo_1177710" data-name="Grupo 1177710" transform="translate(319.999 9.232)">
      <text id="d-2" data-name="d" transform="translate(280.063 3223)" fill="#212429" font-size="18" font-family="SegoeUI-BoldItalic, Segoe UI" font-weight="700" font-style="italic" letter-spacing="0em"><tspan x="0" y="0">d</tspan></text>
      <text id="dx-2" data-name="dx" transform="translate(275.063 3249)" fill="#212429" font-size="18" font-family="SegoeUI-BoldItalic, Segoe UI" font-weight="700" font-style="italic" letter-spacing="0em"><tspan x="0" y="0">dx</tspan></text>
      <path id="Trazado_1038783-2" data-name="Trazado 1038783" d="M2526.533,1495h36.338" transform="translate(-2258.532 1736)" fill="none" stroke="#212429" stroke-width="1"/>
    </g>
    <g id="Grupo_1177711" data-name="Grupo 1177711" transform="translate(417.999 9.232)">
      <text id="d-3" data-name="d" transform="translate(280.063 3223)" fill="#212429" font-size="18" font-family="SegoeUI-BoldItalic, Segoe UI" font-weight="700" font-style="italic" letter-spacing="0em"><tspan x="0" y="0">d</tspan></text>
      <text id="dx-3" data-name="dx" transform="translate(275.063 3249)" fill="#212429" font-size="18" font-family="SegoeUI-BoldItalic, Segoe UI" font-weight="700" font-style="italic" letter-spacing="0em"><tspan x="0" y="0">d</tspan><tspan y="0" font-size="10.499" baseline-shift="5.999400079342301">x</tspan></text>
      <path id="Trazado_1038783-3" data-name="Trazado 1038783" d="M2526.533,1495h36.338" transform="translate(-2258.532 1736)" fill="none" stroke="#212429" stroke-width="1"/>
    </g>
    <path id="Trazado_1039137" data-name="Trazado 1039137" d="M6.029,2.865H1.907V-12.6H6.029v1.767H4.192V1.1H6.029ZM13.686-11.2a2.806,2.806,0,0,0-1.028-.211q-1.336,0-1.336,1.45V-9h2.057v2.048H11.322V0H8.554V-6.952H7.042V-9H8.554v-1.116a3.24,3.24,0,0,1,1-2.479,3.821,3.821,0,0,1,2.725-.94,4.785,4.785,0,0,1,1.406.176ZM20.043,2.865H17.775a11.026,11.026,0,0,1-2.839-7.69A11.731,11.731,0,0,1,17.775-12.6h2.25a12.632,12.632,0,0,0-2.663,7.778A12.216,12.216,0,0,0,20.043,2.865ZM30.055-9,27.085-4.641,30.038,0h-3.2l-1.3-2.426q-.158-.29-.378-.817h-.035a5.707,5.707,0,0,1-.36.791L23.455,0h-3.19l3.041-4.482L20.449-9h3.217l1.283,2.522a5.532,5.532,0,0,1,.36.844h.035a5.946,5.946,0,0,1,.378-.861L27.032-9ZM32.544,2.865h-2.25a12.144,12.144,0,0,0,2.689-7.69A12.6,12.6,0,0,0,30.294-12.6h2.268A11.731,11.731,0,0,1,35.41-4.825,11.047,11.047,0,0,1,32.544,2.865Zm15.27-6.7H43.007V-5.774h4.808Zm16.175,2.8a5.092,5.092,0,0,1-1.45,3.88,5.877,5.877,0,0,1-4.2,1.375,6.659,6.659,0,0,1-2.883-.519V1.371a5.521,5.521,0,0,0,2.8.809,3.02,3.02,0,0,0,2.18-.743A2.665,2.665,0,0,0,61.213-.58v-.712h-.035A3.1,3.1,0,0,1,58.374.22,3.372,3.372,0,0,1,55.64-.993,4.919,4.919,0,0,1,54.63-4.245a5.478,5.478,0,0,1,1.125-3.63A3.673,3.673,0,0,1,58.717-9.22a2.733,2.733,0,0,1,2.461,1.266h.035V-9H63.99Zm-2.742-3.3v-.712a2.188,2.188,0,0,0-.505-1.455,1.635,1.635,0,0,0-1.314-.6,1.7,1.7,0,0,0-1.45.721,3.389,3.389,0,0,0-.527,2.03,2.86,2.86,0,0,0,.5,1.78,1.633,1.633,0,0,0,1.371.655,1.7,1.7,0,0,0,1.393-.664A2.721,2.721,0,0,0,61.248-4.324Zm10.39,7.189H69.371a11.026,11.026,0,0,1-2.839-7.69A11.731,11.731,0,0,1,69.371-12.6h2.25a12.632,12.632,0,0,0-2.663,7.778A12.216,12.216,0,0,0,71.638,2.865ZM81.651-9,78.68-4.641,81.633,0h-3.2l-1.3-2.426q-.158-.29-.378-.817H76.72a5.707,5.707,0,0,1-.36.791L75.05,0H71.86L74.9-4.482,72.044-9h3.217l1.283,2.522a5.532,5.532,0,0,1,.36.844h.035a5.946,5.946,0,0,1,.378-.861L78.627-9ZM84.14,2.865H81.89a12.144,12.144,0,0,0,2.689-7.69A12.6,12.6,0,0,0,81.89-12.6h2.268a11.731,11.731,0,0,1,2.848,7.778A11.047,11.047,0,0,1,84.14,2.865Zm8.993,0h-4.14V1.1h1.854V-10.837H88.993V-12.6h4.14Zm17.511-9.018h-8.561v-1.8h8.561Zm0,3.814h-8.561V-4.122h8.561Z" transform="translate(459.062 3299.232)" fill="#212429"/>
    <path id="Trazado_1039138" data-name="Trazado 1039138" d="M7.04-11.2a2.806,2.806,0,0,0-1.028-.211q-1.336,0-1.336,1.45V-9H6.732v2.048H4.676V0H1.907V-6.952H.4V-9H1.907v-1.116a3.24,3.24,0,0,1,1-2.479,3.821,3.821,0,0,1,2.725-.94,4.785,4.785,0,0,1,1.406.176ZM13.4,2.865H11.129A11.026,11.026,0,0,1,8.29-4.825,11.731,11.731,0,0,1,11.129-12.6h2.25a12.632,12.632,0,0,0-2.663,7.778A12.216,12.216,0,0,0,13.4,2.865ZM23.409-9,20.438-4.641,23.391,0h-3.2l-1.3-2.426q-.158-.29-.378-.817h-.035a5.707,5.707,0,0,1-.36.791L16.808,0h-3.19l3.041-4.482L13.8-9h3.217L18.3-6.478a5.532,5.532,0,0,1,.36.844H18.7a5.946,5.946,0,0,1,.378-.861L20.385-9ZM25.9,2.865h-2.25a12.144,12.144,0,0,0,2.689-7.69A12.6,12.6,0,0,0,23.648-12.6h2.268a11.731,11.731,0,0,1,2.848,7.778A11.047,11.047,0,0,1,25.9,2.865Zm15.27-6.7H36.361V-5.774h4.808Z" transform="translate(635.062 3299.232)" fill="#212429"/>
    <path id="Trazado_1039139" data-name="Trazado 1039139" d="M9.993-1.028a5.092,5.092,0,0,1-1.45,3.88,5.877,5.877,0,0,1-4.2,1.375,6.659,6.659,0,0,1-2.883-.519V1.371a5.521,5.521,0,0,0,2.8.809,3.02,3.02,0,0,0,2.18-.743A2.665,2.665,0,0,0,7.216-.58v-.712H7.181A3.1,3.1,0,0,1,4.377.22,3.372,3.372,0,0,1,1.644-.993,4.919,4.919,0,0,1,.633-4.245a5.478,5.478,0,0,1,1.125-3.63A3.673,3.673,0,0,1,4.72-9.22,2.733,2.733,0,0,1,7.181-7.954h.035V-9H9.993Zm-2.742-3.3v-.712a2.188,2.188,0,0,0-.505-1.455,1.635,1.635,0,0,0-1.314-.6,1.7,1.7,0,0,0-1.45.721,3.389,3.389,0,0,0-.527,2.03,2.86,2.86,0,0,0,.5,1.78,1.633,1.633,0,0,0,1.371.655,1.7,1.7,0,0,0,1.393-.664A2.721,2.721,0,0,0,7.251-4.324Zm10.39,7.189H15.374a11.026,11.026,0,0,1-2.839-7.69A11.731,11.731,0,0,1,15.374-12.6h2.25a12.632,12.632,0,0,0-2.663,7.778A12.216,12.216,0,0,0,17.641,2.865ZM27.654-9,24.683-4.641,27.636,0h-3.2l-1.3-2.426q-.158-.29-.378-.817h-.035a5.707,5.707,0,0,1-.36.791L21.053,0h-3.19L20.9-4.482,18.048-9h3.217l1.283,2.522a5.532,5.532,0,0,1,.36.844h.035a5.946,5.946,0,0,1,.378-.861L24.631-9ZM30.143,2.865h-2.25a12.144,12.144,0,0,0,2.689-7.69A12.6,12.6,0,0,0,27.893-12.6h2.268a11.731,11.731,0,0,1,2.848,7.778A11.047,11.047,0,0,1,30.143,2.865Z" transform="translate(735.062 3299.232)" fill="#212429"/>
    <g id="Grupo_1177709-2" data-name="Grupo 1177709" transform="translate(141.999 65.232)">
      <text id="d-4" data-name="d" transform="translate(280.063 3223)" fill="#212429" font-size="18" font-family="SegoeUI-BoldItalic, Segoe UI" font-weight="700" font-style="italic" letter-spacing="0em"><tspan x="0" y="0">d</tspan></text>
      <text id="dx-4" data-name="dx" transform="translate(275.063 3249)" fill="#212429" font-size="18" font-family="SegoeUI-BoldItalic, Segoe UI" font-weight="700" font-style="italic" letter-spacing="0em"><tspan x="0" y="0">d</tspan><tspan y="0" font-size="10.499" baseline-shift="5.999400079342301">x</tspan></text>
      <path id="Trazado_1038783-4" data-name="Trazado 1038783" d="M2526.533,1495h36.338" transform="translate(-2258.532 1736)" fill="none" stroke="#212429" stroke-width="1"/>
    </g>
    <g id="Grupo_1177710-2" data-name="Grupo 1177710" transform="translate(319.999 65.232)">
      <text id="d-5" data-name="d" transform="translate(280.063 3223)" fill="#212429" font-size="18" font-family="SegoeUI-BoldItalic, Segoe UI" font-weight="700" font-style="italic" letter-spacing="0em"><tspan x="0" y="0">d</tspan></text>
      <text id="dx-5" data-name="dx" transform="translate(275.063 3249)" fill="#212429" font-size="18" font-family="SegoeUI-BoldItalic, Segoe UI" font-weight="700" font-style="italic" letter-spacing="0em"><tspan x="0" y="0">dx</tspan></text>
      <path id="Trazado_1038783-5" data-name="Trazado 1038783" d="M2526.533,1495h36.338" transform="translate(-2258.532 1736)" fill="none" stroke="#212429" stroke-width="1"/>
    </g>
    <g id="Grupo_1177711-2" data-name="Grupo 1177711" transform="translate(417.999 65.232)">
      <text id="d-6" data-name="d" transform="translate(280.063 3223)" fill="#212429" font-size="18" font-family="SegoeUI-BoldItalic, Segoe UI" font-weight="700" font-style="italic" letter-spacing="0em"><tspan x="0" y="0">d</tspan></text>
      <text id="dx-6" data-name="dx" transform="translate(275.063 3249)" fill="#212429" font-size="18" font-family="SegoeUI-BoldItalic, Segoe UI" font-weight="700" font-style="italic" letter-spacing="0em"><tspan x="0" y="0">dx</tspan></text>
      <path id="Trazado_1038783-6" data-name="Trazado 1038783" d="M2526.533,1495h36.338" transform="translate(-2258.532 1736)" fill="none" stroke="#212429" stroke-width="1"/>
    </g>
  </g>
</svg>
